<svg width="962" height="824" viewBox="0 0 962 824" fill="none" xmlns="http://www.w3.org/2000/svg">
<path d="M593.168 39.0927C492.483 -28.1403 330.032 -0.0437841 317.958 91.6689" stroke="white" stroke-width="3.36605" stroke-dasharray="16.83 16.83"/>
<path d="M321.195 140.27C366.626 227.475 575.816 167.227 610.968 221.444" stroke="white" stroke-width="3.36605" stroke-dasharray="16.83 16.83"/>
<path d="M308.341 323.073C365.239 211.512 574.708 412.666 603.738 276.755" stroke="white" stroke-width="3.36605" stroke-dasharray="16.83 16.83"/>
<path d="M763.723 419.263C641.537 279.402 350.976 533.171 308.081 382.154" stroke="white" stroke-width="3.36605" stroke-dasharray="16.83 16.83"/>
<path d="M421.73 591.133C320.788 371.326 778.543 676.157 773.611 488.832" stroke="white" stroke-width="3.36605" stroke-dasharray="16.83 16.83"/>
<path d="M147.183 734.007C205.242 571.706 569.841 845.845 471.729 644.905" stroke="white" stroke-width="3.36605" stroke-dasharray="16.83 16.83"/>
<g filter="url(#filter0_d_436_1406)">
<rect x="592.417" y="8.63818" width="256.661" height="47.1247" rx="3.36605" fill="#120121"/>
</g>
<path d="M682.72 38.6277C681.346 38.6277 680.083 38.3052 678.933 37.66C677.783 37.0148 676.872 36.1242 676.198 34.9882C675.525 33.8381 675.189 32.5408 675.189 31.0962C675.189 29.6656 675.525 28.3823 676.198 27.2463C676.872 26.0962 677.783 25.1986 678.933 24.5534C680.083 23.9083 681.346 23.5857 682.72 23.5857C684.109 23.5857 685.371 23.9083 686.507 24.5534C687.657 25.1986 688.562 26.0962 689.221 27.2463C689.894 28.3823 690.231 29.6656 690.231 31.0962C690.231 32.5408 689.894 33.8381 689.221 34.9882C688.562 36.1242 687.657 37.0148 686.507 37.66C685.357 38.3052 684.095 38.6277 682.72 38.6277ZM682.72 35.998C683.604 35.998 684.382 35.8017 685.055 35.4089C685.729 35.0022 686.255 34.4272 686.633 33.6838C687.012 32.9405 687.201 32.078 687.201 31.0962C687.201 30.1144 687.012 29.2589 686.633 28.5296C686.255 27.7862 685.729 27.2182 685.055 26.8255C684.382 26.4328 683.604 26.2365 682.72 26.2365C681.837 26.2365 681.051 26.4328 680.364 26.8255C679.691 27.2182 679.165 27.7862 678.786 28.5296C678.407 29.2589 678.218 30.1144 678.218 31.0962C678.218 32.078 678.407 32.9405 678.786 33.6838C679.165 34.4272 679.691 35.0022 680.364 35.4089C681.051 35.8017 681.837 35.998 682.72 35.998ZM695.367 28.5296C695.746 27.9686 696.265 27.5128 696.924 27.1621C697.597 26.8115 698.362 26.6362 699.217 26.6362C700.213 26.6362 701.111 26.8816 701.91 27.3725C702.723 27.8634 703.362 28.5646 703.824 29.4763C704.301 30.3739 704.54 31.4188 704.54 32.6109C704.54 33.8031 704.301 34.862 703.824 35.7876C703.362 36.6993 702.723 37.4075 701.91 37.9124C701.111 38.4174 700.213 38.6698 699.217 38.6698C698.348 38.6698 697.583 38.5015 696.924 38.1649C696.279 37.8143 695.76 37.3655 695.367 36.8185V38.4805H692.422V22.9125H695.367V28.5296ZM701.531 32.6109C701.531 31.9097 701.384 31.3066 701.089 30.8017C700.809 30.2827 700.43 29.89 699.953 29.6235C699.491 29.3571 698.986 29.2238 698.439 29.2238C697.906 29.2238 697.401 29.3641 696.924 29.6446C696.461 29.9111 696.082 30.3038 695.788 30.8227C695.507 31.3416 695.367 31.9517 695.367 32.653C695.367 33.3543 695.507 33.9644 695.788 34.4833C696.082 35.0022 696.461 35.4019 696.924 35.6824C697.401 35.9489 697.906 36.0822 698.439 36.0822C698.986 36.0822 699.491 35.9419 699.953 35.6614C700.43 35.3809 700.809 34.9812 701.089 34.4622C701.384 33.9433 701.531 33.3262 701.531 32.6109ZM711.14 38.6698C710.186 38.6698 709.331 38.5015 708.573 38.1649C707.816 37.8143 707.213 37.3444 706.764 36.7554C706.329 36.1663 706.091 35.5141 706.049 34.7989H709.015C709.071 35.2477 709.289 35.6193 709.667 35.9139C710.06 36.2084 710.544 36.3556 711.119 36.3556C711.68 36.3556 712.115 36.2434 712.423 36.019C712.746 35.7946 712.907 35.5071 712.907 35.1565C712.907 34.7778 712.711 34.4973 712.318 34.315C711.939 34.1186 711.329 33.9083 710.488 33.6838C709.618 33.4735 708.903 33.2561 708.342 33.0317C707.795 32.8073 707.318 32.4637 706.911 32.0008C706.519 31.538 706.322 30.9139 706.322 30.1285C706.322 29.4833 706.505 28.8942 706.869 28.3613C707.248 27.8283 707.781 27.4076 708.468 27.099C709.169 26.7905 709.99 26.6362 710.93 26.6362C712.318 26.6362 713.426 26.9868 714.254 27.6881C715.081 28.3753 715.537 29.308 715.621 30.4861H712.802C712.76 30.0233 712.564 29.6586 712.213 29.3921C711.876 29.1116 711.42 28.9714 710.845 28.9714C710.312 28.9714 709.899 29.0696 709.604 29.2659C709.324 29.4623 709.183 29.7358 709.183 30.0864C709.183 30.4791 709.38 30.7806 709.773 30.991C710.165 31.1874 710.775 31.3907 711.603 31.6011C712.444 31.8115 713.139 32.0289 713.686 32.2533C714.233 32.4777 714.702 32.8283 715.095 33.3052C715.502 33.768 715.712 34.3851 715.726 35.1565C715.726 35.8297 715.537 36.4328 715.158 36.9657C714.794 37.4987 714.261 37.9195 713.559 38.228C712.872 38.5225 712.066 38.6698 711.14 38.6698ZM728.978 32.4005C728.978 32.8213 728.95 33.2 728.894 33.5366H720.374C720.444 34.3781 720.739 35.0373 721.258 35.5141C721.776 35.991 722.415 36.2294 723.172 36.2294C724.266 36.2294 725.044 35.7596 725.507 34.8199H728.684C728.347 35.9419 727.702 36.8676 726.748 37.5969C725.795 38.3122 724.624 38.6698 723.235 38.6698C722.113 38.6698 721.103 38.4244 720.206 37.9335C719.322 37.4286 718.628 36.7203 718.123 35.8087C717.632 34.897 717.387 33.8451 717.387 32.653C717.387 31.4468 717.632 30.3879 718.123 29.4763C718.614 28.5646 719.301 27.8634 720.185 27.3725C721.068 26.8816 722.085 26.6362 723.235 26.6362C724.343 26.6362 725.332 26.8746 726.201 27.3515C727.085 27.8283 727.765 28.5085 728.242 29.3921C728.733 30.2617 728.978 31.2645 728.978 32.4005ZM725.928 31.559C725.914 30.8017 725.64 30.1986 725.107 29.7498C724.574 29.2869 723.922 29.0555 723.151 29.0555C722.422 29.0555 721.805 29.2799 721.3 29.7287C720.809 30.1635 720.507 30.7736 720.395 31.559H725.928ZM734.073 28.6348C734.452 28.0177 734.943 27.5338 735.546 27.1832C736.163 26.8325 736.865 26.6572 737.65 26.6572V29.7498H736.872C735.946 29.7498 735.245 29.9672 734.768 30.4019C734.305 30.8367 734.073 31.5941 734.073 32.674V38.4805H731.128V26.8255H734.073V28.6348ZM744.493 35.7666L747.439 26.8255H750.573L746.261 38.4805H742.684L738.392 26.8255H741.548L744.493 35.7666ZM763.062 32.4005C763.062 32.8213 763.034 33.2 762.978 33.5366H754.458C754.528 34.3781 754.822 35.0373 755.341 35.5141C755.86 35.991 756.498 36.2294 757.256 36.2294C758.35 36.2294 759.128 35.7596 759.591 34.8199H762.768C762.431 35.9419 761.786 36.8676 760.832 37.5969C759.878 38.3122 758.707 38.6698 757.319 38.6698C756.197 38.6698 755.187 38.4244 754.289 37.9335C753.406 37.4286 752.712 36.7203 752.207 35.8087C751.716 34.897 751.47 33.8451 751.47 32.653C751.47 31.4468 751.716 30.3879 752.207 29.4763C752.697 28.5646 753.385 27.8634 754.268 27.3725C755.152 26.8816 756.169 26.6362 757.319 26.6362C758.427 26.6362 759.416 26.8746 760.285 27.3515C761.169 27.8283 761.849 28.5085 762.326 29.3921C762.817 30.2617 763.062 31.2645 763.062 32.4005ZM760.012 31.559C759.998 30.8017 759.724 30.1986 759.191 29.7498C758.658 29.2869 758.006 29.0555 757.235 29.0555C756.505 29.0555 755.888 29.2799 755.383 29.7287C754.892 30.1635 754.591 30.7736 754.479 31.559H760.012Z" fill="white"/>
<g filter="url(#filter1_d_436_1406)">
<rect x="193.45" y="88.6196" width="223.001" height="43.8177" rx="3.12984" fill="#120121"/>
</g>
<path d="M281.261 114.708H285.76V116.879H278.523V103.225H281.261V114.708ZM297.575 111.226C297.575 111.617 297.549 111.969 297.497 112.282H289.574C289.64 113.065 289.913 113.678 290.396 114.121C290.879 114.565 291.472 114.786 292.176 114.786C293.193 114.786 293.917 114.349 294.347 113.476H297.301C296.988 114.519 296.388 115.38 295.502 116.058C294.615 116.723 293.526 117.055 292.235 117.055C291.192 117.055 290.253 116.827 289.418 116.371C288.596 115.901 287.951 115.243 287.481 114.395C287.025 113.547 286.797 112.569 286.797 111.461C286.797 110.339 287.025 109.355 287.481 108.507C287.938 107.659 288.577 107.007 289.398 106.551C290.22 106.095 291.165 105.866 292.235 105.866C293.265 105.866 294.184 106.088 294.993 106.531C295.815 106.975 296.447 107.607 296.89 108.429C297.347 109.237 297.575 110.17 297.575 111.226ZM294.739 110.444C294.726 109.739 294.471 109.179 293.976 108.761C293.48 108.331 292.874 108.116 292.157 108.116C291.478 108.116 290.905 108.325 290.435 108.742C289.979 109.146 289.698 109.713 289.594 110.444H294.739ZM298.87 111.422C298.87 110.326 299.085 109.355 299.515 108.507C299.959 107.659 300.552 107.007 301.295 106.551C302.052 106.095 302.893 105.866 303.819 105.866C304.627 105.866 305.332 106.029 305.931 106.355C306.544 106.681 307.033 107.092 307.399 107.588V106.042H310.157V116.879H307.399V115.295C307.046 115.804 306.557 116.227 305.931 116.566C305.319 116.892 304.608 117.055 303.799 117.055C302.886 117.055 302.052 116.821 301.295 116.351C300.552 115.882 299.959 115.223 299.515 114.376C299.085 113.515 298.87 112.53 298.87 111.422ZM307.399 111.461C307.399 110.796 307.268 110.228 307.007 109.759C306.747 109.277 306.394 108.911 305.951 108.664C305.508 108.403 305.032 108.272 304.523 108.272C304.014 108.272 303.545 108.396 303.115 108.644C302.684 108.892 302.332 109.257 302.058 109.739C301.797 110.209 301.667 110.77 301.667 111.422C301.667 112.074 301.797 112.648 302.058 113.143C302.332 113.626 302.684 113.997 303.115 114.258C303.558 114.519 304.028 114.649 304.523 114.649C305.032 114.649 305.508 114.525 305.951 114.278C306.394 114.017 306.747 113.652 307.007 113.182C307.268 112.7 307.399 112.126 307.399 111.461ZM315.57 107.725C315.922 107.151 316.379 106.701 316.939 106.375C317.513 106.049 318.165 105.886 318.896 105.886V108.761H318.172C317.311 108.761 316.659 108.964 316.216 109.368C315.785 109.772 315.57 110.476 315.57 111.48V116.879H312.831V106.042H315.57V107.725ZM326.746 105.886C328.037 105.886 329.08 106.297 329.875 107.118C330.671 107.927 331.069 109.061 331.069 110.522V116.879H328.33V110.894C328.33 110.033 328.115 109.374 327.684 108.918C327.254 108.448 326.667 108.214 325.924 108.214C325.168 108.214 324.568 108.448 324.124 108.918C323.694 109.374 323.479 110.033 323.479 110.894V116.879H320.74V106.042H323.479V107.392C323.844 106.923 324.307 106.557 324.868 106.297C325.441 106.023 326.067 105.886 326.746 105.886Z" fill="white"/>
<g filter="url(#filter2_d_436_1406)">
<rect x="546.122" y="219.723" width="256.661" height="50.4317" rx="3.60226" fill="#120121"/>
</g>
<path d="M656.104 244.867C656.99 245.032 657.717 245.475 658.288 246.196C658.858 246.916 659.143 247.741 659.143 248.672C659.143 249.513 658.933 250.256 658.513 250.901C658.108 251.531 657.515 252.027 656.734 252.387C655.954 252.747 655.031 252.927 653.965 252.927H647.188V237.212H653.672C654.738 237.212 655.654 237.385 656.419 237.73C657.2 238.075 657.785 238.556 658.175 239.171C658.581 239.786 658.783 240.484 658.783 241.265C658.783 242.18 658.535 242.946 658.04 243.561C657.56 244.177 656.914 244.612 656.104 244.867ZM650.34 243.696H653.222C653.973 243.696 654.55 243.531 654.956 243.201C655.361 242.856 655.564 242.368 655.564 241.738C655.564 241.107 655.361 240.62 654.956 240.274C654.55 239.929 653.973 239.756 653.222 239.756H650.34V243.696ZM653.515 250.361C654.28 250.361 654.873 250.181 655.293 249.82C655.729 249.46 655.946 248.95 655.946 248.289C655.946 247.614 655.721 247.089 655.271 246.713C654.821 246.323 654.213 246.128 653.447 246.128H650.34V250.361H653.515ZM673.43 240.454V252.927H670.256V251.351C669.851 251.892 669.318 252.319 668.657 252.635C668.012 252.935 667.307 253.085 666.541 253.085C665.565 253.085 664.702 252.882 663.952 252.477C663.201 252.057 662.609 251.449 662.173 250.653C661.753 249.843 661.543 248.882 661.543 247.772V240.454H664.695V247.321C664.695 248.312 664.943 249.077 665.438 249.618C665.933 250.143 666.609 250.406 667.464 250.406C668.335 250.406 669.018 250.143 669.513 249.618C670.008 249.077 670.256 248.312 670.256 247.321V240.454H673.43ZM678.139 238.968C677.583 238.968 677.118 238.796 676.743 238.451C676.383 238.09 676.203 237.648 676.203 237.122C676.203 236.597 676.383 236.162 676.743 235.816C677.118 235.456 677.583 235.276 678.139 235.276C678.694 235.276 679.152 235.456 679.512 235.816C679.887 236.162 680.075 236.597 680.075 237.122C680.075 237.648 679.887 238.09 679.512 238.451C679.152 238.796 678.694 238.968 678.139 238.968ZM679.692 240.454V252.927H676.54V240.454H679.692ZM685.958 236.267V252.927H682.806V236.267H685.958ZM688.262 246.646C688.262 245.385 688.51 244.267 689.005 243.291C689.515 242.316 690.206 241.565 691.076 241.04C691.947 240.514 692.915 240.252 693.981 240.252C694.791 240.252 695.564 240.432 696.3 240.792C697.035 241.137 697.62 241.603 698.056 242.188V236.267H701.253V252.927H698.056V251.081C697.665 251.696 697.118 252.192 696.412 252.567C695.707 252.942 694.889 253.13 693.958 253.13C692.908 253.13 691.947 252.86 691.076 252.319C690.206 251.779 689.515 251.021 689.005 250.045C688.51 249.055 688.262 247.922 688.262 246.646ZM698.078 246.691C698.078 245.925 697.928 245.272 697.628 244.732C697.328 244.177 696.923 243.756 696.412 243.471C695.902 243.171 695.354 243.021 694.769 243.021C694.183 243.021 693.643 243.164 693.148 243.449C692.652 243.734 692.247 244.154 691.932 244.71C691.632 245.25 691.482 245.895 691.482 246.646C691.482 247.396 691.632 248.057 691.932 248.627C692.247 249.182 692.652 249.61 693.148 249.91C693.658 250.211 694.198 250.361 694.769 250.361C695.354 250.361 695.902 250.218 696.412 249.933C696.923 249.633 697.328 249.212 697.628 248.672C697.928 248.117 698.078 247.456 698.078 246.691Z" fill="white"/>
<g filter="url(#filter3_d_436_1406)">
<rect x="113.64" y="326.119" width="223.001" height="47.1247" rx="2.9246" fill="#120121"/>
</g>
<path d="M170.079 347.453C170.079 346.198 170.359 345.077 170.92 344.09C171.492 343.09 172.266 342.317 173.241 341.768C174.228 341.208 175.331 340.928 176.549 340.928C177.975 340.928 179.224 341.293 180.297 342.024C181.369 342.755 182.118 343.767 182.545 345.059H179.602C179.31 344.449 178.895 343.992 178.359 343.688C177.835 343.383 177.226 343.231 176.531 343.231C175.788 343.231 175.124 343.407 174.539 343.761C173.966 344.102 173.515 344.589 173.186 345.223C172.869 345.857 172.711 346.6 172.711 347.453C172.711 348.294 172.869 349.037 173.186 349.683C173.515 350.317 173.966 350.81 174.539 351.164C175.124 351.505 175.788 351.675 176.531 351.675C177.226 351.675 177.835 351.523 178.359 351.218C178.895 350.902 179.31 350.439 179.602 349.829H182.545C182.118 351.133 181.369 352.151 180.297 352.882C179.236 353.601 177.987 353.96 176.549 353.96C175.331 353.96 174.228 353.686 173.241 353.138C172.266 352.577 171.492 351.803 170.92 350.816C170.359 349.829 170.079 348.708 170.079 347.453ZM189.227 354.015C188.252 354.015 187.375 353.802 186.595 353.375C185.815 352.937 185.2 352.321 184.749 351.529C184.31 350.737 184.091 349.823 184.091 348.787C184.091 347.752 184.316 346.838 184.767 346.046C185.23 345.253 185.858 344.644 186.65 344.218C187.442 343.779 188.325 343.56 189.3 343.56C190.275 343.56 191.159 343.779 191.951 344.218C192.743 344.644 193.364 345.253 193.815 346.046C194.278 346.838 194.51 347.752 194.51 348.787C194.51 349.823 194.272 350.737 193.797 351.529C193.334 352.321 192.7 352.937 191.896 353.375C191.104 353.802 190.214 354.015 189.227 354.015ZM189.227 351.785C189.69 351.785 190.123 351.675 190.525 351.456C190.939 351.225 191.268 350.883 191.512 350.432C191.756 349.982 191.878 349.433 191.878 348.787C191.878 347.825 191.622 347.087 191.11 346.576C190.61 346.052 189.995 345.79 189.264 345.79C188.533 345.79 187.917 346.052 187.418 346.576C186.93 347.087 186.686 347.825 186.686 348.787C186.686 349.75 186.924 350.493 187.399 351.017C187.887 351.529 188.496 351.785 189.227 351.785ZM198.946 340.324V353.851H196.387V340.324H198.946ZM204.033 340.324V353.851H201.474V340.324H204.033ZM205.904 348.751C205.904 347.727 206.105 346.819 206.507 346.027C206.921 345.235 207.476 344.626 208.17 344.199C208.877 343.773 209.663 343.56 210.528 343.56C211.284 343.56 211.942 343.712 212.502 344.017C213.075 344.321 213.532 344.705 213.873 345.168V343.724H216.45V353.851H213.873V352.37C213.544 352.845 213.087 353.241 212.502 353.558C211.929 353.863 211.265 354.015 210.51 354.015C209.657 354.015 208.877 353.796 208.17 353.357C207.476 352.918 206.921 352.303 206.507 351.511C206.105 350.707 205.904 349.787 205.904 348.751ZM213.873 348.787C213.873 348.166 213.751 347.636 213.508 347.197C213.264 346.746 212.935 346.405 212.52 346.174C212.106 345.93 211.661 345.808 211.186 345.808C210.711 345.808 210.272 345.924 209.87 346.155C209.468 346.387 209.139 346.728 208.883 347.179C208.639 347.618 208.517 348.142 208.517 348.751C208.517 349.36 208.639 349.896 208.883 350.359C209.139 350.81 209.468 351.158 209.87 351.401C210.284 351.645 210.723 351.767 211.186 351.767C211.661 351.767 212.106 351.651 212.52 351.42C212.935 351.176 213.264 350.835 213.508 350.396C213.751 349.945 213.873 349.409 213.873 348.787ZM221.509 345.205C221.838 344.717 222.289 344.321 222.861 344.017C223.446 343.712 224.11 343.56 224.854 343.56C225.719 343.56 226.499 343.773 227.193 344.199C227.9 344.626 228.455 345.235 228.857 346.027C229.271 346.807 229.478 347.715 229.478 348.751C229.478 349.787 229.271 350.707 228.857 351.511C228.455 352.303 227.9 352.918 227.193 353.357C226.499 353.796 225.719 354.015 224.854 354.015C224.098 354.015 223.434 353.869 222.861 353.576C222.301 353.272 221.85 352.882 221.509 352.407V353.851H218.95V340.324H221.509V345.205ZM226.864 348.751C226.864 348.142 226.736 347.618 226.481 347.179C226.237 346.728 225.908 346.387 225.494 346.155C225.091 345.924 224.653 345.808 224.177 345.808C223.714 345.808 223.276 345.93 222.861 346.174C222.459 346.405 222.13 346.746 221.874 347.197C221.631 347.648 221.509 348.178 221.509 348.787C221.509 349.397 221.631 349.927 221.874 350.378C222.13 350.828 222.459 351.176 222.861 351.42C223.276 351.651 223.714 351.767 224.177 351.767C224.653 351.767 225.091 351.645 225.494 351.401C225.908 351.158 226.237 350.81 226.481 350.359C226.736 349.908 226.864 349.372 226.864 348.751ZM235.834 354.015C234.86 354.015 233.982 353.802 233.202 353.375C232.422 352.937 231.807 352.321 231.356 351.529C230.917 350.737 230.698 349.823 230.698 348.787C230.698 347.752 230.924 346.838 231.374 346.046C231.838 345.253 232.465 344.644 233.257 344.218C234.049 343.779 234.933 343.56 235.908 343.56C236.882 343.56 237.766 343.779 238.558 344.218C239.35 344.644 239.972 345.253 240.422 346.046C240.885 346.838 241.117 347.752 241.117 348.787C241.117 349.823 240.879 350.737 240.404 351.529C239.941 352.321 239.307 352.937 238.503 353.375C237.711 353.802 236.822 354.015 235.834 354.015ZM235.834 351.785C236.298 351.785 236.73 351.675 237.132 351.456C237.547 351.225 237.876 350.883 238.119 350.432C238.363 349.982 238.485 349.433 238.485 348.787C238.485 347.825 238.229 347.087 237.717 346.576C237.218 346.052 236.602 345.79 235.871 345.79C235.14 345.79 234.524 346.052 234.025 346.576C233.537 347.087 233.294 347.825 233.294 348.787C233.294 349.75 233.531 350.493 234.007 351.017C234.494 351.529 235.103 351.785 235.834 351.785ZM245.553 345.296C245.882 344.76 246.309 344.34 246.833 344.035C247.369 343.73 247.978 343.578 248.661 343.578V346.265H247.984C247.18 346.265 246.571 346.454 246.156 346.832C245.754 347.209 245.553 347.867 245.553 348.806V353.851H242.994V343.724H245.553V345.296ZM249.726 348.751C249.726 347.727 249.927 346.819 250.329 346.027C250.744 345.235 251.298 344.626 251.993 344.199C252.7 343.773 253.485 343.56 254.351 343.56C255.106 343.56 255.764 343.712 256.325 344.017C256.898 344.321 257.355 344.705 257.696 345.168V343.724H260.273V353.851H257.696V352.37C257.367 352.845 256.91 353.241 256.325 353.558C255.752 353.863 255.088 354.015 254.332 354.015C253.479 354.015 252.7 353.796 251.993 353.357C251.298 352.918 250.744 352.303 250.329 351.511C249.927 350.707 249.726 349.787 249.726 348.751ZM257.696 348.787C257.696 348.166 257.574 347.636 257.33 347.197C257.086 346.746 256.757 346.405 256.343 346.174C255.929 345.93 255.484 345.808 255.009 345.808C254.533 345.808 254.095 345.924 253.693 346.155C253.291 346.387 252.962 346.728 252.706 347.179C252.462 347.618 252.34 348.142 252.34 348.751C252.34 349.36 252.462 349.896 252.706 350.359C252.962 350.81 253.291 351.158 253.693 351.401C254.107 351.645 254.546 351.767 255.009 351.767C255.484 351.767 255.929 351.651 256.343 351.42C256.757 351.176 257.086 350.835 257.33 350.396C257.574 349.945 257.696 349.409 257.696 348.787ZM265.752 345.826V350.725C265.752 351.066 265.831 351.316 265.989 351.474C266.16 351.621 266.44 351.694 266.83 351.694H268.018V353.851H266.41C264.253 353.851 263.174 352.803 263.174 350.707V345.826H261.968V343.724H263.174V341.22H265.752V343.724H268.018V345.826H265.752ZM279.272 348.568C279.272 348.934 279.248 349.263 279.199 349.555H271.796C271.857 350.286 272.113 350.859 272.564 351.273C273.015 351.688 273.57 351.895 274.228 351.895C275.178 351.895 275.854 351.487 276.256 350.67H279.017C278.724 351.645 278.164 352.449 277.335 353.083C276.506 353.704 275.489 354.015 274.282 354.015C273.308 354.015 272.43 353.802 271.65 353.375C270.883 352.937 270.279 352.321 269.841 351.529C269.414 350.737 269.201 349.823 269.201 348.787C269.201 347.739 269.414 346.819 269.841 346.027C270.267 345.235 270.864 344.626 271.632 344.199C272.4 343.773 273.283 343.56 274.282 343.56C275.245 343.56 276.104 343.767 276.86 344.181C277.627 344.595 278.218 345.186 278.633 345.954C279.059 346.71 279.272 347.581 279.272 348.568ZM276.622 347.837C276.61 347.179 276.372 346.655 275.909 346.265C275.446 345.863 274.879 345.662 274.209 345.662C273.576 345.662 273.039 345.857 272.601 346.247C272.174 346.624 271.912 347.154 271.815 347.837H276.622Z" fill="white"/>
<g filter="url(#filter4_d_436_1406)">
<rect x="695.833" y="434.113" width="256.661" height="50.4317" rx="3.60226" fill="#120121"/>
</g>
<path d="M794.197 467.318L790.73 461.194H789.244V467.318H786.092V451.603H791.991C793.206 451.603 794.242 451.821 795.097 452.256C795.953 452.676 796.591 453.254 797.011 453.989C797.446 454.71 797.664 455.52 797.664 456.421C797.664 457.457 797.364 458.395 796.764 459.235C796.163 460.061 795.27 460.631 794.084 460.946L797.844 467.318H794.197ZM789.244 458.83H791.878C792.733 458.83 793.371 458.627 793.792 458.222C794.212 457.802 794.422 457.224 794.422 456.489C794.422 455.768 794.212 455.213 793.792 454.823C793.371 454.417 792.733 454.215 791.878 454.215H789.244V458.83ZM812.11 460.811C812.11 461.262 812.08 461.667 812.02 462.027H802.901C802.976 462.928 803.292 463.633 803.847 464.143C804.402 464.654 805.085 464.909 805.896 464.909C807.067 464.909 807.9 464.406 808.395 463.4H811.795C811.434 464.601 810.744 465.592 809.723 466.372C808.703 467.138 807.449 467.52 805.963 467.52C804.763 467.52 803.682 467.258 802.721 466.733C801.776 466.192 801.033 465.434 800.492 464.459C799.967 463.483 799.704 462.357 799.704 461.081C799.704 459.791 799.967 458.657 800.492 457.682C801.018 456.706 801.753 455.956 802.699 455.43C803.644 454.905 804.733 454.642 805.963 454.642C807.149 454.642 808.207 454.898 809.138 455.408C810.083 455.918 810.811 456.646 811.322 457.592C811.847 458.522 812.11 459.596 812.11 460.811ZM808.845 459.911C808.83 459.1 808.537 458.455 807.967 457.974C807.397 457.479 806.699 457.232 805.873 457.232C805.093 457.232 804.432 457.472 803.892 457.952C803.367 458.417 803.044 459.07 802.924 459.911H808.845ZM820.129 457.434H817.945V467.318H814.748V457.434H813.33V454.845H814.748V454.215C814.748 452.684 815.183 451.558 816.054 450.838C816.924 450.117 818.238 449.779 819.994 449.824V452.481C819.228 452.466 818.696 452.594 818.395 452.864C818.095 453.134 817.945 453.622 817.945 454.327V454.845H820.129V457.434ZM825.324 450.657V467.318H822.172V450.657H825.324ZM840.033 460.811C840.033 461.262 840.003 461.667 839.942 462.027H830.824C830.899 462.928 831.214 463.633 831.77 464.143C832.325 464.654 833.008 464.909 833.819 464.909C834.989 464.909 835.822 464.406 836.318 463.4H839.717C839.357 464.601 838.667 465.592 837.646 466.372C836.625 467.138 835.372 467.52 833.886 467.52C832.685 467.52 831.605 467.258 830.644 466.733C829.699 466.192 828.956 465.434 828.415 464.459C827.89 463.483 827.627 462.357 827.627 461.081C827.627 459.791 827.89 458.657 828.415 457.682C828.941 456.706 829.676 455.956 830.622 455.43C831.567 454.905 832.655 454.642 833.886 454.642C835.072 454.642 836.13 454.898 837.061 455.408C838.006 455.918 838.734 456.646 839.245 457.592C839.77 458.522 840.033 459.596 840.033 460.811ZM836.768 459.911C836.753 459.1 836.46 458.455 835.89 457.974C835.32 457.479 834.622 457.232 833.796 457.232C833.016 457.232 832.355 457.472 831.815 457.952C831.29 458.417 830.967 459.07 830.847 459.911H836.768ZM841.523 461.081C841.523 459.791 841.785 458.665 842.311 457.704C842.836 456.729 843.564 455.978 844.495 455.453C845.425 454.913 846.491 454.642 847.692 454.642C849.238 454.642 850.513 455.033 851.519 455.813C852.54 456.579 853.223 457.659 853.568 459.055H850.168C849.988 458.515 849.68 458.095 849.245 457.794C848.825 457.479 848.299 457.322 847.669 457.322C846.768 457.322 846.056 457.652 845.53 458.312C845.005 458.958 844.742 459.881 844.742 461.081C844.742 462.267 845.005 463.19 845.53 463.851C846.056 464.496 846.768 464.819 847.669 464.819C848.945 464.819 849.778 464.248 850.168 463.108H853.568C853.223 464.459 852.54 465.532 851.519 466.327C850.498 467.123 849.223 467.52 847.692 467.52C846.491 467.52 845.425 467.258 844.495 466.733C843.564 466.192 842.836 465.442 842.311 464.481C841.785 463.505 841.523 462.372 841.523 461.081ZM859.547 457.434V463.468C859.547 463.888 859.644 464.196 859.839 464.391C860.049 464.571 860.395 464.661 860.875 464.661H862.338V467.318H860.357C857.701 467.318 856.372 466.027 856.372 463.445V457.434H854.886V454.845H856.372V451.761H859.547V454.845H862.338V457.434H859.547Z" fill="white"/>
<g filter="url(#filter5_d_436_1406)">
<rect x="367.994" y="600.579" width="228.05" height="47.1247" rx="3.2007" fill="#120121"/>
</g>
<path d="M462.215 616.348V630.311H459.414V621.229L455.674 630.311H453.553L449.792 621.229V630.311H446.992V616.348H450.172L454.613 626.73L459.054 616.348H462.215ZM475.286 624.53C475.286 624.93 475.259 625.29 475.206 625.61H467.104C467.171 626.41 467.451 627.037 467.945 627.49C468.438 627.944 469.045 628.171 469.765 628.171C470.805 628.171 471.545 627.724 471.985 626.83H475.006C474.686 627.897 474.073 628.777 473.166 629.471C472.259 630.151 471.145 630.491 469.825 630.491C468.758 630.491 467.798 630.258 466.944 629.791C466.104 629.311 465.444 628.637 464.964 627.77C464.497 626.904 464.264 625.903 464.264 624.77C464.264 623.623 464.497 622.616 464.964 621.749C465.431 620.882 466.084 620.215 466.924 619.749C467.765 619.282 468.731 619.049 469.825 619.049C470.879 619.049 471.819 619.275 472.646 619.729C473.486 620.182 474.133 620.829 474.586 621.669C475.053 622.496 475.286 623.45 475.286 624.53ZM472.386 623.73C472.372 623.009 472.112 622.436 471.605 622.009C471.099 621.569 470.478 621.349 469.745 621.349C469.051 621.349 468.465 621.562 467.985 621.989C467.518 622.403 467.231 622.983 467.124 623.73H472.386ZM483.472 619.069C484.792 619.069 485.859 619.489 486.672 620.329C487.486 621.156 487.893 622.316 487.893 623.81V630.311H485.092V624.19C485.092 623.31 484.872 622.636 484.432 622.169C483.992 621.689 483.392 621.449 482.632 621.449C481.858 621.449 481.245 621.689 480.791 622.169C480.351 622.636 480.131 623.31 480.131 624.19V630.311H477.33V619.229H480.131V620.609C480.504 620.129 480.978 619.755 481.551 619.489C482.138 619.209 482.778 619.069 483.472 619.069ZM493.817 621.529V626.89C493.817 627.264 493.903 627.537 494.077 627.71C494.263 627.871 494.57 627.951 494.997 627.951H496.297V630.311H494.537C492.176 630.311 490.996 629.164 490.996 626.87V621.529H489.676V619.229H490.996V616.488H493.817V619.229H496.297V621.529H493.817ZM503.233 630.491C502.166 630.491 501.205 630.258 500.352 629.791C499.498 629.311 498.825 628.637 498.332 627.77C497.851 626.904 497.611 625.903 497.611 624.77C497.611 623.636 497.858 622.636 498.352 621.769C498.858 620.902 499.545 620.235 500.412 619.769C501.279 619.289 502.246 619.049 503.313 619.049C504.38 619.049 505.346 619.289 506.213 619.769C507.08 620.235 507.76 620.902 508.254 621.769C508.76 622.636 509.014 623.636 509.014 624.77C509.014 625.903 508.754 626.904 508.234 627.77C507.727 628.637 507.033 629.311 506.153 629.791C505.286 630.258 504.313 630.491 503.233 630.491ZM503.233 628.051C503.739 628.051 504.213 627.931 504.653 627.69C505.106 627.437 505.466 627.064 505.733 626.57C506 626.077 506.133 625.477 506.133 624.77C506.133 623.716 505.853 622.909 505.293 622.349C504.746 621.776 504.073 621.489 503.273 621.489C502.472 621.489 501.799 621.776 501.252 622.349C500.719 622.909 500.452 623.716 500.452 624.77C500.452 625.823 500.712 626.637 501.232 627.21C501.766 627.77 502.432 628.051 503.233 628.051ZM513.869 620.949C514.229 620.362 514.696 619.902 515.269 619.569C515.856 619.235 516.523 619.069 517.27 619.069V622.009H516.529C515.649 622.009 514.982 622.216 514.529 622.629C514.089 623.043 513.869 623.763 513.869 624.79V630.311H511.068V619.229H513.869V620.949Z" fill="white"/>
<g filter="url(#filter6_d_436_1406)">
<rect x="9.24868" y="764.878" width="256.661" height="47.1247" rx="3.36605" fill="#120121"/>
</g>
<path d="M109.088 780.926V795.61H106.143V786.059L102.209 795.61H99.9787L96.0236 786.059V795.61H93.0783V780.926H96.4233L101.094 791.845L105.764 780.926H109.088ZM111.243 789.741C111.243 788.563 111.474 787.518 111.937 786.606C112.414 785.695 113.052 784.993 113.851 784.502C114.665 784.012 115.569 783.766 116.565 783.766C117.435 783.766 118.192 783.941 118.837 784.292C119.496 784.643 120.022 785.084 120.415 785.617V783.955H123.381V795.61H120.415V793.906C120.036 794.453 119.511 794.909 118.837 795.274C118.178 795.624 117.414 795.8 116.544 795.8C115.562 795.8 114.665 795.547 113.851 795.042C113.052 794.537 112.414 793.829 111.937 792.918C111.474 791.992 111.243 790.933 111.243 789.741ZM120.415 789.783C120.415 789.068 120.275 788.457 119.994 787.953C119.714 787.434 119.335 787.041 118.858 786.774C118.381 786.494 117.87 786.354 117.323 786.354C116.776 786.354 116.271 786.487 115.808 786.753C115.345 787.02 114.966 787.413 114.672 787.932C114.391 788.436 114.251 789.04 114.251 789.741C114.251 790.442 114.391 791.059 114.672 791.592C114.966 792.111 115.345 792.511 115.808 792.791C116.285 793.072 116.79 793.212 117.323 793.212C117.87 793.212 118.381 793.079 118.858 792.812C119.335 792.532 119.714 792.139 119.994 791.634C120.275 791.115 120.415 790.498 120.415 789.783ZM132.717 783.787C134.105 783.787 135.227 784.229 136.083 785.112C136.938 785.982 137.366 787.202 137.366 788.773V795.61H134.421V789.173C134.421 788.247 134.189 787.539 133.726 787.048C133.264 786.543 132.633 786.291 131.833 786.291C131.02 786.291 130.374 786.543 129.898 787.048C129.435 787.539 129.203 788.247 129.203 789.173V795.61H126.258V783.955H129.203V785.407C129.596 784.902 130.094 784.509 130.697 784.229C131.314 783.934 131.987 783.787 132.717 783.787ZM141.661 782.567C141.142 782.567 140.707 782.406 140.356 782.083C140.02 781.746 139.851 781.333 139.851 780.842C139.851 780.351 140.02 779.944 140.356 779.622C140.707 779.285 141.142 779.117 141.661 779.117C142.179 779.117 142.607 779.285 142.944 779.622C143.294 779.944 143.47 780.351 143.47 780.842C143.47 781.333 143.294 781.746 142.944 782.083C142.607 782.406 142.179 782.567 141.661 782.567ZM143.112 783.955V795.61H140.167V783.955H143.112ZM151.366 786.375H149.325V795.61H146.338V786.375H145.012V783.955H146.338V783.366C146.338 781.936 146.744 780.884 147.558 780.211C148.371 779.537 149.599 779.222 151.239 779.264V781.746C150.524 781.732 150.026 781.852 149.746 782.104C149.465 782.357 149.325 782.812 149.325 783.472V783.955H151.366V786.375ZM164.109 789.53C164.109 789.951 164.081 790.33 164.025 790.666H155.504C155.575 791.508 155.869 792.167 156.388 792.644C156.907 793.121 157.545 793.359 158.302 793.359C159.396 793.359 160.175 792.889 160.638 791.95H163.814C163.478 793.072 162.833 793.997 161.879 794.727C160.925 795.442 159.754 795.8 158.366 795.8C157.244 795.8 156.234 795.554 155.336 795.063C154.453 794.558 153.758 793.85 153.253 792.939C152.762 792.027 152.517 790.975 152.517 789.783C152.517 788.577 152.762 787.518 153.253 786.606C153.744 785.695 154.431 784.993 155.315 784.502C156.199 784.012 157.215 783.766 158.366 783.766C159.474 783.766 160.462 784.004 161.332 784.481C162.215 784.958 162.896 785.638 163.373 786.522C163.863 787.392 164.109 788.394 164.109 789.53ZM161.058 788.689C161.044 787.932 160.771 787.328 160.238 786.88C159.705 786.417 159.053 786.185 158.281 786.185C157.552 786.185 156.935 786.41 156.43 786.859C155.939 787.293 155.638 787.903 155.525 788.689H161.058ZM170.719 795.8C169.765 795.8 168.909 795.631 168.152 795.295C167.395 794.944 166.792 794.474 166.343 793.885C165.908 793.296 165.67 792.644 165.628 791.929H168.594C168.65 792.378 168.867 792.749 169.246 793.044C169.639 793.338 170.123 793.486 170.698 793.486C171.259 793.486 171.693 793.373 172.002 793.149C172.325 792.925 172.486 792.637 172.486 792.286C172.486 791.908 172.29 791.627 171.897 791.445C171.518 791.249 170.908 791.038 170.067 790.814C169.197 790.603 168.482 790.386 167.921 790.162C167.374 789.937 166.897 789.594 166.49 789.131C166.097 788.668 165.901 788.044 165.901 787.258C165.901 786.613 166.083 786.024 166.448 785.491C166.827 784.958 167.36 784.537 168.047 784.229C168.748 783.92 169.569 783.766 170.508 783.766C171.897 783.766 173.005 784.117 173.832 784.818C174.66 785.505 175.116 786.438 175.2 787.616H172.381C172.339 787.153 172.142 786.788 171.792 786.522C171.455 786.242 170.999 786.101 170.424 786.101C169.891 786.101 169.477 786.199 169.183 786.396C168.902 786.592 168.762 786.866 168.762 787.216C168.762 787.609 168.959 787.911 169.351 788.121C169.744 788.317 170.354 788.521 171.182 788.731C172.023 788.941 172.717 789.159 173.264 789.383C173.811 789.608 174.281 789.958 174.674 790.435C175.081 790.898 175.291 791.515 175.305 792.286C175.305 792.96 175.116 793.563 174.737 794.096C174.372 794.629 173.839 795.049 173.138 795.358C172.451 795.652 171.644 795.8 170.719 795.8ZM181.152 786.375V792.013C181.152 792.406 181.243 792.693 181.425 792.875C181.622 793.044 181.944 793.128 182.393 793.128H183.76V795.61H181.909C179.427 795.61 178.185 794.404 178.185 791.992V786.375H176.797V783.955H178.185V781.073H181.152V783.955H183.76V786.375H181.152Z" fill="white"/>
<defs>
<filter id="filter0_d_436_1406" x="584.002" y="3.58911" width="273.492" height="63.9548" filterUnits="userSpaceOnUse" color-interpolation-filters="sRGB">
<feFlood flood-opacity="0" result="BackgroundImageFix"/>
<feColorMatrix in="SourceAlpha" type="matrix" values="0 0 0 0 0 0 0 0 0 0 0 0 0 0 0 0 0 0 127 0" result="hardAlpha"/>
<feOffset dy="3.36605"/>
<feGaussianBlur stdDeviation="4.20756"/>
<feComposite in2="hardAlpha" operator="out"/>
<feColorMatrix type="matrix" values="0 0 0 0 1 0 0 0 0 1 0 0 0 0 1 0 0 0 0.25 0"/>
<feBlend mode="normal" in2="BackgroundImageFix" result="effect1_dropShadow_436_1406"/>
<feBlend mode="normal" in="SourceGraphic" in2="effect1_dropShadow_436_1406" result="shape"/>
</filter>
<filter id="filter1_d_436_1406" x="185.625" y="83.9249" width="238.65" height="59.4671" filterUnits="userSpaceOnUse" color-interpolation-filters="sRGB">
<feFlood flood-opacity="0" result="BackgroundImageFix"/>
<feColorMatrix in="SourceAlpha" type="matrix" values="0 0 0 0 0 0 0 0 0 0 0 0 0 0 0 0 0 0 127 0" result="hardAlpha"/>
<feOffset dy="3.12984"/>
<feGaussianBlur stdDeviation="3.91229"/>
<feComposite in2="hardAlpha" operator="out"/>
<feColorMatrix type="matrix" values="0 0 0 0 1 0 0 0 0 1 0 0 0 0 1 0 0 0 0.25 0"/>
<feBlend mode="normal" in2="BackgroundImageFix" result="effect1_dropShadow_436_1406"/>
<feBlend mode="normal" in="SourceGraphic" in2="effect1_dropShadow_436_1406" result="shape"/>
</filter>
<filter id="filter2_d_436_1406" x="537.117" y="214.319" width="274.673" height="68.443" filterUnits="userSpaceOnUse" color-interpolation-filters="sRGB">
<feFlood flood-opacity="0" result="BackgroundImageFix"/>
<feColorMatrix in="SourceAlpha" type="matrix" values="0 0 0 0 0 0 0 0 0 0 0 0 0 0 0 0 0 0 127 0" result="hardAlpha"/>
<feOffset dy="3.60226"/>
<feGaussianBlur stdDeviation="4.50283"/>
<feComposite in2="hardAlpha" operator="out"/>
<feColorMatrix type="matrix" values="0 0 0 0 1 0 0 0 0 1 0 0 0 0 1 0 0 0 0.25 0"/>
<feBlend mode="normal" in2="BackgroundImageFix" result="effect1_dropShadow_436_1406"/>
<feBlend mode="normal" in="SourceGraphic" in2="effect1_dropShadow_436_1406" result="shape"/>
</filter>
<filter id="filter3_d_436_1406" x="106.329" y="321.732" width="237.624" height="61.7475" filterUnits="userSpaceOnUse" color-interpolation-filters="sRGB">
<feFlood flood-opacity="0" result="BackgroundImageFix"/>
<feColorMatrix in="SourceAlpha" type="matrix" values="0 0 0 0 0 0 0 0 0 0 0 0 0 0 0 0 0 0 127 0" result="hardAlpha"/>
<feOffset dy="2.9246"/>
<feGaussianBlur stdDeviation="3.65575"/>
<feComposite in2="hardAlpha" operator="out"/>
<feColorMatrix type="matrix" values="0 0 0 0 1 0 0 0 0 1 0 0 0 0 1 0 0 0 0.25 0"/>
<feBlend mode="normal" in2="BackgroundImageFix" result="effect1_dropShadow_436_1406"/>
<feBlend mode="normal" in="SourceGraphic" in2="effect1_dropShadow_436_1406" result="shape"/>
</filter>
<filter id="filter4_d_436_1406" x="686.827" y="428.71" width="274.673" height="68.443" filterUnits="userSpaceOnUse" color-interpolation-filters="sRGB">
<feFlood flood-opacity="0" result="BackgroundImageFix"/>
<feColorMatrix in="SourceAlpha" type="matrix" values="0 0 0 0 0 0 0 0 0 0 0 0 0 0 0 0 0 0 127 0" result="hardAlpha"/>
<feOffset dy="3.60226"/>
<feGaussianBlur stdDeviation="4.50283"/>
<feComposite in2="hardAlpha" operator="out"/>
<feColorMatrix type="matrix" values="0 0 0 0 1 0 0 0 0 1 0 0 0 0 1 0 0 0 0.25 0"/>
<feBlend mode="normal" in2="BackgroundImageFix" result="effect1_dropShadow_436_1406"/>
<feBlend mode="normal" in="SourceGraphic" in2="effect1_dropShadow_436_1406" result="shape"/>
</filter>
<filter id="filter5_d_436_1406" x="359.993" y="595.778" width="244.053" height="63.128" filterUnits="userSpaceOnUse" color-interpolation-filters="sRGB">
<feFlood flood-opacity="0" result="BackgroundImageFix"/>
<feColorMatrix in="SourceAlpha" type="matrix" values="0 0 0 0 0 0 0 0 0 0 0 0 0 0 0 0 0 0 127 0" result="hardAlpha"/>
<feOffset dy="3.2007"/>
<feGaussianBlur stdDeviation="4.00087"/>
<feComposite in2="hardAlpha" operator="out"/>
<feColorMatrix type="matrix" values="0 0 0 0 1 0 0 0 0 1 0 0 0 0 1 0 0 0 0.25 0"/>
<feBlend mode="normal" in2="BackgroundImageFix" result="effect1_dropShadow_436_1406"/>
<feBlend mode="normal" in="SourceGraphic" in2="effect1_dropShadow_436_1406" result="shape"/>
</filter>
<filter id="filter6_d_436_1406" x="0.833554" y="759.829" width="273.492" height="63.9548" filterUnits="userSpaceOnUse" color-interpolation-filters="sRGB">
<feFlood flood-opacity="0" result="BackgroundImageFix"/>
<feColorMatrix in="SourceAlpha" type="matrix" values="0 0 0 0 0 0 0 0 0 0 0 0 0 0 0 0 0 0 127 0" result="hardAlpha"/>
<feOffset dy="3.36605"/>
<feGaussianBlur stdDeviation="4.20756"/>
<feComposite in2="hardAlpha" operator="out"/>
<feColorMatrix type="matrix" values="0 0 0 0 1 0 0 0 0 1 0 0 0 0 1 0 0 0 0.25 0"/>
<feBlend mode="normal" in2="BackgroundImageFix" result="effect1_dropShadow_436_1406"/>
<feBlend mode="normal" in="SourceGraphic" in2="effect1_dropShadow_436_1406" result="shape"/>
</filter>
</defs>
</svg>
