<svg width="20" height="20" viewBox="0 0 20 20" fill="none" xmlns="http://www.w3.org/2000/svg">
<path d="M10.5912 19.2579L10.5802 19.2599L10.5092 19.2949L10.4892 19.2989L10.4752 19.2949L10.4042 19.2599C10.3936 19.2566 10.3856 19.2583 10.3802 19.2649L10.3762 19.2749L10.3592 19.7029L10.3642 19.7229L10.3742 19.7359L10.4782 19.8099L10.4932 19.8139L10.5052 19.8099L10.6092 19.7359L10.6212 19.7199L10.6252 19.7029L10.6082 19.2759C10.6056 19.2653 10.5999 19.2593 10.5912 19.2579ZM10.8562 19.1449L10.8432 19.1469L10.6582 19.2399L10.6482 19.2499L10.6452 19.2609L10.6632 19.6909L10.6682 19.7029L10.6762 19.7099L10.8772 19.8029C10.8899 19.8063 10.8996 19.8036 10.9062 19.7949L10.9102 19.7809L10.8762 19.1669C10.8729 19.1549 10.8662 19.1476 10.8562 19.1449ZM10.1412 19.1469C10.1368 19.1443 10.1315 19.1434 10.1265 19.1445C10.1215 19.1456 10.1171 19.1487 10.1142 19.1529L10.1082 19.1669L10.0742 19.7809C10.0749 19.7929 10.0806 19.8009 10.0912 19.8049L10.1062 19.8029L10.3072 19.7099L10.3172 19.7019L10.3212 19.6909L10.3382 19.2609L10.3352 19.2489L10.3252 19.2389L10.1412 19.1469Z" fill="white"/>
<path d="M18.9989 3C19.2538 3.00028 19.4989 3.09788 19.6843 3.27285C19.8696 3.44782 19.9811 3.68695 19.9961 3.94139C20.011 4.19584 19.9282 4.44638 19.7646 4.64183C19.601 4.83729 19.369 4.9629 19.1159 4.993L18.9989 5V15C19.2538 15.0003 19.4989 15.0979 19.6843 15.2728C19.8696 15.4478 19.9811 15.687 19.9961 15.9414C20.011 16.1958 19.9282 16.4464 19.7646 16.6418C19.601 16.8373 19.369 16.9629 19.1159 16.993L18.9989 17H0.998892C0.744013 16.9997 0.49886 16.9021 0.313524 16.7272C0.128188 16.5522 0.0166572 16.313 0.00172004 16.0586C-0.0132171 15.8042 0.0695667 15.5536 0.233157 15.3582C0.396747 15.1627 0.628796 15.0371 0.881892 15.007L0.998892 15V5C0.744013 4.99972 0.49886 4.90212 0.313524 4.72715C0.128188 4.55218 0.0166572 4.31305 0.00172004 4.05861C-0.0132171 3.80416 0.0695667 3.55362 0.233157 3.35817C0.396747 3.16271 0.628796 3.0371 0.881892 3.007L0.998892 3H18.9989ZM16.9989 5H2.99889V15H4.99889V8C4.99889 7.73478 5.10425 7.48043 5.29179 7.29289C5.47932 7.10536 5.73368 7 5.99889 7C6.26411 7 6.51846 7.10536 6.706 7.29289C6.89354 7.48043 6.99889 7.73478 6.99889 8V15H8.99889V8C8.99889 7.73478 9.10425 7.48043 9.29179 7.29289C9.47932 7.10536 9.73368 7 9.99889 7C10.2641 7 10.5185 7.10536 10.706 7.29289C10.8935 7.48043 10.9989 7.73478 10.9989 8V15H12.9989V8C12.9989 7.73478 13.1042 7.48043 13.2918 7.29289C13.4793 7.10536 13.7337 7 13.9989 7C14.2641 7 14.5185 7.10536 14.706 7.29289C14.8935 7.48043 14.9989 7.73478 14.9989 8V15H16.9989V5ZM15.9989 0C16.2641 0 16.5185 0.105357 16.706 0.292893C16.8935 0.48043 16.9989 0.734784 16.9989 1C16.9989 1.26522 16.8935 1.51957 16.706 1.70711C16.5185 1.89464 16.2641 2 15.9989 2H3.99889C3.73368 2 3.47932 1.89464 3.29179 1.70711C3.10425 1.51957 2.99889 1.26522 2.99889 1C2.99889 0.734784 3.10425 0.48043 3.29179 0.292893C3.47932 0.105357 3.73368 0 3.99889 0H15.9989Z" fill="white"/>
</svg>
