<svg width="21" height="21" viewBox="0 0 21 21" fill="none" xmlns="http://www.w3.org/2000/svg">
<path d="M11.3393 20.0267L11.3283 20.0287L11.2573 20.0637L11.2373 20.0677L11.2233 20.0637L11.1523 20.0287C11.1416 20.0254 11.1336 20.0271 11.1283 20.0337L11.1243 20.0437L11.1073 20.4717L11.1123 20.4917L11.1223 20.5047L11.2263 20.5787L11.2413 20.5827L11.2533 20.5787L11.3573 20.5047L11.3693 20.4887L11.3733 20.4717L11.3563 20.0447C11.3536 20.0341 11.3479 20.0281 11.3393 20.0267ZM11.6043 19.9137L11.5913 19.9157L11.4063 20.0087L11.3963 20.0187L11.3933 20.0297L11.4113 20.4597L11.4163 20.4717L11.4243 20.4787L11.6253 20.5717C11.6379 20.5751 11.6476 20.5724 11.6543 20.5637L11.6583 20.5497L11.6243 19.9357C11.6209 19.9237 11.6143 19.9164 11.6043 19.9137ZM10.8893 19.9157C10.8849 19.9131 10.8796 19.9122 10.8746 19.9133C10.8695 19.9144 10.8651 19.9175 10.8623 19.9217L10.8563 19.9357L10.8223 20.5497C10.8229 20.5617 10.8286 20.5697 10.8393 20.5737L10.8543 20.5717L11.0553 20.4787L11.0653 20.4707L11.0693 20.4597L11.0863 20.0297L11.0833 20.0177L11.0733 20.0077L10.8893 19.9157Z" fill="#231330"/>
<path d="M19.7469 3.7688C20.0018 3.76908 20.247 3.86668 20.4323 4.04165C20.6176 4.21662 20.7292 4.45575 20.7441 4.71019C20.759 4.96464 20.6763 5.21518 20.5127 5.41063C20.3491 5.60608 20.117 5.7317 19.8639 5.7618L19.7469 5.7688V15.7688C20.0018 15.7691 20.247 15.8667 20.4323 16.0416C20.6176 16.2166 20.7292 16.4558 20.7441 16.7102C20.759 16.9646 20.6763 17.2152 20.5127 17.4106C20.3491 17.6061 20.117 17.7317 19.8639 17.7618L19.7469 17.7688H1.74694C1.49206 17.7685 1.24691 17.6709 1.06157 17.496C0.876235 17.321 0.764704 17.0818 0.749767 16.8274C0.73483 16.573 0.817614 16.3224 0.981204 16.127C1.14479 15.9315 1.37684 15.8059 1.62994 15.7758L1.74694 15.7688V5.7688C1.49206 5.76852 1.24691 5.67092 1.06157 5.49595C0.876235 5.32098 0.764704 5.08185 0.749767 4.8274C0.73483 4.57296 0.817614 4.32242 0.981204 4.12697C1.14479 3.93151 1.37684 3.8059 1.62994 3.7758L1.74694 3.7688H19.7469ZM17.7469 5.7688H3.74694V15.7688H5.74694V8.7688C5.74694 8.50358 5.8523 8.24923 6.03983 8.06169C6.22737 7.87416 6.48172 7.7688 6.74694 7.7688C7.01216 7.7688 7.26651 7.87416 7.45405 8.06169C7.64158 8.24923 7.74694 8.50358 7.74694 8.7688V15.7688H9.74694V8.7688C9.74694 8.50358 9.8523 8.24923 10.0398 8.06169C10.2274 7.87416 10.4817 7.7688 10.7469 7.7688C11.0122 7.7688 11.2665 7.87416 11.454 8.06169C11.6416 8.24923 11.7469 8.50358 11.7469 8.7688V15.7688H13.7469V8.7688C13.7469 8.50358 13.8523 8.24923 14.0398 8.06169C14.2274 7.87416 14.4817 7.7688 14.7469 7.7688C15.0122 7.7688 15.2665 7.87416 15.454 8.06169C15.6416 8.24923 15.7469 8.50358 15.7469 8.7688V15.7688H17.7469V5.7688ZM16.7469 0.768799C17.0122 0.768799 17.2665 0.874156 17.454 1.06169C17.6416 1.24923 17.7469 1.50358 17.7469 1.7688C17.7469 2.03402 17.6416 2.28837 17.454 2.47591C17.2665 2.66344 17.0122 2.7688 16.7469 2.7688H4.74694C4.48172 2.7688 4.22737 2.66344 4.03983 2.47591C3.8523 2.28837 3.74694 2.03402 3.74694 1.7688C3.74694 1.50358 3.8523 1.24923 4.03983 1.06169C4.22737 0.874156 4.48172 0.768799 4.74694 0.768799H16.7469Z" fill="#231330"/>
</svg>
