<svg width="19" height="19" viewBox="0 0 19 19" fill="none" xmlns="http://www.w3.org/2000/svg">
<path d="M1.75586 15.676C1.75586 14.6152 2.17729 13.5977 2.92743 12.8476C3.67758 12.0975 4.69499 11.676 5.75586 11.676H13.7559C14.8167 11.676 15.8341 12.0975 16.5843 12.8476C17.3344 13.5977 17.7559 14.6152 17.7559 15.676C17.7559 16.2065 17.5451 16.7152 17.1701 17.0902C16.795 17.4653 16.2863 17.676 15.7559 17.676H3.75586C3.22543 17.676 2.71672 17.4653 2.34165 17.0902C1.96657 16.7152 1.75586 16.2065 1.75586 15.676Z" stroke="#231330" stroke-width="2" stroke-linejoin="round"/>
<path d="M9.75586 7.67603C11.4127 7.67603 12.7559 6.33288 12.7559 4.67603C12.7559 3.01917 11.4127 1.67603 9.75586 1.67603C8.09901 1.67603 6.75586 3.01917 6.75586 4.67603C6.75586 6.33288 8.09901 7.67603 9.75586 7.67603Z" stroke="#231330" stroke-width="2"/>
</svg>
