<svg width="19" height="21" viewBox="0 0 19 21" fill="none" xmlns="http://www.w3.org/2000/svg">
<path d="M9.72633 0.672373C8.795 0.670251 7.89617 1.01458 7.20463 1.63839C6.5131 2.26221 6.07828 3.12092 5.98475 4.04754C5.89121 4.97416 6.14564 5.90245 6.69856 6.65188C7.25148 7.40132 8.06336 7.91833 8.97633 8.10237V10.1744H5.72633C5.12959 10.1744 4.55729 10.4114 4.13534 10.8334C3.71338 11.2553 3.47633 11.8276 3.47633 12.4244V13.2504C2.56808 13.4397 1.76211 13.9586 1.21386 14.707C0.665618 15.4555 0.413941 16.3804 0.507376 17.3035C0.600811 18.2265 1.03274 19.0823 1.71985 19.7057C2.40696 20.329 3.30057 20.6759 4.22833 20.6794C5.15948 20.681 6.05796 20.3363 6.74912 19.7123C7.44028 19.0884 7.87472 18.2297 7.96799 17.3032C8.06126 16.3767 7.80669 15.4487 7.25378 14.6995C6.70087 13.9502 5.88911 13.4334 4.97633 13.2494V12.4244C4.97633 12.2255 5.05534 12.0347 5.196 11.894C5.33665 11.7534 5.52741 11.6744 5.72633 11.6744H13.7263C13.9252 11.6744 14.116 11.7534 14.2567 11.894C14.3973 12.0347 14.4763 12.2255 14.4763 12.4244V13.2504C13.5681 13.4397 12.7621 13.9586 12.2139 14.707C11.6656 15.4555 11.4139 16.3804 11.5074 17.3035C11.6008 18.2265 12.0327 19.0823 12.7198 19.7057C13.407 20.329 14.3006 20.6759 15.2283 20.6794C16.1595 20.681 17.058 20.3363 17.7491 19.7123C18.4403 19.0884 18.8747 18.2297 18.968 17.3032C19.0613 16.3767 18.8067 15.4487 18.2538 14.6995C17.7009 13.9502 16.8891 13.4334 15.9763 13.2494V12.4244C15.9763 11.8276 15.7393 11.2553 15.3173 10.8334C14.8954 10.4114 14.3231 10.1744 13.7263 10.1744H10.4763V8.10237C11.3855 7.91412 12.1926 7.39565 12.7418 6.64711C13.291 5.89857 13.5434 4.97306 13.4502 4.04934C13.3569 3.12561 12.9247 2.26921 12.2369 1.64553C11.5492 1.02185 10.6547 0.675142 9.72633 0.672373ZM7.47433 4.42437C7.47433 3.82711 7.71159 3.2543 8.13392 2.83197C8.55625 2.40964 9.12906 2.17237 9.72633 2.17237C10.3236 2.17237 10.8964 2.40964 11.3187 2.83197C11.7411 3.2543 11.9783 3.82711 11.9783 4.42437C11.9783 5.02164 11.7411 5.59445 11.3187 6.01678C10.8964 6.43911 10.3236 6.67637 9.72633 6.67637C9.12906 6.67637 8.55625 6.43911 8.13392 6.01678C7.71159 5.59445 7.47433 5.02164 7.47433 4.42437ZM1.97633 16.9274C1.97633 16.6316 2.03459 16.3387 2.14779 16.0654C2.26099 15.7921 2.4269 15.5438 2.63607 15.3346C2.84523 15.1255 3.09355 14.9595 3.36683 14.8463C3.64012 14.7331 3.93302 14.6749 4.22883 14.6749C4.52463 14.6749 4.81753 14.7331 5.09082 14.8463C5.36411 14.9595 5.61242 15.1255 5.82158 15.3346C6.03075 15.5438 6.19667 15.7921 6.30986 16.0654C6.42306 16.3387 6.48133 16.6316 6.48133 16.9274C6.48133 17.5248 6.24401 18.0977 5.82158 18.5201C5.39916 18.9426 4.82623 19.1799 4.22883 19.1799C3.63143 19.1799 3.05849 18.9426 2.63607 18.5201C2.21364 18.0977 1.97633 17.5248 1.97633 16.9274ZM15.2283 14.6744C15.5241 14.6744 15.817 14.7326 16.0903 14.8458C16.3636 14.959 16.6119 15.125 16.8211 15.3341C17.0302 15.5433 17.1962 15.7916 17.3094 16.0649C17.4226 16.3382 17.4808 16.6311 17.4808 16.9269C17.4808 17.2227 17.4226 17.5156 17.3094 17.7889C17.1962 18.0622 17.0302 18.3105 16.8211 18.5196C16.6119 18.7288 16.3636 18.8947 16.0903 19.0079C15.817 19.1211 15.5241 19.1794 15.2283 19.1794C14.6309 19.1794 14.058 18.9421 13.6356 18.5196C13.2131 18.0972 12.9758 17.5243 12.9758 16.9269C12.9758 16.3295 13.2131 15.7565 13.6356 15.3341C14.058 14.9117 14.6309 14.6744 15.2283 14.6744Z" fill="#231330"/>
</svg>
