<svg width="19" height="20" viewBox="0 0 19 20" fill="none" xmlns="http://www.w3.org/2000/svg">
<path d="M9.23804 9.75219e-06C8.30672 -0.0021125 7.40789 0.342215 6.71635 0.966031C6.02482 1.58985 5.59 2.44856 5.49646 3.37518C5.40293 4.3018 5.65736 5.23009 6.21028 5.97952C6.7632 6.72896 7.57508 7.24597 8.48804 7.43001V9.50201H5.23804C4.64131 9.50201 4.06901 9.73906 3.64705 10.161C3.2251 10.583 2.98804 11.1553 2.98804 11.752V12.578C2.0798 12.7673 1.27383 13.2862 0.725582 14.0347C0.177337 14.7831 -0.0743406 15.7081 0.0190945 16.6311C0.11253 17.5541 0.544458 18.4099 1.23157 19.0333C1.91868 19.6567 2.81229 20.0036 3.74004 20.007C4.6712 20.0086 5.56968 19.664 6.26084 19.04C6.95199 18.416 7.38643 17.5573 7.4797 16.6308C7.57298 15.7044 7.31841 14.7763 6.7655 14.0271C6.21259 13.2779 5.40083 12.761 4.48804 12.577V11.752C4.48804 11.5531 4.56706 11.3623 4.70771 11.2217C4.84837 11.081 5.03913 11.002 5.23804 11.002H13.238C13.437 11.002 13.6277 11.081 13.7684 11.2217C13.909 11.3623 13.988 11.5531 13.988 11.752V12.578C13.0798 12.7673 12.2738 13.2862 11.7256 14.0347C11.1773 14.7831 10.9257 15.7081 11.0191 16.6311C11.1125 17.5541 11.5445 18.4099 12.2316 19.0333C12.9187 19.6567 13.8123 20.0036 14.74 20.007C15.6712 20.0086 16.5697 19.664 17.2608 19.04C17.952 18.416 18.3864 17.5573 18.4797 16.6308C18.573 15.7044 18.3184 14.7763 17.7655 14.0271C17.2126 13.2779 16.4008 12.761 15.488 12.577V11.752C15.488 11.1553 15.251 10.583 14.829 10.161C14.4071 9.73906 13.8348 9.50201 13.238 9.50201H9.98804V7.43001C10.8972 7.24176 11.7043 6.72329 12.2535 5.97475C12.8028 5.22621 13.0551 4.3007 12.9619 3.37697C12.8686 2.45325 12.4364 1.59684 11.7487 0.973163C11.0609 0.349484 10.1665 0.00277835 9.23804 9.75219e-06ZM6.98604 3.75201C6.98604 3.15474 7.22331 2.58194 7.64564 2.15961C8.06797 1.73727 8.64078 1.50001 9.23804 1.50001C9.83531 1.50001 10.4081 1.73727 10.8304 2.15961C11.2528 2.58194 11.49 3.15474 11.49 3.75201C11.49 4.34928 11.2528 4.92208 10.8304 5.34441C10.4081 5.76675 9.83531 6.00401 9.23804 6.00401C8.64078 6.00401 8.06797 5.76675 7.64564 5.34441C7.22331 4.92208 6.98604 4.34928 6.98604 3.75201ZM1.48804 16.255C1.48804 15.9592 1.54631 15.6663 1.65951 15.393C1.7727 15.1197 1.93862 14.8714 2.14779 14.6623C2.35695 14.4531 2.60526 14.2872 2.87855 14.174C3.15184 14.0608 3.44474 14.0025 3.74054 14.0025C4.03635 14.0025 4.32925 14.0608 4.60254 14.174C4.87582 14.2872 5.12414 14.4531 5.3333 14.6623C5.54247 14.8714 5.70839 15.1197 5.82158 15.393C5.93478 15.6663 5.99304 15.9592 5.99304 16.255C5.99304 16.8524 5.75573 17.4253 5.3333 17.8478C4.91088 18.2702 4.33794 18.5075 3.74054 18.5075C3.14314 18.5075 2.57021 18.2702 2.14779 17.8478C1.72536 17.4253 1.48804 16.8524 1.48804 16.255ZM14.74 14.002C15.0358 14.002 15.3288 14.0603 15.602 14.1735C15.8753 14.2867 16.1236 14.4526 16.3328 14.6618C16.542 14.8709 16.7079 15.1192 16.8211 15.3925C16.9343 15.6658 16.9925 15.9587 16.9925 16.2545C16.9925 16.5503 16.9343 16.8432 16.8211 17.1165C16.7079 17.3898 16.542 17.6381 16.3328 17.8473C16.1236 18.0564 15.8753 18.2223 15.602 18.3355C15.3288 18.4487 15.0358 18.507 14.74 18.507C14.1426 18.507 13.5697 18.2697 13.1473 17.8473C12.7249 17.4248 12.4875 16.8519 12.4875 16.2545C12.4875 15.6571 12.7249 15.0842 13.1473 14.6618C13.5697 14.2393 14.1426 14.002 14.74 14.002Z" fill="#FBFBFB"/>
</svg>
