<svg width="41" height="41" viewBox="0 0 41 41" fill="none" xmlns="http://www.w3.org/2000/svg">
<path d="M20.7442 37.8177C16.0644 37.8177 11.5762 35.9586 8.26707 32.6493C4.95794 29.34 3.09888 24.8516 3.09888 20.1716C3.09888 15.4915 4.95794 11.0031 8.26707 7.69384C11.5762 4.38454 16.0644 2.5254 20.7442 2.5254C25.424 2.5254 29.9122 4.38454 33.2213 7.69384C36.5304 11.0031 38.3895 15.4915 38.3895 20.1716C38.3895 24.8516 36.5304 29.34 33.2213 32.6493C29.9122 35.9586 25.424 37.8177 20.7442 37.8177ZM20.7442 40.3386C26.0926 40.3386 31.2219 38.2139 35.0038 34.4318C38.7856 30.6498 40.9103 25.5202 40.9103 20.1716C40.9103 14.8229 38.7856 9.69336 35.0038 5.91131C31.2219 2.12925 26.0926 0.0045166 20.7442 0.0045166C15.3958 0.0045166 10.2665 2.12925 6.48463 5.91131C2.70276 9.69336 0.578125 14.8229 0.578125 20.1716C0.578125 25.5202 2.70276 30.6498 6.48463 34.4318C10.2665 38.2139 15.3958 40.3386 20.7442 40.3386Z" fill="white"/>
<path d="M20.7451 10.088C21.0794 10.088 21.4 10.2208 21.6364 10.4572C21.8727 10.6936 22.0055 11.0142 22.0055 11.3485V18.9111H29.5678C29.9021 18.9111 30.2227 19.0439 30.459 19.2803C30.6954 19.5167 30.8282 19.8373 30.8282 20.1716C30.8282 20.5059 30.6954 20.8265 30.459 21.0628C30.2227 21.2992 29.9021 21.432 29.5678 21.432H22.0055V28.9946C22.0055 29.3289 21.8727 29.6495 21.6364 29.8859C21.4 30.1223 21.0794 30.2551 20.7451 30.2551C20.4109 30.2551 20.0903 30.1223 19.8539 29.8859C19.6176 29.6495 19.4848 29.3289 19.4848 28.9946V21.432H11.9225C11.5882 21.432 11.2676 21.2992 11.0313 21.0628C10.7949 20.8265 10.6621 20.5059 10.6621 20.1716C10.6621 19.8373 10.7949 19.5167 11.0313 19.2803C11.2676 19.0439 11.5882 18.9111 11.9225 18.9111H19.4848V11.3485C19.4848 11.0142 19.6176 10.6936 19.8539 10.4572C20.0903 10.2208 20.4109 10.088 20.7451 10.088Z" fill="white"/>
</svg>
