<svg width="845" height="727" viewBox="0 0 845 727" fill="none" xmlns="http://www.w3.org/2000/svg">
<path d="M418.113 366.202L266.11 281.563C261.174 278.815 259.493 272.527 262.399 267.682L414.396 14.3202C418.284 7.84004 427.678 7.84764 431.555 14.3341L582.998 267.702C585.89 272.54 584.214 278.811 579.293 281.561L427.857 366.194C424.83 367.886 421.143 367.889 418.113 366.202Z" stroke="white" stroke-width="2" stroke-linejoin="round"/>
<path d="M442.395 396.016L589.224 301.344C594.085 298.21 600.583 299.889 603.366 304.999L750.79 575.606C754.431 582.289 749.653 590.43 742.089 590.43L448.453 590.43C442.945 590.43 438.464 585.937 438.445 580.397L437.827 404.463C437.815 401.043 439.537 397.859 442.395 396.016Z" stroke="white" stroke-width="2" stroke-linejoin="round"/>
<path d="M400.494 398.083L254.779 305.373C249.95 302.301 243.532 303.949 240.731 308.981L92.4005 575.526C88.6803 582.211 93.4543 590.43 101.058 590.43L393.452 590.43C398.936 590.43 403.408 585.975 403.46 580.458L405.112 406.623C405.144 403.16 403.399 399.932 400.494 398.083Z" stroke="white" stroke-width="2" stroke-linejoin="round"/>
<path d="M467.112 507.808V483.308H479.082C482.162 483.308 484.472 483.892 486.012 485.058C487.575 486.225 488.357 487.765 488.357 489.678C488.357 490.962 488.042 492.082 487.412 493.038C486.782 493.972 485.919 494.695 484.822 495.208C483.725 495.722 482.465 495.978 481.042 495.978L481.707 494.543C483.247 494.543 484.612 494.8 485.802 495.313C486.992 495.803 487.914 496.538 488.567 497.518C489.244 498.498 489.582 499.7 489.582 501.123C489.582 503.223 488.754 504.868 487.097 506.058C485.44 507.225 483.002 507.808 479.782 507.808H467.112ZM472.747 503.538H479.362C480.832 503.538 481.94 503.305 482.687 502.838C483.457 502.348 483.842 501.578 483.842 500.528C483.842 499.502 483.457 498.743 482.687 498.253C481.94 497.74 480.832 497.483 479.362 497.483H472.327V493.353H478.382C479.759 493.353 480.809 493.12 481.532 492.653C482.279 492.163 482.652 491.428 482.652 490.448C482.652 489.492 482.279 488.78 481.532 488.313C480.809 487.823 479.759 487.578 478.382 487.578H472.747V503.538ZM502.835 508.088C500.688 508.088 498.798 507.668 497.165 506.828C495.555 505.988 494.306 504.845 493.42 503.398C492.533 501.928 492.09 500.26 492.09 498.393C492.09 496.503 492.521 494.835 493.385 493.388C494.271 491.918 495.473 490.775 496.99 489.958C498.506 489.118 500.221 488.698 502.135 488.698C503.978 488.698 505.635 489.095 507.105 489.888C508.598 490.658 509.776 491.778 510.64 493.248C511.503 494.695 511.935 496.433 511.935 498.463C511.935 498.673 511.923 498.918 511.9 499.198C511.876 499.455 511.853 499.7 511.83 499.933H496.535V496.748H508.96L506.86 497.693C506.86 496.713 506.661 495.862 506.265 495.138C505.868 494.415 505.32 493.855 504.62 493.458C503.92 493.038 503.103 492.828 502.17 492.828C501.236 492.828 500.408 493.038 499.685 493.458C498.985 493.855 498.436 494.427 498.04 495.173C497.643 495.897 497.445 496.76 497.445 497.763V498.603C497.445 499.63 497.666 500.54 498.11 501.333C498.576 502.103 499.218 502.698 500.035 503.118C500.875 503.515 501.855 503.713 502.975 503.713C503.978 503.713 504.853 503.562 505.6 503.258C506.37 502.955 507.07 502.5 507.7 501.893L510.605 505.043C509.741 506.023 508.656 506.782 507.35 507.318C506.043 507.832 504.538 508.088 502.835 508.088ZM517.608 514.878C516.628 514.878 515.66 514.727 514.703 514.423C513.746 514.12 512.965 513.7 512.358 513.163L514.353 509.278C514.773 509.652 515.251 509.943 515.788 510.153C516.348 510.363 516.896 510.468 517.433 510.468C518.203 510.468 518.81 510.282 519.253 509.908C519.72 509.558 520.14 508.963 520.513 508.123L521.493 505.813L521.913 505.218L528.668 488.978H533.918L525.413 508.963C524.806 510.48 524.106 511.67 523.313 512.533C522.543 513.397 521.68 514.003 520.723 514.353C519.79 514.703 518.751 514.878 517.608 514.878ZM520.828 508.543L512.428 488.978H518.063L524.573 504.728L520.828 508.543ZM544.593 508.088C542.587 508.088 540.802 507.668 539.238 506.828C537.698 505.988 536.473 504.845 535.563 503.398C534.677 501.928 534.233 500.26 534.233 498.393C534.233 496.503 534.677 494.835 535.563 493.388C536.473 491.918 537.698 490.775 539.238 489.958C540.802 489.118 542.587 488.698 544.593 488.698C546.577 488.698 548.35 489.118 549.913 489.958C551.477 490.775 552.702 491.907 553.588 493.353C554.475 494.8 554.918 496.48 554.918 498.393C554.918 500.26 554.475 501.928 553.588 503.398C552.702 504.845 551.477 505.988 549.913 506.828C548.35 507.668 546.577 508.088 544.593 508.088ZM544.593 503.608C545.503 503.608 546.32 503.398 547.043 502.978C547.767 502.558 548.338 501.963 548.758 501.193C549.178 500.4 549.388 499.467 549.388 498.393C549.388 497.297 549.178 496.363 548.758 495.593C548.338 494.823 547.767 494.228 547.043 493.808C546.32 493.388 545.503 493.178 544.593 493.178C543.683 493.178 542.867 493.388 542.143 493.808C541.42 494.228 540.837 494.823 540.393 495.593C539.973 496.363 539.763 497.297 539.763 498.393C539.763 499.467 539.973 500.4 540.393 501.193C540.837 501.963 541.42 502.558 542.143 502.978C542.867 503.398 543.683 503.608 544.593 503.608ZM570.013 488.698C571.506 488.698 572.836 489.002 574.003 489.608C575.193 490.192 576.126 491.102 576.803 492.338C577.48 493.552 577.818 495.115 577.818 497.028V507.808H572.358V497.868C572.358 496.352 572.02 495.232 571.343 494.508C570.69 493.785 569.756 493.423 568.543 493.423C567.68 493.423 566.898 493.61 566.198 493.983C565.521 494.333 564.985 494.882 564.588 495.628C564.215 496.375 564.028 497.332 564.028 498.498V507.808H558.568V488.978H563.783V494.193L562.803 492.618C563.48 491.358 564.448 490.39 565.708 489.713C566.968 489.037 568.403 488.698 570.013 488.698ZM590.989 508.088C589.215 508.088 587.617 507.692 586.194 506.898C584.77 506.082 583.639 504.95 582.799 503.503C581.982 502.057 581.574 500.353 581.574 498.393C581.574 496.41 581.982 494.695 582.799 493.248C583.639 491.802 584.77 490.682 586.194 489.888C587.617 489.095 589.215 488.698 590.989 488.698C592.575 488.698 593.964 489.048 595.154 489.748C596.344 490.448 597.265 491.51 597.919 492.933C598.572 494.357 598.899 496.177 598.899 498.393C598.899 500.587 598.584 502.407 597.954 503.853C597.324 505.277 596.414 506.338 595.224 507.038C594.057 507.738 592.645 508.088 590.989 508.088ZM591.934 503.608C592.82 503.608 593.625 503.398 594.349 502.978C595.072 502.558 595.644 501.963 596.064 501.193C596.507 500.4 596.729 499.467 596.729 498.393C596.729 497.297 596.507 496.363 596.064 495.593C595.644 494.823 595.072 494.228 594.349 493.808C593.625 493.388 592.82 493.178 591.934 493.178C591.024 493.178 590.207 493.388 589.484 493.808C588.76 494.228 588.177 494.823 587.734 495.593C587.314 496.363 587.104 497.297 587.104 498.393C587.104 499.467 587.314 500.4 587.734 501.193C588.177 501.963 588.76 502.558 589.484 502.978C590.207 503.398 591.024 503.608 591.934 503.608ZM596.869 507.808V503.958L596.974 498.358L596.624 492.793V481.838H602.084V507.808H596.869ZM475.162 551.228C473.202 551.228 471.324 550.972 469.527 550.458C467.73 549.922 466.284 549.233 465.187 548.393L467.112 544.123C468.162 544.87 469.399 545.488 470.822 545.978C472.269 546.445 473.727 546.678 475.197 546.678C476.317 546.678 477.215 546.573 477.892 546.363C478.592 546.13 479.105 545.815 479.432 545.418C479.759 545.022 479.922 544.567 479.922 544.053C479.922 543.4 479.665 542.887 479.152 542.513C478.639 542.117 477.962 541.802 477.122 541.568C476.282 541.312 475.349 541.078 474.322 540.868C473.319 540.635 472.304 540.355 471.277 540.028C470.274 539.702 469.352 539.282 468.512 538.768C467.672 538.255 466.984 537.578 466.447 536.738C465.934 535.898 465.677 534.825 465.677 533.518C465.677 532.118 466.05 530.847 466.797 529.703C467.567 528.537 468.71 527.615 470.227 526.938C471.767 526.238 473.692 525.888 476.002 525.888C477.542 525.888 479.059 526.075 480.552 526.448C482.045 526.798 483.364 527.335 484.507 528.058L482.757 532.363C481.614 531.71 480.47 531.232 479.327 530.928C478.184 530.602 477.064 530.438 475.967 530.438C474.87 530.438 473.972 530.567 473.272 530.823C472.572 531.08 472.07 531.418 471.767 531.838C471.464 532.235 471.312 532.702 471.312 533.238C471.312 533.868 471.569 534.382 472.082 534.778C472.595 535.152 473.272 535.455 474.112 535.688C474.952 535.922 475.874 536.155 476.877 536.388C477.904 536.622 478.919 536.89 479.922 537.193C480.949 537.497 481.882 537.905 482.722 538.418C483.562 538.932 484.239 539.608 484.752 540.448C485.289 541.288 485.557 542.35 485.557 543.633C485.557 545.01 485.172 546.27 484.402 547.413C483.632 548.557 482.477 549.478 480.937 550.178C479.42 550.878 477.495 551.228 475.162 551.228ZM491.085 557.878C490.105 557.878 489.136 557.727 488.18 557.423C487.223 557.12 486.441 556.7 485.835 556.163L487.83 552.278C488.25 552.652 488.728 552.943 489.265 553.153C489.825 553.363 490.373 553.468 490.91 553.468C491.68 553.468 492.286 553.282 492.73 552.908C493.196 552.558 493.616 551.963 493.99 551.123L494.97 548.813L495.39 548.218L502.145 531.978H507.395L498.89 551.963C498.283 553.48 497.583 554.67 496.79 555.533C496.02 556.397 495.156 557.003 494.2 557.353C493.266 557.703 492.228 557.878 491.085 557.878ZM494.305 551.543L485.905 531.978H491.54L498.05 547.728L494.305 551.543ZM509.623 550.808V524.838H515.083V550.808H509.623ZM520.15 550.808V524.838H525.61V550.808H520.15ZM542.227 550.808V547.133L541.877 546.328V539.748C541.877 538.582 541.516 537.672 540.792 537.018C540.092 536.365 539.007 536.038 537.537 536.038C536.534 536.038 535.542 536.202 534.562 536.528C533.606 536.832 532.789 537.252 532.112 537.788L530.152 533.973C531.179 533.25 532.416 532.69 533.862 532.293C535.309 531.897 536.779 531.698 538.272 531.698C541.142 531.698 543.371 532.375 544.957 533.728C546.544 535.082 547.337 537.193 547.337 540.063V550.808H542.227ZM536.487 551.088C535.017 551.088 533.757 550.843 532.707 550.353C531.657 549.84 530.852 549.152 530.292 548.288C529.732 547.425 529.452 546.457 529.452 545.383C529.452 544.263 529.721 543.283 530.257 542.443C530.817 541.603 531.692 540.95 532.882 540.483C534.072 539.993 535.624 539.748 537.537 539.748H542.542V542.933H538.132C536.849 542.933 535.962 543.143 535.472 543.563C535.006 543.983 534.772 544.508 534.772 545.138C534.772 545.838 535.041 546.398 535.577 546.818C536.137 547.215 536.896 547.413 537.852 547.413C538.762 547.413 539.579 547.203 540.302 546.783C541.026 546.34 541.551 545.698 541.877 544.858L542.717 547.378C542.321 548.592 541.597 549.513 540.547 550.143C539.497 550.773 538.144 551.088 536.487 551.088ZM563.409 551.088C561.752 551.088 560.329 550.738 559.139 550.038C557.949 549.338 557.039 548.277 556.409 546.853C555.779 545.407 555.464 543.587 555.464 541.393C555.464 539.177 555.79 537.357 556.444 535.933C557.12 534.51 558.054 533.448 559.244 532.748C560.434 532.048 561.822 531.698 563.409 531.698C565.182 531.698 566.769 532.095 568.169 532.888C569.592 533.682 570.712 534.802 571.529 536.248C572.369 537.695 572.789 539.41 572.789 541.393C572.789 543.353 572.369 545.057 571.529 546.503C570.712 547.95 569.592 549.082 568.169 549.898C566.769 550.692 565.182 551.088 563.409 551.088ZM552.279 550.808V524.838H557.739V535.793L557.389 541.358L557.494 546.958V550.808H552.279ZM562.464 546.608C563.374 546.608 564.179 546.398 564.879 545.978C565.602 545.558 566.174 544.963 566.594 544.193C567.037 543.4 567.259 542.467 567.259 541.393C567.259 540.297 567.037 539.363 566.594 538.593C566.174 537.823 565.602 537.228 564.879 536.808C564.179 536.388 563.374 536.178 562.464 536.178C561.554 536.178 560.737 536.388 560.014 536.808C559.29 537.228 558.719 537.823 558.299 538.593C557.879 539.363 557.669 540.297 557.669 541.393C557.669 542.467 557.879 543.4 558.299 544.193C558.719 544.963 559.29 545.558 560.014 545.978C560.737 546.398 561.554 546.608 562.464 546.608ZM584.389 551.088C582.825 551.088 581.425 550.785 580.189 550.178C578.975 549.572 578.03 548.65 577.354 547.413C576.677 546.153 576.339 544.555 576.339 542.618V531.978H581.799V541.813C581.799 543.377 582.125 544.532 582.779 545.278C583.455 546.002 584.4 546.363 585.614 546.363C586.454 546.363 587.2 546.188 587.854 545.838C588.507 545.465 589.02 544.905 589.394 544.158C589.767 543.388 589.954 542.432 589.954 541.288V531.978H595.414V550.808H590.234V545.628L591.179 547.133C590.549 548.44 589.615 549.432 588.379 550.108C587.165 550.762 585.835 551.088 584.389 551.088ZM606.807 551.088C605.197 551.088 603.645 550.902 602.152 550.528C600.682 550.132 599.515 549.642 598.652 549.058L600.472 545.138C601.335 545.675 602.35 546.118 603.517 546.468C604.707 546.795 605.874 546.958 607.017 546.958C608.277 546.958 609.164 546.807 609.677 546.503C610.214 546.2 610.482 545.78 610.482 545.243C610.482 544.8 610.272 544.473 609.852 544.263C609.455 544.03 608.919 543.855 608.242 543.738C607.565 543.622 606.819 543.505 606.002 543.388C605.209 543.272 604.404 543.12 603.587 542.933C602.77 542.723 602.024 542.42 601.347 542.023C600.67 541.627 600.122 541.09 599.702 540.413C599.305 539.737 599.107 538.862 599.107 537.788C599.107 536.598 599.445 535.548 600.122 534.638C600.822 533.728 601.825 533.017 603.132 532.503C604.439 531.967 606.002 531.698 607.822 531.698C609.105 531.698 610.412 531.838 611.742 532.118C613.072 532.398 614.18 532.807 615.067 533.343L613.247 537.228C612.337 536.692 611.415 536.33 610.482 536.143C609.572 535.933 608.685 535.828 607.822 535.828C606.609 535.828 605.722 535.992 605.162 536.318C604.602 536.645 604.322 537.065 604.322 537.578C604.322 538.045 604.52 538.395 604.917 538.628C605.337 538.862 605.885 539.048 606.562 539.188C607.239 539.328 607.974 539.457 608.767 539.573C609.584 539.667 610.4 539.818 611.217 540.028C612.034 540.238 612.769 540.542 613.422 540.938C614.099 541.312 614.647 541.837 615.067 542.513C615.487 543.167 615.697 544.03 615.697 545.103C615.697 546.27 615.347 547.308 614.647 548.218C613.947 549.105 612.932 549.805 611.602 550.318C610.295 550.832 608.697 551.088 606.807 551.088Z" fill="#6F00CD"/>
<path d="M208.231 433.786V437.98H212.803V439.33H208.231V443.65H213.343V445H206.593V432.436H213.343V433.786H208.231ZM227.684 434.956C228.452 434.956 229.136 435.118 229.736 435.442C230.336 435.754 230.81 436.228 231.158 436.864C231.506 437.5 231.68 438.274 231.68 439.186V445H230.06V439.42C230.06 438.436 229.814 437.686 229.322 437.17C228.842 436.642 228.188 436.378 227.36 436.378C226.508 436.378 225.83 436.654 225.326 437.206C224.822 437.746 224.57 438.532 224.57 439.564V445H222.95V439.42C222.95 438.436 222.704 437.686 222.212 437.17C221.732 436.642 221.078 436.378 220.25 436.378C219.398 436.378 218.72 436.654 218.216 437.206C217.712 437.746 217.46 438.532 217.46 439.564V445H215.822V435.136H217.46V436.558C217.784 436.042 218.216 435.646 218.756 435.37C219.308 435.094 219.914 434.956 220.574 434.956C221.402 434.956 222.134 435.142 222.77 435.514C223.406 435.886 223.88 436.432 224.192 437.152C224.468 436.456 224.924 435.916 225.56 435.532C226.196 435.148 226.904 434.956 227.684 434.956ZM236.004 436.954C236.328 436.39 236.808 435.922 237.444 435.55C238.092 435.166 238.842 434.974 239.694 434.974C240.57 434.974 241.362 435.184 242.07 435.604C242.79 436.024 243.354 436.618 243.762 437.386C244.17 438.142 244.374 439.024 244.374 440.032C244.374 441.028 244.17 441.916 243.762 442.696C243.354 443.476 242.79 444.082 242.07 444.514C241.362 444.946 240.57 445.162 239.694 445.162C238.854 445.162 238.11 444.976 237.462 444.604C236.826 444.22 236.34 443.746 236.004 443.182V449.68H234.366V435.136H236.004V436.954ZM242.7 440.032C242.7 439.288 242.55 438.64 242.25 438.088C241.95 437.536 241.542 437.116 241.026 436.828C240.522 436.54 239.964 436.396 239.352 436.396C238.752 436.396 238.194 436.546 237.678 436.846C237.174 437.134 236.766 437.56 236.454 438.124C236.154 438.676 236.004 439.318 236.004 440.05C236.004 440.794 236.154 441.448 236.454 442.012C236.766 442.564 237.174 442.99 237.678 443.29C238.194 443.578 238.752 443.722 239.352 443.722C239.964 443.722 240.522 443.578 241.026 443.29C241.542 442.99 241.95 442.564 242.25 442.012C242.55 441.448 242.7 440.788 242.7 440.032ZM250.833 445.162C249.909 445.162 249.069 444.952 248.313 444.532C247.569 444.112 246.981 443.518 246.549 442.75C246.129 441.97 245.919 441.07 245.919 440.05C245.919 439.042 246.135 438.154 246.567 437.386C247.011 436.606 247.611 436.012 248.367 435.604C249.123 435.184 249.969 434.974 250.905 434.974C251.841 434.974 252.687 435.184 253.443 435.604C254.199 436.012 254.793 436.6 255.225 437.368C255.669 438.136 255.891 439.03 255.891 440.05C255.891 441.07 255.663 441.97 255.207 442.75C254.763 443.518 254.157 444.112 253.389 444.532C252.621 444.952 251.769 445.162 250.833 445.162ZM250.833 443.722C251.421 443.722 251.973 443.584 252.489 443.308C253.005 443.032 253.419 442.618 253.731 442.066C254.055 441.514 254.217 440.842 254.217 440.05C254.217 439.258 254.061 438.586 253.749 438.034C253.437 437.482 253.029 437.074 252.525 436.81C252.021 436.534 251.475 436.396 250.887 436.396C250.287 436.396 249.735 436.534 249.231 436.81C248.739 437.074 248.343 437.482 248.043 438.034C247.743 438.586 247.593 439.258 247.593 440.05C247.593 440.854 247.737 441.532 248.025 442.084C248.325 442.636 248.721 443.05 249.213 443.326C249.705 443.59 250.245 443.722 250.833 443.722ZM271.184 435.136L268.106 445H266.414L264.038 437.17L261.662 445H259.97L256.874 435.136H258.548L260.816 443.416L263.264 435.136H264.938L267.332 443.434L269.564 435.136H271.184ZM281.81 439.69C281.81 440.002 281.792 440.332 281.756 440.68H273.872C273.932 441.652 274.262 442.414 274.862 442.966C275.474 443.506 276.212 443.776 277.076 443.776C277.784 443.776 278.372 443.614 278.84 443.29C279.32 442.954 279.656 442.51 279.848 441.958H281.612C281.348 442.906 280.82 443.68 280.028 444.28C279.236 444.868 278.252 445.162 277.076 445.162C276.14 445.162 275.3 444.952 274.556 444.532C273.824 444.112 273.248 443.518 272.828 442.75C272.408 441.97 272.198 441.07 272.198 440.05C272.198 439.03 272.402 438.136 272.81 437.368C273.218 436.6 273.788 436.012 274.52 435.604C275.264 435.184 276.116 434.974 277.076 434.974C278.012 434.974 278.84 435.178 279.56 435.586C280.28 435.994 280.832 436.558 281.216 437.278C281.612 437.986 281.81 438.79 281.81 439.69ZM280.118 439.348C280.118 438.724 279.98 438.19 279.704 437.746C279.428 437.29 279.05 436.948 278.57 436.72C278.102 436.48 277.58 436.36 277.004 436.36C276.176 436.36 275.468 436.624 274.88 437.152C274.304 437.68 273.974 438.412 273.89 439.348H280.118ZM285.61 436.738C285.898 436.174 286.306 435.736 286.834 435.424C287.374 435.112 288.028 434.956 288.796 434.956V436.648H288.364C286.528 436.648 285.61 437.644 285.61 439.636V445H283.972V435.136H285.61V436.738ZM291.533 433.534C291.221 433.534 290.957 433.426 290.741 433.21C290.525 432.994 290.417 432.73 290.417 432.418C290.417 432.106 290.525 431.842 290.741 431.626C290.957 431.41 291.221 431.302 291.533 431.302C291.833 431.302 292.085 431.41 292.289 431.626C292.505 431.842 292.613 432.106 292.613 432.418C292.613 432.73 292.505 432.994 292.289 433.21C292.085 433.426 291.833 433.534 291.533 433.534ZM292.325 435.136V445H290.687V435.136H292.325ZM299.922 434.956C301.122 434.956 302.094 435.322 302.838 436.054C303.582 436.774 303.954 437.818 303.954 439.186V445H302.334V439.42C302.334 438.436 302.088 437.686 301.596 437.17C301.104 436.642 300.432 436.378 299.58 436.378C298.716 436.378 298.026 436.648 297.51 437.188C297.006 437.728 296.754 438.514 296.754 439.546V445H295.116V435.136H296.754V436.54C297.078 436.036 297.516 435.646 298.068 435.37C298.632 435.094 299.25 434.956 299.922 434.956ZM310.698 434.974C311.55 434.974 312.294 435.16 312.93 435.532C313.578 435.904 314.058 436.372 314.37 436.936V435.136H316.026V445.216C316.026 446.116 315.834 446.914 315.45 447.61C315.066 448.318 314.514 448.87 313.794 449.266C313.086 449.662 312.258 449.86 311.31 449.86C310.014 449.86 308.934 449.554 308.07 448.942C307.206 448.33 306.696 447.496 306.54 446.44H308.16C308.34 447.04 308.712 447.52 309.276 447.88C309.84 448.252 310.518 448.438 311.31 448.438C312.21 448.438 312.942 448.156 313.506 447.592C314.082 447.028 314.37 446.236 314.37 445.216V443.146C314.046 443.722 313.566 444.202 312.93 444.586C312.294 444.97 311.55 445.162 310.698 445.162C309.822 445.162 309.024 444.946 308.304 444.514C307.596 444.082 307.038 443.476 306.63 442.696C306.222 441.916 306.018 441.028 306.018 440.032C306.018 439.024 306.222 438.142 306.63 437.386C307.038 436.618 307.596 436.024 308.304 435.604C309.024 435.184 309.822 434.974 310.698 434.974ZM314.37 440.05C314.37 439.306 314.22 438.658 313.92 438.106C313.62 437.554 313.212 437.134 312.696 436.846C312.192 436.546 311.634 436.396 311.022 436.396C310.41 436.396 309.852 436.54 309.348 436.828C308.844 437.116 308.442 437.536 308.142 438.088C307.842 438.64 307.692 439.288 307.692 440.032C307.692 440.788 307.842 441.448 308.142 442.012C308.442 442.564 308.844 442.99 309.348 443.29C309.852 443.578 310.41 443.722 311.022 443.722C311.634 443.722 312.192 443.578 312.696 443.29C313.212 442.99 313.62 442.564 313.92 442.012C314.22 441.448 314.37 440.794 314.37 440.05ZM322.981 440.05C322.981 439.03 323.185 438.142 323.593 437.386C324.001 436.618 324.565 436.024 325.285 435.604C326.017 435.184 326.851 434.974 327.787 434.974C328.999 434.974 329.995 435.268 330.775 435.856C331.567 436.444 332.089 437.26 332.341 438.304H330.577C330.409 437.704 330.079 437.23 329.587 436.882C329.107 436.534 328.507 436.36 327.787 436.36C326.851 436.36 326.095 436.684 325.519 437.332C324.943 437.968 324.655 438.874 324.655 440.05C324.655 441.238 324.943 442.156 325.519 442.804C326.095 443.452 326.851 443.776 327.787 443.776C328.507 443.776 329.107 443.608 329.587 443.272C330.067 442.936 330.397 442.456 330.577 441.832H332.341C332.077 442.84 331.549 443.65 330.757 444.262C329.965 444.862 328.975 445.162 327.787 445.162C326.851 445.162 326.017 444.952 325.285 444.532C324.565 444.112 324.001 443.518 323.593 442.75C323.185 441.982 322.981 441.082 322.981 440.05ZM343.275 435.136V445H341.637V443.542C341.325 444.046 340.887 444.442 340.323 444.73C339.771 445.006 339.159 445.144 338.487 445.144C337.719 445.144 337.029 444.988 336.417 444.676C335.805 444.352 335.319 443.872 334.959 443.236C334.611 442.6 334.437 441.826 334.437 440.914V435.136H336.057V440.698C336.057 441.67 336.303 442.42 336.795 442.948C337.287 443.464 337.959 443.722 338.811 443.722C339.687 443.722 340.377 443.452 340.881 442.912C341.385 442.372 341.637 441.586 341.637 440.554V435.136H343.275ZM347.678 436.738C347.966 436.174 348.374 435.736 348.902 435.424C349.442 435.112 350.096 434.956 350.864 434.956V436.648H350.432C348.596 436.648 347.678 437.644 347.678 439.636V445H346.04V435.136H347.678V436.738ZM353.601 433.534C353.289 433.534 353.025 433.426 352.809 433.21C352.593 432.994 352.485 432.73 352.485 432.418C352.485 432.106 352.593 431.842 352.809 431.626C353.025 431.41 353.289 431.302 353.601 431.302C353.901 431.302 354.153 431.41 354.357 431.626C354.573 431.842 354.681 432.106 354.681 432.418C354.681 432.73 354.573 432.994 354.357 433.21C354.153 433.426 353.901 433.534 353.601 433.534ZM354.393 435.136V445H352.755V435.136H354.393ZM361.487 445.162C360.563 445.162 359.723 444.952 358.967 444.532C358.223 444.112 357.635 443.518 357.203 442.75C356.783 441.97 356.573 441.07 356.573 440.05C356.573 439.042 356.789 438.154 357.221 437.386C357.665 436.606 358.265 436.012 359.021 435.604C359.777 435.184 360.623 434.974 361.559 434.974C362.495 434.974 363.341 435.184 364.097 435.604C364.853 436.012 365.447 436.6 365.879 437.368C366.323 438.136 366.545 439.03 366.545 440.05C366.545 441.07 366.317 441.97 365.861 442.75C365.417 443.518 364.811 444.112 364.043 444.532C363.275 444.952 362.423 445.162 361.487 445.162ZM361.487 443.722C362.075 443.722 362.627 443.584 363.143 443.308C363.659 443.032 364.073 442.618 364.385 442.066C364.709 441.514 364.871 440.842 364.871 440.05C364.871 439.258 364.715 438.586 364.403 438.034C364.091 437.482 363.683 437.074 363.179 436.81C362.675 436.534 362.129 436.396 361.541 436.396C360.941 436.396 360.389 436.534 359.885 436.81C359.393 437.074 358.997 437.482 358.697 438.034C358.397 438.586 358.247 439.258 358.247 440.05C358.247 440.854 358.391 441.532 358.679 442.084C358.979 442.636 359.375 443.05 359.867 443.326C360.359 443.59 360.899 443.722 361.487 443.722ZM377.447 435.136V445H375.809V443.542C375.497 444.046 375.059 444.442 374.495 444.73C373.943 445.006 373.331 445.144 372.659 445.144C371.891 445.144 371.201 444.988 370.589 444.676C369.977 444.352 369.491 443.872 369.131 443.236C368.783 442.6 368.609 441.826 368.609 440.914V435.136H370.229V440.698C370.229 441.67 370.475 442.42 370.967 442.948C371.459 443.464 372.131 443.722 372.983 443.722C373.859 443.722 374.549 443.452 375.053 442.912C375.557 442.372 375.809 441.586 375.809 440.554V435.136H377.447ZM383.704 445.162C382.948 445.162 382.27 445.036 381.67 444.784C381.07 444.52 380.596 444.16 380.248 443.704C379.9 443.236 379.708 442.702 379.672 442.102H381.364C381.412 442.594 381.64 442.996 382.048 443.308C382.468 443.62 383.014 443.776 383.686 443.776C384.31 443.776 384.802 443.638 385.162 443.362C385.522 443.086 385.702 442.738 385.702 442.318C385.702 441.886 385.51 441.568 385.126 441.364C384.742 441.148 384.148 440.938 383.344 440.734C382.612 440.542 382.012 440.35 381.544 440.158C381.088 439.954 380.692 439.66 380.356 439.276C380.032 438.88 379.87 438.364 379.87 437.728C379.87 437.224 380.02 436.762 380.32 436.342C380.62 435.922 381.046 435.592 381.598 435.352C382.15 435.1 382.78 434.974 383.488 434.974C384.58 434.974 385.462 435.25 386.134 435.802C386.806 436.354 387.166 437.11 387.214 438.07H385.576C385.54 437.554 385.33 437.14 384.946 436.828C384.574 436.516 384.07 436.36 383.434 436.36C382.846 436.36 382.378 436.486 382.03 436.738C381.682 436.99 381.508 437.32 381.508 437.728C381.508 438.052 381.61 438.322 381.814 438.538C382.03 438.742 382.294 438.91 382.606 439.042C382.93 439.162 383.374 439.3 383.938 439.456C384.646 439.648 385.222 439.84 385.666 440.032C386.11 440.212 386.488 440.488 386.8 440.86C387.124 441.232 387.292 441.718 387.304 442.318C387.304 442.858 387.154 443.344 386.854 443.776C386.554 444.208 386.128 444.55 385.576 444.802C385.036 445.042 384.412 445.162 383.704 445.162ZM188.519 464.956C189.287 464.956 189.971 465.118 190.571 465.442C191.171 465.754 191.645 466.228 191.993 466.864C192.341 467.5 192.515 468.274 192.515 469.186V475H190.895V469.42C190.895 468.436 190.649 467.686 190.157 467.17C189.677 466.642 189.023 466.378 188.195 466.378C187.343 466.378 186.665 466.654 186.161 467.206C185.657 467.746 185.405 468.532 185.405 469.564V475H183.785V469.42C183.785 468.436 183.539 467.686 183.047 467.17C182.567 466.642 181.913 466.378 181.085 466.378C180.233 466.378 179.555 466.654 179.051 467.206C178.547 467.746 178.295 468.532 178.295 469.564V475H176.657V465.136H178.295V466.558C178.619 466.042 179.051 465.646 179.591 465.37C180.143 465.094 180.749 464.956 181.409 464.956C182.237 464.956 182.969 465.142 183.605 465.514C184.241 465.886 184.715 466.432 185.027 467.152C185.303 466.456 185.759 465.916 186.395 465.532C187.031 465.148 187.739 464.956 188.519 464.956ZM196.048 463.534C195.736 463.534 195.472 463.426 195.256 463.21C195.04 462.994 194.932 462.73 194.932 462.418C194.932 462.106 195.04 461.842 195.256 461.626C195.472 461.41 195.736 461.302 196.048 461.302C196.348 461.302 196.6 461.41 196.804 461.626C197.02 461.842 197.128 462.106 197.128 462.418C197.128 462.73 197.02 462.994 196.804 463.21C196.6 463.426 196.348 463.534 196.048 463.534ZM196.84 465.136V475H195.202V465.136H196.84ZM204.438 464.956C205.638 464.956 206.61 465.322 207.354 466.054C208.098 466.774 208.47 467.818 208.47 469.186V475H206.85V469.42C206.85 468.436 206.604 467.686 206.112 467.17C205.62 466.642 204.948 466.378 204.096 466.378C203.232 466.378 202.542 466.648 202.026 467.188C201.522 467.728 201.27 468.514 201.27 469.546V475H199.632V465.136H201.27V466.54C201.594 466.036 202.032 465.646 202.584 465.37C203.148 465.094 203.766 464.956 204.438 464.956ZM210.534 470.032C210.534 469.024 210.738 468.142 211.146 467.386C211.554 466.618 212.112 466.024 212.82 465.604C213.54 465.184 214.344 464.974 215.232 464.974C216 464.974 216.714 465.154 217.374 465.514C218.034 465.862 218.538 466.324 218.886 466.9V461.68H220.542V475H218.886V473.146C218.562 473.734 218.082 474.22 217.446 474.604C216.81 474.976 216.066 475.162 215.214 475.162C214.338 475.162 213.54 474.946 212.82 474.514C212.112 474.082 211.554 473.476 211.146 472.696C210.738 471.916 210.534 471.028 210.534 470.032ZM218.886 470.05C218.886 469.306 218.736 468.658 218.436 468.106C218.136 467.554 217.728 467.134 217.212 466.846C216.708 466.546 216.15 466.396 215.538 466.396C214.926 466.396 214.368 466.54 213.864 466.828C213.36 467.116 212.958 467.536 212.658 468.088C212.358 468.64 212.208 469.288 212.208 470.032C212.208 470.788 212.358 471.448 212.658 472.012C212.958 472.564 213.36 472.99 213.864 473.29C214.368 473.578 214.926 473.722 215.538 473.722C216.15 473.722 216.708 473.578 217.212 473.29C217.728 472.99 218.136 472.564 218.436 472.012C218.736 471.448 218.886 470.794 218.886 470.05ZM226.802 475.162C226.046 475.162 225.368 475.036 224.768 474.784C224.168 474.52 223.694 474.16 223.346 473.704C222.998 473.236 222.806 472.702 222.77 472.102H224.462C224.51 472.594 224.738 472.996 225.146 473.308C225.566 473.62 226.112 473.776 226.784 473.776C227.408 473.776 227.9 473.638 228.26 473.362C228.62 473.086 228.8 472.738 228.8 472.318C228.8 471.886 228.608 471.568 228.224 471.364C227.84 471.148 227.246 470.938 226.442 470.734C225.71 470.542 225.11 470.35 224.642 470.158C224.186 469.954 223.79 469.66 223.454 469.276C223.13 468.88 222.968 468.364 222.968 467.728C222.968 467.224 223.118 466.762 223.418 466.342C223.718 465.922 224.144 465.592 224.696 465.352C225.248 465.1 225.878 464.974 226.586 464.974C227.678 464.974 228.56 465.25 229.232 465.802C229.904 466.354 230.264 467.11 230.312 468.07H228.674C228.638 467.554 228.428 467.14 228.044 466.828C227.672 466.516 227.168 466.36 226.532 466.36C225.944 466.36 225.476 466.486 225.128 466.738C224.78 466.99 224.606 467.32 224.606 467.728C224.606 468.052 224.708 468.322 224.912 468.538C225.128 468.742 225.392 468.91 225.704 469.042C226.028 469.162 226.472 469.3 227.036 469.456C227.744 469.648 228.32 469.84 228.764 470.032C229.208 470.212 229.586 470.488 229.898 470.86C230.222 471.232 230.39 471.718 230.402 472.318C230.402 472.858 230.252 473.344 229.952 473.776C229.652 474.208 229.226 474.55 228.674 474.802C228.134 475.042 227.51 475.162 226.802 475.162ZM239.511 466.486V472.3C239.511 472.78 239.613 473.122 239.817 473.326C240.021 473.518 240.375 473.614 240.879 473.614H242.085V475H240.609C239.697 475 239.013 474.79 238.557 474.37C238.101 473.95 237.873 473.26 237.873 472.3V466.486H236.595V465.136H237.873V462.652H239.511V465.136H242.085V466.486H239.511ZM248.372 475.162C247.448 475.162 246.608 474.952 245.852 474.532C245.108 474.112 244.52 473.518 244.088 472.75C243.668 471.97 243.458 471.07 243.458 470.05C243.458 469.042 243.674 468.154 244.106 467.386C244.55 466.606 245.15 466.012 245.906 465.604C246.662 465.184 247.508 464.974 248.444 464.974C249.38 464.974 250.226 465.184 250.982 465.604C251.738 466.012 252.332 466.6 252.764 467.368C253.208 468.136 253.43 469.03 253.43 470.05C253.43 471.07 253.202 471.97 252.746 472.75C252.302 473.518 251.696 474.112 250.928 474.532C250.16 474.952 249.308 475.162 248.372 475.162ZM248.372 473.722C248.96 473.722 249.512 473.584 250.028 473.308C250.544 473.032 250.958 472.618 251.27 472.066C251.594 471.514 251.756 470.842 251.756 470.05C251.756 469.258 251.6 468.586 251.288 468.034C250.976 467.482 250.568 467.074 250.064 466.81C249.56 466.534 249.014 466.396 248.426 466.396C247.826 466.396 247.274 466.534 246.77 466.81C246.278 467.074 245.882 467.482 245.582 468.034C245.282 468.586 245.132 469.258 245.132 470.05C245.132 470.854 245.276 471.532 245.564 472.084C245.864 472.636 246.26 473.05 246.752 473.326C247.244 473.59 247.784 473.722 248.372 473.722ZM262.38 466.486V472.3C262.38 472.78 262.482 473.122 262.686 473.326C262.89 473.518 263.244 473.614 263.748 473.614H264.954V475H263.478C262.566 475 261.882 474.79 261.426 474.37C260.97 473.95 260.742 473.26 260.742 472.3V466.486H259.464V465.136H260.742V462.652H262.38V465.136H264.954V466.486H262.38ZM275.687 465.136V475H274.049V473.542C273.737 474.046 273.299 474.442 272.735 474.73C272.183 475.006 271.571 475.144 270.899 475.144C270.131 475.144 269.441 474.988 268.829 474.676C268.217 474.352 267.731 473.872 267.371 473.236C267.023 472.6 266.849 471.826 266.849 470.914V465.136H268.469V470.698C268.469 471.67 268.715 472.42 269.207 472.948C269.699 473.464 270.371 473.722 271.223 473.722C272.099 473.722 272.789 473.452 273.293 472.912C273.797 472.372 274.049 471.586 274.049 470.554V465.136H275.687ZM280.09 466.738C280.378 466.174 280.786 465.736 281.314 465.424C281.854 465.112 282.508 464.956 283.276 464.956V466.648H282.844C281.008 466.648 280.09 467.644 280.09 469.636V475H278.452V465.136H280.09V466.738ZM289.973 464.956C291.173 464.956 292.145 465.322 292.889 466.054C293.633 466.774 294.005 467.818 294.005 469.186V475H292.385V469.42C292.385 468.436 292.139 467.686 291.647 467.17C291.155 466.642 290.483 466.378 289.631 466.378C288.767 466.378 288.077 466.648 287.561 467.188C287.057 467.728 286.805 468.514 286.805 469.546V475H285.167V465.136H286.805V466.54C287.129 466.036 287.567 465.646 288.119 465.37C288.683 465.094 289.301 464.956 289.973 464.956ZM302.326 463.534C302.014 463.534 301.75 463.426 301.534 463.21C301.318 462.994 301.21 462.73 301.21 462.418C301.21 462.106 301.318 461.842 301.534 461.626C301.75 461.41 302.014 461.302 302.326 461.302C302.626 461.302 302.878 461.41 303.082 461.626C303.298 461.842 303.406 462.106 303.406 462.418C303.406 462.73 303.298 462.994 303.082 463.21C302.878 463.426 302.626 463.534 302.326 463.534ZM303.118 465.136V475H301.48V465.136H303.118ZM305.297 470.032C305.297 469.024 305.501 468.142 305.909 467.386C306.317 466.618 306.875 466.024 307.583 465.604C308.303 465.184 309.107 464.974 309.995 464.974C310.763 464.974 311.477 465.154 312.137 465.514C312.797 465.862 313.301 466.324 313.649 466.9V461.68H315.305V475H313.649V473.146C313.325 473.734 312.845 474.22 312.209 474.604C311.573 474.976 310.829 475.162 309.977 475.162C309.101 475.162 308.303 474.946 307.583 474.514C306.875 474.082 306.317 473.476 305.909 472.696C305.501 471.916 305.297 471.028 305.297 470.032ZM313.649 470.05C313.649 469.306 313.499 468.658 313.199 468.106C312.899 467.554 312.491 467.134 311.975 466.846C311.471 466.546 310.913 466.396 310.301 466.396C309.689 466.396 309.131 466.54 308.627 466.828C308.123 467.116 307.721 467.536 307.421 468.088C307.121 468.64 306.971 469.288 306.971 470.032C306.971 470.788 307.121 471.448 307.421 472.012C307.721 472.564 308.123 472.99 308.627 473.29C309.131 473.578 309.689 473.722 310.301 473.722C310.913 473.722 311.471 473.578 311.975 473.29C312.491 472.99 312.899 472.564 313.199 472.012C313.499 471.448 313.649 470.794 313.649 470.05ZM327.074 469.69C327.074 470.002 327.056 470.332 327.02 470.68H319.136C319.196 471.652 319.526 472.414 320.126 472.966C320.738 473.506 321.476 473.776 322.34 473.776C323.048 473.776 323.636 473.614 324.104 473.29C324.584 472.954 324.92 472.51 325.112 471.958H326.876C326.612 472.906 326.084 473.68 325.292 474.28C324.5 474.868 323.516 475.162 322.34 475.162C321.404 475.162 320.564 474.952 319.82 474.532C319.088 474.112 318.512 473.518 318.092 472.75C317.672 471.97 317.462 471.07 317.462 470.05C317.462 469.03 317.666 468.136 318.074 467.368C318.482 466.6 319.052 466.012 319.784 465.604C320.528 465.184 321.38 464.974 322.34 464.974C323.276 464.974 324.104 465.178 324.824 465.586C325.544 465.994 326.096 466.558 326.48 467.278C326.876 467.986 327.074 468.79 327.074 469.69ZM325.382 469.348C325.382 468.724 325.244 468.19 324.968 467.746C324.692 467.29 324.314 466.948 323.834 466.72C323.366 466.48 322.844 466.36 322.268 466.36C321.44 466.36 320.732 466.624 320.144 467.152C319.568 467.68 319.238 468.412 319.154 469.348H325.382ZM328.624 470.032C328.624 469.024 328.828 468.142 329.236 467.386C329.644 466.618 330.202 466.024 330.91 465.604C331.63 465.184 332.428 464.974 333.304 464.974C334.168 464.974 334.918 465.16 335.554 465.532C336.19 465.904 336.664 466.372 336.976 466.936V465.136H338.632V475H336.976V473.164C336.652 473.74 336.166 474.22 335.518 474.604C334.882 474.976 334.138 475.162 333.286 475.162C332.41 475.162 331.618 474.946 330.91 474.514C330.202 474.082 329.644 473.476 329.236 472.696C328.828 471.916 328.624 471.028 328.624 470.032ZM336.976 470.05C336.976 469.306 336.826 468.658 336.526 468.106C336.226 467.554 335.818 467.134 335.302 466.846C334.798 466.546 334.24 466.396 333.628 466.396C333.016 466.396 332.458 466.54 331.954 466.828C331.45 467.116 331.048 467.536 330.748 468.088C330.448 468.64 330.298 469.288 330.298 470.032C330.298 470.788 330.448 471.448 330.748 472.012C331.048 472.564 331.45 472.99 331.954 473.29C332.458 473.578 333.016 473.722 333.628 473.722C334.24 473.722 334.798 473.578 335.302 473.29C335.818 472.99 336.226 472.564 336.526 472.012C336.826 471.448 336.976 470.794 336.976 470.05ZM344.892 475.162C344.136 475.162 343.458 475.036 342.858 474.784C342.258 474.52 341.784 474.16 341.436 473.704C341.088 473.236 340.896 472.702 340.86 472.102H342.552C342.6 472.594 342.828 472.996 343.236 473.308C343.656 473.62 344.202 473.776 344.874 473.776C345.498 473.776 345.99 473.638 346.35 473.362C346.71 473.086 346.89 472.738 346.89 472.318C346.89 471.886 346.698 471.568 346.314 471.364C345.93 471.148 345.336 470.938 344.532 470.734C343.8 470.542 343.2 470.35 342.732 470.158C342.276 469.954 341.88 469.66 341.544 469.276C341.22 468.88 341.058 468.364 341.058 467.728C341.058 467.224 341.208 466.762 341.508 466.342C341.808 465.922 342.234 465.592 342.786 465.352C343.338 465.1 343.968 464.974 344.676 464.974C345.768 464.974 346.65 465.25 347.322 465.802C347.994 466.354 348.354 467.11 348.402 468.07H346.764C346.728 467.554 346.518 467.14 346.134 466.828C345.762 466.516 345.258 466.36 344.622 466.36C344.034 466.36 343.566 466.486 343.218 466.738C342.87 466.99 342.696 467.32 342.696 467.728C342.696 468.052 342.798 468.322 343.002 468.538C343.218 468.742 343.482 468.91 343.794 469.042C344.118 469.162 344.562 469.3 345.126 469.456C345.834 469.648 346.41 469.84 346.854 470.032C347.298 470.212 347.676 470.488 347.988 470.86C348.312 471.232 348.48 471.718 348.492 472.318C348.492 472.858 348.342 473.344 348.042 473.776C347.742 474.208 347.316 474.55 346.764 474.802C346.224 475.042 345.6 475.162 344.892 475.162ZM356.449 463.534C356.137 463.534 355.873 463.426 355.657 463.21C355.441 462.994 355.333 462.73 355.333 462.418C355.333 462.106 355.441 461.842 355.657 461.626C355.873 461.41 356.137 461.302 356.449 461.302C356.749 461.302 357.001 461.41 357.205 461.626C357.421 461.842 357.529 462.106 357.529 462.418C357.529 462.73 357.421 462.994 357.205 463.21C357.001 463.426 356.749 463.534 356.449 463.534ZM357.241 465.136V475H355.603V465.136H357.241ZM364.838 464.956C366.038 464.956 367.01 465.322 367.754 466.054C368.498 466.774 368.87 467.818 368.87 469.186V475H367.25V469.42C367.25 468.436 367.004 467.686 366.512 467.17C366.02 466.642 365.348 466.378 364.496 466.378C363.632 466.378 362.942 466.648 362.426 467.188C361.922 467.728 361.67 468.514 361.67 469.546V475H360.032V465.136H361.67V466.54C361.994 466.036 362.432 465.646 362.984 465.37C363.548 465.094 364.166 464.956 364.838 464.956ZM373.544 466.486V472.3C373.544 472.78 373.646 473.122 373.85 473.326C374.054 473.518 374.408 473.614 374.912 473.614H376.118V475H374.642C373.73 475 373.046 474.79 372.59 474.37C372.134 473.95 371.906 473.26 371.906 472.3V466.486H370.628V465.136H371.906V462.652H373.544V465.136H376.118V466.486H373.544ZM382.405 475.162C381.481 475.162 380.641 474.952 379.885 474.532C379.141 474.112 378.553 473.518 378.121 472.75C377.701 471.97 377.491 471.07 377.491 470.05C377.491 469.042 377.707 468.154 378.139 467.386C378.583 466.606 379.183 466.012 379.939 465.604C380.695 465.184 381.541 464.974 382.477 464.974C383.413 464.974 384.259 465.184 385.015 465.604C385.771 466.012 386.365 466.6 386.797 467.368C387.241 468.136 387.463 469.03 387.463 470.05C387.463 471.07 387.235 471.97 386.779 472.75C386.335 473.518 385.729 474.112 384.961 474.532C384.193 474.952 383.341 475.162 382.405 475.162ZM382.405 473.722C382.993 473.722 383.545 473.584 384.061 473.308C384.577 473.032 384.991 472.618 385.303 472.066C385.627 471.514 385.789 470.842 385.789 470.05C385.789 469.258 385.633 468.586 385.321 468.034C385.009 467.482 384.601 467.074 384.097 466.81C383.593 466.534 383.047 466.396 382.459 466.396C381.859 466.396 381.307 466.534 380.803 466.81C380.311 467.074 379.915 467.482 379.615 468.034C379.315 468.586 379.165 469.258 379.165 470.05C379.165 470.854 379.309 471.532 379.597 472.084C379.897 472.636 380.293 473.05 380.785 473.326C381.277 473.59 381.817 473.722 382.405 473.722ZM169.946 496.738C170.234 496.174 170.642 495.736 171.17 495.424C171.71 495.112 172.364 494.956 173.132 494.956V496.648H172.7C170.864 496.648 169.946 497.644 169.946 499.636V505H168.308V495.136H169.946V496.738ZM184.023 499.69C184.023 500.002 184.005 500.332 183.969 500.68H176.085C176.145 501.652 176.475 502.414 177.075 502.966C177.687 503.506 178.425 503.776 179.289 503.776C179.997 503.776 180.585 503.614 181.053 503.29C181.533 502.954 181.869 502.51 182.061 501.958H183.825C183.561 502.906 183.033 503.68 182.241 504.28C181.449 504.868 180.465 505.162 179.289 505.162C178.353 505.162 177.513 504.952 176.769 504.532C176.037 504.112 175.461 503.518 175.041 502.75C174.621 501.97 174.411 501.07 174.411 500.05C174.411 499.03 174.615 498.136 175.023 497.368C175.431 496.6 176.001 496.012 176.733 495.604C177.477 495.184 178.329 494.974 179.289 494.974C180.225 494.974 181.053 495.178 181.773 495.586C182.493 495.994 183.045 496.558 183.429 497.278C183.825 497.986 184.023 498.79 184.023 499.69ZM182.331 499.348C182.331 498.724 182.193 498.19 181.917 497.746C181.641 497.29 181.263 496.948 180.783 496.72C180.315 496.48 179.793 496.36 179.217 496.36C178.389 496.36 177.681 496.624 177.093 497.152C176.517 497.68 176.187 498.412 176.103 499.348H182.331ZM185.573 500.032C185.573 499.024 185.777 498.142 186.185 497.386C186.593 496.618 187.151 496.024 187.859 495.604C188.579 495.184 189.377 494.974 190.253 494.974C191.117 494.974 191.867 495.16 192.503 495.532C193.139 495.904 193.613 496.372 193.925 496.936V495.136H195.581V505H193.925V503.164C193.601 503.74 193.115 504.22 192.467 504.604C191.831 504.976 191.087 505.162 190.235 505.162C189.359 505.162 188.567 504.946 187.859 504.514C187.151 504.082 186.593 503.476 186.185 502.696C185.777 501.916 185.573 501.028 185.573 500.032ZM193.925 500.05C193.925 499.306 193.775 498.658 193.475 498.106C193.175 497.554 192.767 497.134 192.251 496.846C191.747 496.546 191.189 496.396 190.577 496.396C189.965 496.396 189.407 496.54 188.903 496.828C188.399 497.116 187.997 497.536 187.697 498.088C187.397 498.64 187.247 499.288 187.247 500.032C187.247 500.788 187.397 501.448 187.697 502.012C187.997 502.564 188.399 502.99 188.903 503.29C189.407 503.578 189.965 503.722 190.577 503.722C191.189 503.722 191.747 503.578 192.251 503.29C192.767 502.99 193.175 502.564 193.475 502.012C193.775 501.448 193.925 500.794 193.925 500.05ZM199.987 491.68V505H198.349V491.68H199.987ZM209.619 497.71V499.096H202.437V497.71H209.619ZM225.833 495.136L222.755 505H221.063L218.687 497.17L216.311 505H214.619L211.523 495.136H213.197L215.465 503.416L217.913 495.136H219.587L221.981 503.434L224.213 495.136H225.833ZM231.76 505.162C230.836 505.162 229.996 504.952 229.24 504.532C228.496 504.112 227.908 503.518 227.476 502.75C227.056 501.97 226.846 501.07 226.846 500.05C226.846 499.042 227.062 498.154 227.494 497.386C227.938 496.606 228.538 496.012 229.294 495.604C230.05 495.184 230.896 494.974 231.832 494.974C232.768 494.974 233.614 495.184 234.37 495.604C235.126 496.012 235.72 496.6 236.152 497.368C236.596 498.136 236.818 499.03 236.818 500.05C236.818 501.07 236.59 501.97 236.134 502.75C235.69 503.518 235.084 504.112 234.316 504.532C233.548 504.952 232.696 505.162 231.76 505.162ZM231.76 503.722C232.348 503.722 232.9 503.584 233.416 503.308C233.932 503.032 234.346 502.618 234.658 502.066C234.982 501.514 235.144 500.842 235.144 500.05C235.144 499.258 234.988 498.586 234.676 498.034C234.364 497.482 233.956 497.074 233.452 496.81C232.948 496.534 232.402 496.396 231.814 496.396C231.214 496.396 230.662 496.534 230.158 496.81C229.666 497.074 229.27 497.482 228.97 498.034C228.67 498.586 228.52 499.258 228.52 500.05C228.52 500.854 228.664 501.532 228.952 502.084C229.252 502.636 229.648 503.05 230.14 503.326C230.632 503.59 231.172 503.722 231.76 503.722ZM240.61 496.738C240.898 496.174 241.306 495.736 241.834 495.424C242.374 495.112 243.028 494.956 243.796 494.956V496.648H243.364C241.528 496.648 240.61 497.644 240.61 499.636V505H238.972V495.136H240.61V496.738ZM247.325 491.68V505H245.687V491.68H247.325ZM249.504 500.032C249.504 499.024 249.708 498.142 250.116 497.386C250.524 496.618 251.082 496.024 251.79 495.604C252.51 495.184 253.314 494.974 254.202 494.974C254.97 494.974 255.684 495.154 256.344 495.514C257.004 495.862 257.508 496.324 257.856 496.9V491.68H259.512V505H257.856V503.146C257.532 503.734 257.052 504.22 256.416 504.604C255.78 504.976 255.036 505.162 254.184 505.162C253.308 505.162 252.51 504.946 251.79 504.514C251.082 504.082 250.524 503.476 250.116 502.696C249.708 501.916 249.504 501.028 249.504 500.032ZM257.856 500.05C257.856 499.306 257.706 498.658 257.406 498.106C257.106 497.554 256.698 497.134 256.182 496.846C255.678 496.546 255.12 496.396 254.508 496.396C253.896 496.396 253.338 496.54 252.834 496.828C252.33 497.116 251.928 497.536 251.628 498.088C251.328 498.64 251.178 499.288 251.178 500.032C251.178 500.788 251.328 501.448 251.628 502.012C251.928 502.564 252.33 502.99 252.834 503.29C253.338 503.578 253.896 503.722 254.508 503.722C255.12 503.722 255.678 503.578 256.182 503.29C256.698 502.99 257.106 502.564 257.406 502.012C257.706 501.448 257.856 500.794 257.856 500.05ZM270.571 505.162C269.815 505.162 269.137 505.036 268.537 504.784C267.937 504.52 267.463 504.16 267.115 503.704C266.767 503.236 266.575 502.702 266.539 502.102H268.231C268.279 502.594 268.507 502.996 268.915 503.308C269.335 503.62 269.881 503.776 270.553 503.776C271.177 503.776 271.669 503.638 272.029 503.362C272.389 503.086 272.569 502.738 272.569 502.318C272.569 501.886 272.377 501.568 271.993 501.364C271.609 501.148 271.015 500.938 270.211 500.734C269.479 500.542 268.879 500.35 268.411 500.158C267.955 499.954 267.559 499.66 267.223 499.276C266.899 498.88 266.737 498.364 266.737 497.728C266.737 497.224 266.887 496.762 267.187 496.342C267.487 495.922 267.913 495.592 268.465 495.352C269.017 495.1 269.647 494.974 270.355 494.974C271.447 494.974 272.329 495.25 273.001 495.802C273.673 496.354 274.033 497.11 274.081 498.07H272.443C272.407 497.554 272.197 497.14 271.813 496.828C271.441 496.516 270.937 496.36 270.301 496.36C269.713 496.36 269.245 496.486 268.897 496.738C268.549 496.99 268.375 497.32 268.375 497.728C268.375 498.052 268.477 498.322 268.681 498.538C268.897 498.742 269.161 498.91 269.473 499.042C269.797 499.162 270.241 499.3 270.805 499.456C271.513 499.648 272.089 499.84 272.533 500.032C272.977 500.212 273.355 500.488 273.667 500.86C273.991 501.232 274.159 501.718 274.171 502.318C274.171 502.858 274.021 503.344 273.721 503.776C273.421 504.208 272.995 504.55 272.443 504.802C271.903 505.042 271.279 505.162 270.571 505.162ZM281.992 505L278.122 500.644V505H276.484V491.68H278.122V499.51L281.92 495.136H284.206L279.562 500.05L284.224 505H281.992ZM286.593 493.534C286.281 493.534 286.017 493.426 285.801 493.21C285.585 492.994 285.477 492.73 285.477 492.418C285.477 492.106 285.585 491.842 285.801 491.626C286.017 491.41 286.281 491.302 286.593 491.302C286.893 491.302 287.145 491.41 287.349 491.626C287.565 491.842 287.673 492.106 287.673 492.418C287.673 492.73 287.565 492.994 287.349 493.21C287.145 493.426 286.893 493.534 286.593 493.534ZM287.385 495.136V505H285.747V495.136H287.385ZM291.815 491.68V505H290.177V491.68H291.815ZM296.245 491.68V505H294.607V491.68H296.245ZM302.528 505.162C301.772 505.162 301.094 505.036 300.494 504.784C299.894 504.52 299.42 504.16 299.072 503.704C298.724 503.236 298.532 502.702 298.496 502.102H300.188C300.236 502.594 300.464 502.996 300.872 503.308C301.292 503.62 301.838 503.776 302.51 503.776C303.134 503.776 303.626 503.638 303.986 503.362C304.346 503.086 304.526 502.738 304.526 502.318C304.526 501.886 304.334 501.568 303.95 501.364C303.566 501.148 302.972 500.938 302.168 500.734C301.436 500.542 300.836 500.35 300.368 500.158C299.912 499.954 299.516 499.66 299.18 499.276C298.856 498.88 298.694 498.364 298.694 497.728C298.694 497.224 298.844 496.762 299.144 496.342C299.444 495.922 299.87 495.592 300.422 495.352C300.974 495.1 301.604 494.974 302.312 494.974C303.404 494.974 304.286 495.25 304.958 495.802C305.63 496.354 305.99 497.11 306.038 498.07H304.4C304.364 497.554 304.154 497.14 303.77 496.828C303.398 496.516 302.894 496.36 302.258 496.36C301.67 496.36 301.202 496.486 300.854 496.738C300.506 496.99 300.332 497.32 300.332 497.728C300.332 498.052 300.434 498.322 300.638 498.538C300.854 498.742 301.118 498.91 301.43 499.042C301.754 499.162 302.198 499.3 302.762 499.456C303.47 499.648 304.046 499.84 304.49 500.032C304.934 500.212 305.312 500.488 305.624 500.86C305.948 501.232 306.116 501.718 306.128 502.318C306.128 502.858 305.978 503.344 305.678 503.776C305.378 504.208 304.952 504.55 304.4 504.802C303.86 505.042 303.236 505.162 302.528 505.162ZM310.133 502.732L308.117 507.574H307.019L308.333 502.732H310.133ZM318.446 496.972C318.782 496.384 319.274 495.904 319.922 495.532C320.57 495.16 321.308 494.974 322.136 494.974C323.024 494.974 323.822 495.184 324.53 495.604C325.238 496.024 325.796 496.618 326.204 497.386C326.612 498.142 326.816 499.024 326.816 500.032C326.816 501.028 326.612 501.916 326.204 502.696C325.796 503.476 325.232 504.082 324.512 504.514C323.804 504.946 323.012 505.162 322.136 505.162C321.284 505.162 320.534 504.976 319.886 504.604C319.25 504.232 318.77 503.758 318.446 503.182V505H316.808V491.68H318.446V496.972ZM325.142 500.032C325.142 499.288 324.992 498.64 324.692 498.088C324.392 497.536 323.984 497.116 323.468 496.828C322.964 496.54 322.406 496.396 321.794 496.396C321.194 496.396 320.636 496.546 320.12 496.846C319.616 497.134 319.208 497.56 318.896 498.124C318.596 498.676 318.446 499.318 318.446 500.05C318.446 500.794 318.596 501.448 318.896 502.012C319.208 502.564 319.616 502.99 320.12 503.29C320.636 503.578 321.194 503.722 321.794 503.722C322.406 503.722 322.964 503.578 323.468 503.29C323.984 502.99 324.392 502.564 324.692 502.012C324.992 501.448 325.142 500.788 325.142 500.032ZM337.72 495.136V505H336.082V503.542C335.77 504.046 335.332 504.442 334.768 504.73C334.216 505.006 333.604 505.144 332.932 505.144C332.164 505.144 331.474 504.988 330.862 504.676C330.25 504.352 329.764 503.872 329.404 503.236C329.056 502.6 328.882 501.826 328.882 500.914V495.136H330.502V500.698C330.502 501.67 330.748 502.42 331.24 502.948C331.732 503.464 332.404 503.722 333.256 503.722C334.132 503.722 334.822 503.452 335.326 502.912C335.83 502.372 336.082 501.586 336.082 500.554V495.136H337.72ZM341.332 493.534C341.02 493.534 340.756 493.426 340.54 493.21C340.324 492.994 340.216 492.73 340.216 492.418C340.216 492.106 340.324 491.842 340.54 491.626C340.756 491.41 341.02 491.302 341.332 491.302C341.632 491.302 341.884 491.41 342.088 491.626C342.304 491.842 342.412 492.106 342.412 492.418C342.412 492.73 342.304 492.994 342.088 493.21C341.884 493.426 341.632 493.534 341.332 493.534ZM342.124 495.136V505H340.486V495.136H342.124ZM346.553 491.68V505H344.915V491.68H346.553ZM348.733 500.032C348.733 499.024 348.937 498.142 349.345 497.386C349.753 496.618 350.311 496.024 351.019 495.604C351.739 495.184 352.543 494.974 353.431 494.974C354.199 494.974 354.913 495.154 355.573 495.514C356.233 495.862 356.737 496.324 357.085 496.9V491.68H358.741V505H357.085V503.146C356.761 503.734 356.281 504.22 355.645 504.604C355.009 504.976 354.265 505.162 353.413 505.162C352.537 505.162 351.739 504.946 351.019 504.514C350.311 504.082 349.753 503.476 349.345 502.696C348.937 501.916 348.733 501.028 348.733 500.032ZM357.085 500.05C357.085 499.306 356.935 498.658 356.635 498.106C356.335 497.554 355.927 497.134 355.411 496.846C354.907 496.546 354.349 496.396 353.737 496.396C353.125 496.396 352.567 496.54 352.063 496.828C351.559 497.116 351.157 497.536 350.857 498.088C350.557 498.64 350.407 499.288 350.407 500.032C350.407 500.788 350.557 501.448 350.857 502.012C351.157 502.564 351.559 502.99 352.063 503.29C352.567 503.578 353.125 503.722 353.737 503.722C354.349 503.722 354.907 503.578 355.411 503.29C355.927 502.99 356.335 502.564 356.635 502.012C356.935 501.448 357.085 500.794 357.085 500.05ZM362.355 493.534C362.043 493.534 361.779 493.426 361.563 493.21C361.347 492.994 361.239 492.73 361.239 492.418C361.239 492.106 361.347 491.842 361.563 491.626C361.779 491.41 362.043 491.302 362.355 491.302C362.655 491.302 362.907 491.41 363.111 491.626C363.327 491.842 363.435 492.106 363.435 492.418C363.435 492.73 363.327 492.994 363.111 493.21C362.907 493.426 362.655 493.534 362.355 493.534ZM363.147 495.136V505H361.509V495.136H363.147ZM370.745 494.956C371.945 494.956 372.917 495.322 373.661 496.054C374.405 496.774 374.777 497.818 374.777 499.186V505H373.157V499.42C373.157 498.436 372.911 497.686 372.419 497.17C371.927 496.642 371.255 496.378 370.403 496.378C369.539 496.378 368.849 496.648 368.333 497.188C367.829 497.728 367.577 498.514 367.577 499.546V505H365.939V495.136H367.577V496.54C367.901 496.036 368.339 495.646 368.891 495.37C369.455 495.094 370.073 494.956 370.745 494.956ZM381.52 494.974C382.372 494.974 383.116 495.16 383.752 495.532C384.4 495.904 384.88 496.372 385.192 496.936V495.136H386.848V505.216C386.848 506.116 386.656 506.914 386.272 507.61C385.888 508.318 385.336 508.87 384.616 509.266C383.908 509.662 383.08 509.86 382.132 509.86C380.836 509.86 379.756 509.554 378.892 508.942C378.028 508.33 377.518 507.496 377.362 506.44H378.982C379.162 507.04 379.534 507.52 380.098 507.88C380.662 508.252 381.34 508.438 382.132 508.438C383.032 508.438 383.764 508.156 384.328 507.592C384.904 507.028 385.192 506.236 385.192 505.216V503.146C384.868 503.722 384.388 504.202 383.752 504.586C383.116 504.97 382.372 505.162 381.52 505.162C380.644 505.162 379.846 504.946 379.126 504.514C378.418 504.082 377.86 503.476 377.452 502.696C377.044 501.916 376.84 501.028 376.84 500.032C376.84 499.024 377.044 498.142 377.452 497.386C377.86 496.618 378.418 496.024 379.126 495.604C379.846 495.184 380.644 494.974 381.52 494.974ZM385.192 500.05C385.192 499.306 385.042 498.658 384.742 498.106C384.442 497.554 384.034 497.134 383.518 496.846C383.014 496.546 382.456 496.396 381.844 496.396C381.232 496.396 380.674 496.54 380.17 496.828C379.666 497.116 379.264 497.536 378.964 498.088C378.664 498.64 378.514 499.288 378.514 500.032C378.514 500.788 378.664 501.448 378.964 502.012C379.264 502.564 379.666 502.99 380.17 503.29C380.674 503.578 381.232 503.722 381.844 503.722C382.456 503.722 383.014 503.578 383.518 503.29C384.034 502.99 384.442 502.564 384.742 502.012C385.042 501.448 385.192 500.794 385.192 500.05ZM183.507 526.486V532.3C183.507 532.78 183.609 533.122 183.813 533.326C184.017 533.518 184.371 533.614 184.875 533.614H186.081V535H184.605C183.693 535 183.009 534.79 182.553 534.37C182.097 533.95 181.869 533.26 181.869 532.3V526.486H180.591V525.136H181.869V522.652H183.507V525.136H186.081V526.486H183.507ZM192.962 524.956C193.706 524.956 194.378 525.118 194.978 525.442C195.578 525.754 196.046 526.228 196.382 526.864C196.73 527.5 196.904 528.274 196.904 529.186V535H195.284V529.42C195.284 528.436 195.038 527.686 194.546 527.17C194.054 526.642 193.382 526.378 192.53 526.378C191.666 526.378 190.976 526.648 190.46 527.188C189.956 527.728 189.704 528.514 189.704 529.546V535H188.066V521.68H189.704V526.54C190.028 526.036 190.472 525.646 191.036 525.37C191.612 525.094 192.254 524.956 192.962 524.956ZM208.579 529.69C208.579 530.002 208.561 530.332 208.525 530.68H200.641C200.701 531.652 201.031 532.414 201.631 532.966C202.243 533.506 202.981 533.776 203.845 533.776C204.553 533.776 205.141 533.614 205.609 533.29C206.089 532.954 206.425 532.51 206.617 531.958H208.381C208.117 532.906 207.589 533.68 206.797 534.28C206.005 534.868 205.021 535.162 203.845 535.162C202.909 535.162 202.069 534.952 201.325 534.532C200.593 534.112 200.017 533.518 199.597 532.75C199.177 531.97 198.967 531.07 198.967 530.05C198.967 529.03 199.171 528.136 199.579 527.368C199.987 526.6 200.557 526.012 201.289 525.604C202.033 525.184 202.885 524.974 203.845 524.974C204.781 524.974 205.609 525.178 206.329 525.586C207.049 525.994 207.601 526.558 207.985 527.278C208.381 527.986 208.579 528.79 208.579 529.69ZM206.887 529.348C206.887 528.724 206.749 528.19 206.473 527.746C206.197 527.29 205.819 526.948 205.339 526.72C204.871 526.48 204.349 526.36 203.773 526.36C202.945 526.36 202.237 526.624 201.649 527.152C201.073 527.68 200.743 528.412 200.659 529.348H206.887ZM214.928 530.05C214.928 529.03 215.132 528.142 215.54 527.386C215.948 526.618 216.512 526.024 217.232 525.604C217.964 525.184 218.798 524.974 219.734 524.974C220.946 524.974 221.942 525.268 222.722 525.856C223.514 526.444 224.036 527.26 224.288 528.304H222.524C222.356 527.704 222.026 527.23 221.534 526.882C221.054 526.534 220.454 526.36 219.734 526.36C218.798 526.36 218.042 526.684 217.466 527.332C216.89 527.968 216.602 528.874 216.602 530.05C216.602 531.238 216.89 532.156 217.466 532.804C218.042 533.452 218.798 533.776 219.734 533.776C220.454 533.776 221.054 533.608 221.534 533.272C222.014 532.936 222.344 532.456 222.524 531.832H224.288C224.024 532.84 223.496 533.65 222.704 534.262C221.912 534.862 220.922 535.162 219.734 535.162C218.798 535.162 217.964 534.952 217.232 534.532C216.512 534.112 215.948 533.518 215.54 532.75C215.132 531.982 214.928 531.082 214.928 530.05ZM230.776 535.162C229.852 535.162 229.012 534.952 228.256 534.532C227.512 534.112 226.924 533.518 226.492 532.75C226.072 531.97 225.862 531.07 225.862 530.05C225.862 529.042 226.078 528.154 226.51 527.386C226.954 526.606 227.554 526.012 228.31 525.604C229.066 525.184 229.912 524.974 230.848 524.974C231.784 524.974 232.63 525.184 233.386 525.604C234.142 526.012 234.736 526.6 235.168 527.368C235.612 528.136 235.834 529.03 235.834 530.05C235.834 531.07 235.606 531.97 235.15 532.75C234.706 533.518 234.1 534.112 233.332 534.532C232.564 534.952 231.712 535.162 230.776 535.162ZM230.776 533.722C231.364 533.722 231.916 533.584 232.432 533.308C232.948 533.032 233.362 532.618 233.674 532.066C233.998 531.514 234.16 530.842 234.16 530.05C234.16 529.258 234.004 528.586 233.692 528.034C233.38 527.482 232.972 527.074 232.468 526.81C231.964 526.534 231.418 526.396 230.83 526.396C230.23 526.396 229.678 526.534 229.174 526.81C228.682 527.074 228.286 527.482 227.986 528.034C227.686 528.586 227.536 529.258 227.536 530.05C227.536 530.854 227.68 531.532 227.968 532.084C228.268 532.636 228.664 533.05 229.156 533.326C229.648 533.59 230.188 533.722 230.776 533.722ZM242.794 524.956C243.994 524.956 244.966 525.322 245.71 526.054C246.454 526.774 246.826 527.818 246.826 529.186V535H245.206V529.42C245.206 528.436 244.96 527.686 244.468 527.17C243.976 526.642 243.304 526.378 242.452 526.378C241.588 526.378 240.898 526.648 240.382 527.188C239.878 527.728 239.626 528.514 239.626 529.546V535H237.988V525.136H239.626V526.54C239.95 526.036 240.388 525.646 240.94 525.37C241.504 525.094 242.122 524.956 242.794 524.956ZM253.515 526.486H251.445V535H249.807V526.486H248.529V525.136H249.807V524.434C249.807 523.33 250.089 522.526 250.653 522.022C251.229 521.506 252.147 521.248 253.407 521.248V522.616C252.687 522.616 252.177 522.76 251.877 523.048C251.589 523.324 251.445 523.786 251.445 524.434V525.136H253.515V526.486ZM256.271 523.534C255.959 523.534 255.695 523.426 255.479 523.21C255.263 522.994 255.155 522.73 255.155 522.418C255.155 522.106 255.263 521.842 255.479 521.626C255.695 521.41 255.959 521.302 256.271 521.302C256.571 521.302 256.823 521.41 257.027 521.626C257.243 521.842 257.351 522.106 257.351 522.418C257.351 522.73 257.243 522.994 257.027 523.21C256.823 523.426 256.571 523.534 256.271 523.534ZM257.063 525.136V535H255.425V525.136H257.063ZM259.243 530.032C259.243 529.024 259.447 528.142 259.855 527.386C260.263 526.618 260.821 526.024 261.529 525.604C262.249 525.184 263.053 524.974 263.941 524.974C264.709 524.974 265.423 525.154 266.083 525.514C266.743 525.862 267.247 526.324 267.595 526.9V521.68H269.251V535H267.595V533.146C267.271 533.734 266.791 534.22 266.155 534.604C265.519 534.976 264.775 535.162 263.923 535.162C263.047 535.162 262.249 534.946 261.529 534.514C260.821 534.082 260.263 533.476 259.855 532.696C259.447 531.916 259.243 531.028 259.243 530.032ZM267.595 530.05C267.595 529.306 267.445 528.658 267.145 528.106C266.845 527.554 266.437 527.134 265.921 526.846C265.417 526.546 264.859 526.396 264.247 526.396C263.635 526.396 263.077 526.54 262.573 526.828C262.069 527.116 261.667 527.536 261.367 528.088C261.067 528.64 260.917 529.288 260.917 530.032C260.917 530.788 261.067 531.448 261.367 532.012C261.667 532.564 262.069 532.99 262.573 533.29C263.077 533.578 263.635 533.722 264.247 533.722C264.859 533.722 265.417 533.578 265.921 533.29C266.437 532.99 266.845 532.564 267.145 532.012C267.445 531.448 267.595 530.794 267.595 530.05ZM281.019 529.69C281.019 530.002 281.001 530.332 280.965 530.68H273.081C273.141 531.652 273.471 532.414 274.071 532.966C274.683 533.506 275.421 533.776 276.285 533.776C276.993 533.776 277.581 533.614 278.049 533.29C278.529 532.954 278.865 532.51 279.057 531.958H280.821C280.557 532.906 280.029 533.68 279.237 534.28C278.445 534.868 277.461 535.162 276.285 535.162C275.349 535.162 274.509 534.952 273.765 534.532C273.033 534.112 272.457 533.518 272.037 532.75C271.617 531.97 271.407 531.07 271.407 530.05C271.407 529.03 271.611 528.136 272.019 527.368C272.427 526.6 272.997 526.012 273.729 525.604C274.473 525.184 275.325 524.974 276.285 524.974C277.221 524.974 278.049 525.178 278.769 525.586C279.489 525.994 280.041 526.558 280.425 527.278C280.821 527.986 281.019 528.79 281.019 529.69ZM279.327 529.348C279.327 528.724 279.189 528.19 278.913 527.746C278.637 527.29 278.259 526.948 277.779 526.72C277.311 526.48 276.789 526.36 276.213 526.36C275.385 526.36 274.677 526.624 274.089 527.152C273.513 527.68 273.183 528.412 273.099 529.348H279.327ZM287.987 524.956C289.187 524.956 290.159 525.322 290.903 526.054C291.647 526.774 292.019 527.818 292.019 529.186V535H290.399V529.42C290.399 528.436 290.153 527.686 289.661 527.17C289.169 526.642 288.497 526.378 287.645 526.378C286.781 526.378 286.091 526.648 285.575 527.188C285.071 527.728 284.819 528.514 284.819 529.546V535H283.181V525.136H284.819V526.54C285.143 526.036 285.581 525.646 286.133 525.37C286.697 525.094 287.315 524.956 287.987 524.956ZM294.083 530.05C294.083 529.03 294.287 528.142 294.695 527.386C295.103 526.618 295.667 526.024 296.387 525.604C297.119 525.184 297.953 524.974 298.889 524.974C300.101 524.974 301.097 525.268 301.877 525.856C302.669 526.444 303.191 527.26 303.443 528.304H301.679C301.511 527.704 301.181 527.23 300.689 526.882C300.209 526.534 299.609 526.36 298.889 526.36C297.953 526.36 297.197 526.684 296.621 527.332C296.045 527.968 295.757 528.874 295.757 530.05C295.757 531.238 296.045 532.156 296.621 532.804C297.197 533.452 297.953 533.776 298.889 533.776C299.609 533.776 300.209 533.608 300.689 533.272C301.169 532.936 301.499 532.456 301.679 531.832H303.443C303.179 532.84 302.651 533.65 301.859 534.262C301.067 534.862 300.077 535.162 298.889 535.162C297.953 535.162 297.119 534.952 296.387 534.532C295.667 534.112 295.103 533.518 294.695 532.75C294.287 531.982 294.083 531.082 294.083 530.05ZM314.628 529.69C314.628 530.002 314.61 530.332 314.574 530.68H306.69C306.75 531.652 307.08 532.414 307.68 532.966C308.292 533.506 309.03 533.776 309.894 533.776C310.602 533.776 311.19 533.614 311.658 533.29C312.138 532.954 312.474 532.51 312.666 531.958H314.43C314.166 532.906 313.638 533.68 312.846 534.28C312.054 534.868 311.07 535.162 309.894 535.162C308.958 535.162 308.118 534.952 307.374 534.532C306.642 534.112 306.066 533.518 305.646 532.75C305.226 531.97 305.016 531.07 305.016 530.05C305.016 529.03 305.22 528.136 305.628 527.368C306.036 526.6 306.606 526.012 307.338 525.604C308.082 525.184 308.934 524.974 309.894 524.974C310.83 524.974 311.658 525.178 312.378 525.586C313.098 525.994 313.65 526.558 314.034 527.278C314.43 527.986 314.628 528.79 314.628 529.69ZM312.936 529.348C312.936 528.724 312.798 528.19 312.522 527.746C312.246 527.29 311.868 526.948 311.388 526.72C310.92 526.48 310.398 526.36 309.822 526.36C308.994 526.36 308.286 526.624 307.698 527.152C307.122 527.68 306.792 528.412 306.708 529.348H312.936ZM323.587 526.486V532.3C323.587 532.78 323.689 533.122 323.893 533.326C324.097 533.518 324.451 533.614 324.955 533.614H326.161V535H324.685C323.773 535 323.089 534.79 322.633 534.37C322.177 533.95 321.949 533.26 321.949 532.3V526.486H320.671V525.136H321.949V522.652H323.587V525.136H326.161V526.486H323.587ZM332.448 535.162C331.524 535.162 330.684 534.952 329.928 534.532C329.184 534.112 328.596 533.518 328.164 532.75C327.744 531.97 327.534 531.07 327.534 530.05C327.534 529.042 327.75 528.154 328.182 527.386C328.626 526.606 329.226 526.012 329.982 525.604C330.738 525.184 331.584 524.974 332.52 524.974C333.456 524.974 334.302 525.184 335.058 525.604C335.814 526.012 336.408 526.6 336.84 527.368C337.284 528.136 337.506 529.03 337.506 530.05C337.506 531.07 337.278 531.97 336.822 532.75C336.378 533.518 335.772 534.112 335.004 534.532C334.236 534.952 333.384 535.162 332.448 535.162ZM332.448 533.722C333.036 533.722 333.588 533.584 334.104 533.308C334.62 533.032 335.034 532.618 335.346 532.066C335.67 531.514 335.832 530.842 335.832 530.05C335.832 529.258 335.676 528.586 335.364 528.034C335.052 527.482 334.644 527.074 334.14 526.81C333.636 526.534 333.09 526.396 332.502 526.396C331.902 526.396 331.35 526.534 330.846 526.81C330.354 527.074 329.958 527.482 329.658 528.034C329.358 528.586 329.208 529.258 329.208 530.05C329.208 530.854 329.352 531.532 329.64 532.084C329.94 532.636 330.336 533.05 330.828 533.326C331.32 533.59 331.86 533.722 332.448 533.722ZM348.526 524.974C349.378 524.974 350.122 525.16 350.758 525.532C351.406 525.904 351.886 526.372 352.198 526.936V525.136H353.854V535.216C353.854 536.116 353.662 536.914 353.278 537.61C352.894 538.318 352.342 538.87 351.622 539.266C350.914 539.662 350.086 539.86 349.138 539.86C347.842 539.86 346.762 539.554 345.898 538.942C345.034 538.33 344.524 537.496 344.368 536.44H345.988C346.168 537.04 346.54 537.52 347.104 537.88C347.668 538.252 348.346 538.438 349.138 538.438C350.038 538.438 350.77 538.156 351.334 537.592C351.91 537.028 352.198 536.236 352.198 535.216V533.146C351.874 533.722 351.394 534.202 350.758 534.586C350.122 534.97 349.378 535.162 348.526 535.162C347.65 535.162 346.852 534.946 346.132 534.514C345.424 534.082 344.866 533.476 344.458 532.696C344.05 531.916 343.846 531.028 343.846 530.032C343.846 529.024 344.05 528.142 344.458 527.386C344.866 526.618 345.424 526.024 346.132 525.604C346.852 525.184 347.65 524.974 348.526 524.974ZM352.198 530.05C352.198 529.306 352.048 528.658 351.748 528.106C351.448 527.554 351.04 527.134 350.524 526.846C350.02 526.546 349.462 526.396 348.85 526.396C348.238 526.396 347.68 526.54 347.176 526.828C346.672 527.116 346.27 527.536 345.97 528.088C345.67 528.64 345.52 529.288 345.52 530.032C345.52 530.788 345.67 531.448 345.97 532.012C346.27 532.564 346.672 532.99 347.176 533.29C347.68 533.578 348.238 533.722 348.85 533.722C349.462 533.722 350.02 533.578 350.524 533.29C351.04 532.99 351.448 532.564 351.748 532.012C352.048 531.448 352.198 530.794 352.198 530.05ZM358.26 526.738C358.548 526.174 358.956 525.736 359.484 525.424C360.024 525.112 360.678 524.956 361.446 524.956V526.648H361.014C359.178 526.648 358.26 527.644 358.26 529.636V535H356.622V525.136H358.26V526.738ZM367.639 535.162C366.715 535.162 365.875 534.952 365.119 534.532C364.375 534.112 363.787 533.518 363.355 532.75C362.935 531.97 362.725 531.07 362.725 530.05C362.725 529.042 362.941 528.154 363.373 527.386C363.817 526.606 364.417 526.012 365.173 525.604C365.929 525.184 366.775 524.974 367.711 524.974C368.647 524.974 369.493 525.184 370.249 525.604C371.005 526.012 371.599 526.6 372.031 527.368C372.475 528.136 372.697 529.03 372.697 530.05C372.697 531.07 372.469 531.97 372.013 532.75C371.569 533.518 370.963 534.112 370.195 534.532C369.427 534.952 368.575 535.162 367.639 535.162ZM367.639 533.722C368.227 533.722 368.779 533.584 369.295 533.308C369.811 533.032 370.225 532.618 370.537 532.066C370.861 531.514 371.023 530.842 371.023 530.05C371.023 529.258 370.867 528.586 370.555 528.034C370.243 527.482 369.835 527.074 369.331 526.81C368.827 526.534 368.281 526.396 367.693 526.396C367.093 526.396 366.541 526.534 366.037 526.81C365.545 527.074 365.149 527.482 364.849 528.034C364.549 528.586 364.399 529.258 364.399 530.05C364.399 530.854 364.543 531.532 364.831 532.084C365.131 532.636 365.527 533.05 366.019 533.326C366.511 533.59 367.051 533.722 367.639 533.722ZM387.991 525.136L384.913 535H383.221L380.845 527.17L378.469 535H376.777L373.681 525.136H375.355L377.623 533.416L380.071 525.136H381.745L384.139 533.434L386.371 525.136H387.991ZM161.649 560.032C161.649 559.024 161.853 558.142 162.261 557.386C162.669 556.618 163.227 556.024 163.935 555.604C164.655 555.184 165.453 554.974 166.329 554.974C167.193 554.974 167.943 555.16 168.579 555.532C169.215 555.904 169.689 556.372 170.001 556.936V555.136H171.657V565H170.001V563.164C169.677 563.74 169.191 564.22 168.543 564.604C167.907 564.976 167.163 565.162 166.311 565.162C165.435 565.162 164.643 564.946 163.935 564.514C163.227 564.082 162.669 563.476 162.261 562.696C161.853 561.916 161.649 561.028 161.649 560.032ZM170.001 560.05C170.001 559.306 169.851 558.658 169.551 558.106C169.251 557.554 168.843 557.134 168.327 556.846C167.823 556.546 167.265 556.396 166.653 556.396C166.041 556.396 165.483 556.54 164.979 556.828C164.475 557.116 164.073 557.536 163.773 558.088C163.473 558.64 163.323 559.288 163.323 560.032C163.323 560.788 163.473 561.448 163.773 562.012C164.073 562.564 164.475 562.99 164.979 563.29C165.483 563.578 166.041 563.722 166.653 563.722C167.265 563.722 167.823 563.578 168.327 563.29C168.843 562.99 169.251 562.564 169.551 562.012C169.851 561.448 170.001 560.794 170.001 560.05ZM179.231 554.956C180.431 554.956 181.403 555.322 182.147 556.054C182.891 556.774 183.263 557.818 183.263 559.186V565H181.643V559.42C181.643 558.436 181.397 557.686 180.905 557.17C180.413 556.642 179.741 556.378 178.889 556.378C178.025 556.378 177.335 556.648 176.819 557.188C176.315 557.728 176.063 558.514 176.063 559.546V565H174.425V555.136H176.063V556.54C176.387 556.036 176.825 555.646 177.377 555.37C177.941 555.094 178.559 554.956 179.231 554.956ZM185.327 560.032C185.327 559.024 185.531 558.142 185.939 557.386C186.347 556.618 186.905 556.024 187.613 555.604C188.333 555.184 189.137 554.974 190.025 554.974C190.793 554.974 191.507 555.154 192.167 555.514C192.827 555.862 193.331 556.324 193.679 556.9V551.68H195.335V565H193.679V563.146C193.355 563.734 192.875 564.22 192.239 564.604C191.603 564.976 190.859 565.162 190.007 565.162C189.131 565.162 188.333 564.946 187.613 564.514C186.905 564.082 186.347 563.476 185.939 562.696C185.531 561.916 185.327 561.028 185.327 560.032ZM193.679 560.05C193.679 559.306 193.529 558.658 193.229 558.106C192.929 557.554 192.521 557.134 192.005 556.846C191.501 556.546 190.943 556.396 190.331 556.396C189.719 556.396 189.161 556.54 188.657 556.828C188.153 557.116 187.751 557.536 187.451 558.088C187.151 558.64 187.001 559.288 187.001 560.032C187.001 560.788 187.151 561.448 187.451 562.012C187.751 562.564 188.153 562.99 188.657 563.29C189.161 563.578 189.719 563.722 190.331 563.722C190.943 563.722 191.501 563.578 192.005 563.29C192.521 562.99 192.929 562.564 193.229 562.012C193.529 561.448 193.679 560.794 193.679 560.05ZM202.29 560.05C202.29 559.03 202.494 558.142 202.902 557.386C203.31 556.618 203.874 556.024 204.594 555.604C205.326 555.184 206.16 554.974 207.096 554.974C208.308 554.974 209.304 555.268 210.084 555.856C210.876 556.444 211.398 557.26 211.65 558.304H209.886C209.718 557.704 209.388 557.23 208.896 556.882C208.416 556.534 207.816 556.36 207.096 556.36C206.16 556.36 205.404 556.684 204.828 557.332C204.252 557.968 203.964 558.874 203.964 560.05C203.964 561.238 204.252 562.156 204.828 562.804C205.404 563.452 206.16 563.776 207.096 563.776C207.816 563.776 208.416 563.608 208.896 563.272C209.376 562.936 209.706 562.456 209.886 561.832H211.65C211.386 562.84 210.858 563.65 210.066 564.262C209.274 564.862 208.284 565.162 207.096 565.162C206.16 565.162 205.326 564.952 204.594 564.532C203.874 564.112 203.31 563.518 202.902 562.75C202.494 561.982 202.29 561.082 202.29 560.05ZM215.473 556.738C215.761 556.174 216.169 555.736 216.697 555.424C217.237 555.112 217.891 554.956 218.659 554.956V556.648H218.227C216.391 556.648 215.473 557.644 215.473 559.636V565H213.835V555.136H215.473V556.738ZM229.55 559.69C229.55 560.002 229.532 560.332 229.496 560.68H221.612C221.672 561.652 222.002 562.414 222.602 562.966C223.214 563.506 223.952 563.776 224.816 563.776C225.524 563.776 226.112 563.614 226.58 563.29C227.06 562.954 227.396 562.51 227.588 561.958H229.352C229.088 562.906 228.56 563.68 227.768 564.28C226.976 564.868 225.992 565.162 224.816 565.162C223.88 565.162 223.04 564.952 222.296 564.532C221.564 564.112 220.988 563.518 220.568 562.75C220.148 561.97 219.938 561.07 219.938 560.05C219.938 559.03 220.142 558.136 220.55 557.368C220.958 556.6 221.528 556.012 222.26 555.604C223.004 555.184 223.856 554.974 224.816 554.974C225.752 554.974 226.58 555.178 227.3 555.586C228.02 555.994 228.572 556.558 228.956 557.278C229.352 557.986 229.55 558.79 229.55 559.69ZM227.858 559.348C227.858 558.724 227.72 558.19 227.444 557.746C227.168 557.29 226.79 556.948 226.31 556.72C225.842 556.48 225.32 556.36 224.744 556.36C223.916 556.36 223.208 556.624 222.62 557.152C222.044 557.68 221.714 558.412 221.63 559.348H227.858ZM231.1 560.032C231.1 559.024 231.304 558.142 231.712 557.386C232.12 556.618 232.678 556.024 233.386 555.604C234.106 555.184 234.904 554.974 235.78 554.974C236.644 554.974 237.394 555.16 238.03 555.532C238.666 555.904 239.14 556.372 239.452 556.936V555.136H241.108V565H239.452V563.164C239.128 563.74 238.642 564.22 237.994 564.604C237.358 564.976 236.614 565.162 235.762 565.162C234.886 565.162 234.094 564.946 233.386 564.514C232.678 564.082 232.12 563.476 231.712 562.696C231.304 561.916 231.1 561.028 231.1 560.032ZM239.452 560.05C239.452 559.306 239.302 558.658 239.002 558.106C238.702 557.554 238.294 557.134 237.778 556.846C237.274 556.546 236.716 556.396 236.104 556.396C235.492 556.396 234.934 556.54 234.43 556.828C233.926 557.116 233.524 557.536 233.224 558.088C232.924 558.64 232.774 559.288 232.774 560.032C232.774 560.788 232.924 561.448 233.224 562.012C233.524 562.564 233.926 562.99 234.43 563.29C234.934 563.578 235.492 563.722 236.104 563.722C236.716 563.722 237.274 563.578 237.778 563.29C238.294 562.99 238.702 562.564 239.002 562.012C239.302 561.448 239.452 560.794 239.452 560.05ZM245.874 556.486V562.3C245.874 562.78 245.976 563.122 246.18 563.326C246.384 563.518 246.738 563.614 247.242 563.614H248.448V565H246.972C246.06 565 245.376 564.79 244.92 564.37C244.464 563.95 244.236 563.26 244.236 562.3V556.486H242.958V555.136H244.236V552.652H245.874V555.136H248.448V556.486H245.874ZM259.433 559.69C259.433 560.002 259.415 560.332 259.379 560.68H251.495C251.555 561.652 251.885 562.414 252.485 562.966C253.097 563.506 253.835 563.776 254.699 563.776C255.407 563.776 255.995 563.614 256.463 563.29C256.943 562.954 257.279 562.51 257.471 561.958H259.235C258.971 562.906 258.443 563.68 257.651 564.28C256.859 564.868 255.875 565.162 254.699 565.162C253.763 565.162 252.923 564.952 252.179 564.532C251.447 564.112 250.871 563.518 250.451 562.75C250.031 561.97 249.821 561.07 249.821 560.05C249.821 559.03 250.025 558.136 250.433 557.368C250.841 556.6 251.411 556.012 252.143 555.604C252.887 555.184 253.739 554.974 254.699 554.974C255.635 554.974 256.463 555.178 257.183 555.586C257.903 555.994 258.455 556.558 258.839 557.278C259.235 557.986 259.433 558.79 259.433 559.69ZM257.741 559.348C257.741 558.724 257.603 558.19 257.327 557.746C257.051 557.29 256.673 556.948 256.193 556.72C255.725 556.48 255.203 556.36 254.627 556.36C253.799 556.36 253.091 556.624 252.503 557.152C251.927 557.68 251.597 558.412 251.513 559.348H257.741ZM279.534 555.136L276.456 565H274.764L272.388 557.17L270.012 565H268.32L265.224 555.136H266.898L269.166 563.416L271.614 555.136H273.288L275.682 563.434L277.914 555.136H279.534ZM282.005 553.534C281.693 553.534 281.429 553.426 281.213 553.21C280.997 552.994 280.889 552.73 280.889 552.418C280.889 552.106 280.997 551.842 281.213 551.626C281.429 551.41 281.693 551.302 282.005 551.302C282.305 551.302 282.557 551.41 282.761 551.626C282.977 551.842 283.085 552.106 283.085 552.418C283.085 552.73 282.977 552.994 282.761 553.21C282.557 553.426 282.305 553.534 282.005 553.534ZM282.797 555.136V565H281.159V555.136H282.797ZM287.587 556.486V562.3C287.587 562.78 287.689 563.122 287.893 563.326C288.097 563.518 288.451 563.614 288.955 563.614H290.161V565H288.685C287.773 565 287.089 564.79 286.633 564.37C286.177 563.95 285.949 563.26 285.949 562.3V556.486H284.671V555.136H285.949V552.652H287.587V555.136H290.161V556.486H287.587ZM297.042 554.956C297.786 554.956 298.458 555.118 299.058 555.442C299.658 555.754 300.126 556.228 300.462 556.864C300.81 557.5 300.984 558.274 300.984 559.186V565H299.364V559.42C299.364 558.436 299.118 557.686 298.626 557.17C298.134 556.642 297.462 556.378 296.61 556.378C295.746 556.378 295.056 556.648 294.54 557.188C294.036 557.728 293.784 558.514 293.784 559.546V565H292.146V551.68H293.784V556.54C294.108 556.036 294.552 555.646 295.116 555.37C295.692 555.094 296.334 554.956 297.042 554.956ZM307.961 565.162C307.037 565.162 306.197 564.952 305.441 564.532C304.697 564.112 304.109 563.518 303.677 562.75C303.257 561.97 303.047 561.07 303.047 560.05C303.047 559.042 303.263 558.154 303.695 557.386C304.139 556.606 304.739 556.012 305.495 555.604C306.251 555.184 307.097 554.974 308.033 554.974C308.969 554.974 309.815 555.184 310.571 555.604C311.327 556.012 311.921 556.6 312.353 557.368C312.797 558.136 313.019 559.03 313.019 560.05C313.019 561.07 312.791 561.97 312.335 562.75C311.891 563.518 311.285 564.112 310.517 564.532C309.749 564.952 308.897 565.162 307.961 565.162ZM307.961 563.722C308.549 563.722 309.101 563.584 309.617 563.308C310.133 563.032 310.547 562.618 310.859 562.066C311.183 561.514 311.345 560.842 311.345 560.05C311.345 559.258 311.189 558.586 310.877 558.034C310.565 557.482 310.157 557.074 309.653 556.81C309.149 556.534 308.603 556.396 308.015 556.396C307.415 556.396 306.863 556.534 306.359 556.81C305.867 557.074 305.471 557.482 305.171 558.034C304.871 558.586 304.721 559.258 304.721 560.05C304.721 560.854 304.865 561.532 305.153 562.084C305.453 562.636 305.849 563.05 306.341 563.326C306.833 563.59 307.373 563.722 307.961 563.722ZM323.921 555.136V565H322.283V563.542C321.971 564.046 321.533 564.442 320.969 564.73C320.417 565.006 319.805 565.144 319.133 565.144C318.365 565.144 317.675 564.988 317.063 564.676C316.451 564.352 315.965 563.872 315.605 563.236C315.257 562.6 315.083 561.826 315.083 560.914V555.136H316.703V560.698C316.703 561.67 316.949 562.42 317.441 562.948C317.933 563.464 318.605 563.722 319.457 563.722C320.333 563.722 321.023 563.452 321.527 562.912C322.031 562.372 322.283 561.586 322.283 560.554V555.136H323.921ZM328.685 556.486V562.3C328.685 562.78 328.787 563.122 328.991 563.326C329.195 563.518 329.549 563.614 330.053 563.614H331.259V565H329.783C328.871 565 328.187 564.79 327.731 564.37C327.275 563.95 327.047 563.26 327.047 562.3V556.486H325.769V555.136H327.047V552.652H328.685V555.136H331.259V556.486H328.685ZM339.68 551.68V565H338.042V551.68H339.68ZM343.318 553.534C343.006 553.534 342.742 553.426 342.526 553.21C342.31 552.994 342.202 552.73 342.202 552.418C342.202 552.106 342.31 551.842 342.526 551.626C342.742 551.41 343.006 551.302 343.318 551.302C343.618 551.302 343.87 551.41 344.074 551.626C344.29 551.842 344.398 552.106 344.398 552.418C344.398 552.73 344.29 552.994 344.074 553.21C343.87 553.426 343.618 553.534 343.318 553.534ZM344.11 555.136V565H342.472V555.136H344.11ZM358.764 554.956C359.532 554.956 360.216 555.118 360.816 555.442C361.416 555.754 361.89 556.228 362.238 556.864C362.586 557.5 362.76 558.274 362.76 559.186V565H361.14V559.42C361.14 558.436 360.894 557.686 360.402 557.17C359.922 556.642 359.268 556.378 358.44 556.378C357.588 556.378 356.91 556.654 356.406 557.206C355.902 557.746 355.65 558.532 355.65 559.564V565H354.03V559.42C354.03 558.436 353.784 557.686 353.292 557.17C352.812 556.642 352.158 556.378 351.33 556.378C350.478 556.378 349.8 556.654 349.296 557.206C348.792 557.746 348.54 558.532 348.54 559.564V565H346.902V555.136H348.54V556.558C348.864 556.042 349.296 555.646 349.836 555.37C350.388 555.094 350.994 554.956 351.654 554.956C352.482 554.956 353.214 555.142 353.85 555.514C354.486 555.886 354.96 556.432 355.272 557.152C355.548 556.456 356.004 555.916 356.64 555.532C357.276 555.148 357.984 554.956 358.764 554.956ZM366.293 553.534C365.981 553.534 365.717 553.426 365.501 553.21C365.285 552.994 365.177 552.73 365.177 552.418C365.177 552.106 365.285 551.842 365.501 551.626C365.717 551.41 365.981 551.302 366.293 551.302C366.593 551.302 366.845 551.41 367.049 551.626C367.265 551.842 367.373 552.106 367.373 552.418C367.373 552.73 367.265 552.994 367.049 553.21C366.845 553.426 366.593 553.534 366.293 553.534ZM367.085 555.136V565H365.447V555.136H367.085ZM371.874 556.486V562.3C371.874 562.78 371.976 563.122 372.18 563.326C372.384 563.518 372.738 563.614 373.242 563.614H374.448V565H372.972C372.06 565 371.376 564.79 370.92 564.37C370.464 563.95 370.236 563.26 370.236 562.3V556.486H368.958V555.136H370.236V552.652H371.874V555.136H374.448V556.486H371.874ZM379.925 565.162C379.169 565.162 378.491 565.036 377.891 564.784C377.291 564.52 376.817 564.16 376.469 563.704C376.121 563.236 375.929 562.702 375.893 562.102H377.585C377.633 562.594 377.861 562.996 378.269 563.308C378.689 563.62 379.235 563.776 379.907 563.776C380.531 563.776 381.023 563.638 381.383 563.362C381.743 563.086 381.923 562.738 381.923 562.318C381.923 561.886 381.731 561.568 381.347 561.364C380.963 561.148 380.369 560.938 379.565 560.734C378.833 560.542 378.233 560.35 377.765 560.158C377.309 559.954 376.913 559.66 376.577 559.276C376.253 558.88 376.091 558.364 376.091 557.728C376.091 557.224 376.241 556.762 376.541 556.342C376.841 555.922 377.267 555.592 377.819 555.352C378.371 555.1 379.001 554.974 379.709 554.974C380.801 554.974 381.683 555.25 382.355 555.802C383.027 556.354 383.387 557.11 383.435 558.07H381.797C381.761 557.554 381.551 557.14 381.167 556.828C380.795 556.516 380.291 556.36 379.655 556.36C379.067 556.36 378.599 556.486 378.251 556.738C377.903 556.99 377.729 557.32 377.729 557.728C377.729 558.052 377.831 558.322 378.035 558.538C378.251 558.742 378.515 558.91 378.827 559.042C379.151 559.162 379.595 559.3 380.159 559.456C380.867 559.648 381.443 559.84 381.887 560.032C382.331 560.212 382.709 560.488 383.021 560.86C383.345 561.232 383.513 561.718 383.525 562.318C383.525 562.858 383.375 563.344 383.075 563.776C382.775 564.208 382.349 564.55 381.797 564.802C381.257 565.042 380.633 565.162 379.925 565.162ZM386.359 565.108C386.047 565.108 385.783 565 385.567 564.784C385.351 564.568 385.243 564.304 385.243 563.992C385.243 563.68 385.351 563.416 385.567 563.2C385.783 562.984 386.047 562.876 386.359 562.876C386.659 562.876 386.911 562.984 387.115 563.2C387.331 563.416 387.439 563.68 387.439 563.992C387.439 564.304 387.331 564.568 387.115 564.784C386.911 565 386.659 565.108 386.359 565.108Z" fill="white"/>
<path d="M361.151 215.458V193.058H372.095C374.911 193.058 377.023 193.591 378.431 194.658C379.86 195.725 380.575 197.133 380.575 198.882C380.575 200.055 380.287 201.079 379.711 201.954C379.135 202.807 378.346 203.469 377.343 203.938C376.34 204.407 375.188 204.642 373.887 204.642L374.495 203.33C375.903 203.33 377.151 203.565 378.239 204.034C379.327 204.482 380.17 205.154 380.767 206.05C381.386 206.946 381.695 208.045 381.695 209.346C381.695 211.266 380.938 212.77 379.423 213.858C377.908 214.925 375.679 215.458 372.735 215.458H361.151ZM366.303 211.554H372.351C373.695 211.554 374.708 211.341 375.391 210.914C376.095 210.466 376.447 209.762 376.447 208.802C376.447 207.863 376.095 207.17 375.391 206.722C374.708 206.253 373.695 206.018 372.351 206.018H365.919V202.242H371.455C372.714 202.242 373.674 202.029 374.335 201.602C375.018 201.154 375.359 200.482 375.359 199.586C375.359 198.711 375.018 198.061 374.335 197.634C373.674 197.186 372.714 196.962 371.455 196.962H366.303V211.554ZM393.812 215.714C391.849 215.714 390.121 215.33 388.628 214.562C387.156 213.794 386.015 212.749 385.204 211.426C384.393 210.082 383.988 208.557 383.988 206.85C383.988 205.122 384.383 203.597 385.172 202.274C385.983 200.93 387.081 199.885 388.468 199.138C389.855 198.37 391.423 197.986 393.172 197.986C394.857 197.986 396.372 198.349 397.716 199.074C399.081 199.778 400.159 200.802 400.948 202.146C401.737 203.469 402.132 205.058 402.132 206.914C402.132 207.106 402.121 207.33 402.1 207.586C402.079 207.821 402.057 208.045 402.036 208.258H388.052V205.346H399.412L397.492 206.21C397.492 205.314 397.311 204.535 396.948 203.874C396.585 203.213 396.084 202.701 395.444 202.338C394.804 201.954 394.057 201.762 393.204 201.762C392.351 201.762 391.593 201.954 390.932 202.338C390.292 202.701 389.791 203.223 389.428 203.906C389.065 204.567 388.884 205.357 388.884 206.274V207.042C388.884 207.981 389.087 208.813 389.492 209.538C389.919 210.242 390.505 210.786 391.252 211.17C392.02 211.533 392.916 211.714 393.94 211.714C394.857 211.714 395.657 211.575 396.34 211.298C397.044 211.021 397.684 210.605 398.26 210.05L400.916 212.93C400.127 213.826 399.135 214.519 397.94 215.01C396.745 215.479 395.369 215.714 393.812 215.714ZM407.319 221.922C406.423 221.922 405.538 221.783 404.663 221.506C403.788 221.229 403.074 220.845 402.519 220.354L404.343 216.802C404.727 217.143 405.164 217.41 405.655 217.602C406.167 217.794 406.668 217.89 407.159 217.89C407.863 217.89 408.418 217.719 408.823 217.378C409.25 217.058 409.634 216.514 409.975 215.746L410.871 213.634L411.255 213.09L417.431 198.242H422.231L414.455 216.514C413.9 217.901 413.26 218.989 412.535 219.778C411.831 220.567 411.042 221.122 410.167 221.442C409.314 221.762 408.364 221.922 407.319 221.922ZM410.263 216.13L402.583 198.242H407.735L413.687 212.642L410.263 216.13ZM431.991 215.714C430.156 215.714 428.524 215.33 427.095 214.562C425.687 213.794 424.567 212.749 423.735 211.426C422.924 210.082 422.519 208.557 422.519 206.85C422.519 205.122 422.924 203.597 423.735 202.274C424.567 200.93 425.687 199.885 427.095 199.138C428.524 198.37 430.156 197.986 431.991 197.986C433.804 197.986 435.426 198.37 436.855 199.138C438.284 199.885 439.404 200.919 440.215 202.242C441.026 203.565 441.431 205.101 441.431 206.85C441.431 208.557 441.026 210.082 440.215 211.426C439.404 212.749 438.284 213.794 436.855 214.562C435.426 215.33 433.804 215.714 431.991 215.714ZM431.991 211.618C432.823 211.618 433.57 211.426 434.231 211.042C434.892 210.658 435.415 210.114 435.799 209.41C436.183 208.685 436.375 207.831 436.375 206.85C436.375 205.847 436.183 204.994 435.799 204.29C435.415 203.586 434.892 203.042 434.231 202.658C433.57 202.274 432.823 202.082 431.991 202.082C431.159 202.082 430.412 202.274 429.751 202.658C429.09 203.042 428.556 203.586 428.151 204.29C427.767 204.994 427.575 205.847 427.575 206.85C427.575 207.831 427.767 208.685 428.151 209.41C428.556 210.114 429.09 210.658 429.751 211.042C430.412 211.426 431.159 211.618 431.991 211.618ZM455.232 197.986C456.597 197.986 457.813 198.263 458.88 198.818C459.968 199.351 460.821 200.183 461.44 201.314C462.059 202.423 462.368 203.853 462.368 205.602V215.458H457.376V206.37C457.376 204.983 457.067 203.959 456.448 203.298C455.851 202.637 454.997 202.306 453.888 202.306C453.099 202.306 452.384 202.477 451.744 202.818C451.125 203.138 450.635 203.639 450.272 204.322C449.931 205.005 449.76 205.879 449.76 206.946V215.458H444.768V198.242H449.536V203.01L448.64 201.57C449.259 200.418 450.144 199.533 451.296 198.914C452.448 198.295 453.76 197.986 455.232 197.986ZM474.41 215.714C472.789 215.714 471.327 215.351 470.026 214.626C468.725 213.879 467.69 212.845 466.922 211.522C466.175 210.199 465.802 208.642 465.802 206.85C465.802 205.037 466.175 203.469 466.922 202.146C467.69 200.823 468.725 199.799 470.026 199.074C471.327 198.349 472.789 197.986 474.41 197.986C475.861 197.986 477.13 198.306 478.218 198.946C479.306 199.586 480.149 200.557 480.746 201.858C481.343 203.159 481.642 204.823 481.642 206.85C481.642 208.855 481.354 210.519 480.778 211.842C480.202 213.143 479.37 214.114 478.282 214.754C477.215 215.394 475.925 215.714 474.41 215.714ZM475.274 211.618C476.085 211.618 476.821 211.426 477.482 211.042C478.143 210.658 478.666 210.114 479.05 209.41C479.455 208.685 479.658 207.831 479.658 206.85C479.658 205.847 479.455 204.994 479.05 204.29C478.666 203.586 478.143 203.042 477.482 202.658C476.821 202.274 476.085 202.082 475.274 202.082C474.442 202.082 473.695 202.274 473.034 202.658C472.373 203.042 471.839 203.586 471.434 204.29C471.05 204.994 470.858 205.847 470.858 206.85C470.858 207.831 471.05 208.685 471.434 209.41C471.839 210.114 472.373 210.658 473.034 211.042C473.695 211.426 474.442 211.618 475.274 211.618ZM479.786 215.458V211.938L479.882 206.818L479.562 201.73V191.714H484.554V215.458H479.786ZM359.292 254.458V232.058H370.236C373.052 232.058 375.164 232.591 376.572 233.658C378.001 234.725 378.716 236.133 378.716 237.882C378.716 239.055 378.428 240.079 377.852 240.954C377.276 241.807 376.486 242.469 375.484 242.938C374.481 243.407 373.329 243.642 372.028 243.642L372.636 242.33C374.044 242.33 375.292 242.565 376.38 243.034C377.468 243.482 378.31 244.154 378.908 245.05C379.526 245.946 379.836 247.045 379.836 248.346C379.836 250.266 379.078 251.77 377.564 252.858C376.049 253.925 373.82 254.458 370.876 254.458H359.292ZM364.444 250.554H370.492C371.836 250.554 372.849 250.341 373.532 249.914C374.236 249.466 374.588 248.762 374.588 247.802C374.588 246.863 374.236 246.17 373.532 245.722C372.849 245.253 371.836 245.018 370.492 245.018H364.06V241.242H369.596C370.854 241.242 371.814 241.029 372.476 240.602C373.158 240.154 373.5 239.482 373.5 238.586C373.5 237.711 373.158 237.061 372.476 236.634C371.814 236.186 370.854 235.962 369.596 235.962H364.444V250.554ZM391.6 254.714C389.766 254.714 388.134 254.33 386.704 253.562C385.296 252.794 384.176 251.749 383.344 250.426C382.534 249.082 382.128 247.557 382.128 245.85C382.128 244.122 382.534 242.597 383.344 241.274C384.176 239.93 385.296 238.885 386.704 238.138C388.134 237.37 389.766 236.986 391.6 236.986C393.414 236.986 395.035 237.37 396.464 238.138C397.894 238.885 399.014 239.919 399.824 241.242C400.635 242.565 401.04 244.101 401.04 245.85C401.04 247.557 400.635 249.082 399.824 250.426C399.014 251.749 397.894 252.794 396.464 253.562C395.035 254.33 393.414 254.714 391.6 254.714ZM391.6 250.618C392.432 250.618 393.179 250.426 393.84 250.042C394.502 249.658 395.024 249.114 395.408 248.41C395.792 247.685 395.984 246.831 395.984 245.85C395.984 244.847 395.792 243.994 395.408 243.29C395.024 242.586 394.502 242.042 393.84 241.658C393.179 241.274 392.432 241.082 391.6 241.082C390.768 241.082 390.022 241.274 389.36 241.658C388.699 242.042 388.166 242.586 387.76 243.29C387.376 243.994 387.184 244.847 387.184 245.85C387.184 246.831 387.376 247.685 387.76 248.41C388.166 249.114 388.699 249.658 389.36 250.042C390.022 250.426 390.768 250.618 391.6 250.618ZM404.377 254.458V237.242H409.145V242.106L408.473 240.698C408.985 239.482 409.807 238.565 410.937 237.946C412.068 237.306 413.444 236.986 415.065 236.986V241.594C414.852 241.573 414.66 241.562 414.489 241.562C414.319 241.541 414.137 241.53 413.945 241.53C412.58 241.53 411.471 241.925 410.617 242.714C409.785 243.482 409.369 244.687 409.369 246.33V254.458H404.377ZM425.3 254.714C423.679 254.714 422.218 254.351 420.916 253.626C419.615 252.879 418.58 251.845 417.812 250.522C417.066 249.199 416.692 247.642 416.692 245.85C416.692 244.037 417.066 242.469 417.812 241.146C418.58 239.823 419.615 238.799 420.916 238.074C422.218 237.349 423.679 236.986 425.3 236.986C426.751 236.986 428.02 237.306 429.108 237.946C430.196 238.586 431.039 239.557 431.636 240.858C432.234 242.159 432.532 243.823 432.532 245.85C432.532 247.855 432.244 249.519 431.668 250.842C431.092 252.143 430.26 253.114 429.172 253.754C428.106 254.394 426.815 254.714 425.3 254.714ZM426.164 250.618C426.975 250.618 427.711 250.426 428.372 250.042C429.034 249.658 429.556 249.114 429.94 248.41C430.346 247.685 430.548 246.831 430.548 245.85C430.548 244.847 430.346 243.994 429.94 243.29C429.556 242.586 429.034 242.042 428.372 241.658C427.711 241.274 426.975 241.082 426.164 241.082C425.332 241.082 424.586 241.274 423.924 241.658C423.263 242.042 422.73 242.586 422.324 243.29C421.94 243.994 421.748 244.847 421.748 245.85C421.748 246.831 421.94 247.685 422.324 248.41C422.73 249.114 423.263 249.658 423.924 250.042C424.586 250.426 425.332 250.618 426.164 250.618ZM430.676 254.458V250.938L430.772 245.818L430.452 240.73V230.714H435.444V254.458H430.676ZM448.609 254.714C446.646 254.714 444.918 254.33 443.425 253.562C441.953 252.794 440.811 251.749 440.001 250.426C439.19 249.082 438.785 247.557 438.785 245.85C438.785 244.122 439.179 242.597 439.969 241.274C440.779 239.93 441.878 238.885 443.265 238.138C444.651 237.37 446.219 236.986 447.969 236.986C449.654 236.986 451.169 237.349 452.513 238.074C453.878 238.778 454.955 239.802 455.745 241.146C456.534 242.469 456.929 244.058 456.929 245.914C456.929 246.106 456.918 246.33 456.897 246.586C456.875 246.821 456.854 247.045 456.833 247.258H442.849V244.346H454.209L452.289 245.21C452.289 244.314 452.107 243.535 451.745 242.874C451.382 242.213 450.881 241.701 450.241 241.338C449.601 240.954 448.854 240.762 448.001 240.762C447.147 240.762 446.39 240.954 445.729 241.338C445.089 241.701 444.587 242.223 444.225 242.906C443.862 243.567 443.681 244.357 443.681 245.274V246.042C443.681 246.981 443.883 247.813 444.289 248.538C444.715 249.242 445.302 249.786 446.049 250.17C446.817 250.533 447.713 250.714 448.737 250.714C449.654 250.714 450.454 250.575 451.137 250.298C451.841 250.021 452.481 249.605 453.057 249.05L455.713 251.93C454.923 252.826 453.931 253.519 452.737 254.01C451.542 254.479 450.166 254.714 448.609 254.714ZM460.252 254.458V237.242H465.02V242.106L464.348 240.698C464.86 239.482 465.682 238.565 466.812 237.946C467.943 237.306 469.319 236.986 470.94 236.986V241.594C470.727 241.573 470.535 241.562 470.364 241.562C470.194 241.541 470.012 241.53 469.82 241.53C468.455 241.53 467.346 241.925 466.492 242.714C465.66 243.482 465.244 244.687 465.244 246.33V254.458H460.252ZM479.825 254.714C478.353 254.714 476.935 254.543 475.569 254.202C474.225 253.839 473.159 253.391 472.369 252.858L474.033 249.274C474.823 249.765 475.751 250.17 476.817 250.49C477.905 250.789 478.972 250.938 480.017 250.938C481.169 250.938 481.98 250.799 482.449 250.522C482.94 250.245 483.185 249.861 483.185 249.37C483.185 248.965 482.993 248.666 482.609 248.474C482.247 248.261 481.756 248.101 481.137 247.994C480.519 247.887 479.836 247.781 479.089 247.674C478.364 247.567 477.628 247.429 476.881 247.258C476.135 247.066 475.452 246.789 474.833 246.426C474.215 246.063 473.713 245.573 473.329 244.954C472.967 244.335 472.785 243.535 472.785 242.554C472.785 241.466 473.095 240.506 473.713 239.674C474.353 238.842 475.271 238.191 476.465 237.722C477.66 237.231 479.089 236.986 480.753 236.986C481.927 236.986 483.121 237.114 484.337 237.37C485.553 237.626 486.567 237.999 487.377 238.49L485.713 242.042C484.881 241.551 484.039 241.221 483.185 241.05C482.353 240.858 481.543 240.762 480.753 240.762C479.644 240.762 478.833 240.911 478.321 241.21C477.809 241.509 477.553 241.893 477.553 242.362C477.553 242.789 477.735 243.109 478.097 243.322C478.481 243.535 478.983 243.706 479.601 243.834C480.22 243.962 480.892 244.079 481.617 244.186C482.364 244.271 483.111 244.41 483.857 244.602C484.604 244.794 485.276 245.071 485.873 245.434C486.492 245.775 486.993 246.255 487.377 246.874C487.761 247.471 487.953 248.261 487.953 249.242C487.953 250.309 487.633 251.258 486.993 252.09C486.353 252.901 485.425 253.541 484.209 254.01C483.015 254.479 481.553 254.714 479.825 254.714Z" fill="#6F00CD"/>
</svg>
