<svg width="846" height="727" viewBox="0 0 846 727" fill="none" xmlns="http://www.w3.org/2000/svg">
<path d="M418.32 366.306L266.317 281.667C261.381 278.919 259.7 272.631 262.606 267.786L414.603 14.4242C418.491 7.94404 427.885 7.95164 431.762 14.4381L583.205 267.806C586.097 272.644 584.421 278.915 579.5 281.665L428.064 366.298C425.037 367.99 421.35 367.993 418.32 366.306Z" stroke="white" stroke-width="2" stroke-linejoin="round"/>
<path d="M442.602 396.12L589.431 301.448C594.292 298.314 600.79 299.994 603.573 305.103L750.997 575.71C754.638 582.393 749.86 590.534 742.296 590.534L448.66 590.534C443.152 590.534 438.671 586.041 438.652 580.501L438.034 404.567C438.022 401.147 439.744 397.963 442.602 396.12Z" stroke="white" stroke-width="2" stroke-linejoin="round"/>
<path d="M400.701 398.187L254.986 305.477C250.157 302.405 243.739 304.053 240.938 309.085L92.6075 575.63C88.8873 582.315 93.6613 590.534 101.265 590.534L393.659 590.534C399.143 590.534 403.615 586.079 403.667 580.562L405.319 406.727C405.351 403.264 403.606 400.036 400.701 398.187Z" stroke="white" stroke-width="2" stroke-linejoin="round"/>
<path d="M467.319 507.912V483.412H479.289C482.369 483.412 484.679 483.996 486.219 485.162C487.782 486.329 488.564 487.869 488.564 489.782C488.564 491.066 488.249 492.186 487.619 493.142C486.989 494.076 486.126 494.799 485.029 495.312C483.932 495.826 482.672 496.082 481.249 496.082L481.914 494.647C483.454 494.647 484.819 494.904 486.009 495.417C487.199 495.907 488.121 496.642 488.774 497.622C489.451 498.602 489.789 499.804 489.789 501.227C489.789 503.327 488.961 504.972 487.304 506.162C485.647 507.329 483.209 507.912 479.989 507.912H467.319ZM472.954 503.642H479.569C481.039 503.642 482.147 503.409 482.894 502.942C483.664 502.452 484.049 501.682 484.049 500.632C484.049 499.606 483.664 498.847 482.894 498.357C482.147 497.844 481.039 497.587 479.569 497.587H472.534V493.457H478.589C479.966 493.457 481.016 493.224 481.739 492.757C482.486 492.267 482.859 491.532 482.859 490.552C482.859 489.596 482.486 488.884 481.739 488.417C481.016 487.927 479.966 487.682 478.589 487.682H472.954V503.642ZM503.042 508.192C500.895 508.192 499.005 507.772 497.372 506.932C495.762 506.092 494.513 504.949 493.627 503.502C492.74 502.032 492.297 500.364 492.297 498.497C492.297 496.607 492.728 494.939 493.592 493.492C494.478 492.022 495.68 490.879 497.197 490.062C498.713 489.222 500.428 488.802 502.342 488.802C504.185 488.802 505.842 489.199 507.312 489.992C508.805 490.762 509.983 491.882 510.847 493.352C511.71 494.799 512.142 496.537 512.142 498.567C512.142 498.777 512.13 499.022 512.107 499.302C512.083 499.559 512.06 499.804 512.037 500.037H496.742V496.852H509.167L507.067 497.797C507.067 496.817 506.868 495.966 506.472 495.242C506.075 494.519 505.527 493.959 504.827 493.562C504.127 493.142 503.31 492.932 502.377 492.932C501.443 492.932 500.615 493.142 499.892 493.562C499.192 493.959 498.643 494.531 498.247 495.277C497.85 496.001 497.652 496.864 497.652 497.867V498.707C497.652 499.734 497.873 500.644 498.317 501.437C498.783 502.207 499.425 502.802 500.242 503.222C501.082 503.619 502.062 503.817 503.182 503.817C504.185 503.817 505.06 503.666 505.807 503.362C506.577 503.059 507.277 502.604 507.907 501.997L510.812 505.147C509.948 506.127 508.863 506.886 507.557 507.422C506.25 507.936 504.745 508.192 503.042 508.192ZM517.815 514.982C516.835 514.982 515.867 514.831 514.91 514.527C513.953 514.224 513.172 513.804 512.565 513.267L514.56 509.382C514.98 509.756 515.458 510.047 515.995 510.257C516.555 510.467 517.103 510.572 517.64 510.572C518.41 510.572 519.017 510.386 519.46 510.012C519.927 509.662 520.347 509.067 520.72 508.227L521.7 505.917L522.12 505.322L528.875 489.082H534.125L525.62 509.067C525.013 510.584 524.313 511.774 523.52 512.637C522.75 513.501 521.887 514.107 520.93 514.457C519.997 514.807 518.958 514.982 517.815 514.982ZM521.035 508.647L512.635 489.082H518.27L524.78 504.832L521.035 508.647ZM544.8 508.192C542.794 508.192 541.009 507.772 539.445 506.932C537.905 506.092 536.68 504.949 535.77 503.502C534.884 502.032 534.44 500.364 534.44 498.497C534.44 496.607 534.884 494.939 535.77 493.492C536.68 492.022 537.905 490.879 539.445 490.062C541.009 489.222 542.794 488.802 544.8 488.802C546.784 488.802 548.557 489.222 550.12 490.062C551.684 490.879 552.909 492.011 553.795 493.457C554.682 494.904 555.125 496.584 555.125 498.497C555.125 500.364 554.682 502.032 553.795 503.502C552.909 504.949 551.684 506.092 550.12 506.932C548.557 507.772 546.784 508.192 544.8 508.192ZM544.8 503.712C545.71 503.712 546.527 503.502 547.25 503.082C547.974 502.662 548.545 502.067 548.965 501.297C549.385 500.504 549.595 499.571 549.595 498.497C549.595 497.401 549.385 496.467 548.965 495.697C548.545 494.927 547.974 494.332 547.25 493.912C546.527 493.492 545.71 493.282 544.8 493.282C543.89 493.282 543.074 493.492 542.35 493.912C541.627 494.332 541.044 494.927 540.6 495.697C540.18 496.467 539.97 497.401 539.97 498.497C539.97 499.571 540.18 500.504 540.6 501.297C541.044 502.067 541.627 502.662 542.35 503.082C543.074 503.502 543.89 503.712 544.8 503.712ZM570.22 488.802C571.713 488.802 573.043 489.106 574.21 489.712C575.4 490.296 576.333 491.206 577.01 492.442C577.687 493.656 578.025 495.219 578.025 497.132V507.912H572.565V497.972C572.565 496.456 572.227 495.336 571.55 494.612C570.897 493.889 569.963 493.527 568.75 493.527C567.887 493.527 567.105 493.714 566.405 494.087C565.728 494.437 565.192 494.986 564.795 495.732C564.422 496.479 564.235 497.436 564.235 498.602V507.912H558.775V489.082H563.99V494.297L563.01 492.722C563.687 491.462 564.655 490.494 565.915 489.817C567.175 489.141 568.61 488.802 570.22 488.802ZM591.196 508.192C589.422 508.192 587.824 507.796 586.401 507.002C584.977 506.186 583.846 505.054 583.006 503.607C582.189 502.161 581.781 500.457 581.781 498.497C581.781 496.514 582.189 494.799 583.006 493.352C583.846 491.906 584.977 490.786 586.401 489.992C587.824 489.199 589.422 488.802 591.196 488.802C592.782 488.802 594.171 489.152 595.361 489.852C596.551 490.552 597.472 491.614 598.126 493.037C598.779 494.461 599.106 496.281 599.106 498.497C599.106 500.691 598.791 502.511 598.161 503.957C597.531 505.381 596.621 506.442 595.431 507.142C594.264 507.842 592.852 508.192 591.196 508.192ZM592.141 503.712C593.027 503.712 593.832 503.502 594.556 503.082C595.279 502.662 595.851 502.067 596.271 501.297C596.714 500.504 596.936 499.571 596.936 498.497C596.936 497.401 596.714 496.467 596.271 495.697C595.851 494.927 595.279 494.332 594.556 493.912C593.832 493.492 593.027 493.282 592.141 493.282C591.231 493.282 590.414 493.492 589.691 493.912C588.967 494.332 588.384 494.927 587.941 495.697C587.521 496.467 587.311 497.401 587.311 498.497C587.311 499.571 587.521 500.504 587.941 501.297C588.384 502.067 588.967 502.662 589.691 503.082C590.414 503.502 591.231 503.712 592.141 503.712ZM597.076 507.912V504.062L597.181 498.462L596.831 492.897V481.942H602.291V507.912H597.076ZM475.369 551.332C473.409 551.332 471.531 551.076 469.734 550.562C467.937 550.026 466.491 549.337 465.394 548.497L467.319 544.227C468.369 544.974 469.606 545.592 471.029 546.082C472.476 546.549 473.934 546.782 475.404 546.782C476.524 546.782 477.422 546.677 478.099 546.467C478.799 546.234 479.312 545.919 479.639 545.522C479.966 545.126 480.129 544.671 480.129 544.157C480.129 543.504 479.872 542.991 479.359 542.617C478.846 542.221 478.169 541.906 477.329 541.672C476.489 541.416 475.556 541.182 474.529 540.972C473.526 540.739 472.511 540.459 471.484 540.132C470.481 539.806 469.559 539.386 468.719 538.872C467.879 538.359 467.191 537.682 466.654 536.842C466.141 536.002 465.884 534.929 465.884 533.622C465.884 532.222 466.257 530.951 467.004 529.807C467.774 528.641 468.917 527.719 470.434 527.042C471.974 526.342 473.899 525.992 476.209 525.992C477.749 525.992 479.266 526.179 480.759 526.552C482.252 526.902 483.571 527.439 484.714 528.162L482.964 532.467C481.821 531.814 480.677 531.336 479.534 531.032C478.391 530.706 477.271 530.542 476.174 530.542C475.077 530.542 474.179 530.671 473.479 530.927C472.779 531.184 472.277 531.522 471.974 531.942C471.671 532.339 471.519 532.806 471.519 533.342C471.519 533.972 471.776 534.486 472.289 534.882C472.802 535.256 473.479 535.559 474.319 535.792C475.159 536.026 476.081 536.259 477.084 536.492C478.111 536.726 479.126 536.994 480.129 537.297C481.156 537.601 482.089 538.009 482.929 538.522C483.769 539.036 484.446 539.712 484.959 540.552C485.496 541.392 485.764 542.454 485.764 543.737C485.764 545.114 485.379 546.374 484.609 547.517C483.839 548.661 482.684 549.582 481.144 550.282C479.627 550.982 477.702 551.332 475.369 551.332ZM491.292 557.982C490.312 557.982 489.343 557.831 488.387 557.527C487.43 557.224 486.648 556.804 486.042 556.267L488.037 552.382C488.457 552.756 488.935 553.047 489.472 553.257C490.032 553.467 490.58 553.572 491.117 553.572C491.887 553.572 492.493 553.386 492.937 553.012C493.403 552.662 493.823 552.067 494.197 551.227L495.177 548.917L495.597 548.322L502.352 532.082H507.602L499.097 552.067C498.49 553.584 497.79 554.774 496.997 555.637C496.227 556.501 495.363 557.107 494.407 557.457C493.473 557.807 492.435 557.982 491.292 557.982ZM494.512 551.647L486.112 532.082H491.747L498.257 547.832L494.512 551.647ZM509.83 550.912V524.942H515.29V550.912H509.83ZM520.357 550.912V524.942H525.817V550.912H520.357ZM542.434 550.912V547.237L542.084 546.432V539.852C542.084 538.686 541.723 537.776 540.999 537.122C540.299 536.469 539.214 536.142 537.744 536.142C536.741 536.142 535.749 536.306 534.769 536.632C533.813 536.936 532.996 537.356 532.319 537.892L530.359 534.077C531.386 533.354 532.623 532.794 534.069 532.397C535.516 532.001 536.986 531.802 538.479 531.802C541.349 531.802 543.578 532.479 545.164 533.832C546.751 535.186 547.544 537.297 547.544 540.167V550.912H542.434ZM536.694 551.192C535.224 551.192 533.964 550.947 532.914 550.457C531.864 549.944 531.059 549.256 530.499 548.392C529.939 547.529 529.659 546.561 529.659 545.487C529.659 544.367 529.928 543.387 530.464 542.547C531.024 541.707 531.899 541.054 533.089 540.587C534.279 540.097 535.831 539.852 537.744 539.852H542.749V543.037H538.339C537.056 543.037 536.169 543.247 535.679 543.667C535.213 544.087 534.979 544.612 534.979 545.242C534.979 545.942 535.248 546.502 535.784 546.922C536.344 547.319 537.103 547.517 538.059 547.517C538.969 547.517 539.786 547.307 540.509 546.887C541.233 546.444 541.758 545.802 542.084 544.962L542.924 547.482C542.528 548.696 541.804 549.617 540.754 550.247C539.704 550.877 538.351 551.192 536.694 551.192ZM563.616 551.192C561.959 551.192 560.536 550.842 559.346 550.142C558.156 549.442 557.246 548.381 556.616 546.957C555.986 545.511 555.671 543.691 555.671 541.497C555.671 539.281 555.997 537.461 556.651 536.037C557.327 534.614 558.261 533.552 559.451 532.852C560.641 532.152 562.029 531.802 563.616 531.802C565.389 531.802 566.976 532.199 568.376 532.992C569.799 533.786 570.919 534.906 571.736 536.352C572.576 537.799 572.996 539.514 572.996 541.497C572.996 543.457 572.576 545.161 571.736 546.607C570.919 548.054 569.799 549.186 568.376 550.002C566.976 550.796 565.389 551.192 563.616 551.192ZM552.486 550.912V524.942H557.946V535.897L557.596 541.462L557.701 547.062V550.912H552.486ZM562.671 546.712C563.581 546.712 564.386 546.502 565.086 546.082C565.809 545.662 566.381 545.067 566.801 544.297C567.244 543.504 567.466 542.571 567.466 541.497C567.466 540.401 567.244 539.467 566.801 538.697C566.381 537.927 565.809 537.332 565.086 536.912C564.386 536.492 563.581 536.282 562.671 536.282C561.761 536.282 560.944 536.492 560.221 536.912C559.497 537.332 558.926 537.927 558.506 538.697C558.086 539.467 557.876 540.401 557.876 541.497C557.876 542.571 558.086 543.504 558.506 544.297C558.926 545.067 559.497 545.662 560.221 546.082C560.944 546.502 561.761 546.712 562.671 546.712ZM584.596 551.192C583.033 551.192 581.633 550.889 580.396 550.282C579.183 549.676 578.238 548.754 577.561 547.517C576.884 546.257 576.546 544.659 576.546 542.722V532.082H582.006V541.917C582.006 543.481 582.333 544.636 582.986 545.382C583.663 546.106 584.608 546.467 585.821 546.467C586.661 546.467 587.408 546.292 588.061 545.942C588.714 545.569 589.228 545.009 589.601 544.262C589.974 543.492 590.161 542.536 590.161 541.392V532.082H595.621V550.912H590.441V545.732L591.386 547.237C590.756 548.544 589.823 549.536 588.586 550.212C587.373 550.866 586.043 551.192 584.596 551.192ZM607.014 551.192C605.404 551.192 603.853 551.006 602.359 550.632C600.889 550.236 599.723 549.746 598.859 549.162L600.679 545.242C601.543 545.779 602.558 546.222 603.724 546.572C604.914 546.899 606.081 547.062 607.224 547.062C608.484 547.062 609.371 546.911 609.884 546.607C610.421 546.304 610.689 545.884 610.689 545.347C610.689 544.904 610.479 544.577 610.059 544.367C609.663 544.134 609.126 543.959 608.449 543.842C607.773 543.726 607.026 543.609 606.209 543.492C605.416 543.376 604.611 543.224 603.794 543.037C602.978 542.827 602.231 542.524 601.554 542.127C600.878 541.731 600.329 541.194 599.909 540.517C599.513 539.841 599.314 538.966 599.314 537.892C599.314 536.702 599.653 535.652 600.329 534.742C601.029 533.832 602.033 533.121 603.339 532.607C604.646 532.071 606.209 531.802 608.029 531.802C609.313 531.802 610.619 531.942 611.949 532.222C613.279 532.502 614.388 532.911 615.274 533.447L613.454 537.332C612.544 536.796 611.623 536.434 610.689 536.247C609.779 536.037 608.893 535.932 608.029 535.932C606.816 535.932 605.929 536.096 605.369 536.422C604.809 536.749 604.529 537.169 604.529 537.682C604.529 538.149 604.728 538.499 605.124 538.732C605.544 538.966 606.093 539.152 606.769 539.292C607.446 539.432 608.181 539.561 608.974 539.677C609.791 539.771 610.608 539.922 611.424 540.132C612.241 540.342 612.976 540.646 613.629 541.042C614.306 541.416 614.854 541.941 615.274 542.617C615.694 543.271 615.904 544.134 615.904 545.207C615.904 546.374 615.554 547.412 614.854 548.322C614.154 549.209 613.139 549.909 611.809 550.422C610.503 550.936 608.904 551.192 607.014 551.192Z" fill="#6F00CD"/>
<path d="M244.991 509.196V484.696H256.961C260.041 484.696 262.351 485.28 263.891 486.446C265.454 487.613 266.236 489.153 266.236 491.066C266.236 492.35 265.921 493.47 265.291 494.426C264.661 495.36 263.798 496.083 262.701 496.596C261.604 497.11 260.344 497.366 258.921 497.366L259.586 495.931C261.126 495.931 262.491 496.188 263.681 496.701C264.871 497.191 265.793 497.926 266.446 498.906C267.123 499.886 267.461 501.088 267.461 502.511C267.461 504.611 266.633 506.256 264.976 507.446C263.319 508.613 260.881 509.196 257.661 509.196H244.991ZM250.626 504.926H257.241C258.711 504.926 259.819 504.693 260.566 504.226C261.336 503.736 261.721 502.966 261.721 501.916C261.721 500.89 261.336 500.131 260.566 499.641C259.819 499.128 258.711 498.871 257.241 498.871H250.206V494.741H256.261C257.638 494.741 258.688 494.508 259.411 494.041C260.158 493.551 260.531 492.816 260.531 491.836C260.531 490.88 260.158 490.168 259.411 489.701C258.688 489.211 257.638 488.966 256.261 488.966H250.626V504.926ZM280.714 509.476C278.567 509.476 276.677 509.056 275.044 508.216C273.434 507.376 272.185 506.233 271.299 504.786C270.412 503.316 269.969 501.648 269.969 499.781C269.969 497.891 270.4 496.223 271.264 494.776C272.15 493.306 273.352 492.163 274.869 491.346C276.385 490.506 278.1 490.086 280.014 490.086C281.857 490.086 283.514 490.483 284.984 491.276C286.477 492.046 287.655 493.166 288.519 494.636C289.382 496.083 289.814 497.821 289.814 499.851C289.814 500.061 289.802 500.306 289.779 500.586C289.755 500.843 289.732 501.088 289.709 501.321H274.414V498.136H286.839L284.739 499.081C284.739 498.101 284.54 497.25 284.144 496.526C283.747 495.803 283.199 495.243 282.499 494.846C281.799 494.426 280.982 494.216 280.049 494.216C279.115 494.216 278.287 494.426 277.564 494.846C276.864 495.243 276.315 495.815 275.919 496.561C275.522 497.285 275.324 498.148 275.324 499.151V499.991C275.324 501.018 275.545 501.928 275.989 502.721C276.455 503.491 277.097 504.086 277.914 504.506C278.754 504.903 279.734 505.101 280.854 505.101C281.857 505.101 282.732 504.95 283.479 504.646C284.249 504.343 284.949 503.888 285.579 503.281L288.484 506.431C287.62 507.411 286.535 508.17 285.229 508.706C283.922 509.22 282.417 509.476 280.714 509.476ZM295.487 516.266C294.507 516.266 293.539 516.115 292.582 515.811C291.625 515.508 290.844 515.088 290.237 514.551L292.232 510.666C292.652 511.04 293.13 511.331 293.667 511.541C294.227 511.751 294.775 511.856 295.312 511.856C296.082 511.856 296.689 511.67 297.132 511.296C297.599 510.946 298.019 510.351 298.392 509.511L299.372 507.201L299.792 506.606L306.547 490.366H311.797L303.292 510.351C302.685 511.868 301.985 513.058 301.192 513.921C300.422 514.785 299.559 515.391 298.602 515.741C297.669 516.091 296.63 516.266 295.487 516.266ZM298.707 509.931L290.307 490.366H295.942L302.452 506.116L298.707 509.931ZM322.472 509.476C320.466 509.476 318.681 509.056 317.117 508.216C315.577 507.376 314.352 506.233 313.442 504.786C312.556 503.316 312.112 501.648 312.112 499.781C312.112 497.891 312.556 496.223 313.442 494.776C314.352 493.306 315.577 492.163 317.117 491.346C318.681 490.506 320.466 490.086 322.472 490.086C324.456 490.086 326.229 490.506 327.792 491.346C329.356 492.163 330.581 493.295 331.467 494.741C332.354 496.188 332.797 497.868 332.797 499.781C332.797 501.648 332.354 503.316 331.467 504.786C330.581 506.233 329.356 507.376 327.792 508.216C326.229 509.056 324.456 509.476 322.472 509.476ZM322.472 504.996C323.382 504.996 324.199 504.786 324.922 504.366C325.646 503.946 326.217 503.351 326.637 502.581C327.057 501.788 327.267 500.855 327.267 499.781C327.267 498.685 327.057 497.751 326.637 496.981C326.217 496.211 325.646 495.616 324.922 495.196C324.199 494.776 323.382 494.566 322.472 494.566C321.562 494.566 320.746 494.776 320.022 495.196C319.299 495.616 318.716 496.211 318.272 496.981C317.852 497.751 317.642 498.685 317.642 499.781C317.642 500.855 317.852 501.788 318.272 502.581C318.716 503.351 319.299 503.946 320.022 504.366C320.746 504.786 321.562 504.996 322.472 504.996ZM347.892 490.086C349.385 490.086 350.715 490.39 351.882 490.996C353.072 491.58 354.005 492.49 354.682 493.726C355.358 494.94 355.697 496.503 355.697 498.416V509.196H350.237V499.256C350.237 497.74 349.898 496.62 349.222 495.896C348.568 495.173 347.635 494.811 346.422 494.811C345.558 494.811 344.777 494.998 344.077 495.371C343.4 495.721 342.863 496.27 342.467 497.016C342.093 497.763 341.907 498.72 341.907 499.886V509.196H336.447V490.366H341.662V495.581L340.682 494.006C341.358 492.746 342.327 491.778 343.587 491.101C344.847 490.425 346.282 490.086 347.892 490.086ZM368.868 509.476C367.094 509.476 365.496 509.08 364.073 508.286C362.649 507.47 361.518 506.338 360.678 504.891C359.861 503.445 359.453 501.741 359.453 499.781C359.453 497.798 359.861 496.083 360.678 494.636C361.518 493.19 362.649 492.07 364.073 491.276C365.496 490.483 367.094 490.086 368.868 490.086C370.454 490.086 371.843 490.436 373.033 491.136C374.223 491.836 375.144 492.898 375.798 494.321C376.451 495.745 376.778 497.565 376.778 499.781C376.778 501.975 376.463 503.795 375.833 505.241C375.203 506.665 374.293 507.726 373.103 508.426C371.936 509.126 370.524 509.476 368.868 509.476ZM369.813 504.996C370.699 504.996 371.504 504.786 372.228 504.366C372.951 503.946 373.523 503.351 373.943 502.581C374.386 501.788 374.608 500.855 374.608 499.781C374.608 498.685 374.386 497.751 373.943 496.981C373.523 496.211 372.951 495.616 372.228 495.196C371.504 494.776 370.699 494.566 369.813 494.566C368.903 494.566 368.086 494.776 367.363 495.196C366.639 495.616 366.056 496.211 365.613 496.981C365.193 497.751 364.983 498.685 364.983 499.781C364.983 500.855 365.193 501.788 365.613 502.581C366.056 503.351 366.639 503.946 367.363 504.366C368.086 504.786 368.903 504.996 369.813 504.996ZM374.748 509.196V505.346L374.853 499.746L374.503 494.181V483.226H379.963V509.196H374.748ZM165.527 552.616C163.59 552.616 161.805 552.313 160.172 551.706C158.562 551.076 157.15 550.19 155.937 549.046C154.747 547.903 153.814 546.561 153.137 545.021C152.484 543.481 152.157 541.79 152.157 539.946C152.157 538.103 152.484 536.411 153.137 534.871C153.814 533.331 154.759 531.99 155.972 530.846C157.185 529.703 158.609 528.828 160.242 528.221C161.875 527.591 163.672 527.276 165.632 527.276C167.802 527.276 169.75 527.638 171.477 528.361C173.227 529.085 174.697 530.135 175.887 531.511L172.247 534.871C171.36 533.938 170.392 533.25 169.342 532.806C168.292 532.34 167.149 532.106 165.912 532.106C164.722 532.106 163.637 532.293 162.657 532.666C161.677 533.04 160.825 533.576 160.102 534.276C159.402 534.976 158.854 535.805 158.457 536.761C158.084 537.718 157.897 538.78 157.897 539.946C157.897 541.09 158.084 542.14 158.457 543.096C158.854 544.053 159.402 544.893 160.102 545.616C160.825 546.316 161.665 546.853 162.622 547.226C163.602 547.6 164.675 547.786 165.842 547.786C166.962 547.786 168.047 547.611 169.097 547.261C170.17 546.888 171.209 546.27 172.212 545.406L175.432 549.501C174.102 550.505 172.55 551.275 170.777 551.811C169.027 552.348 167.277 552.616 165.527 552.616ZM170.252 548.766V539.561H175.432V549.501L170.252 548.766ZM191.864 552.196V548.521L191.514 547.716V541.136C191.514 539.97 191.152 539.06 190.429 538.406C189.729 537.753 188.644 537.426 187.174 537.426C186.171 537.426 185.179 537.59 184.199 537.916C183.242 538.22 182.426 538.64 181.749 539.176L179.789 535.361C180.816 534.638 182.052 534.078 183.499 533.681C184.946 533.285 186.416 533.086 187.909 533.086C190.779 533.086 193.007 533.763 194.594 535.116C196.181 536.47 196.974 538.581 196.974 541.451V552.196H191.864ZM186.124 552.476C184.654 552.476 183.394 552.231 182.344 551.741C181.294 551.228 180.489 550.54 179.929 549.676C179.369 548.813 179.089 547.845 179.089 546.771C179.089 545.651 179.357 544.671 179.894 543.831C180.454 542.991 181.329 542.338 182.519 541.871C183.709 541.381 185.261 541.136 187.174 541.136H192.179V544.321H187.769C186.486 544.321 185.599 544.531 185.109 544.951C184.642 545.371 184.409 545.896 184.409 546.526C184.409 547.226 184.677 547.786 185.214 548.206C185.774 548.603 186.532 548.801 187.489 548.801C188.399 548.801 189.216 548.591 189.939 548.171C190.662 547.728 191.187 547.086 191.514 546.246L192.354 548.766C191.957 549.98 191.234 550.901 190.184 551.531C189.134 552.161 187.781 552.476 186.124 552.476ZM209.616 552.476C207.399 552.476 205.672 551.916 204.436 550.796C203.199 549.653 202.581 547.961 202.581 545.721V529.201H208.041V545.651C208.041 546.445 208.251 547.063 208.671 547.506C209.091 547.926 209.662 548.136 210.386 548.136C211.249 548.136 211.984 547.903 212.591 547.436L214.061 551.286C213.501 551.683 212.824 551.986 212.031 552.196C211.261 552.383 210.456 552.476 209.616 552.476ZM199.676 537.986V533.786H212.731V537.986H199.676ZM225.889 552.476C223.743 552.476 221.853 552.056 220.219 551.216C218.609 550.376 217.361 549.233 216.474 547.786C215.588 546.316 215.144 544.648 215.144 542.781C215.144 540.891 215.576 539.223 216.439 537.776C217.326 536.306 218.528 535.163 220.044 534.346C221.561 533.506 223.276 533.086 225.189 533.086C227.033 533.086 228.689 533.483 230.159 534.276C231.653 535.046 232.831 536.166 233.694 537.636C234.558 539.083 234.989 540.821 234.989 542.851C234.989 543.061 234.978 543.306 234.954 543.586C234.931 543.843 234.908 544.088 234.884 544.321H219.589V541.136H232.014L229.914 542.081C229.914 541.101 229.716 540.25 229.319 539.526C228.923 538.803 228.374 538.243 227.674 537.846C226.974 537.426 226.158 537.216 225.224 537.216C224.291 537.216 223.463 537.426 222.739 537.846C222.039 538.243 221.491 538.815 221.094 539.561C220.698 540.285 220.499 541.148 220.499 542.151V542.991C220.499 544.018 220.721 544.928 221.164 545.721C221.631 546.491 222.273 547.086 223.089 547.506C223.929 547.903 224.909 548.101 226.029 548.101C227.033 548.101 227.908 547.95 228.654 547.646C229.424 547.343 230.124 546.888 230.754 546.281L233.659 549.431C232.796 550.411 231.711 551.17 230.404 551.706C229.098 552.22 227.593 552.476 225.889 552.476ZM243.139 548.346L243.279 541.696L252.064 533.366H258.574L250.139 541.941L247.304 544.251L243.139 548.346ZM238.624 552.196V526.226H244.084V552.196H238.624ZM252.659 552.196L246.289 544.286L249.719 540.051L259.274 552.196H252.659ZM270.289 552.476C268.142 552.476 266.252 552.056 264.619 551.216C263.009 550.376 261.76 549.233 260.874 547.786C259.987 546.316 259.544 544.648 259.544 542.781C259.544 540.891 259.975 539.223 260.839 537.776C261.725 536.306 262.927 535.163 264.444 534.346C265.96 533.506 267.675 533.086 269.589 533.086C271.432 533.086 273.089 533.483 274.559 534.276C276.052 535.046 277.23 536.166 278.094 537.636C278.957 539.083 279.389 540.821 279.389 542.851C279.389 543.061 279.377 543.306 279.354 543.586C279.33 543.843 279.307 544.088 279.284 544.321H263.989V541.136H276.414L274.314 542.081C274.314 541.101 274.115 540.25 273.719 539.526C273.322 538.803 272.774 538.243 272.074 537.846C271.374 537.426 270.557 537.216 269.624 537.216C268.69 537.216 267.862 537.426 267.139 537.846C266.439 538.243 265.89 538.815 265.494 539.561C265.097 540.285 264.899 541.148 264.899 542.151V542.991C264.899 544.018 265.12 544.928 265.564 545.721C266.03 546.491 266.672 547.086 267.489 547.506C268.329 547.903 269.309 548.101 270.429 548.101C271.432 548.101 272.307 547.95 273.054 547.646C273.824 547.343 274.524 546.888 275.154 546.281L278.059 549.431C277.195 550.411 276.11 551.17 274.804 551.706C273.497 552.22 271.992 552.476 270.289 552.476ZM292.369 552.476C290.222 552.476 288.332 552.056 286.699 551.216C285.089 550.376 283.841 549.233 282.954 547.786C282.067 546.316 281.624 544.648 281.624 542.781C281.624 540.891 282.056 539.223 282.919 537.776C283.806 536.306 285.007 535.163 286.524 534.346C288.041 533.506 289.756 533.086 291.669 533.086C293.512 533.086 295.169 533.483 296.639 534.276C298.132 535.046 299.311 536.166 300.174 537.636C301.037 539.083 301.469 540.821 301.469 542.851C301.469 543.061 301.457 543.306 301.434 543.586C301.411 543.843 301.387 544.088 301.364 544.321H286.069V541.136H298.494L296.394 542.081C296.394 541.101 296.196 540.25 295.799 539.526C295.402 538.803 294.854 538.243 294.154 537.846C293.454 537.426 292.637 537.216 291.704 537.216C290.771 537.216 289.942 537.426 289.219 537.846C288.519 538.243 287.971 538.815 287.574 539.561C287.177 540.285 286.979 541.148 286.979 542.151V542.991C286.979 544.018 287.201 544.928 287.644 545.721C288.111 546.491 288.752 547.086 289.569 547.506C290.409 547.903 291.389 548.101 292.509 548.101C293.512 548.101 294.387 547.95 295.134 547.646C295.904 547.343 296.604 546.888 297.234 546.281L300.139 549.431C299.276 550.411 298.191 551.17 296.884 551.706C295.577 552.22 294.072 552.476 292.369 552.476ZM316.234 552.476C314.647 552.476 313.259 552.126 312.069 551.426C310.879 550.726 309.946 549.665 309.269 548.241C308.616 546.795 308.289 544.975 308.289 542.781C308.289 540.565 308.604 538.745 309.234 537.321C309.864 535.898 310.774 534.836 311.964 534.136C313.154 533.436 314.577 533.086 316.234 533.086C318.007 533.086 319.594 533.495 320.994 534.311C322.417 535.105 323.537 536.225 324.354 537.671C325.194 539.118 325.614 540.821 325.614 542.781C325.614 544.765 325.194 546.48 324.354 547.926C323.537 549.373 322.417 550.493 320.994 551.286C319.594 552.08 318.007 552.476 316.234 552.476ZM305.104 558.986V533.366H310.319V537.216L310.214 542.816L310.564 548.381V558.986H305.104ZM315.289 547.996C316.199 547.996 317.004 547.786 317.704 547.366C318.427 546.946 318.999 546.351 319.419 545.581C319.862 544.788 320.084 543.855 320.084 542.781C320.084 541.685 319.862 540.751 319.419 539.981C318.999 539.211 318.427 538.616 317.704 538.196C317.004 537.776 316.199 537.566 315.289 537.566C314.379 537.566 313.562 537.776 312.839 538.196C312.116 538.616 311.544 539.211 311.124 539.981C310.704 540.751 310.494 541.685 310.494 542.781C310.494 543.855 310.704 544.788 311.124 545.581C311.544 546.351 312.116 546.946 312.839 547.366C313.562 547.786 314.379 547.996 315.289 547.996ZM338.614 552.476C336.467 552.476 334.577 552.056 332.944 551.216C331.334 550.376 330.086 549.233 329.199 547.786C328.312 546.316 327.869 544.648 327.869 542.781C327.869 540.891 328.301 539.223 329.164 537.776C330.051 536.306 331.252 535.163 332.769 534.346C334.286 533.506 336.001 533.086 337.914 533.086C339.757 533.086 341.414 533.483 342.884 534.276C344.377 535.046 345.556 536.166 346.419 537.636C347.282 539.083 347.714 540.821 347.714 542.851C347.714 543.061 347.702 543.306 347.679 543.586C347.656 543.843 347.632 544.088 347.609 544.321H332.314V541.136H344.739L342.639 542.081C342.639 541.101 342.441 540.25 342.044 539.526C341.647 538.803 341.099 538.243 340.399 537.846C339.699 537.426 338.882 537.216 337.949 537.216C337.016 537.216 336.187 537.426 335.464 537.846C334.764 538.243 334.216 538.815 333.819 539.561C333.422 540.285 333.224 541.148 333.224 542.151V542.991C333.224 544.018 333.446 544.928 333.889 545.721C334.356 546.491 334.997 547.086 335.814 547.506C336.654 547.903 337.634 548.101 338.754 548.101C339.757 548.101 340.632 547.95 341.379 547.646C342.149 547.343 342.849 546.888 343.479 546.281L346.384 549.431C345.521 550.411 344.436 551.17 343.129 551.706C341.822 552.22 340.317 552.476 338.614 552.476ZM351.349 552.196V533.366H356.564V538.686L355.829 537.146C356.389 535.816 357.287 534.813 358.524 534.136C359.761 533.436 361.266 533.086 363.039 533.086V538.126C362.806 538.103 362.596 538.091 362.409 538.091C362.222 538.068 362.024 538.056 361.814 538.056C360.321 538.056 359.107 538.488 358.174 539.351C357.264 540.191 356.809 541.51 356.809 543.306V552.196H351.349ZM372.757 552.476C371.147 552.476 369.596 552.29 368.102 551.916C366.632 551.52 365.466 551.03 364.602 550.446L366.422 546.526C367.286 547.063 368.301 547.506 369.467 547.856C370.657 548.183 371.824 548.346 372.967 548.346C374.227 548.346 375.114 548.195 375.627 547.891C376.164 547.588 376.432 547.168 376.432 546.631C376.432 546.188 376.222 545.861 375.802 545.651C375.406 545.418 374.869 545.243 374.192 545.126C373.516 545.01 372.769 544.893 371.952 544.776C371.159 544.66 370.354 544.508 369.537 544.321C368.721 544.111 367.974 543.808 367.297 543.411C366.621 543.015 366.072 542.478 365.652 541.801C365.256 541.125 365.057 540.25 365.057 539.176C365.057 537.986 365.396 536.936 366.072 536.026C366.772 535.116 367.776 534.405 369.082 533.891C370.389 533.355 371.952 533.086 373.772 533.086C375.056 533.086 376.362 533.226 377.692 533.506C379.022 533.786 380.131 534.195 381.017 534.731L379.197 538.616C378.287 538.08 377.366 537.718 376.432 537.531C375.522 537.321 374.636 537.216 373.772 537.216C372.559 537.216 371.672 537.38 371.112 537.706C370.552 538.033 370.272 538.453 370.272 538.966C370.272 539.433 370.471 539.783 370.867 540.016C371.287 540.25 371.836 540.436 372.512 540.576C373.189 540.716 373.924 540.845 374.717 540.961C375.534 541.055 376.351 541.206 377.167 541.416C377.984 541.626 378.719 541.93 379.372 542.326C380.049 542.7 380.597 543.225 381.017 543.901C381.437 544.555 381.647 545.418 381.647 546.491C381.647 547.658 381.297 548.696 380.597 549.606C379.897 550.493 378.882 551.193 377.552 551.706C376.246 552.22 374.647 552.476 372.757 552.476Z" fill="#6F00CD"/>
<path d="M361.358 215.562V193.162H372.302C375.118 193.162 377.23 193.695 378.638 194.762C380.067 195.829 380.782 197.237 380.782 198.986C380.782 200.159 380.494 201.183 379.918 202.058C379.342 202.911 378.553 203.573 377.55 204.042C376.547 204.511 375.395 204.746 374.094 204.746L374.702 203.434C376.11 203.434 377.358 203.669 378.446 204.138C379.534 204.586 380.377 205.258 380.974 206.154C381.593 207.05 381.902 208.149 381.902 209.45C381.902 211.37 381.145 212.874 379.63 213.962C378.115 215.029 375.886 215.562 372.942 215.562H361.358ZM366.51 211.658H372.558C373.902 211.658 374.915 211.445 375.598 211.018C376.302 210.57 376.654 209.866 376.654 208.906C376.654 207.967 376.302 207.274 375.598 206.826C374.915 206.357 373.902 206.122 372.558 206.122H366.126V202.346H371.662C372.921 202.346 373.881 202.133 374.542 201.706C375.225 201.258 375.566 200.586 375.566 199.69C375.566 198.815 375.225 198.165 374.542 197.738C373.881 197.29 372.921 197.066 371.662 197.066H366.51V211.658ZM394.019 215.818C392.056 215.818 390.328 215.434 388.835 214.666C387.363 213.898 386.222 212.853 385.411 211.53C384.6 210.186 384.195 208.661 384.195 206.954C384.195 205.226 384.59 203.701 385.379 202.378C386.19 201.034 387.288 199.989 388.675 199.242C390.062 198.474 391.63 198.09 393.379 198.09C395.064 198.09 396.579 198.453 397.923 199.178C399.288 199.882 400.366 200.906 401.155 202.25C401.944 203.573 402.339 205.162 402.339 207.018C402.339 207.21 402.328 207.434 402.307 207.69C402.286 207.925 402.264 208.149 402.243 208.362H388.259V205.45H399.619L397.699 206.314C397.699 205.418 397.518 204.639 397.155 203.978C396.792 203.317 396.291 202.805 395.651 202.442C395.011 202.058 394.264 201.866 393.411 201.866C392.558 201.866 391.8 202.058 391.139 202.442C390.499 202.805 389.998 203.327 389.635 204.01C389.272 204.671 389.091 205.461 389.091 206.378V207.146C389.091 208.085 389.294 208.917 389.699 209.642C390.126 210.346 390.712 210.89 391.459 211.274C392.227 211.637 393.123 211.818 394.147 211.818C395.064 211.818 395.864 211.679 396.547 211.402C397.251 211.125 397.891 210.709 398.467 210.154L401.123 213.034C400.334 213.93 399.342 214.623 398.147 215.114C396.952 215.583 395.576 215.818 394.019 215.818ZM407.526 222.026C406.63 222.026 405.745 221.887 404.87 221.61C403.995 221.333 403.281 220.949 402.726 220.458L404.55 216.906C404.934 217.247 405.371 217.514 405.862 217.706C406.374 217.898 406.875 217.994 407.366 217.994C408.07 217.994 408.625 217.823 409.03 217.482C409.457 217.162 409.841 216.618 410.182 215.85L411.078 213.738L411.462 213.194L417.638 198.346H422.438L414.662 216.618C414.107 218.005 413.467 219.093 412.742 219.882C412.038 220.671 411.249 221.226 410.374 221.546C409.521 221.866 408.571 222.026 407.526 222.026ZM410.47 216.234L402.79 198.346H407.942L413.894 212.746L410.47 216.234ZM432.198 215.818C430.363 215.818 428.731 215.434 427.302 214.666C425.894 213.898 424.774 212.853 423.942 211.53C423.131 210.186 422.726 208.661 422.726 206.954C422.726 205.226 423.131 203.701 423.942 202.378C424.774 201.034 425.894 199.989 427.302 199.242C428.731 198.474 430.363 198.09 432.198 198.09C434.011 198.09 435.633 198.474 437.062 199.242C438.491 199.989 439.611 201.023 440.422 202.346C441.233 203.669 441.638 205.205 441.638 206.954C441.638 208.661 441.233 210.186 440.422 211.53C439.611 212.853 438.491 213.898 437.062 214.666C435.633 215.434 434.011 215.818 432.198 215.818ZM432.198 211.722C433.03 211.722 433.777 211.53 434.438 211.146C435.099 210.762 435.622 210.218 436.006 209.514C436.39 208.789 436.582 207.935 436.582 206.954C436.582 205.951 436.39 205.098 436.006 204.394C435.622 203.69 435.099 203.146 434.438 202.762C433.777 202.378 433.03 202.186 432.198 202.186C431.366 202.186 430.619 202.378 429.958 202.762C429.297 203.146 428.763 203.69 428.358 204.394C427.974 205.098 427.782 205.951 427.782 206.954C427.782 207.935 427.974 208.789 428.358 209.514C428.763 210.218 429.297 210.762 429.958 211.146C430.619 211.53 431.366 211.722 432.198 211.722ZM455.439 198.09C456.804 198.09 458.02 198.367 459.087 198.922C460.175 199.455 461.028 200.287 461.647 201.418C462.266 202.527 462.575 203.957 462.575 205.706V215.562H457.583V206.474C457.583 205.087 457.274 204.063 456.655 203.402C456.058 202.741 455.204 202.41 454.095 202.41C453.306 202.41 452.591 202.581 451.951 202.922C451.332 203.242 450.842 203.743 450.479 204.426C450.138 205.109 449.967 205.983 449.967 207.05V215.562H444.975V198.346H449.743V203.114L448.847 201.674C449.466 200.522 450.351 199.637 451.503 199.018C452.655 198.399 453.967 198.09 455.439 198.09ZM474.617 215.818C472.996 215.818 471.534 215.455 470.233 214.73C468.932 213.983 467.897 212.949 467.129 211.626C466.382 210.303 466.009 208.746 466.009 206.954C466.009 205.141 466.382 203.573 467.129 202.25C467.897 200.927 468.932 199.903 470.233 199.178C471.534 198.453 472.996 198.09 474.617 198.09C476.068 198.09 477.337 198.41 478.425 199.05C479.513 199.69 480.356 200.661 480.953 201.962C481.55 203.263 481.849 204.927 481.849 206.954C481.849 208.959 481.561 210.623 480.985 211.946C480.409 213.247 479.577 214.218 478.489 214.858C477.422 215.498 476.132 215.818 474.617 215.818ZM475.481 211.722C476.292 211.722 477.028 211.53 477.689 211.146C478.35 210.762 478.873 210.218 479.257 209.514C479.662 208.789 479.865 207.935 479.865 206.954C479.865 205.951 479.662 205.098 479.257 204.394C478.873 203.69 478.35 203.146 477.689 202.762C477.028 202.378 476.292 202.186 475.481 202.186C474.649 202.186 473.902 202.378 473.241 202.762C472.58 203.146 472.046 203.69 471.641 204.394C471.257 205.098 471.065 205.951 471.065 206.954C471.065 207.935 471.257 208.789 471.641 209.514C472.046 210.218 472.58 210.762 473.241 211.146C473.902 211.53 474.649 211.722 475.481 211.722ZM479.993 215.562V212.042L480.089 206.922L479.769 201.834V191.818H484.761V215.562H479.993ZM359.499 254.562V232.162H370.443C373.259 232.162 375.371 232.695 376.779 233.762C378.208 234.829 378.923 236.237 378.923 237.986C378.923 239.159 378.635 240.183 378.059 241.058C377.483 241.911 376.693 242.573 375.691 243.042C374.688 243.511 373.536 243.746 372.235 243.746L372.843 242.434C374.251 242.434 375.499 242.669 376.587 243.138C377.675 243.586 378.517 244.258 379.115 245.154C379.733 246.05 380.043 247.149 380.043 248.45C380.043 250.37 379.285 251.874 377.771 252.962C376.256 254.029 374.027 254.562 371.083 254.562H359.499ZM364.651 250.658H370.699C372.043 250.658 373.056 250.445 373.739 250.018C374.443 249.57 374.795 248.866 374.795 247.906C374.795 246.967 374.443 246.274 373.739 245.826C373.056 245.357 372.043 245.122 370.699 245.122H364.267V241.346H369.803C371.061 241.346 372.021 241.133 372.683 240.706C373.365 240.258 373.707 239.586 373.707 238.69C373.707 237.815 373.365 237.165 372.683 236.738C372.021 236.29 371.061 236.066 369.803 236.066H364.651V250.658ZM391.808 254.818C389.973 254.818 388.341 254.434 386.912 253.666C385.504 252.898 384.384 251.853 383.552 250.53C382.741 249.186 382.336 247.661 382.336 245.954C382.336 244.226 382.741 242.701 383.552 241.378C384.384 240.034 385.504 238.989 386.912 238.242C388.341 237.474 389.973 237.09 391.808 237.09C393.621 237.09 395.242 237.474 396.672 238.242C398.101 238.989 399.221 240.023 400.032 241.346C400.842 242.669 401.248 244.205 401.248 245.954C401.248 247.661 400.842 249.186 400.032 250.53C399.221 251.853 398.101 252.898 396.672 253.666C395.242 254.434 393.621 254.818 391.808 254.818ZM391.808 250.722C392.64 250.722 393.386 250.53 394.048 250.146C394.709 249.762 395.232 249.218 395.616 248.514C396 247.789 396.192 246.935 396.192 245.954C396.192 244.951 396 244.098 395.616 243.394C395.232 242.69 394.709 242.146 394.048 241.762C393.386 241.378 392.64 241.186 391.808 241.186C390.976 241.186 390.229 241.378 389.568 241.762C388.906 242.146 388.373 242.69 387.968 243.394C387.584 244.098 387.392 244.951 387.392 245.954C387.392 246.935 387.584 247.789 387.968 248.514C388.373 249.218 388.906 249.762 389.568 250.146C390.229 250.53 390.976 250.722 391.808 250.722ZM404.584 254.562V237.346H409.352V242.21L408.68 240.802C409.192 239.586 410.014 238.669 411.144 238.05C412.275 237.41 413.651 237.09 415.272 237.09V241.698C415.059 241.677 414.867 241.666 414.696 241.666C414.526 241.645 414.344 241.634 414.152 241.634C412.787 241.634 411.678 242.029 410.824 242.818C409.992 243.586 409.576 244.791 409.576 246.434V254.562H404.584ZM425.508 254.818C423.886 254.818 422.425 254.455 421.124 253.73C419.822 252.983 418.788 251.949 418.02 250.626C417.273 249.303 416.9 247.746 416.9 245.954C416.9 244.141 417.273 242.573 418.02 241.25C418.788 239.927 419.822 238.903 421.124 238.178C422.425 237.453 423.886 237.09 425.508 237.09C426.958 237.09 428.228 237.41 429.316 238.05C430.404 238.69 431.246 239.661 431.844 240.962C432.441 242.263 432.74 243.927 432.74 245.954C432.74 247.959 432.452 249.623 431.876 250.946C431.3 252.247 430.468 253.218 429.38 253.858C428.313 254.498 427.022 254.818 425.508 254.818ZM426.372 250.722C427.182 250.722 427.918 250.53 428.58 250.146C429.241 249.762 429.764 249.218 430.148 248.514C430.553 247.789 430.756 246.935 430.756 245.954C430.756 244.951 430.553 244.098 430.148 243.394C429.764 242.69 429.241 242.146 428.58 241.762C427.918 241.378 427.182 241.186 426.372 241.186C425.54 241.186 424.793 241.378 424.132 241.762C423.47 242.146 422.937 242.69 422.532 243.394C422.148 244.098 421.956 244.951 421.956 245.954C421.956 246.935 422.148 247.789 422.532 248.514C422.937 249.218 423.47 249.762 424.132 250.146C424.793 250.53 425.54 250.722 426.372 250.722ZM430.884 254.562V251.042L430.98 245.922L430.66 240.834V230.818H435.652V254.562H430.884ZM448.816 254.818C446.853 254.818 445.125 254.434 443.632 253.666C442.16 252.898 441.018 251.853 440.208 250.53C439.397 249.186 438.992 247.661 438.992 245.954C438.992 244.226 439.386 242.701 440.176 241.378C440.986 240.034 442.085 238.989 443.472 238.242C444.858 237.474 446.426 237.09 448.176 237.09C449.861 237.09 451.376 237.453 452.72 238.178C454.085 238.882 455.162 239.906 455.952 241.25C456.741 242.573 457.136 244.162 457.136 246.018C457.136 246.21 457.125 246.434 457.104 246.69C457.082 246.925 457.061 247.149 457.04 247.362H443.056V244.45H454.416L452.496 245.314C452.496 244.418 452.314 243.639 451.952 242.978C451.589 242.317 451.088 241.805 450.448 241.442C449.808 241.058 449.061 240.866 448.208 240.866C447.354 240.866 446.597 241.058 445.936 241.442C445.296 241.805 444.794 242.327 444.432 243.01C444.069 243.671 443.888 244.461 443.888 245.378V246.146C443.888 247.085 444.09 247.917 444.496 248.642C444.922 249.346 445.509 249.89 446.256 250.274C447.024 250.637 447.92 250.818 448.944 250.818C449.861 250.818 450.661 250.679 451.344 250.402C452.048 250.125 452.688 249.709 453.264 249.154L455.92 252.034C455.13 252.93 454.138 253.623 452.944 254.114C451.749 254.583 450.373 254.818 448.816 254.818ZM460.459 254.562V237.346H465.227V242.21L464.555 240.802C465.067 239.586 465.889 238.669 467.019 238.05C468.15 237.41 469.526 237.09 471.147 237.09V241.698C470.934 241.677 470.742 241.666 470.571 241.666C470.401 241.645 470.219 241.634 470.027 241.634C468.662 241.634 467.553 242.029 466.699 242.818C465.867 243.586 465.451 244.791 465.451 246.434V254.562H460.459ZM480.033 254.818C478.561 254.818 477.142 254.647 475.777 254.306C474.433 253.943 473.366 253.495 472.577 252.962L474.241 249.378C475.03 249.869 475.958 250.274 477.025 250.594C478.113 250.893 479.179 251.042 480.225 251.042C481.377 251.042 482.187 250.903 482.657 250.626C483.147 250.349 483.393 249.965 483.393 249.474C483.393 249.069 483.201 248.77 482.817 248.578C482.454 248.365 481.963 248.205 481.345 248.098C480.726 247.991 480.043 247.885 479.297 247.778C478.571 247.671 477.835 247.533 477.089 247.362C476.342 247.17 475.659 246.893 475.041 246.53C474.422 246.167 473.921 245.677 473.537 245.058C473.174 244.439 472.993 243.639 472.993 242.658C472.993 241.57 473.302 240.61 473.921 239.778C474.561 238.946 475.478 238.295 476.673 237.826C477.867 237.335 479.297 237.09 480.961 237.09C482.134 237.09 483.329 237.218 484.545 237.474C485.761 237.73 486.774 238.103 487.585 238.594L485.921 242.146C485.089 241.655 484.246 241.325 483.393 241.154C482.561 240.962 481.75 240.866 480.961 240.866C479.851 240.866 479.041 241.015 478.529 241.314C478.017 241.613 477.761 241.997 477.761 242.466C477.761 242.893 477.942 243.213 478.305 243.426C478.689 243.639 479.19 243.81 479.809 243.938C480.427 244.066 481.099 244.183 481.825 244.29C482.571 244.375 483.318 244.514 484.065 244.706C484.811 244.898 485.483 245.175 486.081 245.538C486.699 245.879 487.201 246.359 487.585 246.978C487.969 247.575 488.161 248.365 488.161 249.346C488.161 250.413 487.841 251.362 487.201 252.194C486.561 253.005 485.633 253.645 484.417 254.114C483.222 254.583 481.761 254.818 480.033 254.818Z" fill="#6F00CD"/>
</svg>
