<svg width="845" height="727" viewBox="0 0 845 727" fill="none" xmlns="http://www.w3.org/2000/svg">
<path d="M418.113 366.202L266.11 281.563C261.174 278.815 259.493 272.527 262.399 267.682L414.396 14.3202C418.284 7.84004 427.678 7.84764 431.555 14.3341L582.998 267.702C585.89 272.54 584.214 278.811 579.293 281.561L427.857 366.194C424.83 367.886 421.143 367.889 418.113 366.202Z" stroke="white" stroke-width="2" stroke-linejoin="round"/>
<path d="M442.395 396.016L589.224 301.344C594.085 298.21 600.583 299.89 603.366 304.999L750.79 575.606C754.431 582.289 749.653 590.43 742.089 590.43L448.453 590.43C442.945 590.43 438.464 585.937 438.445 580.397L437.827 404.463C437.815 401.043 439.537 397.859 442.395 396.016Z" stroke="white" stroke-width="2" stroke-linejoin="round"/>
<path d="M400.494 398.083L254.779 305.373C249.95 302.301 243.532 303.949 240.731 308.981L92.4005 575.526C88.6803 582.211 93.4543 590.43 101.058 590.43L393.452 590.43C398.936 590.43 403.408 585.975 403.46 580.458L405.112 406.623C405.144 403.16 403.399 399.932 400.494 398.083Z" stroke="white" stroke-width="2" stroke-linejoin="round"/>
<path d="M244.784 509.092V484.592H256.754C259.834 484.592 262.144 485.176 263.684 486.342C265.247 487.509 266.029 489.049 266.029 490.962C266.029 492.246 265.714 493.366 265.084 494.322C264.454 495.256 263.591 495.979 262.494 496.492C261.397 497.006 260.137 497.262 258.714 497.262L259.379 495.827C260.919 495.827 262.284 496.084 263.474 496.597C264.664 497.087 265.586 497.822 266.239 498.802C266.916 499.782 267.254 500.984 267.254 502.407C267.254 504.507 266.426 506.152 264.769 507.342C263.112 508.509 260.674 509.092 257.454 509.092H244.784ZM250.419 504.822H257.034C258.504 504.822 259.612 504.589 260.359 504.122C261.129 503.632 261.514 502.862 261.514 501.812C261.514 500.786 261.129 500.027 260.359 499.537C259.612 499.024 258.504 498.767 257.034 498.767H249.999V494.637H256.054C257.431 494.637 258.481 494.404 259.204 493.937C259.951 493.447 260.324 492.712 260.324 491.732C260.324 490.776 259.951 490.064 259.204 489.597C258.481 489.107 257.431 488.862 256.054 488.862H250.419V504.822ZM280.507 509.372C278.36 509.372 276.47 508.952 274.837 508.112C273.227 507.272 271.978 506.129 271.092 504.682C270.205 503.212 269.762 501.544 269.762 499.677C269.762 497.787 270.193 496.119 271.057 494.672C271.943 493.202 273.145 492.059 274.662 491.242C276.178 490.402 277.893 489.982 279.807 489.982C281.65 489.982 283.307 490.379 284.777 491.172C286.27 491.942 287.448 493.062 288.312 494.532C289.175 495.979 289.607 497.717 289.607 499.747C289.607 499.957 289.595 500.202 289.572 500.482C289.548 500.739 289.525 500.984 289.502 501.217H274.207V498.032H286.632L284.532 498.977C284.532 497.997 284.333 497.146 283.937 496.422C283.54 495.699 282.992 495.139 282.292 494.742C281.592 494.322 280.775 494.112 279.842 494.112C278.908 494.112 278.08 494.322 277.357 494.742C276.657 495.139 276.108 495.711 275.712 496.457C275.315 497.181 275.117 498.044 275.117 499.047V499.887C275.117 500.914 275.338 501.824 275.782 502.617C276.248 503.387 276.89 503.982 277.707 504.402C278.547 504.799 279.527 504.997 280.647 504.997C281.65 504.997 282.525 504.846 283.272 504.542C284.042 504.239 284.742 503.784 285.372 503.177L288.277 506.327C287.413 507.307 286.328 508.066 285.022 508.602C283.715 509.116 282.21 509.372 280.507 509.372ZM295.28 516.162C294.3 516.162 293.332 516.011 292.375 515.707C291.418 515.404 290.637 514.984 290.03 514.447L292.025 510.562C292.445 510.936 292.923 511.227 293.46 511.437C294.02 511.647 294.568 511.752 295.105 511.752C295.875 511.752 296.482 511.566 296.925 511.192C297.392 510.842 297.812 510.247 298.185 509.407L299.165 507.097L299.585 506.502L306.34 490.262H311.59L303.085 510.247C302.478 511.764 301.778 512.954 300.985 513.817C300.215 514.681 299.352 515.287 298.395 515.637C297.462 515.987 296.423 516.162 295.28 516.162ZM298.5 509.827L290.1 490.262H295.735L302.245 506.012L298.5 509.827ZM322.265 509.372C320.258 509.372 318.473 508.952 316.91 508.112C315.37 507.272 314.145 506.129 313.235 504.682C312.348 503.212 311.905 501.544 311.905 499.677C311.905 497.787 312.348 496.119 313.235 494.672C314.145 493.202 315.37 492.059 316.91 491.242C318.473 490.402 320.258 489.982 322.265 489.982C324.248 489.982 326.022 490.402 327.585 491.242C329.148 492.059 330.373 493.191 331.26 494.637C332.147 496.084 332.59 497.764 332.59 499.677C332.59 501.544 332.147 503.212 331.26 504.682C330.373 506.129 329.148 507.272 327.585 508.112C326.022 508.952 324.248 509.372 322.265 509.372ZM322.265 504.892C323.175 504.892 323.992 504.682 324.715 504.262C325.438 503.842 326.01 503.247 326.43 502.477C326.85 501.684 327.06 500.751 327.06 499.677C327.06 498.581 326.85 497.647 326.43 496.877C326.01 496.107 325.438 495.512 324.715 495.092C323.992 494.672 323.175 494.462 322.265 494.462C321.355 494.462 320.538 494.672 319.815 495.092C319.092 495.512 318.508 496.107 318.065 496.877C317.645 497.647 317.435 498.581 317.435 499.677C317.435 500.751 317.645 501.684 318.065 502.477C318.508 503.247 319.092 503.842 319.815 504.262C320.538 504.682 321.355 504.892 322.265 504.892ZM347.685 489.982C349.178 489.982 350.508 490.286 351.675 490.892C352.865 491.476 353.798 492.386 354.475 493.622C355.151 494.836 355.49 496.399 355.49 498.312V509.092H350.03V499.152C350.03 497.636 349.691 496.516 349.015 495.792C348.361 495.069 347.428 494.707 346.215 494.707C345.351 494.707 344.57 494.894 343.87 495.267C343.193 495.617 342.656 496.166 342.26 496.912C341.886 497.659 341.7 498.616 341.7 499.782V509.092H336.24V490.262H341.455V495.477L340.475 493.902C341.151 492.642 342.12 491.674 343.38 490.997C344.64 490.321 346.075 489.982 347.685 489.982ZM368.661 509.372C366.887 509.372 365.289 508.976 363.866 508.182C362.442 507.366 361.311 506.234 360.471 504.787C359.654 503.341 359.246 501.637 359.246 499.677C359.246 497.694 359.654 495.979 360.471 494.532C361.311 493.086 362.442 491.966 363.866 491.172C365.289 490.379 366.887 489.982 368.661 489.982C370.247 489.982 371.636 490.332 372.826 491.032C374.016 491.732 374.937 492.794 375.591 494.217C376.244 495.641 376.571 497.461 376.571 499.677C376.571 501.871 376.256 503.691 375.626 505.137C374.996 506.561 374.086 507.622 372.896 508.322C371.729 509.022 370.317 509.372 368.661 509.372ZM369.606 504.892C370.492 504.892 371.297 504.682 372.021 504.262C372.744 503.842 373.316 503.247 373.736 502.477C374.179 501.684 374.401 500.751 374.401 499.677C374.401 498.581 374.179 497.647 373.736 496.877C373.316 496.107 372.744 495.512 372.021 495.092C371.297 494.672 370.492 494.462 369.606 494.462C368.696 494.462 367.879 494.672 367.156 495.092C366.432 495.512 365.849 496.107 365.406 496.877C364.986 497.647 364.776 498.581 364.776 499.677C364.776 500.751 364.986 501.684 365.406 502.477C365.849 503.247 366.432 503.842 367.156 504.262C367.879 504.682 368.696 504.892 369.606 504.892ZM374.541 509.092V505.242L374.646 499.642L374.296 494.077V483.122H379.756V509.092H374.541ZM165.32 552.512C163.383 552.512 161.598 552.209 159.965 551.602C158.355 550.972 156.943 550.086 155.73 548.942C154.54 547.799 153.607 546.457 152.93 544.917C152.277 543.377 151.95 541.686 151.95 539.842C151.95 537.999 152.277 536.307 152.93 534.767C153.607 533.227 154.552 531.886 155.765 530.742C156.978 529.599 158.402 528.724 160.035 528.117C161.668 527.487 163.465 527.172 165.425 527.172C167.595 527.172 169.543 527.534 171.27 528.257C173.02 528.981 174.49 530.031 175.68 531.407L172.04 534.767C171.153 533.834 170.185 533.146 169.135 532.702C168.085 532.236 166.942 532.002 165.705 532.002C164.515 532.002 163.43 532.189 162.45 532.562C161.47 532.936 160.618 533.472 159.895 534.172C159.195 534.872 158.647 535.701 158.25 536.657C157.877 537.614 157.69 538.676 157.69 539.842C157.69 540.986 157.877 542.036 158.25 542.992C158.647 543.949 159.195 544.789 159.895 545.512C160.618 546.212 161.458 546.749 162.415 547.122C163.395 547.496 164.468 547.682 165.635 547.682C166.755 547.682 167.84 547.507 168.89 547.157C169.963 546.784 171.002 546.166 172.005 545.302L175.225 549.397C173.895 550.401 172.343 551.171 170.57 551.707C168.82 552.244 167.07 552.512 165.32 552.512ZM170.045 548.662V539.457H175.225V549.397L170.045 548.662ZM191.657 552.092V548.417L191.307 547.612V541.032C191.307 539.866 190.945 538.956 190.222 538.302C189.522 537.649 188.437 537.322 186.967 537.322C185.964 537.322 184.972 537.486 183.992 537.812C183.035 538.116 182.219 538.536 181.542 539.072L179.582 535.257C180.609 534.534 181.845 533.974 183.292 533.577C184.739 533.181 186.209 532.982 187.702 532.982C190.572 532.982 192.8 533.659 194.387 535.012C195.974 536.366 196.767 538.477 196.767 541.347V552.092H191.657ZM185.917 552.372C184.447 552.372 183.187 552.127 182.137 551.637C181.087 551.124 180.282 550.436 179.722 549.572C179.162 548.709 178.882 547.741 178.882 546.667C178.882 545.547 179.15 544.567 179.687 543.727C180.247 542.887 181.122 542.234 182.312 541.767C183.502 541.277 185.054 541.032 186.967 541.032H191.972V544.217H187.562C186.279 544.217 185.392 544.427 184.902 544.847C184.435 545.267 184.202 545.792 184.202 546.422C184.202 547.122 184.47 547.682 185.007 548.102C185.567 548.499 186.325 548.697 187.282 548.697C188.192 548.697 189.009 548.487 189.732 548.067C190.455 547.624 190.98 546.982 191.307 546.142L192.147 548.662C191.75 549.876 191.027 550.797 189.977 551.427C188.927 552.057 187.574 552.372 185.917 552.372ZM209.408 552.372C207.192 552.372 205.465 551.812 204.228 550.692C202.992 549.549 202.373 547.857 202.373 545.617V529.097H207.833V545.547C207.833 546.341 208.043 546.959 208.463 547.402C208.883 547.822 209.455 548.032 210.178 548.032C211.042 548.032 211.777 547.799 212.383 547.332L213.853 551.182C213.293 551.579 212.617 551.882 211.823 552.092C211.053 552.279 210.248 552.372 209.408 552.372ZM199.468 537.882V533.682H212.523V537.882H199.468ZM225.682 552.372C223.536 552.372 221.646 551.952 220.012 551.112C218.402 550.272 217.154 549.129 216.267 547.682C215.381 546.212 214.937 544.544 214.937 542.677C214.937 540.787 215.369 539.119 216.232 537.672C217.119 536.202 218.321 535.059 219.837 534.242C221.354 533.402 223.069 532.982 224.982 532.982C226.826 532.982 228.482 533.379 229.952 534.172C231.446 534.942 232.624 536.062 233.487 537.532C234.351 538.979 234.782 540.717 234.782 542.747C234.782 542.957 234.771 543.202 234.747 543.482C234.724 543.739 234.701 543.984 234.677 544.217H219.382V541.032H231.807L229.707 541.977C229.707 540.997 229.509 540.146 229.112 539.422C228.716 538.699 228.167 538.139 227.467 537.742C226.767 537.322 225.951 537.112 225.017 537.112C224.084 537.112 223.256 537.322 222.532 537.742C221.832 538.139 221.284 538.711 220.887 539.457C220.491 540.181 220.292 541.044 220.292 542.047V542.887C220.292 543.914 220.514 544.824 220.957 545.617C221.424 546.387 222.066 546.982 222.882 547.402C223.722 547.799 224.702 547.997 225.822 547.997C226.826 547.997 227.701 547.846 228.447 547.542C229.217 547.239 229.917 546.784 230.547 546.177L233.452 549.327C232.589 550.307 231.504 551.066 230.197 551.602C228.891 552.116 227.386 552.372 225.682 552.372ZM242.932 548.242L243.072 541.592L251.857 533.262H258.367L249.932 541.837L247.097 544.147L242.932 548.242ZM238.417 552.092V526.122H243.877V552.092H238.417ZM252.452 552.092L246.082 544.182L249.512 539.947L259.067 552.092H252.452ZM270.082 552.372C267.935 552.372 266.045 551.952 264.412 551.112C262.802 550.272 261.553 549.129 260.667 547.682C259.78 546.212 259.337 544.544 259.337 542.677C259.337 540.787 259.768 539.119 260.632 537.672C261.518 536.202 262.72 535.059 264.237 534.242C265.753 533.402 267.468 532.982 269.382 532.982C271.225 532.982 272.882 533.379 274.352 534.172C275.845 534.942 277.023 536.062 277.887 537.532C278.75 538.979 279.182 540.717 279.182 542.747C279.182 542.957 279.17 543.202 279.147 543.482C279.123 543.739 279.1 543.984 279.077 544.217H263.782V541.032H276.207L274.107 541.977C274.107 540.997 273.908 540.146 273.512 539.422C273.115 538.699 272.567 538.139 271.867 537.742C271.167 537.322 270.35 537.112 269.417 537.112C268.483 537.112 267.655 537.322 266.932 537.742C266.232 538.139 265.683 538.711 265.287 539.457C264.89 540.181 264.692 541.044 264.692 542.047V542.887C264.692 543.914 264.913 544.824 265.357 545.617C265.823 546.387 266.465 546.982 267.282 547.402C268.122 547.799 269.102 547.997 270.222 547.997C271.225 547.997 272.1 547.846 272.847 547.542C273.617 547.239 274.317 546.784 274.947 546.177L277.852 549.327C276.988 550.307 275.903 551.066 274.597 551.602C273.29 552.116 271.785 552.372 270.082 552.372ZM292.162 552.372C290.015 552.372 288.125 551.952 286.492 551.112C284.882 550.272 283.634 549.129 282.747 547.682C281.86 546.212 281.417 544.544 281.417 542.677C281.417 540.787 281.849 539.119 282.712 537.672C283.599 536.202 284.8 535.059 286.317 534.242C287.834 533.402 289.549 532.982 291.462 532.982C293.305 532.982 294.962 533.379 296.432 534.172C297.925 534.942 299.104 536.062 299.967 537.532C300.83 538.979 301.262 540.717 301.262 542.747C301.262 542.957 301.25 543.202 301.227 543.482C301.204 543.739 301.18 543.984 301.157 544.217H285.862V541.032H298.287L296.187 541.977C296.187 540.997 295.989 540.146 295.592 539.422C295.195 538.699 294.647 538.139 293.947 537.742C293.247 537.322 292.43 537.112 291.497 537.112C290.564 537.112 289.735 537.322 289.012 537.742C288.312 538.139 287.764 538.711 287.367 539.457C286.97 540.181 286.772 541.044 286.772 542.047V542.887C286.772 543.914 286.994 544.824 287.437 545.617C287.904 546.387 288.545 546.982 289.362 547.402C290.202 547.799 291.182 547.997 292.302 547.997C293.305 547.997 294.18 547.846 294.927 547.542C295.697 547.239 296.397 546.784 297.027 546.177L299.932 549.327C299.069 550.307 297.984 551.066 296.677 551.602C295.37 552.116 293.865 552.372 292.162 552.372ZM316.027 552.372C314.44 552.372 313.052 552.022 311.862 551.322C310.672 550.622 309.739 549.561 309.062 548.137C308.409 546.691 308.082 544.871 308.082 542.677C308.082 540.461 308.397 538.641 309.027 537.217C309.657 535.794 310.567 534.732 311.757 534.032C312.947 533.332 314.37 532.982 316.027 532.982C317.8 532.982 319.387 533.391 320.787 534.207C322.21 535.001 323.33 536.121 324.147 537.567C324.987 539.014 325.407 540.717 325.407 542.677C325.407 544.661 324.987 546.376 324.147 547.822C323.33 549.269 322.21 550.389 320.787 551.182C319.387 551.976 317.8 552.372 316.027 552.372ZM304.897 558.882V533.262H310.112V537.112L310.007 542.712L310.357 548.277V558.882H304.897ZM315.082 547.892C315.992 547.892 316.797 547.682 317.497 547.262C318.22 546.842 318.792 546.247 319.212 545.477C319.655 544.684 319.877 543.751 319.877 542.677C319.877 541.581 319.655 540.647 319.212 539.877C318.792 539.107 318.22 538.512 317.497 538.092C316.797 537.672 315.992 537.462 315.082 537.462C314.172 537.462 313.355 537.672 312.632 538.092C311.909 538.512 311.337 539.107 310.917 539.877C310.497 540.647 310.287 541.581 310.287 542.677C310.287 543.751 310.497 544.684 310.917 545.477C311.337 546.247 311.909 546.842 312.632 547.262C313.355 547.682 314.172 547.892 315.082 547.892ZM338.407 552.372C336.26 552.372 334.37 551.952 332.737 551.112C331.127 550.272 329.879 549.129 328.992 547.682C328.105 546.212 327.662 544.544 327.662 542.677C327.662 540.787 328.094 539.119 328.957 537.672C329.844 536.202 331.045 535.059 332.562 534.242C334.079 533.402 335.794 532.982 337.707 532.982C339.55 532.982 341.207 533.379 342.677 534.172C344.17 534.942 345.349 536.062 346.212 537.532C347.075 538.979 347.507 540.717 347.507 542.747C347.507 542.957 347.495 543.202 347.472 543.482C347.449 543.739 347.425 543.984 347.402 544.217H332.107V541.032H344.532L342.432 541.977C342.432 540.997 342.234 540.146 341.837 539.422C341.44 538.699 340.892 538.139 340.192 537.742C339.492 537.322 338.675 537.112 337.742 537.112C336.809 537.112 335.98 537.322 335.257 537.742C334.557 538.139 334.009 538.711 333.612 539.457C333.215 540.181 333.017 541.044 333.017 542.047V542.887C333.017 543.914 333.239 544.824 333.682 545.617C334.149 546.387 334.79 546.982 335.607 547.402C336.447 547.799 337.427 547.997 338.547 547.997C339.55 547.997 340.425 547.846 341.172 547.542C341.942 547.239 342.642 546.784 343.272 546.177L346.177 549.327C345.314 550.307 344.229 551.066 342.922 551.602C341.615 552.116 340.11 552.372 338.407 552.372ZM351.142 552.092V533.262H356.357V538.582L355.622 537.042C356.182 535.712 357.08 534.709 358.317 534.032C359.554 533.332 361.059 532.982 362.832 532.982V538.022C362.599 537.999 362.389 537.987 362.202 537.987C362.015 537.964 361.817 537.952 361.607 537.952C360.114 537.952 358.9 538.384 357.967 539.247C357.057 540.087 356.602 541.406 356.602 543.202V552.092H351.142ZM372.55 552.372C370.94 552.372 369.389 552.186 367.895 551.812C366.425 551.416 365.259 550.926 364.395 550.342L366.215 546.422C367.079 546.959 368.094 547.402 369.26 547.752C370.45 548.079 371.617 548.242 372.76 548.242C374.02 548.242 374.907 548.091 375.42 547.787C375.957 547.484 376.225 547.064 376.225 546.527C376.225 546.084 376.015 545.757 375.595 545.547C375.199 545.314 374.662 545.139 373.985 545.022C373.309 544.906 372.562 544.789 371.745 544.672C370.952 544.556 370.147 544.404 369.33 544.217C368.514 544.007 367.767 543.704 367.09 543.307C366.414 542.911 365.865 542.374 365.445 541.697C365.049 541.021 364.85 540.146 364.85 539.072C364.85 537.882 365.189 536.832 365.865 535.922C366.565 535.012 367.569 534.301 368.875 533.787C370.182 533.251 371.745 532.982 373.565 532.982C374.849 532.982 376.155 533.122 377.485 533.402C378.815 533.682 379.924 534.091 380.81 534.627L378.99 538.512C378.08 537.976 377.159 537.614 376.225 537.427C375.315 537.217 374.429 537.112 373.565 537.112C372.352 537.112 371.465 537.276 370.905 537.602C370.345 537.929 370.065 538.349 370.065 538.862C370.065 539.329 370.264 539.679 370.66 539.912C371.08 540.146 371.629 540.332 372.305 540.472C372.982 540.612 373.717 540.741 374.51 540.857C375.327 540.951 376.144 541.102 376.96 541.312C377.777 541.522 378.512 541.826 379.165 542.222C379.842 542.596 380.39 543.121 380.81 543.797C381.23 544.451 381.44 545.314 381.44 546.387C381.44 547.554 381.09 548.592 380.39 549.502C379.69 550.389 378.675 551.089 377.345 551.602C376.039 552.116 374.44 552.372 372.55 552.372Z" fill="#6F00CD"/>
<path d="M361.151 215.458V193.058H372.095C374.911 193.058 377.023 193.591 378.431 194.658C379.86 195.725 380.575 197.133 380.575 198.882C380.575 200.055 380.287 201.079 379.711 201.954C379.135 202.807 378.346 203.469 377.343 203.938C376.34 204.407 375.188 204.642 373.887 204.642L374.495 203.33C375.903 203.33 377.151 203.565 378.239 204.034C379.327 204.482 380.17 205.154 380.767 206.05C381.386 206.946 381.695 208.045 381.695 209.346C381.695 211.266 380.938 212.77 379.423 213.858C377.908 214.925 375.679 215.458 372.735 215.458H361.151ZM366.303 211.554H372.351C373.695 211.554 374.708 211.341 375.391 210.914C376.095 210.466 376.447 209.762 376.447 208.802C376.447 207.863 376.095 207.17 375.391 206.722C374.708 206.253 373.695 206.018 372.351 206.018H365.919V202.242H371.455C372.714 202.242 373.674 202.029 374.335 201.602C375.018 201.154 375.359 200.482 375.359 199.586C375.359 198.711 375.018 198.061 374.335 197.634C373.674 197.186 372.714 196.962 371.455 196.962H366.303V211.554ZM393.812 215.714C391.849 215.714 390.121 215.33 388.628 214.562C387.156 213.794 386.015 212.749 385.204 211.426C384.393 210.082 383.988 208.557 383.988 206.85C383.988 205.122 384.383 203.597 385.172 202.274C385.983 200.93 387.081 199.885 388.468 199.138C389.855 198.37 391.423 197.986 393.172 197.986C394.857 197.986 396.372 198.349 397.716 199.074C399.081 199.778 400.159 200.802 400.948 202.146C401.737 203.469 402.132 205.058 402.132 206.914C402.132 207.106 402.121 207.33 402.1 207.586C402.079 207.821 402.057 208.045 402.036 208.258H388.052V205.346H399.412L397.492 206.21C397.492 205.314 397.311 204.535 396.948 203.874C396.585 203.213 396.084 202.701 395.444 202.338C394.804 201.954 394.057 201.762 393.204 201.762C392.351 201.762 391.593 201.954 390.932 202.338C390.292 202.701 389.791 203.223 389.428 203.906C389.065 204.567 388.884 205.357 388.884 206.274V207.042C388.884 207.981 389.087 208.813 389.492 209.538C389.919 210.242 390.505 210.786 391.252 211.17C392.02 211.533 392.916 211.714 393.94 211.714C394.857 211.714 395.657 211.575 396.34 211.298C397.044 211.021 397.684 210.605 398.26 210.05L400.916 212.93C400.127 213.826 399.135 214.519 397.94 215.01C396.745 215.479 395.369 215.714 393.812 215.714ZM407.319 221.922C406.423 221.922 405.538 221.783 404.663 221.506C403.788 221.229 403.074 220.845 402.519 220.354L404.343 216.802C404.727 217.143 405.164 217.41 405.655 217.602C406.167 217.794 406.668 217.89 407.159 217.89C407.863 217.89 408.418 217.719 408.823 217.378C409.25 217.058 409.634 216.514 409.975 215.746L410.871 213.634L411.255 213.09L417.431 198.242H422.231L414.455 216.514C413.9 217.901 413.26 218.989 412.535 219.778C411.831 220.567 411.042 221.122 410.167 221.442C409.314 221.762 408.364 221.922 407.319 221.922ZM410.263 216.13L402.583 198.242H407.735L413.687 212.642L410.263 216.13ZM431.991 215.714C430.156 215.714 428.524 215.33 427.095 214.562C425.687 213.794 424.567 212.749 423.735 211.426C422.924 210.082 422.519 208.557 422.519 206.85C422.519 205.122 422.924 203.597 423.735 202.274C424.567 200.93 425.687 199.885 427.095 199.138C428.524 198.37 430.156 197.986 431.991 197.986C433.804 197.986 435.426 198.37 436.855 199.138C438.284 199.885 439.404 200.919 440.215 202.242C441.026 203.565 441.431 205.101 441.431 206.85C441.431 208.557 441.026 210.082 440.215 211.426C439.404 212.749 438.284 213.794 436.855 214.562C435.426 215.33 433.804 215.714 431.991 215.714ZM431.991 211.618C432.823 211.618 433.57 211.426 434.231 211.042C434.892 210.658 435.415 210.114 435.799 209.41C436.183 208.685 436.375 207.831 436.375 206.85C436.375 205.847 436.183 204.994 435.799 204.29C435.415 203.586 434.892 203.042 434.231 202.658C433.57 202.274 432.823 202.082 431.991 202.082C431.159 202.082 430.412 202.274 429.751 202.658C429.09 203.042 428.556 203.586 428.151 204.29C427.767 204.994 427.575 205.847 427.575 206.85C427.575 207.831 427.767 208.685 428.151 209.41C428.556 210.114 429.09 210.658 429.751 211.042C430.412 211.426 431.159 211.618 431.991 211.618ZM455.232 197.986C456.597 197.986 457.813 198.263 458.88 198.818C459.968 199.351 460.821 200.183 461.44 201.314C462.059 202.423 462.368 203.853 462.368 205.602V215.458H457.376V206.37C457.376 204.983 457.067 203.959 456.448 203.298C455.851 202.637 454.997 202.306 453.888 202.306C453.099 202.306 452.384 202.477 451.744 202.818C451.125 203.138 450.635 203.639 450.272 204.322C449.931 205.005 449.76 205.879 449.76 206.946V215.458H444.768V198.242H449.536V203.01L448.64 201.57C449.259 200.418 450.144 199.533 451.296 198.914C452.448 198.295 453.76 197.986 455.232 197.986ZM474.41 215.714C472.789 215.714 471.327 215.351 470.026 214.626C468.725 213.879 467.69 212.845 466.922 211.522C466.175 210.199 465.802 208.642 465.802 206.85C465.802 205.037 466.175 203.469 466.922 202.146C467.69 200.823 468.725 199.799 470.026 199.074C471.327 198.349 472.789 197.986 474.41 197.986C475.861 197.986 477.13 198.306 478.218 198.946C479.306 199.586 480.149 200.557 480.746 201.858C481.343 203.159 481.642 204.823 481.642 206.85C481.642 208.855 481.354 210.519 480.778 211.842C480.202 213.143 479.37 214.114 478.282 214.754C477.215 215.394 475.925 215.714 474.41 215.714ZM475.274 211.618C476.085 211.618 476.821 211.426 477.482 211.042C478.143 210.658 478.666 210.114 479.05 209.41C479.455 208.685 479.658 207.831 479.658 206.85C479.658 205.847 479.455 204.994 479.05 204.29C478.666 203.586 478.143 203.042 477.482 202.658C476.821 202.274 476.085 202.082 475.274 202.082C474.442 202.082 473.695 202.274 473.034 202.658C472.373 203.042 471.839 203.586 471.434 204.29C471.05 204.994 470.858 205.847 470.858 206.85C470.858 207.831 471.05 208.685 471.434 209.41C471.839 210.114 472.373 210.658 473.034 211.042C473.695 211.426 474.442 211.618 475.274 211.618ZM479.786 215.458V211.938L479.882 206.818L479.562 201.73V191.714H484.554V215.458H479.786ZM359.292 254.458V232.058H370.236C373.052 232.058 375.164 232.591 376.572 233.658C378.001 234.725 378.716 236.133 378.716 237.882C378.716 239.055 378.428 240.079 377.852 240.954C377.276 241.807 376.486 242.469 375.484 242.938C374.481 243.407 373.329 243.642 372.028 243.642L372.636 242.33C374.044 242.33 375.292 242.565 376.38 243.034C377.468 243.482 378.31 244.154 378.908 245.05C379.526 245.946 379.836 247.045 379.836 248.346C379.836 250.266 379.078 251.77 377.564 252.858C376.049 253.925 373.82 254.458 370.876 254.458H359.292ZM364.444 250.554H370.492C371.836 250.554 372.849 250.341 373.532 249.914C374.236 249.466 374.588 248.762 374.588 247.802C374.588 246.863 374.236 246.17 373.532 245.722C372.849 245.253 371.836 245.018 370.492 245.018H364.06V241.242H369.596C370.854 241.242 371.814 241.029 372.476 240.602C373.158 240.154 373.5 239.482 373.5 238.586C373.5 237.711 373.158 237.061 372.476 236.634C371.814 236.186 370.854 235.962 369.596 235.962H364.444V250.554ZM391.6 254.714C389.766 254.714 388.134 254.33 386.704 253.562C385.296 252.794 384.176 251.749 383.344 250.426C382.534 249.082 382.128 247.557 382.128 245.85C382.128 244.122 382.534 242.597 383.344 241.274C384.176 239.93 385.296 238.885 386.704 238.138C388.134 237.37 389.766 236.986 391.6 236.986C393.414 236.986 395.035 237.37 396.464 238.138C397.894 238.885 399.014 239.919 399.824 241.242C400.635 242.565 401.04 244.101 401.04 245.85C401.04 247.557 400.635 249.082 399.824 250.426C399.014 251.749 397.894 252.794 396.464 253.562C395.035 254.33 393.414 254.714 391.6 254.714ZM391.6 250.618C392.432 250.618 393.179 250.426 393.84 250.042C394.502 249.658 395.024 249.114 395.408 248.41C395.792 247.685 395.984 246.831 395.984 245.85C395.984 244.847 395.792 243.994 395.408 243.29C395.024 242.586 394.502 242.042 393.84 241.658C393.179 241.274 392.432 241.082 391.6 241.082C390.768 241.082 390.022 241.274 389.36 241.658C388.699 242.042 388.166 242.586 387.76 243.29C387.376 243.994 387.184 244.847 387.184 245.85C387.184 246.831 387.376 247.685 387.76 248.41C388.166 249.114 388.699 249.658 389.36 250.042C390.022 250.426 390.768 250.618 391.6 250.618ZM404.377 254.458V237.242H409.145V242.106L408.473 240.698C408.985 239.482 409.807 238.565 410.937 237.946C412.068 237.306 413.444 236.986 415.065 236.986V241.594C414.852 241.573 414.66 241.562 414.489 241.562C414.319 241.541 414.137 241.53 413.945 241.53C412.58 241.53 411.471 241.925 410.617 242.714C409.785 243.482 409.369 244.687 409.369 246.33V254.458H404.377ZM425.3 254.714C423.679 254.714 422.218 254.351 420.916 253.626C419.615 252.879 418.58 251.845 417.812 250.522C417.066 249.199 416.692 247.642 416.692 245.85C416.692 244.037 417.066 242.469 417.812 241.146C418.58 239.823 419.615 238.799 420.916 238.074C422.218 237.349 423.679 236.986 425.3 236.986C426.751 236.986 428.02 237.306 429.108 237.946C430.196 238.586 431.039 239.557 431.636 240.858C432.234 242.159 432.532 243.823 432.532 245.85C432.532 247.855 432.244 249.519 431.668 250.842C431.092 252.143 430.26 253.114 429.172 253.754C428.106 254.394 426.815 254.714 425.3 254.714ZM426.164 250.618C426.975 250.618 427.711 250.426 428.372 250.042C429.034 249.658 429.556 249.114 429.94 248.41C430.346 247.685 430.548 246.831 430.548 245.85C430.548 244.847 430.346 243.994 429.94 243.29C429.556 242.586 429.034 242.042 428.372 241.658C427.711 241.274 426.975 241.082 426.164 241.082C425.332 241.082 424.586 241.274 423.924 241.658C423.263 242.042 422.73 242.586 422.324 243.29C421.94 243.994 421.748 244.847 421.748 245.85C421.748 246.831 421.94 247.685 422.324 248.41C422.73 249.114 423.263 249.658 423.924 250.042C424.586 250.426 425.332 250.618 426.164 250.618ZM430.676 254.458V250.938L430.772 245.818L430.452 240.73V230.714H435.444V254.458H430.676ZM448.609 254.714C446.646 254.714 444.918 254.33 443.425 253.562C441.953 252.794 440.811 251.749 440.001 250.426C439.19 249.082 438.785 247.557 438.785 245.85C438.785 244.122 439.179 242.597 439.969 241.274C440.779 239.93 441.878 238.885 443.265 238.138C444.651 237.37 446.219 236.986 447.969 236.986C449.654 236.986 451.169 237.349 452.513 238.074C453.878 238.778 454.955 239.802 455.745 241.146C456.534 242.469 456.929 244.058 456.929 245.914C456.929 246.106 456.918 246.33 456.897 246.586C456.875 246.821 456.854 247.045 456.833 247.258H442.849V244.346H454.209L452.289 245.21C452.289 244.314 452.107 243.535 451.745 242.874C451.382 242.213 450.881 241.701 450.241 241.338C449.601 240.954 448.854 240.762 448.001 240.762C447.147 240.762 446.39 240.954 445.729 241.338C445.089 241.701 444.587 242.223 444.225 242.906C443.862 243.567 443.681 244.357 443.681 245.274V246.042C443.681 246.981 443.883 247.813 444.289 248.538C444.715 249.242 445.302 249.786 446.049 250.17C446.817 250.533 447.713 250.714 448.737 250.714C449.654 250.714 450.454 250.575 451.137 250.298C451.841 250.021 452.481 249.605 453.057 249.05L455.713 251.93C454.923 252.826 453.931 253.519 452.737 254.01C451.542 254.479 450.166 254.714 448.609 254.714ZM460.252 254.458V237.242H465.02V242.106L464.348 240.698C464.86 239.482 465.682 238.565 466.812 237.946C467.943 237.306 469.319 236.986 470.94 236.986V241.594C470.727 241.573 470.535 241.562 470.364 241.562C470.194 241.541 470.012 241.53 469.82 241.53C468.455 241.53 467.346 241.925 466.492 242.714C465.66 243.482 465.244 244.687 465.244 246.33V254.458H460.252ZM479.825 254.714C478.353 254.714 476.935 254.543 475.569 254.202C474.225 253.839 473.159 253.391 472.369 252.858L474.033 249.274C474.823 249.765 475.751 250.17 476.817 250.49C477.905 250.789 478.972 250.938 480.017 250.938C481.169 250.938 481.98 250.799 482.449 250.522C482.94 250.245 483.185 249.861 483.185 249.37C483.185 248.965 482.993 248.666 482.609 248.474C482.247 248.261 481.756 248.101 481.137 247.994C480.519 247.887 479.836 247.781 479.089 247.674C478.364 247.567 477.628 247.429 476.881 247.258C476.135 247.066 475.452 246.789 474.833 246.426C474.215 246.063 473.713 245.573 473.329 244.954C472.967 244.335 472.785 243.535 472.785 242.554C472.785 241.466 473.095 240.506 473.713 239.674C474.353 238.842 475.271 238.191 476.465 237.722C477.66 237.231 479.089 236.986 480.753 236.986C481.927 236.986 483.121 237.114 484.337 237.37C485.553 237.626 486.567 237.999 487.377 238.49L485.713 242.042C484.881 241.551 484.039 241.221 483.185 241.05C482.353 240.858 481.543 240.762 480.753 240.762C479.644 240.762 478.833 240.911 478.321 241.21C477.809 241.509 477.553 241.893 477.553 242.362C477.553 242.789 477.735 243.109 478.097 243.322C478.481 243.535 478.983 243.706 479.601 243.834C480.22 243.962 480.892 244.079 481.617 244.186C482.364 244.271 483.111 244.41 483.857 244.602C484.604 244.794 485.276 245.071 485.873 245.434C486.492 245.775 486.993 246.255 487.377 246.874C487.761 247.471 487.953 248.261 487.953 249.242C487.953 250.309 487.633 251.258 486.993 252.09C486.353 252.901 485.425 253.541 484.209 254.01C483.015 254.479 481.553 254.714 479.825 254.714Z" fill="#6F00CD"/>
<path d="M462.106 425.296V429.634H466.93V430.894H462.106V435.322H467.47V436.654H460.468V423.964H467.47V425.296H462.106ZM481.724 426.61C482.876 426.61 483.8 426.982 484.496 427.726C485.204 428.458 485.558 429.52 485.558 430.912V436.654H483.92V431.056C483.92 430.084 483.68 429.34 483.2 428.824C482.732 428.308 482.084 428.05 481.256 428.05C480.392 428.05 479.696 428.338 479.168 428.914C478.652 429.478 478.394 430.312 478.394 431.416V436.654H476.756V431.056C476.756 430.084 476.516 429.34 476.036 428.824C475.556 428.308 474.908 428.05 474.092 428.05C473.216 428.05 472.514 428.338 471.986 428.914C471.47 429.478 471.212 430.312 471.212 431.416V436.654H469.574V426.772H471.212V429.022C471.452 428.242 471.878 427.648 472.49 427.24C473.114 426.82 473.828 426.61 474.632 426.61C475.472 426.61 476.198 426.826 476.81 427.258C477.434 427.678 477.878 428.302 478.142 429.13C478.418 428.326 478.88 427.708 479.528 427.276C480.176 426.832 480.908 426.61 481.724 426.61ZM493.555 426.646C494.431 426.646 495.211 426.85 495.895 427.258C496.579 427.666 497.113 428.254 497.497 429.022C497.893 429.79 498.091 430.69 498.091 431.722C498.091 432.754 497.893 433.654 497.497 434.422C497.113 435.178 496.579 435.76 495.895 436.168C495.211 436.576 494.431 436.78 493.555 436.78C492.595 436.78 491.779 436.54 491.107 436.06C490.447 435.568 489.991 434.926 489.739 434.134V441.334H488.101V426.772H489.739V429.292C489.991 428.5 490.447 427.864 491.107 427.384C491.779 426.892 492.595 426.646 493.555 426.646ZM493.087 428.104C492.451 428.104 491.875 428.254 491.359 428.554C490.843 428.842 490.441 429.262 490.153 429.814C489.865 430.366 489.721 431.002 489.721 431.722C489.721 432.442 489.865 433.078 490.153 433.63C490.441 434.17 490.843 434.59 491.359 434.89C491.875 435.19 492.451 435.34 493.087 435.34C494.107 435.34 494.917 435.022 495.517 434.386C496.129 433.738 496.435 432.85 496.435 431.722C496.435 430.594 496.129 429.712 495.517 429.076C494.917 428.428 494.107 428.104 493.087 428.104ZM504.712 426.646C505.66 426.646 506.506 426.85 507.25 427.258C508.006 427.666 508.594 428.254 509.014 429.022C509.446 429.79 509.662 430.69 509.662 431.722C509.662 432.754 509.446 433.654 509.014 434.422C508.594 435.178 508.006 435.76 507.25 436.168C506.506 436.576 505.66 436.78 504.712 436.78C503.764 436.78 502.912 436.576 502.156 436.168C501.412 435.76 500.824 435.178 500.392 434.422C499.96 433.654 499.744 432.754 499.744 431.722C499.744 430.69 499.96 429.79 500.392 429.022C500.824 428.254 501.412 427.666 502.156 427.258C502.912 426.85 503.764 426.646 504.712 426.646ZM504.712 428.086C504.124 428.086 503.578 428.218 503.074 428.482C502.582 428.746 502.18 429.154 501.868 429.706C501.568 430.246 501.418 430.918 501.418 431.722C501.418 432.514 501.568 433.186 501.868 433.738C502.18 434.278 502.582 434.68 503.074 434.944C503.578 435.208 504.124 435.34 504.712 435.34C505.3 435.34 505.84 435.208 506.332 434.944C506.836 434.68 507.238 434.278 507.538 433.738C507.85 433.186 508.006 432.514 508.006 431.722C508.006 430.918 507.85 430.246 507.538 429.706C507.238 429.154 506.836 428.746 506.332 428.482C505.84 428.218 505.3 428.086 504.712 428.086ZM525.368 426.772L522.524 436.654H520.76L518.042 428.608L515.306 436.654H513.524L510.716 426.772H512.372L514.478 435.088L517.214 426.772H518.924L521.678 435.07L523.802 426.772H525.368ZM535.986 431.164C535.986 431.512 535.962 431.812 535.914 432.064H528.012C528.048 433.192 528.366 434.038 528.966 434.602C529.578 435.166 530.322 435.448 531.198 435.448C531.99 435.448 532.65 435.25 533.178 434.854C533.718 434.446 534.048 433.906 534.168 433.234H535.914C535.794 433.918 535.524 434.53 535.104 435.07C534.696 435.61 534.162 436.03 533.502 436.33C532.842 436.63 532.098 436.78 531.27 436.78C530.322 436.78 529.482 436.576 528.75 436.168C528.018 435.76 527.442 435.178 527.022 434.422C526.614 433.654 526.41 432.754 526.41 431.722C526.41 430.69 526.614 429.79 527.022 429.022C527.442 428.254 528.018 427.666 528.75 427.258C529.482 426.85 530.322 426.646 531.27 426.646C532.23 426.646 533.064 426.85 533.772 427.258C534.492 427.666 535.038 428.212 535.41 428.896C535.794 429.58 535.986 430.336 535.986 431.164ZM534.33 431.272C534.366 430.54 534.246 429.928 533.97 429.436C533.694 428.944 533.316 428.578 532.836 428.338C532.356 428.098 531.834 427.978 531.27 427.978C530.37 427.978 529.614 428.26 529.002 428.824C528.39 429.376 528.06 430.192 528.012 431.272H534.33ZM539.766 428.77C540.09 428.086 540.564 427.558 541.188 427.186C541.812 426.802 542.556 426.61 543.42 426.61V428.392H542.916C541.992 428.392 541.236 428.632 540.648 429.112C540.06 429.58 539.766 430.36 539.766 431.452V436.654H538.128V426.772H539.766V428.77ZM544.749 423.874C544.749 423.574 544.851 423.334 545.055 423.154C545.259 422.962 545.529 422.866 545.865 422.866C546.201 422.866 546.471 422.962 546.675 423.154C546.879 423.334 546.981 423.574 546.981 423.874C546.981 424.174 546.879 424.42 546.675 424.612C546.471 424.792 546.201 424.882 545.865 424.882C545.529 424.882 545.259 424.792 545.055 424.612C544.851 424.42 544.749 424.174 544.749 423.874ZM546.675 426.772V436.654H545.037V426.772H546.675ZM554.51 426.61C555.662 426.61 556.592 426.982 557.3 427.726C558.008 428.458 558.362 429.52 558.362 430.912V436.654H556.724V431.056C556.724 430.072 556.472 429.316 555.968 428.788C555.464 428.26 554.78 427.996 553.916 427.996C553.016 427.996 552.296 428.29 551.756 428.878C551.216 429.454 550.946 430.3 550.946 431.416V436.654H549.308V426.772H550.946V429.112C551.198 428.308 551.642 427.69 552.278 427.258C552.926 426.826 553.67 426.61 554.51 426.61ZM564.925 426.646C565.885 426.646 566.695 426.886 567.355 427.366C568.027 427.846 568.495 428.488 568.759 429.292V426.772H570.397V436.816C570.397 437.728 570.205 438.538 569.821 439.246C569.437 439.954 568.897 440.506 568.201 440.902C567.505 441.298 566.695 441.496 565.771 441.496C564.439 441.496 563.353 441.172 562.513 440.524C561.673 439.888 561.139 439.024 560.911 437.932H562.531C562.723 438.592 563.083 439.108 563.611 439.48C564.151 439.864 564.841 440.056 565.681 440.056C566.569 440.056 567.301 439.768 567.877 439.192C568.465 438.628 568.759 437.836 568.759 436.816V434.134C568.495 434.938 568.027 435.58 567.355 436.06C566.695 436.54 565.885 436.78 564.925 436.78C564.049 436.78 563.269 436.576 562.585 436.168C561.901 435.76 561.361 435.178 560.965 434.422C560.581 433.654 560.389 432.754 560.389 431.722C560.389 430.69 560.581 429.79 560.965 429.022C561.361 428.254 561.901 427.666 562.585 427.258C563.269 426.85 564.049 426.646 564.925 426.646ZM565.393 428.104C564.385 428.104 563.575 428.428 562.963 429.076C562.363 429.712 562.063 430.594 562.063 431.722C562.063 432.85 562.363 433.738 562.963 434.386C563.575 435.022 564.385 435.34 565.393 435.34C566.041 435.34 566.617 435.19 567.121 434.89C567.637 434.59 568.039 434.17 568.327 433.63C568.615 433.078 568.759 432.442 568.759 431.722C568.759 431.002 568.615 430.366 568.327 429.814C568.039 429.262 567.637 428.842 567.121 428.554C566.617 428.254 566.041 428.104 565.393 428.104ZM581.825 426.646C583.085 426.646 584.129 426.982 584.957 427.654C585.785 428.326 586.295 429.226 586.487 430.354H584.759C584.639 429.646 584.309 429.094 583.769 428.698C583.241 428.29 582.581 428.086 581.789 428.086C581.213 428.086 580.685 428.218 580.205 428.482C579.737 428.746 579.359 429.154 579.071 429.706C578.783 430.246 578.639 430.918 578.639 431.722C578.639 432.526 578.783 433.204 579.071 433.756C579.359 434.296 579.737 434.698 580.205 434.962C580.685 435.226 581.213 435.358 581.789 435.358C582.581 435.358 583.241 435.154 583.769 434.746C584.309 434.338 584.639 433.78 584.759 433.072H586.487C586.295 434.212 585.785 435.118 584.957 435.79C584.129 436.45 583.085 436.78 581.825 436.78C580.877 436.78 580.037 436.576 579.305 436.168C578.573 435.76 577.997 435.178 577.577 434.422C577.169 433.654 576.965 432.754 576.965 431.722C576.965 430.69 577.169 429.79 577.577 429.022C577.997 428.254 578.573 427.666 579.305 427.258C580.037 426.85 580.877 426.646 581.825 426.646ZM597.414 426.772V436.654H595.776V434.332C595.524 435.136 595.074 435.754 594.426 436.186C593.79 436.606 593.046 436.816 592.194 436.816C591.054 436.816 590.13 436.45 589.422 435.718C588.714 434.974 588.36 433.912 588.36 432.532V426.772H589.998V432.37C589.998 433.354 590.25 434.116 590.754 434.656C591.258 435.184 591.942 435.448 592.806 435.448C593.706 435.448 594.426 435.16 594.966 434.584C595.506 433.996 595.776 433.144 595.776 432.028V426.772H597.414ZM601.677 428.77C602.001 428.086 602.475 427.558 603.099 427.186C603.723 426.802 604.467 426.61 605.331 426.61V428.392H604.827C603.903 428.392 603.147 428.632 602.559 429.112C601.971 429.58 601.677 430.36 601.677 431.452V436.654H600.039V426.772H601.677V428.77ZM606.659 423.874C606.659 423.574 606.761 423.334 606.965 423.154C607.169 422.962 607.439 422.866 607.775 422.866C608.111 422.866 608.381 422.962 608.585 423.154C608.789 423.334 608.891 423.574 608.891 423.874C608.891 424.174 608.789 424.42 608.585 424.612C608.381 424.792 608.111 424.882 607.775 424.882C607.439 424.882 607.169 424.792 606.965 424.612C606.761 424.42 606.659 424.174 606.659 423.874ZM608.585 426.772V436.654H606.947V426.772H608.585ZM615.7 426.646C616.648 426.646 617.494 426.85 618.238 427.258C618.994 427.666 619.582 428.254 620.002 429.022C620.434 429.79 620.65 430.69 620.65 431.722C620.65 432.754 620.434 433.654 620.002 434.422C619.582 435.178 618.994 435.76 618.238 436.168C617.494 436.576 616.648 436.78 615.7 436.78C614.752 436.78 613.9 436.576 613.144 436.168C612.4 435.76 611.812 435.178 611.38 434.422C610.948 433.654 610.732 432.754 610.732 431.722C610.732 430.69 610.948 429.79 611.38 429.022C611.812 428.254 612.4 427.666 613.144 427.258C613.9 426.85 614.752 426.646 615.7 426.646ZM615.7 428.086C615.112 428.086 614.566 428.218 614.062 428.482C613.57 428.746 613.168 429.154 612.856 429.706C612.556 430.246 612.406 430.918 612.406 431.722C612.406 432.514 612.556 433.186 612.856 433.738C613.168 434.278 613.57 434.68 614.062 434.944C614.566 435.208 615.112 435.34 615.7 435.34C616.288 435.34 616.828 435.208 617.32 434.944C617.824 434.68 618.226 434.278 618.526 433.738C618.838 433.186 618.994 432.514 618.994 431.722C618.994 430.918 618.838 430.246 618.526 429.706C618.226 429.154 617.824 428.746 617.32 428.482C616.828 428.218 616.288 428.086 615.7 428.086ZM631.569 426.772V436.654H629.931V434.332C629.679 435.136 629.229 435.754 628.581 436.186C627.945 436.606 627.201 436.816 626.349 436.816C625.209 436.816 624.285 436.45 623.577 435.718C622.869 434.974 622.515 433.912 622.515 432.532V426.772H624.153V432.37C624.153 433.354 624.405 434.116 624.909 434.656C625.413 435.184 626.097 435.448 626.961 435.448C627.861 435.448 628.581 435.16 629.121 434.584C629.661 433.996 629.931 433.144 629.931 432.028V426.772H631.569ZM637.289 426.646C638.405 426.646 639.299 426.94 639.971 427.528C640.655 428.104 641.069 428.884 641.213 429.868H639.647C639.575 429.28 639.329 428.8 638.909 428.428C638.501 428.044 637.949 427.852 637.253 427.852C636.665 427.852 636.203 427.996 635.867 428.284C635.543 428.56 635.381 428.938 635.381 429.418C635.381 429.778 635.489 430.072 635.705 430.3C635.933 430.516 636.209 430.684 636.533 430.804C636.869 430.912 637.325 431.032 637.901 431.164C638.633 431.332 639.221 431.506 639.665 431.686C640.121 431.854 640.505 432.13 640.817 432.514C641.141 432.898 641.303 433.414 641.303 434.062C641.303 434.866 640.997 435.52 640.385 436.024C639.785 436.528 638.981 436.78 637.973 436.78C636.797 436.78 635.837 436.498 635.093 435.934C634.349 435.37 633.911 434.584 633.779 433.576H635.363C635.423 434.176 635.681 434.662 636.137 435.034C636.605 435.406 637.217 435.592 637.973 435.592C638.537 435.592 638.975 435.448 639.287 435.16C639.611 434.872 639.773 434.494 639.773 434.026C639.773 433.642 639.659 433.336 639.431 433.108C639.203 432.88 638.921 432.706 638.585 432.586C638.249 432.466 637.787 432.34 637.199 432.208C636.467 432.04 635.879 431.872 635.435 431.704C635.003 431.536 634.631 431.272 634.319 430.912C634.019 430.54 633.869 430.042 633.869 429.418C633.869 428.59 634.175 427.924 634.787 427.42C635.399 426.904 636.233 426.646 637.289 426.646ZM472.618 456.61C473.77 456.61 474.694 456.982 475.39 457.726C476.098 458.458 476.452 459.52 476.452 460.912V466.654H474.814V461.056C474.814 460.084 474.574 459.34 474.094 458.824C473.626 458.308 472.978 458.05 472.15 458.05C471.286 458.05 470.59 458.338 470.062 458.914C469.546 459.478 469.288 460.312 469.288 461.416V466.654H467.65V461.056C467.65 460.084 467.41 459.34 466.93 458.824C466.45 458.308 465.802 458.05 464.986 458.05C464.11 458.05 463.408 458.338 462.88 458.914C462.364 459.478 462.106 460.312 462.106 461.416V466.654H460.468V456.772H462.106V459.022C462.346 458.242 462.772 457.648 463.384 457.24C464.008 456.82 464.722 456.61 465.526 456.61C466.366 456.61 467.092 456.826 467.704 457.258C468.328 457.678 468.772 458.302 469.036 459.13C469.312 458.326 469.774 457.708 470.422 457.276C471.07 456.832 471.802 456.61 472.618 456.61ZM478.708 453.874C478.708 453.574 478.81 453.334 479.014 453.154C479.218 452.962 479.488 452.866 479.824 452.866C480.16 452.866 480.43 452.962 480.634 453.154C480.838 453.334 480.94 453.574 480.94 453.874C480.94 454.174 480.838 454.42 480.634 454.612C480.43 454.792 480.16 454.882 479.824 454.882C479.488 454.882 479.218 454.792 479.014 454.612C478.81 454.42 478.708 454.174 478.708 453.874ZM480.634 456.772V466.654H478.996V456.772H480.634ZM488.469 456.61C489.621 456.61 490.551 456.982 491.259 457.726C491.967 458.458 492.321 459.52 492.321 460.912V466.654H490.683V461.056C490.683 460.072 490.431 459.316 489.927 458.788C489.423 458.26 488.739 457.996 487.875 457.996C486.975 457.996 486.255 458.29 485.715 458.878C485.175 459.454 484.905 460.3 484.905 461.416V466.654H483.267V456.772H484.905V459.112C485.157 458.308 485.601 457.69 486.237 457.258C486.885 456.826 487.629 456.61 488.469 456.61ZM498.884 456.646C499.844 456.646 500.654 456.886 501.314 457.366C501.986 457.846 502.454 458.488 502.718 459.292V453.334H504.356V466.654H502.718V464.134C502.454 464.938 501.986 465.58 501.314 466.06C500.654 466.54 499.844 466.78 498.884 466.78C498.008 466.78 497.228 466.576 496.544 466.168C495.86 465.76 495.32 465.178 494.924 464.422C494.54 463.654 494.348 462.754 494.348 461.722C494.348 460.69 494.54 459.79 494.924 459.022C495.32 458.254 495.86 457.666 496.544 457.258C497.228 456.85 498.008 456.646 498.884 456.646ZM499.352 458.104C498.344 458.104 497.534 458.428 496.922 459.076C496.322 459.712 496.022 460.594 496.022 461.722C496.022 462.85 496.322 463.738 496.922 464.386C497.534 465.022 498.344 465.34 499.352 465.34C500 465.34 500.576 465.19 501.08 464.89C501.596 464.59 501.998 464.17 502.286 463.63C502.574 463.078 502.718 462.442 502.718 461.722C502.718 461.002 502.574 460.366 502.286 459.814C501.998 459.262 501.596 458.842 501.08 458.554C500.576 458.254 500 458.104 499.352 458.104ZM510.058 456.646C511.174 456.646 512.068 456.94 512.74 457.528C513.424 458.104 513.838 458.884 513.982 459.868H512.416C512.344 459.28 512.098 458.8 511.678 458.428C511.27 458.044 510.718 457.852 510.022 457.852C509.434 457.852 508.972 457.996 508.636 458.284C508.312 458.56 508.15 458.938 508.15 459.418C508.15 459.778 508.258 460.072 508.474 460.3C508.702 460.516 508.978 460.684 509.302 460.804C509.638 460.912 510.094 461.032 510.67 461.164C511.402 461.332 511.99 461.506 512.434 461.686C512.89 461.854 513.274 462.13 513.586 462.514C513.91 462.898 514.072 463.414 514.072 464.062C514.072 464.866 513.766 465.52 513.154 466.024C512.554 466.528 511.75 466.78 510.742 466.78C509.566 466.78 508.606 466.498 507.862 465.934C507.118 465.37 506.68 464.584 506.548 463.576H508.132C508.192 464.176 508.45 464.662 508.906 465.034C509.374 465.406 509.986 465.592 510.742 465.592C511.306 465.592 511.744 465.448 512.056 465.16C512.38 464.872 512.542 464.494 512.542 464.026C512.542 463.642 512.428 463.336 512.2 463.108C511.972 462.88 511.69 462.706 511.354 462.586C511.018 462.466 510.556 462.34 509.968 462.208C509.236 462.04 508.648 461.872 508.204 461.704C507.772 461.536 507.4 461.272 507.088 460.912C506.788 460.54 506.638 460.042 506.638 459.418C506.638 458.59 506.944 457.924 507.556 457.42C508.168 456.904 509.002 456.646 510.058 456.646ZM525.425 465.214V466.654H524.201C523.193 466.654 522.437 466.414 521.933 465.934C521.441 465.454 521.195 464.65 521.195 463.522V458.194H519.719V456.772H521.195V454.306H522.851V456.772H525.407V458.194H522.851V463.558C522.851 464.194 522.965 464.632 523.193 464.872C523.433 465.1 523.841 465.214 524.417 465.214H525.425ZM531.905 456.646C532.853 456.646 533.699 456.85 534.443 457.258C535.199 457.666 535.787 458.254 536.207 459.022C536.639 459.79 536.855 460.69 536.855 461.722C536.855 462.754 536.639 463.654 536.207 464.422C535.787 465.178 535.199 465.76 534.443 466.168C533.699 466.576 532.853 466.78 531.905 466.78C530.957 466.78 530.105 466.576 529.349 466.168C528.605 465.76 528.017 465.178 527.585 464.422C527.153 463.654 526.937 462.754 526.937 461.722C526.937 460.69 527.153 459.79 527.585 459.022C528.017 458.254 528.605 457.666 529.349 457.258C530.105 456.85 530.957 456.646 531.905 456.646ZM531.905 458.086C531.317 458.086 530.771 458.218 530.267 458.482C529.775 458.746 529.373 459.154 529.061 459.706C528.761 460.246 528.611 460.918 528.611 461.722C528.611 462.514 528.761 463.186 529.061 463.738C529.373 464.278 529.775 464.68 530.267 464.944C530.771 465.208 531.317 465.34 531.905 465.34C532.493 465.34 533.033 465.208 533.525 464.944C534.029 464.68 534.431 464.278 534.731 463.738C535.043 463.186 535.199 462.514 535.199 461.722C535.199 460.918 535.043 460.246 534.731 459.706C534.431 459.154 534.029 458.746 533.525 458.482C533.033 458.218 532.493 458.086 531.905 458.086ZM548.153 465.214V466.654H546.929C545.921 466.654 545.165 466.414 544.661 465.934C544.169 465.454 543.923 464.65 543.923 463.522V458.194H542.447V456.772H543.923V454.306H545.579V456.772H548.135V458.194H545.579V463.558C545.579 464.194 545.693 464.632 545.921 464.872C546.161 465.1 546.569 465.214 547.145 465.214H548.153ZM558.936 456.772V466.654H557.298V464.332C557.046 465.136 556.596 465.754 555.948 466.186C555.312 466.606 554.568 466.816 553.716 466.816C552.576 466.816 551.652 466.45 550.944 465.718C550.236 464.974 549.882 463.912 549.882 462.532V456.772H551.52V462.37C551.52 463.354 551.772 464.116 552.276 464.656C552.78 465.184 553.464 465.448 554.328 465.448C555.228 465.448 555.948 465.16 556.488 464.584C557.028 463.996 557.298 463.144 557.298 462.028V456.772H558.936ZM563.198 458.77C563.522 458.086 563.996 457.558 564.62 457.186C565.244 456.802 565.988 456.61 566.852 456.61V458.392H566.348C565.424 458.392 564.668 458.632 564.08 459.112C563.492 459.58 563.198 460.36 563.198 461.452V466.654H561.56V456.772H563.198V458.77ZM573.67 456.61C574.822 456.61 575.752 456.982 576.46 457.726C577.168 458.458 577.522 459.52 577.522 460.912V466.654H575.884V461.056C575.884 460.072 575.632 459.316 575.128 458.788C574.624 458.26 573.94 457.996 573.076 457.996C572.176 457.996 571.456 458.29 570.916 458.878C570.376 459.454 570.106 460.3 570.106 461.416V466.654H568.468V456.772H570.106V459.112C570.358 458.308 570.802 457.69 571.438 457.258C572.086 456.826 572.83 456.61 573.67 456.61ZM584.194 453.874C584.194 453.574 584.296 453.334 584.5 453.154C584.704 452.962 584.974 452.866 585.31 452.866C585.646 452.866 585.916 452.962 586.12 453.154C586.324 453.334 586.426 453.574 586.426 453.874C586.426 454.174 586.324 454.42 586.12 454.612C585.916 454.792 585.646 454.882 585.31 454.882C584.974 454.882 584.704 454.792 584.5 454.612C584.296 454.42 584.194 454.174 584.194 453.874ZM586.12 456.772V466.654H584.482V456.772H586.12ZM592.803 456.646C593.763 456.646 594.573 456.886 595.233 457.366C595.905 457.846 596.373 458.488 596.637 459.292V453.334H598.275V466.654H596.637V464.134C596.373 464.938 595.905 465.58 595.233 466.06C594.573 466.54 593.763 466.78 592.803 466.78C591.927 466.78 591.147 466.576 590.463 466.168C589.779 465.76 589.239 465.178 588.843 464.422C588.459 463.654 588.267 462.754 588.267 461.722C588.267 460.69 588.459 459.79 588.843 459.022C589.239 458.254 589.779 457.666 590.463 457.258C591.147 456.85 591.927 456.646 592.803 456.646ZM593.271 458.104C592.263 458.104 591.453 458.428 590.841 459.076C590.241 459.712 589.941 460.594 589.941 461.722C589.941 462.85 590.241 463.738 590.841 464.386C591.453 465.022 592.263 465.34 593.271 465.34C593.919 465.34 594.495 465.19 594.999 464.89C595.515 464.59 595.917 464.17 596.205 463.63C596.493 463.078 596.637 462.442 596.637 461.722C596.637 461.002 596.493 460.366 596.205 459.814C595.917 459.262 595.515 458.842 594.999 458.554C594.495 458.254 593.919 458.104 593.271 458.104ZM609.972 461.164C609.972 461.512 609.948 461.812 609.9 462.064H601.998C602.034 463.192 602.352 464.038 602.952 464.602C603.564 465.166 604.308 465.448 605.184 465.448C605.976 465.448 606.636 465.25 607.164 464.854C607.704 464.446 608.034 463.906 608.154 463.234H609.9C609.78 463.918 609.51 464.53 609.09 465.07C608.682 465.61 608.148 466.03 607.488 466.33C606.828 466.63 606.084 466.78 605.256 466.78C604.308 466.78 603.468 466.576 602.736 466.168C602.004 465.76 601.428 465.178 601.008 464.422C600.6 463.654 600.396 462.754 600.396 461.722C600.396 460.69 600.6 459.79 601.008 459.022C601.428 458.254 602.004 457.666 602.736 457.258C603.468 456.85 604.308 456.646 605.256 456.646C606.216 456.646 607.05 456.85 607.758 457.258C608.478 457.666 609.024 458.212 609.396 458.896C609.78 459.58 609.972 460.336 609.972 461.164ZM608.316 461.272C608.352 460.54 608.232 459.928 607.956 459.436C607.68 458.944 607.302 458.578 606.822 458.338C606.342 458.098 605.82 457.978 605.256 457.978C604.356 457.978 603.6 458.26 602.988 458.824C602.376 459.376 602.046 460.192 601.998 461.272H608.316ZM616.165 456.646C617.125 456.646 617.935 456.886 618.595 457.366C619.267 457.846 619.735 458.488 619.999 459.292V456.772H621.637V466.654H619.999V464.134C619.735 464.938 619.267 465.58 618.595 466.06C617.935 466.54 617.125 466.78 616.165 466.78C615.289 466.78 614.509 466.576 613.825 466.168C613.141 465.76 612.601 465.178 612.205 464.422C611.821 463.654 611.629 462.754 611.629 461.722C611.629 460.69 611.821 459.79 612.205 459.022C612.601 458.254 613.141 457.666 613.825 457.258C614.509 456.85 615.289 456.646 616.165 456.646ZM616.633 458.104C615.625 458.104 614.815 458.428 614.203 459.076C613.603 459.712 613.303 460.594 613.303 461.722C613.303 462.85 613.603 463.738 614.203 464.386C614.815 465.022 615.625 465.34 616.633 465.34C617.281 465.34 617.857 465.19 618.361 464.89C618.877 464.59 619.279 464.17 619.567 463.63C619.855 463.078 619.999 462.442 619.999 461.722C619.999 461.002 619.855 460.366 619.567 459.814C619.279 459.262 618.877 458.842 618.361 458.554C617.857 458.254 617.281 458.104 616.633 458.104ZM627.34 456.646C628.456 456.646 629.35 456.94 630.022 457.528C630.706 458.104 631.12 458.884 631.264 459.868H629.698C629.626 459.28 629.38 458.8 628.96 458.428C628.552 458.044 628 457.852 627.304 457.852C626.716 457.852 626.254 457.996 625.918 458.284C625.594 458.56 625.432 458.938 625.432 459.418C625.432 459.778 625.54 460.072 625.756 460.3C625.984 460.516 626.26 460.684 626.584 460.804C626.92 460.912 627.376 461.032 627.952 461.164C628.684 461.332 629.272 461.506 629.716 461.686C630.172 461.854 630.556 462.13 630.868 462.514C631.192 462.898 631.354 463.414 631.354 464.062C631.354 464.866 631.048 465.52 630.436 466.024C629.836 466.528 629.032 466.78 628.024 466.78C626.848 466.78 625.888 466.498 625.144 465.934C624.4 465.37 623.962 464.584 623.83 463.576H625.414C625.474 464.176 625.732 464.662 626.188 465.034C626.656 465.406 627.268 465.592 628.024 465.592C628.588 465.592 629.026 465.448 629.338 465.16C629.662 464.872 629.824 464.494 629.824 464.026C629.824 463.642 629.71 463.336 629.482 463.108C629.254 462.88 628.972 462.706 628.636 462.586C628.3 462.466 627.838 462.34 627.25 462.208C626.518 462.04 625.93 461.872 625.486 461.704C625.054 461.536 624.682 461.272 624.37 460.912C624.07 460.54 623.92 460.042 623.92 459.418C623.92 458.59 624.226 457.924 624.838 457.42C625.45 456.904 626.284 456.646 627.34 456.646ZM637.702 453.874C637.702 453.574 637.804 453.334 638.008 453.154C638.212 452.962 638.482 452.866 638.818 452.866C639.154 452.866 639.424 452.962 639.628 453.154C639.832 453.334 639.934 453.574 639.934 453.874C639.934 454.174 639.832 454.42 639.628 454.612C639.424 454.792 639.154 454.882 638.818 454.882C638.482 454.882 638.212 454.792 638.008 454.612C637.804 454.42 637.702 454.174 637.702 453.874ZM639.628 456.772V466.654H637.99V456.772H639.628ZM647.463 456.61C648.615 456.61 649.545 456.982 650.253 457.726C650.961 458.458 651.315 459.52 651.315 460.912V466.654H649.677V461.056C649.677 460.072 649.425 459.316 648.921 458.788C648.417 458.26 647.733 457.996 646.869 457.996C645.969 457.996 645.249 458.29 644.709 458.878C644.169 459.454 643.899 460.3 643.899 461.416V466.654H642.261V456.772H643.899V459.112C644.151 458.308 644.595 457.69 645.231 457.258C645.879 456.826 646.623 456.61 647.463 456.61ZM658.544 465.214V466.654H657.32C656.312 466.654 655.556 466.414 655.052 465.934C654.56 465.454 654.314 464.65 654.314 463.522V458.194H652.838V456.772H654.314V454.306H655.97V456.772H658.526V458.194H655.97V463.558C655.97 464.194 656.084 464.632 656.312 464.872C656.552 465.1 656.96 465.214 657.536 465.214H658.544ZM665.025 456.646C665.973 456.646 666.819 456.85 667.563 457.258C668.319 457.666 668.907 458.254 669.327 459.022C669.759 459.79 669.975 460.69 669.975 461.722C669.975 462.754 669.759 463.654 669.327 464.422C668.907 465.178 668.319 465.76 667.563 466.168C666.819 466.576 665.973 466.78 665.025 466.78C664.077 466.78 663.225 466.576 662.469 466.168C661.725 465.76 661.137 465.178 660.705 464.422C660.273 463.654 660.057 462.754 660.057 461.722C660.057 460.69 660.273 459.79 660.705 459.022C661.137 458.254 661.725 457.666 662.469 457.258C663.225 456.85 664.077 456.646 665.025 456.646ZM665.025 458.086C664.437 458.086 663.891 458.218 663.387 458.482C662.895 458.746 662.493 459.154 662.181 459.706C661.881 460.246 661.731 460.918 661.731 461.722C661.731 462.514 661.881 463.186 662.181 463.738C662.493 464.278 662.895 464.68 663.387 464.944C663.891 465.208 664.437 465.34 665.025 465.34C665.613 465.34 666.153 465.208 666.645 464.944C667.149 464.68 667.551 464.278 667.851 463.738C668.163 463.186 668.319 462.514 668.319 461.722C668.319 460.918 668.163 460.246 667.851 459.706C667.551 459.154 667.149 458.746 666.645 458.482C666.153 458.218 665.613 458.086 665.025 458.086ZM462.106 488.77C462.43 488.086 462.904 487.558 463.528 487.186C464.152 486.802 464.896 486.61 465.76 486.61V488.392H465.256C464.332 488.392 463.576 488.632 462.988 489.112C462.4 489.58 462.106 490.36 462.106 491.452V496.654H460.468V486.772H462.106V488.77ZM476.467 491.164C476.467 491.512 476.443 491.812 476.395 492.064H468.493C468.529 493.192 468.847 494.038 469.447 494.602C470.059 495.166 470.803 495.448 471.679 495.448C472.471 495.448 473.131 495.25 473.659 494.854C474.199 494.446 474.529 493.906 474.649 493.234H476.395C476.275 493.918 476.005 494.53 475.585 495.07C475.177 495.61 474.643 496.03 473.983 496.33C473.323 496.63 472.579 496.78 471.751 496.78C470.803 496.78 469.963 496.576 469.231 496.168C468.499 495.76 467.923 495.178 467.503 494.422C467.095 493.654 466.891 492.754 466.891 491.722C466.891 490.69 467.095 489.79 467.503 489.022C467.923 488.254 468.499 487.666 469.231 487.258C469.963 486.85 470.803 486.646 471.751 486.646C472.711 486.646 473.545 486.85 474.253 487.258C474.973 487.666 475.519 488.212 475.891 488.896C476.275 489.58 476.467 490.336 476.467 491.164ZM474.811 491.272C474.847 490.54 474.727 489.928 474.451 489.436C474.175 488.944 473.797 488.578 473.317 488.338C472.837 488.098 472.315 487.978 471.751 487.978C470.851 487.978 470.095 488.26 469.483 488.824C468.871 489.376 468.541 490.192 468.493 491.272H474.811ZM482.659 486.646C483.619 486.646 484.429 486.886 485.089 487.366C485.761 487.846 486.229 488.488 486.493 489.292V486.772H488.131V496.654H486.493V494.134C486.229 494.938 485.761 495.58 485.089 496.06C484.429 496.54 483.619 496.78 482.659 496.78C481.783 496.78 481.003 496.576 480.319 496.168C479.635 495.76 479.095 495.178 478.699 494.422C478.315 493.654 478.123 492.754 478.123 491.722C478.123 490.69 478.315 489.79 478.699 489.022C479.095 488.254 479.635 487.666 480.319 487.258C481.003 486.85 481.783 486.646 482.659 486.646ZM483.127 488.104C482.119 488.104 481.309 488.428 480.697 489.076C480.097 489.712 479.797 490.594 479.797 491.722C479.797 492.85 480.097 493.738 480.697 494.386C481.309 495.022 482.119 495.34 483.127 495.34C483.775 495.34 484.351 495.19 484.855 494.89C485.371 494.59 485.773 494.17 486.061 493.63C486.349 493.078 486.493 492.442 486.493 491.722C486.493 491.002 486.349 490.366 486.061 489.814C485.773 489.262 485.371 488.842 484.855 488.554C484.351 488.254 483.775 488.104 483.127 488.104ZM492.376 483.334V496.654H490.738V483.334H492.376ZM500.625 489.364V490.75H493.425V489.364H500.625ZM517.423 486.772L514.579 496.654H512.815L510.097 488.608L507.361 496.654H505.579L502.771 486.772H504.427L506.533 495.088L509.269 486.772H510.979L513.733 495.07L515.857 486.772H517.423ZM523.433 486.646C524.381 486.646 525.227 486.85 525.971 487.258C526.727 487.666 527.315 488.254 527.735 489.022C528.167 489.79 528.383 490.69 528.383 491.722C528.383 492.754 528.167 493.654 527.735 494.422C527.315 495.178 526.727 495.76 525.971 496.168C525.227 496.576 524.381 496.78 523.433 496.78C522.485 496.78 521.633 496.576 520.877 496.168C520.133 495.76 519.545 495.178 519.113 494.422C518.681 493.654 518.465 492.754 518.465 491.722C518.465 490.69 518.681 489.79 519.113 489.022C519.545 488.254 520.133 487.666 520.877 487.258C521.633 486.85 522.485 486.646 523.433 486.646ZM523.433 488.086C522.845 488.086 522.299 488.218 521.795 488.482C521.303 488.746 520.901 489.154 520.589 489.706C520.289 490.246 520.139 490.918 520.139 491.722C520.139 492.514 520.289 493.186 520.589 493.738C520.901 494.278 521.303 494.68 521.795 494.944C522.299 495.208 522.845 495.34 523.433 495.34C524.021 495.34 524.561 495.208 525.053 494.944C525.557 494.68 525.959 494.278 526.259 493.738C526.571 493.186 526.727 492.514 526.727 491.722C526.727 490.918 526.571 490.246 526.259 489.706C525.959 489.154 525.557 488.746 525.053 488.482C524.561 488.218 524.021 488.086 523.433 488.086ZM532.155 488.77C532.479 488.086 532.953 487.558 533.577 487.186C534.201 486.802 534.945 486.61 535.809 486.61V488.392H535.305C534.381 488.392 533.625 488.632 533.037 489.112C532.449 489.58 532.155 490.36 532.155 491.452V496.654H530.517V486.772H532.155V488.77ZM539.063 483.334V496.654H537.425V483.334H539.063ZM545.747 486.646C546.707 486.646 547.517 486.886 548.177 487.366C548.849 487.846 549.317 488.488 549.581 489.292V483.334H551.219V496.654H549.581V494.134C549.317 494.938 548.849 495.58 548.177 496.06C547.517 496.54 546.707 496.78 545.747 496.78C544.871 496.78 544.091 496.576 543.407 496.168C542.723 495.76 542.183 495.178 541.787 494.422C541.403 493.654 541.211 492.754 541.211 491.722C541.211 490.69 541.403 489.79 541.787 489.022C542.183 488.254 542.723 487.666 543.407 487.258C544.091 486.85 544.871 486.646 545.747 486.646ZM546.215 488.104C545.207 488.104 544.397 488.428 543.785 489.076C543.185 489.712 542.885 490.594 542.885 491.722C542.885 492.85 543.185 493.738 543.785 494.386C544.397 495.022 545.207 495.34 546.215 495.34C546.863 495.34 547.439 495.19 547.943 494.89C548.459 494.59 548.861 494.17 549.149 493.63C549.437 493.078 549.581 492.442 549.581 491.722C549.581 491.002 549.437 490.366 549.149 489.814C548.861 489.262 548.459 488.842 547.943 488.554C547.439 488.254 546.863 488.104 546.215 488.104ZM561.369 486.646C562.485 486.646 563.379 486.94 564.051 487.528C564.735 488.104 565.149 488.884 565.293 489.868H563.727C563.655 489.28 563.409 488.8 562.989 488.428C562.581 488.044 562.029 487.852 561.333 487.852C560.745 487.852 560.283 487.996 559.947 488.284C559.623 488.56 559.461 488.938 559.461 489.418C559.461 489.778 559.569 490.072 559.785 490.3C560.013 490.516 560.289 490.684 560.613 490.804C560.949 490.912 561.405 491.032 561.981 491.164C562.713 491.332 563.301 491.506 563.745 491.686C564.201 491.854 564.585 492.13 564.897 492.514C565.221 492.898 565.383 493.414 565.383 494.062C565.383 494.866 565.077 495.52 564.465 496.024C563.865 496.528 563.061 496.78 562.053 496.78C560.877 496.78 559.917 496.498 559.173 495.934C558.429 495.37 557.991 494.584 557.859 493.576H559.443C559.503 494.176 559.761 494.662 560.217 495.034C560.685 495.406 561.297 495.592 562.053 495.592C562.617 495.592 563.055 495.448 563.367 495.16C563.691 494.872 563.853 494.494 563.853 494.026C563.853 493.642 563.739 493.336 563.511 493.108C563.283 492.88 563.001 492.706 562.665 492.586C562.329 492.466 561.867 492.34 561.279 492.208C560.547 492.04 559.959 491.872 559.515 491.704C559.083 491.536 558.711 491.272 558.399 490.912C558.099 490.54 557.949 490.042 557.949 489.418C557.949 488.59 558.255 487.924 558.867 487.42C559.479 486.904 560.313 486.646 561.369 486.646ZM572.99 496.654L569.21 492.208V496.654H567.572V483.334H569.21V491.074L572.936 486.772H574.934L570.506 491.686L575.042 496.654H572.99ZM576.196 483.874C576.196 483.574 576.298 483.334 576.502 483.154C576.706 482.962 576.976 482.866 577.312 482.866C577.648 482.866 577.918 482.962 578.122 483.154C578.326 483.334 578.428 483.574 578.428 483.874C578.428 484.174 578.326 484.42 578.122 484.612C577.918 484.792 577.648 484.882 577.312 484.882C576.976 484.882 576.706 484.792 576.502 484.612C576.298 484.42 576.196 484.174 576.196 483.874ZM578.122 486.772V496.654H576.484V486.772H578.122ZM582.393 483.334V496.654H580.755V483.334H582.393ZM586.665 483.334V496.654H585.027V483.334H586.665ZM592.394 486.646C593.51 486.646 594.404 486.94 595.076 487.528C595.76 488.104 596.174 488.884 596.318 489.868H594.752C594.68 489.28 594.434 488.8 594.014 488.428C593.606 488.044 593.054 487.852 592.358 487.852C591.77 487.852 591.308 487.996 590.972 488.284C590.648 488.56 590.486 488.938 590.486 489.418C590.486 489.778 590.594 490.072 590.81 490.3C591.038 490.516 591.314 490.684 591.638 490.804C591.974 490.912 592.43 491.032 593.006 491.164C593.738 491.332 594.326 491.506 594.77 491.686C595.226 491.854 595.61 492.13 595.922 492.514C596.246 492.898 596.408 493.414 596.408 494.062C596.408 494.866 596.102 495.52 595.49 496.024C594.89 496.528 594.086 496.78 593.078 496.78C591.902 496.78 590.942 496.498 590.198 495.934C589.454 495.37 589.016 494.584 588.884 493.576H590.468C590.528 494.176 590.786 494.662 591.242 495.034C591.71 495.406 592.322 495.592 593.078 495.592C593.642 495.592 594.08 495.448 594.392 495.16C594.716 494.872 594.878 494.494 594.878 494.026C594.878 493.642 594.764 493.336 594.536 493.108C594.308 492.88 594.026 492.706 593.69 492.586C593.354 492.466 592.892 492.34 592.304 492.208C591.572 492.04 590.984 491.872 590.54 491.704C590.108 491.536 589.736 491.272 589.424 490.912C589.124 490.54 588.974 490.042 588.974 489.418C588.974 488.59 589.28 487.924 589.892 487.42C590.504 486.904 591.338 486.646 592.394 486.646ZM599.551 495.448C599.719 495.976 599.803 496.468 599.803 496.924C599.803 497.548 599.647 498.046 599.335 498.418C599.023 498.802 598.555 498.994 597.931 498.994V498.292C598.231 498.292 598.447 498.208 598.579 498.04C598.723 497.884 598.795 497.632 598.795 497.284V497.122H597.877V495.448H599.551ZM611.645 486.646C612.521 486.646 613.301 486.85 613.985 487.258C614.669 487.666 615.203 488.254 615.587 489.022C615.983 489.79 616.181 490.69 616.181 491.722C616.181 492.754 615.983 493.654 615.587 494.422C615.203 495.178 614.669 495.76 613.985 496.168C613.301 496.576 612.521 496.78 611.645 496.78C610.685 496.78 609.869 496.54 609.197 496.06C608.537 495.568 608.081 494.926 607.829 494.134V496.654H606.191V483.334H607.829V489.292C608.081 488.5 608.537 487.864 609.197 487.384C609.869 486.892 610.685 486.646 611.645 486.646ZM611.177 488.104C610.541 488.104 609.965 488.254 609.449 488.554C608.933 488.842 608.531 489.262 608.243 489.814C607.955 490.366 607.811 491.002 607.811 491.722C607.811 492.442 607.955 493.078 608.243 493.63C608.531 494.17 608.933 494.59 609.449 494.89C609.965 495.19 610.541 495.34 611.177 495.34C612.197 495.34 613.007 495.022 613.607 494.386C614.219 493.738 614.525 492.85 614.525 491.722C614.525 490.594 614.219 489.712 613.607 489.076C613.007 488.428 612.197 488.104 611.177 488.104ZM627.104 486.772V496.654H625.466V494.332C625.214 495.136 624.764 495.754 624.116 496.186C623.48 496.606 622.736 496.816 621.884 496.816C620.744 496.816 619.82 496.45 619.112 495.718C618.404 494.974 618.05 493.912 618.05 492.532V486.772H619.688V492.37C619.688 493.354 619.94 494.116 620.444 494.656C620.948 495.184 621.632 495.448 622.496 495.448C623.396 495.448 624.116 495.16 624.656 494.584C625.196 493.996 625.466 493.144 625.466 492.028V486.772H627.104ZM629.44 483.874C629.44 483.574 629.542 483.334 629.746 483.154C629.95 482.962 630.22 482.866 630.556 482.866C630.892 482.866 631.162 482.962 631.366 483.154C631.57 483.334 631.672 483.574 631.672 483.874C631.672 484.174 631.57 484.42 631.366 484.612C631.162 484.792 630.892 484.882 630.556 484.882C630.22 484.882 629.95 484.792 629.746 484.612C629.542 484.42 629.44 484.174 629.44 483.874ZM631.366 486.772V496.654H629.728V486.772H631.366ZM635.638 483.334V496.654H634V483.334H635.638ZM642.321 486.646C643.281 486.646 644.091 486.886 644.751 487.366C645.423 487.846 645.891 488.488 646.155 489.292V483.334H647.793V496.654H646.155V494.134C645.891 494.938 645.423 495.58 644.751 496.06C644.091 496.54 643.281 496.78 642.321 496.78C641.445 496.78 640.665 496.576 639.981 496.168C639.297 495.76 638.757 495.178 638.361 494.422C637.977 493.654 637.785 492.754 637.785 491.722C637.785 490.69 637.977 489.79 638.361 489.022C638.757 488.254 639.297 487.666 639.981 487.258C640.665 486.85 641.445 486.646 642.321 486.646ZM642.789 488.104C641.781 488.104 640.971 488.428 640.359 489.076C639.759 489.712 639.459 490.594 639.459 491.722C639.459 492.85 639.759 493.738 640.359 494.386C640.971 495.022 641.781 495.34 642.789 495.34C643.437 495.34 644.013 495.19 644.517 494.89C645.033 494.59 645.435 494.17 645.723 493.63C646.011 493.078 646.155 492.442 646.155 491.722C646.155 491.002 646.011 490.366 645.723 489.814C645.435 489.262 645.033 488.842 644.517 488.554C644.013 488.254 643.437 488.104 642.789 488.104ZM650.112 483.874C650.112 483.574 650.214 483.334 650.418 483.154C650.622 482.962 650.892 482.866 651.228 482.866C651.564 482.866 651.834 482.962 652.038 483.154C652.242 483.334 652.344 483.574 652.344 483.874C652.344 484.174 652.242 484.42 652.038 484.612C651.834 484.792 651.564 484.882 651.228 484.882C650.892 484.882 650.622 484.792 650.418 484.612C650.214 484.42 650.112 484.174 650.112 483.874ZM652.038 486.772V496.654H650.4V486.772H652.038ZM659.873 486.61C661.025 486.61 661.955 486.982 662.663 487.726C663.371 488.458 663.725 489.52 663.725 490.912V496.654H662.087V491.056C662.087 490.072 661.835 489.316 661.331 488.788C660.827 488.26 660.143 487.996 659.279 487.996C658.379 487.996 657.659 488.29 657.119 488.878C656.579 489.454 656.309 490.3 656.309 491.416V496.654H654.671V486.772H656.309V489.112C656.561 488.308 657.005 487.69 657.641 487.258C658.289 486.826 659.033 486.61 659.873 486.61ZM670.288 486.646C671.248 486.646 672.058 486.886 672.718 487.366C673.39 487.846 673.858 488.488 674.122 489.292V486.772H675.76V496.816C675.76 497.728 675.568 498.538 675.184 499.246C674.8 499.954 674.26 500.506 673.564 500.902C672.868 501.298 672.058 501.496 671.134 501.496C669.802 501.496 668.716 501.172 667.876 500.524C667.036 499.888 666.502 499.024 666.274 497.932H667.894C668.086 498.592 668.446 499.108 668.974 499.48C669.514 499.864 670.204 500.056 671.044 500.056C671.932 500.056 672.664 499.768 673.24 499.192C673.828 498.628 674.122 497.836 674.122 496.816V494.134C673.858 494.938 673.39 495.58 672.718 496.06C672.058 496.54 671.248 496.78 670.288 496.78C669.412 496.78 668.632 496.576 667.948 496.168C667.264 495.76 666.724 495.178 666.328 494.422C665.944 493.654 665.752 492.754 665.752 491.722C665.752 490.69 665.944 489.79 666.328 489.022C666.724 488.254 667.264 487.666 667.948 487.258C668.632 486.85 669.412 486.646 670.288 486.646ZM670.756 488.104C669.748 488.104 668.938 488.428 668.326 489.076C667.726 489.712 667.426 490.594 667.426 491.722C667.426 492.85 667.726 493.738 668.326 494.386C668.938 495.022 669.748 495.34 670.756 495.34C671.404 495.34 671.98 495.19 672.484 494.89C673 494.59 673.402 494.17 673.69 493.63C673.978 493.078 674.122 492.442 674.122 491.722C674.122 491.002 673.978 490.366 673.69 489.814C673.402 489.262 673 488.842 672.484 488.554C671.98 488.254 671.404 488.104 670.756 488.104ZM465.184 525.214V526.654H463.96C462.952 526.654 462.196 526.414 461.692 525.934C461.2 525.454 460.954 524.65 460.954 523.522V518.194H459.478V516.772H460.954V514.306H462.61V516.772H465.166V518.194H462.61V523.558C462.61 524.194 462.724 524.632 462.952 524.872C463.192 525.1 463.6 525.214 464.176 525.214H465.184ZM472.385 516.61C473.537 516.61 474.467 516.982 475.175 517.726C475.883 518.458 476.237 519.52 476.237 520.912V526.654H474.599V521.056C474.599 520.072 474.347 519.316 473.843 518.788C473.339 518.26 472.655 517.996 471.791 517.996C470.891 517.996 470.171 518.29 469.631 518.878C469.091 519.454 468.821 520.3 468.821 521.416V526.654H467.183V513.334H468.821V519.112C469.073 518.308 469.517 517.69 470.153 517.258C470.801 516.826 471.545 516.61 472.385 516.61ZM487.84 521.164C487.84 521.512 487.816 521.812 487.768 522.064H479.866C479.902 523.192 480.22 524.038 480.82 524.602C481.432 525.166 482.176 525.448 483.052 525.448C483.844 525.448 484.504 525.25 485.032 524.854C485.572 524.446 485.902 523.906 486.022 523.234H487.768C487.648 523.918 487.378 524.53 486.958 525.07C486.55 525.61 486.016 526.03 485.356 526.33C484.696 526.63 483.952 526.78 483.124 526.78C482.176 526.78 481.336 526.576 480.604 526.168C479.872 525.76 479.296 525.178 478.876 524.422C478.468 523.654 478.264 522.754 478.264 521.722C478.264 520.69 478.468 519.79 478.876 519.022C479.296 518.254 479.872 517.666 480.604 517.258C481.336 516.85 482.176 516.646 483.124 516.646C484.084 516.646 484.918 516.85 485.626 517.258C486.346 517.666 486.892 518.212 487.264 518.896C487.648 519.58 487.84 520.336 487.84 521.164ZM486.184 521.272C486.22 520.54 486.1 519.928 485.824 519.436C485.548 518.944 485.17 518.578 484.69 518.338C484.21 518.098 483.688 517.978 483.124 517.978C482.224 517.978 481.468 518.26 480.856 518.824C480.244 519.376 479.914 520.192 479.866 521.272H486.184ZM498.803 516.646C500.063 516.646 501.107 516.982 501.935 517.654C502.763 518.326 503.273 519.226 503.465 520.354H501.737C501.617 519.646 501.287 519.094 500.747 518.698C500.219 518.29 499.559 518.086 498.767 518.086C498.191 518.086 497.663 518.218 497.183 518.482C496.715 518.746 496.337 519.154 496.049 519.706C495.761 520.246 495.617 520.918 495.617 521.722C495.617 522.526 495.761 523.204 496.049 523.756C496.337 524.296 496.715 524.698 497.183 524.962C497.663 525.226 498.191 525.358 498.767 525.358C499.559 525.358 500.219 525.154 500.747 524.746C501.287 524.338 501.617 523.78 501.737 523.072H503.465C503.273 524.212 502.763 525.118 501.935 525.79C501.107 526.45 500.063 526.78 498.803 526.78C497.855 526.78 497.015 526.576 496.283 526.168C495.551 525.76 494.975 525.178 494.555 524.422C494.147 523.654 493.943 522.754 493.943 521.722C493.943 520.69 494.147 519.79 494.555 519.022C494.975 518.254 495.551 517.666 496.283 517.258C497.015 516.85 497.855 516.646 498.803 516.646ZM510.091 516.646C511.039 516.646 511.885 516.85 512.629 517.258C513.385 517.666 513.973 518.254 514.393 519.022C514.825 519.79 515.041 520.69 515.041 521.722C515.041 522.754 514.825 523.654 514.393 524.422C513.973 525.178 513.385 525.76 512.629 526.168C511.885 526.576 511.039 526.78 510.091 526.78C509.143 526.78 508.291 526.576 507.535 526.168C506.791 525.76 506.203 525.178 505.771 524.422C505.339 523.654 505.123 522.754 505.123 521.722C505.123 520.69 505.339 519.79 505.771 519.022C506.203 518.254 506.791 517.666 507.535 517.258C508.291 516.85 509.143 516.646 510.091 516.646ZM510.091 518.086C509.503 518.086 508.957 518.218 508.453 518.482C507.961 518.746 507.559 519.154 507.247 519.706C506.947 520.246 506.797 520.918 506.797 521.722C506.797 522.514 506.947 523.186 507.247 523.738C507.559 524.278 507.961 524.68 508.453 524.944C508.957 525.208 509.503 525.34 510.091 525.34C510.679 525.34 511.219 525.208 511.711 524.944C512.215 524.68 512.617 524.278 512.917 523.738C513.229 523.186 513.385 522.514 513.385 521.722C513.385 520.918 513.229 520.246 512.917 519.706C512.617 519.154 512.215 518.746 511.711 518.482C511.219 518.218 510.679 518.086 510.091 518.086ZM522.377 516.61C523.529 516.61 524.459 516.982 525.167 517.726C525.875 518.458 526.229 519.52 526.229 520.912V526.654H524.591V521.056C524.591 520.072 524.339 519.316 523.835 518.788C523.331 518.26 522.647 517.996 521.783 517.996C520.883 517.996 520.163 518.29 519.623 518.878C519.083 519.454 518.813 520.3 518.813 521.416V526.654H517.175V516.772H518.813V519.112C519.065 518.308 519.509 517.69 520.145 517.258C520.793 516.826 521.537 516.61 522.377 516.61ZM533.116 514.432C532.24 514.42 531.628 514.57 531.28 514.882C530.944 515.194 530.776 515.734 530.776 516.502V516.772H533.116V518.212H530.776V526.654H529.138V518.212H527.716V516.772H529.138V516.376C529.138 514.012 530.464 512.884 533.116 512.992V514.432ZM534.606 513.874C534.606 513.574 534.708 513.334 534.912 513.154C535.116 512.962 535.386 512.866 535.722 512.866C536.058 512.866 536.328 512.962 536.532 513.154C536.736 513.334 536.838 513.574 536.838 513.874C536.838 514.174 536.736 514.42 536.532 514.612C536.328 514.792 536.058 514.882 535.722 514.882C535.386 514.882 535.116 514.792 534.912 514.612C534.708 514.42 534.606 514.174 534.606 513.874ZM536.532 516.772V526.654H534.894V516.772H536.532ZM543.216 516.646C544.176 516.646 544.986 516.886 545.646 517.366C546.318 517.846 546.786 518.488 547.05 519.292V513.334H548.688V526.654H547.05V524.134C546.786 524.938 546.318 525.58 545.646 526.06C544.986 526.54 544.176 526.78 543.216 526.78C542.34 526.78 541.56 526.576 540.876 526.168C540.192 525.76 539.652 525.178 539.256 524.422C538.872 523.654 538.68 522.754 538.68 521.722C538.68 520.69 538.872 519.79 539.256 519.022C539.652 518.254 540.192 517.666 540.876 517.258C541.56 516.85 542.34 516.646 543.216 516.646ZM543.684 518.104C542.676 518.104 541.866 518.428 541.254 519.076C540.654 519.712 540.354 520.594 540.354 521.722C540.354 522.85 540.654 523.738 541.254 524.386C541.866 525.022 542.676 525.34 543.684 525.34C544.332 525.34 544.908 525.19 545.412 524.89C545.928 524.59 546.33 524.17 546.618 523.63C546.906 523.078 547.05 522.442 547.05 521.722C547.05 521.002 546.906 520.366 546.618 519.814C546.33 519.262 545.928 518.842 545.412 518.554C544.908 518.254 544.332 518.104 543.684 518.104ZM560.384 521.164C560.384 521.512 560.36 521.812 560.312 522.064H552.41C552.446 523.192 552.764 524.038 553.364 524.602C553.976 525.166 554.72 525.448 555.596 525.448C556.388 525.448 557.048 525.25 557.576 524.854C558.116 524.446 558.446 523.906 558.566 523.234H560.312C560.192 523.918 559.922 524.53 559.502 525.07C559.094 525.61 558.56 526.03 557.9 526.33C557.24 526.63 556.496 526.78 555.668 526.78C554.72 526.78 553.88 526.576 553.148 526.168C552.416 525.76 551.84 525.178 551.42 524.422C551.012 523.654 550.808 522.754 550.808 521.722C550.808 520.69 551.012 519.79 551.42 519.022C551.84 518.254 552.416 517.666 553.148 517.258C553.88 516.85 554.72 516.646 555.668 516.646C556.628 516.646 557.462 516.85 558.17 517.258C558.89 517.666 559.436 518.212 559.808 518.896C560.192 519.58 560.384 520.336 560.384 521.164ZM558.728 521.272C558.764 520.54 558.644 519.928 558.368 519.436C558.092 518.944 557.714 518.578 557.234 518.338C556.754 518.098 556.232 517.978 555.668 517.978C554.768 517.978 554.012 518.26 553.4 518.824C552.788 519.376 552.458 520.192 552.41 521.272H558.728ZM567.729 516.61C568.881 516.61 569.811 516.982 570.519 517.726C571.227 518.458 571.581 519.52 571.581 520.912V526.654H569.943V521.056C569.943 520.072 569.691 519.316 569.187 518.788C568.683 518.26 567.999 517.996 567.135 517.996C566.235 517.996 565.515 518.29 564.975 518.878C564.435 519.454 564.165 520.3 564.165 521.416V526.654H562.527V516.772H564.165V519.112C564.417 518.308 564.861 517.69 565.497 517.258C566.145 516.826 566.889 516.61 567.729 516.61ZM578.467 516.646C579.727 516.646 580.771 516.982 581.599 517.654C582.427 518.326 582.937 519.226 583.129 520.354H581.401C581.281 519.646 580.951 519.094 580.411 518.698C579.883 518.29 579.223 518.086 578.431 518.086C577.855 518.086 577.327 518.218 576.847 518.482C576.379 518.746 576.001 519.154 575.713 519.706C575.425 520.246 575.281 520.918 575.281 521.722C575.281 522.526 575.425 523.204 575.713 523.756C576.001 524.296 576.379 524.698 576.847 524.962C577.327 525.226 577.855 525.358 578.431 525.358C579.223 525.358 579.883 525.154 580.411 524.746C580.951 524.338 581.281 523.78 581.401 523.072H583.129C582.937 524.212 582.427 525.118 581.599 525.79C580.771 526.45 579.727 526.78 578.467 526.78C577.519 526.78 576.679 526.576 575.947 526.168C575.215 525.76 574.639 525.178 574.219 524.422C573.811 523.654 573.607 522.754 573.607 521.722C573.607 520.69 573.811 519.79 574.219 519.022C574.639 518.254 575.215 517.666 575.947 517.258C576.679 516.85 577.519 516.646 578.467 516.646ZM594.363 521.164C594.363 521.512 594.339 521.812 594.291 522.064H586.389C586.425 523.192 586.743 524.038 587.343 524.602C587.955 525.166 588.699 525.448 589.575 525.448C590.367 525.448 591.027 525.25 591.555 524.854C592.095 524.446 592.425 523.906 592.545 523.234H594.291C594.171 523.918 593.901 524.53 593.481 525.07C593.073 525.61 592.539 526.03 591.879 526.33C591.219 526.63 590.475 526.78 589.647 526.78C588.699 526.78 587.859 526.576 587.127 526.168C586.395 525.76 585.819 525.178 585.399 524.422C584.991 523.654 584.787 522.754 584.787 521.722C584.787 520.69 584.991 519.79 585.399 519.022C585.819 518.254 586.395 517.666 587.127 517.258C587.859 516.85 588.699 516.646 589.647 516.646C590.607 516.646 591.441 516.85 592.149 517.258C592.869 517.666 593.415 518.212 593.787 518.896C594.171 519.58 594.363 520.336 594.363 521.164ZM592.707 521.272C592.743 520.54 592.623 519.928 592.347 519.436C592.071 518.944 591.693 518.578 591.213 518.338C590.733 518.098 590.211 517.978 589.647 517.978C588.747 517.978 587.991 518.26 587.379 518.824C586.767 519.376 586.437 520.192 586.389 521.272H592.707ZM605.669 525.214V526.654H604.445C603.437 526.654 602.681 526.414 602.177 525.934C601.685 525.454 601.439 524.65 601.439 523.522V518.194H599.963V516.772H601.439V514.306H603.095V516.772H605.651V518.194H603.095V523.558C603.095 524.194 603.209 524.632 603.437 524.872C603.677 525.1 604.085 525.214 604.661 525.214H605.669ZM612.15 516.646C613.098 516.646 613.944 516.85 614.688 517.258C615.444 517.666 616.032 518.254 616.452 519.022C616.884 519.79 617.1 520.69 617.1 521.722C617.1 522.754 616.884 523.654 616.452 524.422C616.032 525.178 615.444 525.76 614.688 526.168C613.944 526.576 613.098 526.78 612.15 526.78C611.202 526.78 610.35 526.576 609.594 526.168C608.85 525.76 608.262 525.178 607.83 524.422C607.398 523.654 607.182 522.754 607.182 521.722C607.182 520.69 607.398 519.79 607.83 519.022C608.262 518.254 608.85 517.666 609.594 517.258C610.35 516.85 611.202 516.646 612.15 516.646ZM612.15 518.086C611.562 518.086 611.016 518.218 610.512 518.482C610.02 518.746 609.618 519.154 609.306 519.706C609.006 520.246 608.856 520.918 608.856 521.722C608.856 522.514 609.006 523.186 609.306 523.738C609.618 524.278 610.02 524.68 610.512 524.944C611.016 525.208 611.562 525.34 612.15 525.34C612.738 525.34 613.278 525.208 613.77 524.944C614.274 524.68 614.676 524.278 614.976 523.738C615.288 523.186 615.444 522.514 615.444 521.722C615.444 520.918 615.288 520.246 614.976 519.706C614.676 519.154 614.274 518.746 613.77 518.482C613.278 518.218 612.738 518.086 612.15 518.086ZM627.731 516.646C628.691 516.646 629.501 516.886 630.161 517.366C630.833 517.846 631.301 518.488 631.565 519.292V516.772H633.203V526.816C633.203 527.728 633.011 528.538 632.627 529.246C632.243 529.954 631.703 530.506 631.007 530.902C630.311 531.298 629.501 531.496 628.577 531.496C627.245 531.496 626.159 531.172 625.319 530.524C624.479 529.888 623.945 529.024 623.717 527.932H625.337C625.529 528.592 625.889 529.108 626.417 529.48C626.957 529.864 627.647 530.056 628.487 530.056C629.375 530.056 630.107 529.768 630.683 529.192C631.271 528.628 631.565 527.836 631.565 526.816V524.134C631.301 524.938 630.833 525.58 630.161 526.06C629.501 526.54 628.691 526.78 627.731 526.78C626.855 526.78 626.075 526.576 625.391 526.168C624.707 525.76 624.167 525.178 623.771 524.422C623.387 523.654 623.195 522.754 623.195 521.722C623.195 520.69 623.387 519.79 623.771 519.022C624.167 518.254 624.707 517.666 625.391 517.258C626.075 516.85 626.855 516.646 627.731 516.646ZM628.199 518.104C627.191 518.104 626.381 518.428 625.769 519.076C625.169 519.712 624.869 520.594 624.869 521.722C624.869 522.85 625.169 523.738 625.769 524.386C626.381 525.022 627.191 525.34 628.199 525.34C628.847 525.34 629.423 525.19 629.927 524.89C630.443 524.59 630.845 524.17 631.133 523.63C631.421 523.078 631.565 522.442 631.565 521.722C631.565 521.002 631.421 520.366 631.133 519.814C630.845 519.262 630.443 518.842 629.927 518.554C629.423 518.254 628.847 518.104 628.199 518.104ZM637.448 518.77C637.772 518.086 638.246 517.558 638.87 517.186C639.494 516.802 640.238 516.61 641.102 516.61V518.392H640.598C639.674 518.392 638.918 518.632 638.33 519.112C637.742 519.58 637.448 520.36 637.448 521.452V526.654H635.81V516.772H637.448V518.77ZM647.2 516.646C648.148 516.646 648.994 516.85 649.738 517.258C650.494 517.666 651.082 518.254 651.502 519.022C651.934 519.79 652.15 520.69 652.15 521.722C652.15 522.754 651.934 523.654 651.502 524.422C651.082 525.178 650.494 525.76 649.738 526.168C648.994 526.576 648.148 526.78 647.2 526.78C646.252 526.78 645.4 526.576 644.644 526.168C643.9 525.76 643.312 525.178 642.88 524.422C642.448 523.654 642.232 522.754 642.232 521.722C642.232 520.69 642.448 519.79 642.88 519.022C643.312 518.254 643.9 517.666 644.644 517.258C645.4 516.85 646.252 516.646 647.2 516.646ZM647.2 518.086C646.612 518.086 646.066 518.218 645.562 518.482C645.07 518.746 644.668 519.154 644.356 519.706C644.056 520.246 643.906 520.918 643.906 521.722C643.906 522.514 644.056 523.186 644.356 523.738C644.668 524.278 645.07 524.68 645.562 524.944C646.066 525.208 646.612 525.34 647.2 525.34C647.788 525.34 648.328 525.208 648.82 524.944C649.324 524.68 649.726 524.278 650.026 523.738C650.338 523.186 650.494 522.514 650.494 521.722C650.494 520.918 650.338 520.246 650.026 519.706C649.726 519.154 649.324 518.746 648.82 518.482C648.328 518.218 647.788 518.086 647.2 518.086ZM667.857 516.772L665.013 526.654H663.249L660.531 518.608L657.795 526.654H656.013L653.205 516.772H654.861L656.967 525.088L659.703 516.772H661.413L664.167 525.07L666.291 516.772H667.857ZM464.518 546.646C465.478 546.646 466.288 546.886 466.948 547.366C467.62 547.846 468.088 548.488 468.352 549.292V546.772H469.99V556.654H468.352V554.134C468.088 554.938 467.62 555.58 466.948 556.06C466.288 556.54 465.478 556.78 464.518 556.78C463.642 556.78 462.862 556.576 462.178 556.168C461.494 555.76 460.954 555.178 460.558 554.422C460.174 553.654 459.982 552.754 459.982 551.722C459.982 550.69 460.174 549.79 460.558 549.022C460.954 548.254 461.494 547.666 462.178 547.258C462.862 546.85 463.642 546.646 464.518 546.646ZM464.986 548.104C463.978 548.104 463.168 548.428 462.556 549.076C461.956 549.712 461.656 550.594 461.656 551.722C461.656 552.85 461.956 553.738 462.556 554.386C463.168 555.022 463.978 555.34 464.986 555.34C465.634 555.34 466.21 555.19 466.714 554.89C467.23 554.59 467.632 554.17 467.92 553.63C468.208 553.078 468.352 552.442 468.352 551.722C468.352 551.002 468.208 550.366 467.92 549.814C467.632 549.262 467.23 548.842 466.714 548.554C466.21 548.254 465.634 548.104 464.986 548.104ZM477.799 546.61C478.951 546.61 479.881 546.982 480.589 547.726C481.297 548.458 481.651 549.52 481.651 550.912V556.654H480.013V551.056C480.013 550.072 479.761 549.316 479.257 548.788C478.753 548.26 478.069 547.996 477.205 547.996C476.305 547.996 475.585 548.29 475.045 548.878C474.505 549.454 474.235 550.3 474.235 551.416V556.654H472.597V546.772H474.235V549.112C474.487 548.308 474.931 547.69 475.567 547.258C476.215 546.826 476.959 546.61 477.799 546.61ZM488.214 546.646C489.174 546.646 489.984 546.886 490.644 547.366C491.316 547.846 491.784 548.488 492.048 549.292V543.334H493.686V556.654H492.048V554.134C491.784 554.938 491.316 555.58 490.644 556.06C489.984 556.54 489.174 556.78 488.214 556.78C487.338 556.78 486.558 556.576 485.874 556.168C485.19 555.76 484.65 555.178 484.254 554.422C483.87 553.654 483.678 552.754 483.678 551.722C483.678 550.69 483.87 549.79 484.254 549.022C484.65 548.254 485.19 547.666 485.874 547.258C486.558 546.85 487.338 546.646 488.214 546.646ZM488.682 548.104C487.674 548.104 486.864 548.428 486.252 549.076C485.652 549.712 485.352 550.594 485.352 551.722C485.352 552.85 485.652 553.738 486.252 554.386C486.864 555.022 487.674 555.34 488.682 555.34C489.33 555.34 489.906 555.19 490.41 554.89C490.926 554.59 491.328 554.17 491.616 553.63C491.904 553.078 492.048 552.442 492.048 551.722C492.048 551.002 491.904 550.366 491.616 549.814C491.328 549.262 490.926 548.842 490.41 548.554C489.906 548.254 489.33 548.104 488.682 548.104ZM505.114 546.646C506.374 546.646 507.418 546.982 508.246 547.654C509.074 548.326 509.584 549.226 509.776 550.354H508.048C507.928 549.646 507.598 549.094 507.058 548.698C506.53 548.29 505.87 548.086 505.078 548.086C504.502 548.086 503.974 548.218 503.494 548.482C503.026 548.746 502.648 549.154 502.36 549.706C502.072 550.246 501.928 550.918 501.928 551.722C501.928 552.526 502.072 553.204 502.36 553.756C502.648 554.296 503.026 554.698 503.494 554.962C503.974 555.226 504.502 555.358 505.078 555.358C505.87 555.358 506.53 555.154 507.058 554.746C507.598 554.338 507.928 553.78 508.048 553.072H509.776C509.584 554.212 509.074 555.118 508.246 555.79C507.418 556.45 506.374 556.78 505.114 556.78C504.166 556.78 503.326 556.576 502.594 556.168C501.862 555.76 501.286 555.178 500.866 554.422C500.458 553.654 500.254 552.754 500.254 551.722C500.254 550.69 500.458 549.79 500.866 549.022C501.286 548.254 501.862 547.666 502.594 547.258C503.326 546.85 504.166 546.646 505.114 546.646ZM513.557 548.77C513.881 548.086 514.355 547.558 514.979 547.186C515.603 546.802 516.347 546.61 517.211 546.61V548.392H516.707C515.783 548.392 515.027 548.632 514.439 549.112C513.851 549.58 513.557 550.36 513.557 551.452V556.654H511.919V546.772H513.557V548.77ZM527.918 551.164C527.918 551.512 527.894 551.812 527.846 552.064H519.944C519.98 553.192 520.298 554.038 520.898 554.602C521.51 555.166 522.254 555.448 523.13 555.448C523.922 555.448 524.582 555.25 525.11 554.854C525.65 554.446 525.98 553.906 526.1 553.234H527.846C527.726 553.918 527.456 554.53 527.036 555.07C526.628 555.61 526.094 556.03 525.434 556.33C524.774 556.63 524.03 556.78 523.202 556.78C522.254 556.78 521.414 556.576 520.682 556.168C519.95 555.76 519.374 555.178 518.954 554.422C518.546 553.654 518.342 552.754 518.342 551.722C518.342 550.69 518.546 549.79 518.954 549.022C519.374 548.254 519.95 547.666 520.682 547.258C521.414 546.85 522.254 546.646 523.202 546.646C524.162 546.646 524.996 546.85 525.704 547.258C526.424 547.666 526.97 548.212 527.342 548.896C527.726 549.58 527.918 550.336 527.918 551.164ZM526.262 551.272C526.298 550.54 526.178 549.928 525.902 549.436C525.626 548.944 525.248 548.578 524.768 548.338C524.288 548.098 523.766 547.978 523.202 547.978C522.302 547.978 521.546 548.26 520.934 548.824C520.322 549.376 519.992 550.192 519.944 551.272H526.262ZM534.11 546.646C535.07 546.646 535.88 546.886 536.54 547.366C537.212 547.846 537.68 548.488 537.944 549.292V546.772H539.582V556.654H537.944V554.134C537.68 554.938 537.212 555.58 536.54 556.06C535.88 556.54 535.07 556.78 534.11 556.78C533.234 556.78 532.454 556.576 531.77 556.168C531.086 555.76 530.546 555.178 530.15 554.422C529.766 553.654 529.574 552.754 529.574 551.722C529.574 550.69 529.766 549.79 530.15 549.022C530.546 548.254 531.086 547.666 531.77 547.258C532.454 546.85 533.234 546.646 534.11 546.646ZM534.578 548.104C533.57 548.104 532.76 548.428 532.148 549.076C531.548 549.712 531.248 550.594 531.248 551.722C531.248 552.85 531.548 553.738 532.148 554.386C532.76 555.022 533.57 555.34 534.578 555.34C535.226 555.34 535.802 555.19 536.306 554.89C536.822 554.59 537.224 554.17 537.512 553.63C537.8 553.078 537.944 552.442 537.944 551.722C537.944 551.002 537.8 550.366 537.512 549.814C537.224 549.262 536.822 548.842 536.306 548.554C535.802 548.254 535.226 548.104 534.578 548.104ZM546.905 555.214V556.654H545.681C544.673 556.654 543.917 556.414 543.413 555.934C542.921 555.454 542.675 554.65 542.675 553.522V548.194H541.199V546.772H542.675V544.306H544.331V546.772H546.887V548.194H544.331V553.558C544.331 554.194 544.445 554.632 544.673 554.872C544.913 555.1 545.321 555.214 545.897 555.214H546.905ZM557.994 551.164C557.994 551.512 557.97 551.812 557.922 552.064H550.02C550.056 553.192 550.374 554.038 550.974 554.602C551.586 555.166 552.33 555.448 553.206 555.448C553.998 555.448 554.658 555.25 555.186 554.854C555.726 554.446 556.056 553.906 556.176 553.234H557.922C557.802 553.918 557.532 554.53 557.112 555.07C556.704 555.61 556.17 556.03 555.51 556.33C554.85 556.63 554.106 556.78 553.278 556.78C552.33 556.78 551.49 556.576 550.758 556.168C550.026 555.76 549.45 555.178 549.03 554.422C548.622 553.654 548.418 552.754 548.418 551.722C548.418 550.69 548.622 549.79 549.03 549.022C549.45 548.254 550.026 547.666 550.758 547.258C551.49 546.85 552.33 546.646 553.278 546.646C554.238 546.646 555.072 546.85 555.78 547.258C556.5 547.666 557.046 548.212 557.418 548.896C557.802 549.58 557.994 550.336 557.994 551.164ZM556.338 551.272C556.374 550.54 556.254 549.928 555.978 549.436C555.702 548.944 555.324 548.578 554.844 548.338C554.364 548.098 553.842 547.978 553.278 547.978C552.378 547.978 551.622 548.26 551.01 548.824C550.398 549.376 550.068 550.192 550.02 551.272H556.338ZM578.156 546.772L575.312 556.654H573.548L570.83 548.608L568.094 556.654H566.312L563.504 546.772H565.16L567.266 555.088L570.002 546.772H571.712L574.466 555.07L576.59 546.772H578.156ZM579.395 543.874C579.395 543.574 579.497 543.334 579.701 543.154C579.905 542.962 580.175 542.866 580.511 542.866C580.847 542.866 581.117 542.962 581.321 543.154C581.525 543.334 581.627 543.574 581.627 543.874C581.627 544.174 581.525 544.42 581.321 544.612C581.117 544.792 580.847 544.882 580.511 544.882C580.175 544.882 579.905 544.792 579.701 544.612C579.497 544.42 579.395 544.174 579.395 543.874ZM581.321 546.772V556.654H579.683V546.772H581.321ZM588.671 555.214V556.654H587.447C586.439 556.654 585.683 556.414 585.179 555.934C584.687 555.454 584.441 554.65 584.441 553.522V548.194H582.965V546.772H584.441V544.306H586.097V546.772H588.653V548.194H586.097V553.558C586.097 554.194 586.211 554.632 586.439 554.872C586.679 555.1 587.087 555.214 587.663 555.214H588.671ZM595.871 546.61C597.023 546.61 597.953 546.982 598.661 547.726C599.369 548.458 599.723 549.52 599.723 550.912V556.654H598.085V551.056C598.085 550.072 597.833 549.316 597.329 548.788C596.825 548.26 596.141 547.996 595.277 547.996C594.377 547.996 593.657 548.29 593.117 548.878C592.577 549.454 592.307 550.3 592.307 551.416V556.654H590.669V543.334H592.307V549.112C592.559 548.308 593.003 547.69 593.639 547.258C594.287 546.826 595.031 546.61 595.871 546.61ZM606.718 546.646C607.666 546.646 608.512 546.85 609.256 547.258C610.012 547.666 610.6 548.254 611.02 549.022C611.452 549.79 611.668 550.69 611.668 551.722C611.668 552.754 611.452 553.654 611.02 554.422C610.6 555.178 610.012 555.76 609.256 556.168C608.512 556.576 607.666 556.78 606.718 556.78C605.77 556.78 604.918 556.576 604.162 556.168C603.418 555.76 602.83 555.178 602.398 554.422C601.966 553.654 601.75 552.754 601.75 551.722C601.75 550.69 601.966 549.79 602.398 549.022C602.83 548.254 603.418 547.666 604.162 547.258C604.918 546.85 605.77 546.646 606.718 546.646ZM606.718 548.086C606.13 548.086 605.584 548.218 605.08 548.482C604.588 548.746 604.186 549.154 603.874 549.706C603.574 550.246 603.424 550.918 603.424 551.722C603.424 552.514 603.574 553.186 603.874 553.738C604.186 554.278 604.588 554.68 605.08 554.944C605.584 555.208 606.13 555.34 606.718 555.34C607.306 555.34 607.846 555.208 608.338 554.944C608.842 554.68 609.244 554.278 609.544 553.738C609.856 553.186 610.012 552.514 610.012 551.722C610.012 550.918 609.856 550.246 609.544 549.706C609.244 549.154 608.842 548.746 608.338 548.482C607.846 548.218 607.306 548.086 606.718 548.086ZM622.586 546.772V556.654H620.948V554.332C620.696 555.136 620.246 555.754 619.598 556.186C618.962 556.606 618.218 556.816 617.366 556.816C616.226 556.816 615.302 556.45 614.594 555.718C613.886 554.974 613.532 553.912 613.532 552.532V546.772H615.17V552.37C615.17 553.354 615.422 554.116 615.926 554.656C616.43 555.184 617.114 555.448 617.978 555.448C618.878 555.448 619.598 555.16 620.138 554.584C620.678 553.996 620.948 553.144 620.948 552.028V546.772H622.586ZM629.926 555.214V556.654H628.702C627.694 556.654 626.938 556.414 626.434 555.934C625.942 555.454 625.696 554.65 625.696 553.522V548.194H624.22V546.772H625.696V544.306H627.352V546.772H629.908V548.194H627.352V553.558C627.352 554.194 627.466 554.632 627.694 554.872C627.934 555.1 628.342 555.214 628.918 555.214H629.926ZM638.011 543.334V556.654H636.373V543.334H638.011ZM640.356 543.874C640.356 543.574 640.458 543.334 640.662 543.154C640.866 542.962 641.136 542.866 641.472 542.866C641.808 542.866 642.078 542.962 642.282 543.154C642.486 543.334 642.588 543.574 642.588 543.874C642.588 544.174 642.486 544.42 642.282 544.612C642.078 544.792 641.808 544.882 641.472 544.882C641.136 544.882 640.866 544.792 640.662 544.612C640.458 544.42 640.356 544.174 640.356 543.874ZM642.282 546.772V556.654H640.644V546.772H642.282ZM657.066 546.61C658.218 546.61 659.142 546.982 659.838 547.726C660.546 548.458 660.9 549.52 660.9 550.912V556.654H659.262V551.056C659.262 550.084 659.022 549.34 658.542 548.824C658.074 548.308 657.426 548.05 656.598 548.05C655.734 548.05 655.038 548.338 654.51 548.914C653.994 549.478 653.736 550.312 653.736 551.416V556.654H652.098V551.056C652.098 550.084 651.858 549.34 651.378 548.824C650.898 548.308 650.25 548.05 649.434 548.05C648.558 548.05 647.856 548.338 647.328 548.914C646.812 549.478 646.554 550.312 646.554 551.416V556.654H644.916V546.772H646.554V549.022C646.794 548.242 647.22 547.648 647.832 547.24C648.456 546.82 649.17 546.61 649.974 546.61C650.814 546.61 651.54 546.826 652.152 547.258C652.776 547.678 653.22 548.302 653.484 549.13C653.76 548.326 654.222 547.708 654.87 547.276C655.518 546.832 656.25 546.61 657.066 546.61ZM663.155 543.874C663.155 543.574 663.257 543.334 663.461 543.154C663.665 542.962 663.935 542.866 664.271 542.866C664.607 542.866 664.877 542.962 665.081 543.154C665.285 543.334 665.387 543.574 665.387 543.874C665.387 544.174 665.285 544.42 665.081 544.612C664.877 544.792 664.607 544.882 664.271 544.882C663.935 544.882 663.665 544.792 663.461 544.612C663.257 544.42 663.155 544.174 663.155 543.874ZM665.081 546.772V556.654H663.443V546.772H665.081ZM672.43 555.214V556.654H671.206C670.198 556.654 669.442 556.414 668.938 555.934C668.446 555.454 668.2 554.65 668.2 553.522V548.194H666.724V546.772H668.2V544.306H669.856V546.772H672.412V548.194H669.856V553.558C669.856 554.194 669.97 554.632 670.198 554.872C670.438 555.1 670.846 555.214 671.422 555.214H672.43ZM677.525 546.646C678.641 546.646 679.535 546.94 680.207 547.528C680.891 548.104 681.305 548.884 681.449 549.868H679.883C679.811 549.28 679.565 548.8 679.145 548.428C678.737 548.044 678.185 547.852 677.489 547.852C676.901 547.852 676.439 547.996 676.103 548.284C675.779 548.56 675.617 548.938 675.617 549.418C675.617 549.778 675.725 550.072 675.941 550.3C676.169 550.516 676.445 550.684 676.769 550.804C677.105 550.912 677.561 551.032 678.137 551.164C678.869 551.332 679.457 551.506 679.901 551.686C680.357 551.854 680.741 552.13 681.053 552.514C681.377 552.898 681.539 553.414 681.539 554.062C681.539 554.866 681.233 555.52 680.621 556.024C680.021 556.528 679.217 556.78 678.209 556.78C677.033 556.78 676.073 556.498 675.329 555.934C674.585 555.37 674.147 554.584 674.015 553.576H675.599C675.659 554.176 675.917 554.662 676.373 555.034C676.841 555.406 677.453 555.592 678.209 555.592C678.773 555.592 679.211 555.448 679.523 555.16C679.847 554.872 680.009 554.494 680.009 554.026C680.009 553.642 679.895 553.336 679.667 553.108C679.439 552.88 679.157 552.706 678.821 552.586C678.485 552.466 678.023 552.34 677.435 552.208C676.703 552.04 676.115 551.872 675.671 551.704C675.239 551.536 674.867 551.272 674.555 550.912C674.255 550.54 674.105 550.042 674.105 549.418C674.105 548.59 674.411 547.924 675.023 547.42C675.635 546.904 676.469 546.646 677.525 546.646ZM684.934 554.728V556.654H682.954V554.728H684.934Z" fill="white"/>
</svg>
