<svg width="845" height="727" viewBox="0 0 845 727" fill="none" xmlns="http://www.w3.org/2000/svg">
<path d="M418.113 366.202L266.11 281.563C261.174 278.815 259.493 272.527 262.399 267.682L414.396 14.3202C418.284 7.84004 427.678 7.84764 431.555 14.3341L582.998 267.702C585.89 272.54 584.214 278.811 579.293 281.561L427.857 366.194C424.83 367.886 421.143 367.889 418.113 366.202Z" stroke="white" stroke-width="2" stroke-linejoin="round"/>
<path d="M442.395 396.016L589.224 301.344C594.085 298.21 600.583 299.89 603.366 304.999L750.79 575.606C754.431 582.289 749.653 590.43 742.089 590.43L448.453 590.43C442.945 590.43 438.464 585.937 438.445 580.397L437.827 404.463C437.815 401.043 439.537 397.859 442.395 396.016Z" stroke="white" stroke-width="2" stroke-linejoin="round"/>
<path d="M400.494 398.083L254.779 305.373C249.95 302.301 243.532 303.949 240.731 308.981L92.4005 575.526C88.6803 582.211 93.4543 590.43 101.058 590.43L393.452 590.43C398.936 590.43 403.408 585.975 403.46 580.458L405.112 406.623C405.144 403.16 403.399 399.932 400.494 398.083Z" stroke="white" stroke-width="2" stroke-linejoin="round"/>
<path d="M467.112 507.808V483.308H479.082C482.162 483.308 484.472 483.892 486.012 485.058C487.575 486.225 488.357 487.765 488.357 489.678C488.357 490.962 488.042 492.082 487.412 493.038C486.782 493.972 485.919 494.695 484.822 495.208C483.725 495.722 482.465 495.978 481.042 495.978L481.707 494.543C483.247 494.543 484.612 494.8 485.802 495.313C486.992 495.803 487.914 496.538 488.567 497.518C489.244 498.498 489.582 499.7 489.582 501.123C489.582 503.223 488.754 504.868 487.097 506.058C485.44 507.225 483.002 507.808 479.782 507.808H467.112ZM472.747 503.538H479.362C480.832 503.538 481.94 503.305 482.687 502.838C483.457 502.348 483.842 501.578 483.842 500.528C483.842 499.502 483.457 498.743 482.687 498.253C481.94 497.74 480.832 497.483 479.362 497.483H472.327V493.353H478.382C479.759 493.353 480.809 493.12 481.532 492.653C482.279 492.163 482.652 491.428 482.652 490.448C482.652 489.492 482.279 488.78 481.532 488.313C480.809 487.823 479.759 487.578 478.382 487.578H472.747V503.538ZM502.835 508.088C500.688 508.088 498.798 507.668 497.165 506.828C495.555 505.988 494.306 504.845 493.42 503.398C492.533 501.928 492.09 500.26 492.09 498.393C492.09 496.503 492.521 494.835 493.385 493.388C494.271 491.918 495.473 490.775 496.99 489.958C498.506 489.118 500.221 488.698 502.135 488.698C503.978 488.698 505.635 489.095 507.105 489.888C508.598 490.658 509.776 491.778 510.64 493.248C511.503 494.695 511.935 496.433 511.935 498.463C511.935 498.673 511.923 498.918 511.9 499.198C511.876 499.455 511.853 499.7 511.83 499.933H496.535V496.748H508.96L506.86 497.693C506.86 496.713 506.661 495.862 506.265 495.138C505.868 494.415 505.32 493.855 504.62 493.458C503.92 493.038 503.103 492.828 502.17 492.828C501.236 492.828 500.408 493.038 499.685 493.458C498.985 493.855 498.436 494.427 498.04 495.173C497.643 495.897 497.445 496.76 497.445 497.763V498.603C497.445 499.63 497.666 500.54 498.11 501.333C498.576 502.103 499.218 502.698 500.035 503.118C500.875 503.515 501.855 503.713 502.975 503.713C503.978 503.713 504.853 503.562 505.6 503.258C506.37 502.955 507.07 502.5 507.7 501.893L510.605 505.043C509.741 506.023 508.656 506.782 507.35 507.318C506.043 507.832 504.538 508.088 502.835 508.088ZM517.608 514.878C516.628 514.878 515.66 514.727 514.703 514.423C513.746 514.12 512.965 513.7 512.358 513.163L514.353 509.278C514.773 509.652 515.251 509.943 515.788 510.153C516.348 510.363 516.896 510.468 517.433 510.468C518.203 510.468 518.81 510.282 519.253 509.908C519.72 509.558 520.14 508.963 520.513 508.123L521.493 505.813L521.913 505.218L528.668 488.978H533.918L525.413 508.963C524.806 510.48 524.106 511.67 523.313 512.533C522.543 513.397 521.68 514.003 520.723 514.353C519.79 514.703 518.751 514.878 517.608 514.878ZM520.828 508.543L512.428 488.978H518.063L524.573 504.728L520.828 508.543ZM544.593 508.088C542.587 508.088 540.802 507.668 539.238 506.828C537.698 505.988 536.473 504.845 535.563 503.398C534.677 501.928 534.233 500.26 534.233 498.393C534.233 496.503 534.677 494.835 535.563 493.388C536.473 491.918 537.698 490.775 539.238 489.958C540.802 489.118 542.587 488.698 544.593 488.698C546.577 488.698 548.35 489.118 549.913 489.958C551.477 490.775 552.702 491.907 553.588 493.353C554.475 494.8 554.918 496.48 554.918 498.393C554.918 500.26 554.475 501.928 553.588 503.398C552.702 504.845 551.477 505.988 549.913 506.828C548.35 507.668 546.577 508.088 544.593 508.088ZM544.593 503.608C545.503 503.608 546.32 503.398 547.043 502.978C547.767 502.558 548.338 501.963 548.758 501.193C549.178 500.4 549.388 499.467 549.388 498.393C549.388 497.297 549.178 496.363 548.758 495.593C548.338 494.823 547.767 494.228 547.043 493.808C546.32 493.388 545.503 493.178 544.593 493.178C543.683 493.178 542.867 493.388 542.143 493.808C541.42 494.228 540.837 494.823 540.393 495.593C539.973 496.363 539.763 497.297 539.763 498.393C539.763 499.467 539.973 500.4 540.393 501.193C540.837 501.963 541.42 502.558 542.143 502.978C542.867 503.398 543.683 503.608 544.593 503.608ZM570.013 488.698C571.506 488.698 572.836 489.002 574.003 489.608C575.193 490.192 576.126 491.102 576.803 492.338C577.48 493.552 577.818 495.115 577.818 497.028V507.808H572.358V497.868C572.358 496.352 572.02 495.232 571.343 494.508C570.69 493.785 569.756 493.423 568.543 493.423C567.68 493.423 566.898 493.61 566.198 493.983C565.521 494.333 564.985 494.882 564.588 495.628C564.215 496.375 564.028 497.332 564.028 498.498V507.808H558.568V488.978H563.783V494.193L562.803 492.618C563.48 491.358 564.448 490.39 565.708 489.713C566.968 489.037 568.403 488.698 570.013 488.698ZM590.989 508.088C589.215 508.088 587.617 507.692 586.194 506.898C584.77 506.082 583.639 504.95 582.799 503.503C581.982 502.057 581.574 500.353 581.574 498.393C581.574 496.41 581.982 494.695 582.799 493.248C583.639 491.802 584.77 490.682 586.194 489.888C587.617 489.095 589.215 488.698 590.989 488.698C592.575 488.698 593.964 489.048 595.154 489.748C596.344 490.448 597.265 491.51 597.919 492.933C598.572 494.357 598.899 496.177 598.899 498.393C598.899 500.587 598.584 502.407 597.954 503.853C597.324 505.277 596.414 506.338 595.224 507.038C594.057 507.738 592.645 508.088 590.989 508.088ZM591.934 503.608C592.82 503.608 593.625 503.398 594.349 502.978C595.072 502.558 595.644 501.963 596.064 501.193C596.507 500.4 596.729 499.467 596.729 498.393C596.729 497.297 596.507 496.363 596.064 495.593C595.644 494.823 595.072 494.228 594.349 493.808C593.625 493.388 592.82 493.178 591.934 493.178C591.024 493.178 590.207 493.388 589.484 493.808C588.76 494.228 588.177 494.823 587.734 495.593C587.314 496.363 587.104 497.297 587.104 498.393C587.104 499.467 587.314 500.4 587.734 501.193C588.177 501.963 588.76 502.558 589.484 502.978C590.207 503.398 591.024 503.608 591.934 503.608ZM596.869 507.808V503.958L596.974 498.358L596.624 492.793V481.838H602.084V507.808H596.869ZM475.162 551.228C473.202 551.228 471.324 550.972 469.527 550.458C467.73 549.922 466.284 549.233 465.187 548.393L467.112 544.123C468.162 544.87 469.399 545.488 470.822 545.978C472.269 546.445 473.727 546.678 475.197 546.678C476.317 546.678 477.215 546.573 477.892 546.363C478.592 546.13 479.105 545.815 479.432 545.418C479.759 545.022 479.922 544.567 479.922 544.053C479.922 543.4 479.665 542.887 479.152 542.513C478.639 542.117 477.962 541.802 477.122 541.568C476.282 541.312 475.349 541.078 474.322 540.868C473.319 540.635 472.304 540.355 471.277 540.028C470.274 539.702 469.352 539.282 468.512 538.768C467.672 538.255 466.984 537.578 466.447 536.738C465.934 535.898 465.677 534.825 465.677 533.518C465.677 532.118 466.05 530.847 466.797 529.703C467.567 528.537 468.71 527.615 470.227 526.938C471.767 526.238 473.692 525.888 476.002 525.888C477.542 525.888 479.059 526.075 480.552 526.448C482.045 526.798 483.364 527.335 484.507 528.058L482.757 532.363C481.614 531.71 480.47 531.232 479.327 530.928C478.184 530.602 477.064 530.438 475.967 530.438C474.87 530.438 473.972 530.567 473.272 530.823C472.572 531.08 472.07 531.418 471.767 531.838C471.464 532.235 471.312 532.702 471.312 533.238C471.312 533.868 471.569 534.382 472.082 534.778C472.595 535.152 473.272 535.455 474.112 535.688C474.952 535.922 475.874 536.155 476.877 536.388C477.904 536.622 478.919 536.89 479.922 537.193C480.949 537.497 481.882 537.905 482.722 538.418C483.562 538.932 484.239 539.608 484.752 540.448C485.289 541.288 485.557 542.35 485.557 543.633C485.557 545.01 485.172 546.27 484.402 547.413C483.632 548.557 482.477 549.478 480.937 550.178C479.42 550.878 477.495 551.228 475.162 551.228ZM491.085 557.878C490.105 557.878 489.136 557.727 488.18 557.423C487.223 557.12 486.441 556.7 485.835 556.163L487.83 552.278C488.25 552.652 488.728 552.943 489.265 553.153C489.825 553.363 490.373 553.468 490.91 553.468C491.68 553.468 492.286 553.282 492.73 552.908C493.196 552.558 493.616 551.963 493.99 551.123L494.97 548.813L495.39 548.218L502.145 531.978H507.395L498.89 551.963C498.283 553.48 497.583 554.67 496.79 555.533C496.02 556.397 495.156 557.003 494.2 557.353C493.266 557.703 492.228 557.878 491.085 557.878ZM494.305 551.543L485.905 531.978H491.54L498.05 547.728L494.305 551.543ZM509.623 550.808V524.838H515.083V550.808H509.623ZM520.15 550.808V524.838H525.61V550.808H520.15ZM542.227 550.808V547.133L541.877 546.328V539.748C541.877 538.582 541.516 537.672 540.792 537.018C540.092 536.365 539.007 536.038 537.537 536.038C536.534 536.038 535.542 536.202 534.562 536.528C533.606 536.832 532.789 537.252 532.112 537.788L530.152 533.973C531.179 533.25 532.416 532.69 533.862 532.293C535.309 531.897 536.779 531.698 538.272 531.698C541.142 531.698 543.371 532.375 544.957 533.728C546.544 535.082 547.337 537.193 547.337 540.063V550.808H542.227ZM536.487 551.088C535.017 551.088 533.757 550.843 532.707 550.353C531.657 549.84 530.852 549.152 530.292 548.288C529.732 547.425 529.452 546.457 529.452 545.383C529.452 544.263 529.721 543.283 530.257 542.443C530.817 541.603 531.692 540.95 532.882 540.483C534.072 539.993 535.624 539.748 537.537 539.748H542.542V542.933H538.132C536.849 542.933 535.962 543.143 535.472 543.563C535.006 543.983 534.772 544.508 534.772 545.138C534.772 545.838 535.041 546.398 535.577 546.818C536.137 547.215 536.896 547.413 537.852 547.413C538.762 547.413 539.579 547.203 540.302 546.783C541.026 546.34 541.551 545.698 541.877 544.858L542.717 547.378C542.321 548.592 541.597 549.513 540.547 550.143C539.497 550.773 538.144 551.088 536.487 551.088ZM563.409 551.088C561.752 551.088 560.329 550.738 559.139 550.038C557.949 549.338 557.039 548.277 556.409 546.853C555.779 545.407 555.464 543.587 555.464 541.393C555.464 539.177 555.79 537.357 556.444 535.933C557.12 534.51 558.054 533.448 559.244 532.748C560.434 532.048 561.822 531.698 563.409 531.698C565.182 531.698 566.769 532.095 568.169 532.888C569.592 533.682 570.712 534.802 571.529 536.248C572.369 537.695 572.789 539.41 572.789 541.393C572.789 543.353 572.369 545.057 571.529 546.503C570.712 547.95 569.592 549.082 568.169 549.898C566.769 550.692 565.182 551.088 563.409 551.088ZM552.279 550.808V524.838H557.739V535.793L557.389 541.358L557.494 546.958V550.808H552.279ZM562.464 546.608C563.374 546.608 564.179 546.398 564.879 545.978C565.602 545.558 566.174 544.963 566.594 544.193C567.037 543.4 567.259 542.467 567.259 541.393C567.259 540.297 567.037 539.363 566.594 538.593C566.174 537.823 565.602 537.228 564.879 536.808C564.179 536.388 563.374 536.178 562.464 536.178C561.554 536.178 560.737 536.388 560.014 536.808C559.29 537.228 558.719 537.823 558.299 538.593C557.879 539.363 557.669 540.297 557.669 541.393C557.669 542.467 557.879 543.4 558.299 544.193C558.719 544.963 559.29 545.558 560.014 545.978C560.737 546.398 561.554 546.608 562.464 546.608ZM584.389 551.088C582.825 551.088 581.425 550.785 580.189 550.178C578.975 549.572 578.03 548.65 577.354 547.413C576.677 546.153 576.339 544.555 576.339 542.618V531.978H581.799V541.813C581.799 543.377 582.125 544.532 582.779 545.278C583.455 546.002 584.4 546.363 585.614 546.363C586.454 546.363 587.2 546.188 587.854 545.838C588.507 545.465 589.02 544.905 589.394 544.158C589.767 543.388 589.954 542.432 589.954 541.288V531.978H595.414V550.808H590.234V545.628L591.179 547.133C590.549 548.44 589.615 549.432 588.379 550.108C587.165 550.762 585.835 551.088 584.389 551.088ZM606.807 551.088C605.197 551.088 603.645 550.902 602.152 550.528C600.682 550.132 599.515 549.642 598.652 549.058L600.472 545.138C601.335 545.675 602.35 546.118 603.517 546.468C604.707 546.795 605.874 546.958 607.017 546.958C608.277 546.958 609.164 546.807 609.677 546.503C610.214 546.2 610.482 545.78 610.482 545.243C610.482 544.8 610.272 544.473 609.852 544.263C609.455 544.03 608.919 543.855 608.242 543.738C607.565 543.622 606.819 543.505 606.002 543.388C605.209 543.272 604.404 543.12 603.587 542.933C602.77 542.723 602.024 542.42 601.347 542.023C600.67 541.627 600.122 541.09 599.702 540.413C599.305 539.737 599.107 538.862 599.107 537.788C599.107 536.598 599.445 535.548 600.122 534.638C600.822 533.728 601.825 533.017 603.132 532.503C604.439 531.967 606.002 531.698 607.822 531.698C609.105 531.698 610.412 531.838 611.742 532.118C613.072 532.398 614.18 532.807 615.067 533.343L613.247 537.228C612.337 536.692 611.415 536.33 610.482 536.143C609.572 535.933 608.685 535.828 607.822 535.828C606.609 535.828 605.722 535.992 605.162 536.318C604.602 536.645 604.322 537.065 604.322 537.578C604.322 538.045 604.52 538.395 604.917 538.628C605.337 538.862 605.885 539.048 606.562 539.188C607.239 539.328 607.974 539.457 608.767 539.573C609.584 539.667 610.4 539.818 611.217 540.028C612.034 540.238 612.769 540.542 613.422 540.938C614.099 541.312 614.647 541.837 615.067 542.513C615.487 543.167 615.697 544.03 615.697 545.103C615.697 546.27 615.347 547.308 614.647 548.218C613.947 549.105 612.932 549.805 611.602 550.318C610.295 550.832 608.697 551.088 606.807 551.088Z" fill="#6F00CD"/>
<path d="M244.784 509.092V484.592H256.754C259.834 484.592 262.144 485.176 263.684 486.342C265.247 487.509 266.029 489.049 266.029 490.962C266.029 492.246 265.714 493.366 265.084 494.322C264.454 495.256 263.591 495.979 262.494 496.492C261.397 497.006 260.137 497.262 258.714 497.262L259.379 495.827C260.919 495.827 262.284 496.084 263.474 496.597C264.664 497.087 265.586 497.822 266.239 498.802C266.916 499.782 267.254 500.984 267.254 502.407C267.254 504.507 266.426 506.152 264.769 507.342C263.112 508.509 260.674 509.092 257.454 509.092H244.784ZM250.419 504.822H257.034C258.504 504.822 259.612 504.589 260.359 504.122C261.129 503.632 261.514 502.862 261.514 501.812C261.514 500.786 261.129 500.027 260.359 499.537C259.612 499.024 258.504 498.767 257.034 498.767H249.999V494.637H256.054C257.431 494.637 258.481 494.404 259.204 493.937C259.951 493.447 260.324 492.712 260.324 491.732C260.324 490.776 259.951 490.064 259.204 489.597C258.481 489.107 257.431 488.862 256.054 488.862H250.419V504.822ZM280.507 509.372C278.36 509.372 276.47 508.952 274.837 508.112C273.227 507.272 271.978 506.129 271.092 504.682C270.205 503.212 269.762 501.544 269.762 499.677C269.762 497.787 270.193 496.119 271.057 494.672C271.943 493.202 273.145 492.059 274.662 491.242C276.178 490.402 277.893 489.982 279.807 489.982C281.65 489.982 283.307 490.379 284.777 491.172C286.27 491.942 287.448 493.062 288.312 494.532C289.175 495.979 289.607 497.717 289.607 499.747C289.607 499.957 289.595 500.202 289.572 500.482C289.548 500.739 289.525 500.984 289.502 501.217H274.207V498.032H286.632L284.532 498.977C284.532 497.997 284.333 497.146 283.937 496.422C283.54 495.699 282.992 495.139 282.292 494.742C281.592 494.322 280.775 494.112 279.842 494.112C278.908 494.112 278.08 494.322 277.357 494.742C276.657 495.139 276.108 495.711 275.712 496.457C275.315 497.181 275.117 498.044 275.117 499.047V499.887C275.117 500.914 275.338 501.824 275.782 502.617C276.248 503.387 276.89 503.982 277.707 504.402C278.547 504.799 279.527 504.997 280.647 504.997C281.65 504.997 282.525 504.846 283.272 504.542C284.042 504.239 284.742 503.784 285.372 503.177L288.277 506.327C287.413 507.307 286.328 508.066 285.022 508.602C283.715 509.116 282.21 509.372 280.507 509.372ZM295.28 516.162C294.3 516.162 293.332 516.011 292.375 515.707C291.418 515.404 290.637 514.984 290.03 514.447L292.025 510.562C292.445 510.936 292.923 511.227 293.46 511.437C294.02 511.647 294.568 511.752 295.105 511.752C295.875 511.752 296.482 511.566 296.925 511.192C297.392 510.842 297.812 510.247 298.185 509.407L299.165 507.097L299.585 506.502L306.34 490.262H311.59L303.085 510.247C302.478 511.764 301.778 512.954 300.985 513.817C300.215 514.681 299.352 515.287 298.395 515.637C297.462 515.987 296.423 516.162 295.28 516.162ZM298.5 509.827L290.1 490.262H295.735L302.245 506.012L298.5 509.827ZM322.265 509.372C320.258 509.372 318.473 508.952 316.91 508.112C315.37 507.272 314.145 506.129 313.235 504.682C312.348 503.212 311.905 501.544 311.905 499.677C311.905 497.787 312.348 496.119 313.235 494.672C314.145 493.202 315.37 492.059 316.91 491.242C318.473 490.402 320.258 489.982 322.265 489.982C324.248 489.982 326.022 490.402 327.585 491.242C329.148 492.059 330.373 493.191 331.26 494.637C332.147 496.084 332.59 497.764 332.59 499.677C332.59 501.544 332.147 503.212 331.26 504.682C330.373 506.129 329.148 507.272 327.585 508.112C326.022 508.952 324.248 509.372 322.265 509.372ZM322.265 504.892C323.175 504.892 323.992 504.682 324.715 504.262C325.438 503.842 326.01 503.247 326.43 502.477C326.85 501.684 327.06 500.751 327.06 499.677C327.06 498.581 326.85 497.647 326.43 496.877C326.01 496.107 325.438 495.512 324.715 495.092C323.992 494.672 323.175 494.462 322.265 494.462C321.355 494.462 320.538 494.672 319.815 495.092C319.092 495.512 318.508 496.107 318.065 496.877C317.645 497.647 317.435 498.581 317.435 499.677C317.435 500.751 317.645 501.684 318.065 502.477C318.508 503.247 319.092 503.842 319.815 504.262C320.538 504.682 321.355 504.892 322.265 504.892ZM347.685 489.982C349.178 489.982 350.508 490.286 351.675 490.892C352.865 491.476 353.798 492.386 354.475 493.622C355.151 494.836 355.49 496.399 355.49 498.312V509.092H350.03V499.152C350.03 497.636 349.691 496.516 349.015 495.792C348.361 495.069 347.428 494.707 346.215 494.707C345.351 494.707 344.57 494.894 343.87 495.267C343.193 495.617 342.656 496.166 342.26 496.912C341.886 497.659 341.7 498.616 341.7 499.782V509.092H336.24V490.262H341.455V495.477L340.475 493.902C341.151 492.642 342.12 491.674 343.38 490.997C344.64 490.321 346.075 489.982 347.685 489.982ZM368.661 509.372C366.887 509.372 365.289 508.976 363.866 508.182C362.442 507.366 361.311 506.234 360.471 504.787C359.654 503.341 359.246 501.637 359.246 499.677C359.246 497.694 359.654 495.979 360.471 494.532C361.311 493.086 362.442 491.966 363.866 491.172C365.289 490.379 366.887 489.982 368.661 489.982C370.247 489.982 371.636 490.332 372.826 491.032C374.016 491.732 374.937 492.794 375.591 494.217C376.244 495.641 376.571 497.461 376.571 499.677C376.571 501.871 376.256 503.691 375.626 505.137C374.996 506.561 374.086 507.622 372.896 508.322C371.729 509.022 370.317 509.372 368.661 509.372ZM369.606 504.892C370.492 504.892 371.297 504.682 372.021 504.262C372.744 503.842 373.316 503.247 373.736 502.477C374.179 501.684 374.401 500.751 374.401 499.677C374.401 498.581 374.179 497.647 373.736 496.877C373.316 496.107 372.744 495.512 372.021 495.092C371.297 494.672 370.492 494.462 369.606 494.462C368.696 494.462 367.879 494.672 367.156 495.092C366.432 495.512 365.849 496.107 365.406 496.877C364.986 497.647 364.776 498.581 364.776 499.677C364.776 500.751 364.986 501.684 365.406 502.477C365.849 503.247 366.432 503.842 367.156 504.262C367.879 504.682 368.696 504.892 369.606 504.892ZM374.541 509.092V505.242L374.646 499.642L374.296 494.077V483.122H379.756V509.092H374.541ZM165.32 552.512C163.383 552.512 161.598 552.209 159.965 551.602C158.355 550.972 156.943 550.086 155.73 548.942C154.54 547.799 153.607 546.457 152.93 544.917C152.277 543.377 151.95 541.686 151.95 539.842C151.95 537.999 152.277 536.307 152.93 534.767C153.607 533.227 154.552 531.886 155.765 530.742C156.978 529.599 158.402 528.724 160.035 528.117C161.668 527.487 163.465 527.172 165.425 527.172C167.595 527.172 169.543 527.534 171.27 528.257C173.02 528.981 174.49 530.031 175.68 531.407L172.04 534.767C171.153 533.834 170.185 533.146 169.135 532.702C168.085 532.236 166.942 532.002 165.705 532.002C164.515 532.002 163.43 532.189 162.45 532.562C161.47 532.936 160.618 533.472 159.895 534.172C159.195 534.872 158.647 535.701 158.25 536.657C157.877 537.614 157.69 538.676 157.69 539.842C157.69 540.986 157.877 542.036 158.25 542.992C158.647 543.949 159.195 544.789 159.895 545.512C160.618 546.212 161.458 546.749 162.415 547.122C163.395 547.496 164.468 547.682 165.635 547.682C166.755 547.682 167.84 547.507 168.89 547.157C169.963 546.784 171.002 546.166 172.005 545.302L175.225 549.397C173.895 550.401 172.343 551.171 170.57 551.707C168.82 552.244 167.07 552.512 165.32 552.512ZM170.045 548.662V539.457H175.225V549.397L170.045 548.662ZM191.657 552.092V548.417L191.307 547.612V541.032C191.307 539.866 190.945 538.956 190.222 538.302C189.522 537.649 188.437 537.322 186.967 537.322C185.964 537.322 184.972 537.486 183.992 537.812C183.035 538.116 182.219 538.536 181.542 539.072L179.582 535.257C180.609 534.534 181.845 533.974 183.292 533.577C184.739 533.181 186.209 532.982 187.702 532.982C190.572 532.982 192.8 533.659 194.387 535.012C195.974 536.366 196.767 538.477 196.767 541.347V552.092H191.657ZM185.917 552.372C184.447 552.372 183.187 552.127 182.137 551.637C181.087 551.124 180.282 550.436 179.722 549.572C179.162 548.709 178.882 547.741 178.882 546.667C178.882 545.547 179.15 544.567 179.687 543.727C180.247 542.887 181.122 542.234 182.312 541.767C183.502 541.277 185.054 541.032 186.967 541.032H191.972V544.217H187.562C186.279 544.217 185.392 544.427 184.902 544.847C184.435 545.267 184.202 545.792 184.202 546.422C184.202 547.122 184.47 547.682 185.007 548.102C185.567 548.499 186.325 548.697 187.282 548.697C188.192 548.697 189.009 548.487 189.732 548.067C190.455 547.624 190.98 546.982 191.307 546.142L192.147 548.662C191.75 549.876 191.027 550.797 189.977 551.427C188.927 552.057 187.574 552.372 185.917 552.372ZM209.408 552.372C207.192 552.372 205.465 551.812 204.228 550.692C202.992 549.549 202.373 547.857 202.373 545.617V529.097H207.833V545.547C207.833 546.341 208.043 546.959 208.463 547.402C208.883 547.822 209.455 548.032 210.178 548.032C211.042 548.032 211.777 547.799 212.383 547.332L213.853 551.182C213.293 551.579 212.617 551.882 211.823 552.092C211.053 552.279 210.248 552.372 209.408 552.372ZM199.468 537.882V533.682H212.523V537.882H199.468ZM225.682 552.372C223.536 552.372 221.646 551.952 220.012 551.112C218.402 550.272 217.154 549.129 216.267 547.682C215.381 546.212 214.937 544.544 214.937 542.677C214.937 540.787 215.369 539.119 216.232 537.672C217.119 536.202 218.321 535.059 219.837 534.242C221.354 533.402 223.069 532.982 224.982 532.982C226.826 532.982 228.482 533.379 229.952 534.172C231.446 534.942 232.624 536.062 233.487 537.532C234.351 538.979 234.782 540.717 234.782 542.747C234.782 542.957 234.771 543.202 234.747 543.482C234.724 543.739 234.701 543.984 234.677 544.217H219.382V541.032H231.807L229.707 541.977C229.707 540.997 229.509 540.146 229.112 539.422C228.716 538.699 228.167 538.139 227.467 537.742C226.767 537.322 225.951 537.112 225.017 537.112C224.084 537.112 223.256 537.322 222.532 537.742C221.832 538.139 221.284 538.711 220.887 539.457C220.491 540.181 220.292 541.044 220.292 542.047V542.887C220.292 543.914 220.514 544.824 220.957 545.617C221.424 546.387 222.066 546.982 222.882 547.402C223.722 547.799 224.702 547.997 225.822 547.997C226.826 547.997 227.701 547.846 228.447 547.542C229.217 547.239 229.917 546.784 230.547 546.177L233.452 549.327C232.589 550.307 231.504 551.066 230.197 551.602C228.891 552.116 227.386 552.372 225.682 552.372ZM242.932 548.242L243.072 541.592L251.857 533.262H258.367L249.932 541.837L247.097 544.147L242.932 548.242ZM238.417 552.092V526.122H243.877V552.092H238.417ZM252.452 552.092L246.082 544.182L249.512 539.947L259.067 552.092H252.452ZM270.082 552.372C267.935 552.372 266.045 551.952 264.412 551.112C262.802 550.272 261.553 549.129 260.667 547.682C259.78 546.212 259.337 544.544 259.337 542.677C259.337 540.787 259.768 539.119 260.632 537.672C261.518 536.202 262.72 535.059 264.237 534.242C265.753 533.402 267.468 532.982 269.382 532.982C271.225 532.982 272.882 533.379 274.352 534.172C275.845 534.942 277.023 536.062 277.887 537.532C278.75 538.979 279.182 540.717 279.182 542.747C279.182 542.957 279.17 543.202 279.147 543.482C279.123 543.739 279.1 543.984 279.077 544.217H263.782V541.032H276.207L274.107 541.977C274.107 540.997 273.908 540.146 273.512 539.422C273.115 538.699 272.567 538.139 271.867 537.742C271.167 537.322 270.35 537.112 269.417 537.112C268.483 537.112 267.655 537.322 266.932 537.742C266.232 538.139 265.683 538.711 265.287 539.457C264.89 540.181 264.692 541.044 264.692 542.047V542.887C264.692 543.914 264.913 544.824 265.357 545.617C265.823 546.387 266.465 546.982 267.282 547.402C268.122 547.799 269.102 547.997 270.222 547.997C271.225 547.997 272.1 547.846 272.847 547.542C273.617 547.239 274.317 546.784 274.947 546.177L277.852 549.327C276.988 550.307 275.903 551.066 274.597 551.602C273.29 552.116 271.785 552.372 270.082 552.372ZM292.162 552.372C290.015 552.372 288.125 551.952 286.492 551.112C284.882 550.272 283.634 549.129 282.747 547.682C281.86 546.212 281.417 544.544 281.417 542.677C281.417 540.787 281.849 539.119 282.712 537.672C283.599 536.202 284.8 535.059 286.317 534.242C287.834 533.402 289.549 532.982 291.462 532.982C293.305 532.982 294.962 533.379 296.432 534.172C297.925 534.942 299.104 536.062 299.967 537.532C300.83 538.979 301.262 540.717 301.262 542.747C301.262 542.957 301.25 543.202 301.227 543.482C301.204 543.739 301.18 543.984 301.157 544.217H285.862V541.032H298.287L296.187 541.977C296.187 540.997 295.989 540.146 295.592 539.422C295.195 538.699 294.647 538.139 293.947 537.742C293.247 537.322 292.43 537.112 291.497 537.112C290.564 537.112 289.735 537.322 289.012 537.742C288.312 538.139 287.764 538.711 287.367 539.457C286.97 540.181 286.772 541.044 286.772 542.047V542.887C286.772 543.914 286.994 544.824 287.437 545.617C287.904 546.387 288.545 546.982 289.362 547.402C290.202 547.799 291.182 547.997 292.302 547.997C293.305 547.997 294.18 547.846 294.927 547.542C295.697 547.239 296.397 546.784 297.027 546.177L299.932 549.327C299.069 550.307 297.984 551.066 296.677 551.602C295.37 552.116 293.865 552.372 292.162 552.372ZM316.027 552.372C314.44 552.372 313.052 552.022 311.862 551.322C310.672 550.622 309.739 549.561 309.062 548.137C308.409 546.691 308.082 544.871 308.082 542.677C308.082 540.461 308.397 538.641 309.027 537.217C309.657 535.794 310.567 534.732 311.757 534.032C312.947 533.332 314.37 532.982 316.027 532.982C317.8 532.982 319.387 533.391 320.787 534.207C322.21 535.001 323.33 536.121 324.147 537.567C324.987 539.014 325.407 540.717 325.407 542.677C325.407 544.661 324.987 546.376 324.147 547.822C323.33 549.269 322.21 550.389 320.787 551.182C319.387 551.976 317.8 552.372 316.027 552.372ZM304.897 558.882V533.262H310.112V537.112L310.007 542.712L310.357 548.277V558.882H304.897ZM315.082 547.892C315.992 547.892 316.797 547.682 317.497 547.262C318.22 546.842 318.792 546.247 319.212 545.477C319.655 544.684 319.877 543.751 319.877 542.677C319.877 541.581 319.655 540.647 319.212 539.877C318.792 539.107 318.22 538.512 317.497 538.092C316.797 537.672 315.992 537.462 315.082 537.462C314.172 537.462 313.355 537.672 312.632 538.092C311.909 538.512 311.337 539.107 310.917 539.877C310.497 540.647 310.287 541.581 310.287 542.677C310.287 543.751 310.497 544.684 310.917 545.477C311.337 546.247 311.909 546.842 312.632 547.262C313.355 547.682 314.172 547.892 315.082 547.892ZM338.407 552.372C336.26 552.372 334.37 551.952 332.737 551.112C331.127 550.272 329.879 549.129 328.992 547.682C328.105 546.212 327.662 544.544 327.662 542.677C327.662 540.787 328.094 539.119 328.957 537.672C329.844 536.202 331.045 535.059 332.562 534.242C334.079 533.402 335.794 532.982 337.707 532.982C339.55 532.982 341.207 533.379 342.677 534.172C344.17 534.942 345.349 536.062 346.212 537.532C347.075 538.979 347.507 540.717 347.507 542.747C347.507 542.957 347.495 543.202 347.472 543.482C347.449 543.739 347.425 543.984 347.402 544.217H332.107V541.032H344.532L342.432 541.977C342.432 540.997 342.234 540.146 341.837 539.422C341.44 538.699 340.892 538.139 340.192 537.742C339.492 537.322 338.675 537.112 337.742 537.112C336.809 537.112 335.98 537.322 335.257 537.742C334.557 538.139 334.009 538.711 333.612 539.457C333.215 540.181 333.017 541.044 333.017 542.047V542.887C333.017 543.914 333.239 544.824 333.682 545.617C334.149 546.387 334.79 546.982 335.607 547.402C336.447 547.799 337.427 547.997 338.547 547.997C339.55 547.997 340.425 547.846 341.172 547.542C341.942 547.239 342.642 546.784 343.272 546.177L346.177 549.327C345.314 550.307 344.229 551.066 342.922 551.602C341.615 552.116 340.11 552.372 338.407 552.372ZM351.142 552.092V533.262H356.357V538.582L355.622 537.042C356.182 535.712 357.08 534.709 358.317 534.032C359.554 533.332 361.059 532.982 362.832 532.982V538.022C362.599 537.999 362.389 537.987 362.202 537.987C362.015 537.964 361.817 537.952 361.607 537.952C360.114 537.952 358.9 538.384 357.967 539.247C357.057 540.087 356.602 541.406 356.602 543.202V552.092H351.142ZM372.55 552.372C370.94 552.372 369.389 552.186 367.895 551.812C366.425 551.416 365.259 550.926 364.395 550.342L366.215 546.422C367.079 546.959 368.094 547.402 369.26 547.752C370.45 548.079 371.617 548.242 372.76 548.242C374.02 548.242 374.907 548.091 375.42 547.787C375.957 547.484 376.225 547.064 376.225 546.527C376.225 546.084 376.015 545.757 375.595 545.547C375.199 545.314 374.662 545.139 373.985 545.022C373.309 544.906 372.562 544.789 371.745 544.672C370.952 544.556 370.147 544.404 369.33 544.217C368.514 544.007 367.767 543.704 367.09 543.307C366.414 542.911 365.865 542.374 365.445 541.697C365.049 541.021 364.85 540.146 364.85 539.072C364.85 537.882 365.189 536.832 365.865 535.922C366.565 535.012 367.569 534.301 368.875 533.787C370.182 533.251 371.745 532.982 373.565 532.982C374.849 532.982 376.155 533.122 377.485 533.402C378.815 533.682 379.924 534.091 380.81 534.627L378.99 538.512C378.08 537.976 377.159 537.614 376.225 537.427C375.315 537.217 374.429 537.112 373.565 537.112C372.352 537.112 371.465 537.276 370.905 537.602C370.345 537.929 370.065 538.349 370.065 538.862C370.065 539.329 370.264 539.679 370.66 539.912C371.08 540.146 371.629 540.332 372.305 540.472C372.982 540.612 373.717 540.741 374.51 540.857C375.327 540.951 376.144 541.102 376.96 541.312C377.777 541.522 378.512 541.826 379.165 542.222C379.842 542.596 380.39 543.121 380.81 543.797C381.23 544.451 381.44 545.314 381.44 546.387C381.44 547.554 381.09 548.592 380.39 549.502C379.69 550.389 378.675 551.089 377.345 551.602C376.039 552.116 374.44 552.372 372.55 552.372Z" fill="#6F00CD"/>
<path d="M361.151 215.458V193.058H372.095C374.911 193.058 377.023 193.591 378.431 194.658C379.86 195.725 380.575 197.133 380.575 198.882C380.575 200.055 380.287 201.079 379.711 201.954C379.135 202.807 378.346 203.469 377.343 203.938C376.34 204.407 375.188 204.642 373.887 204.642L374.495 203.33C375.903 203.33 377.151 203.565 378.239 204.034C379.327 204.482 380.17 205.154 380.767 206.05C381.386 206.946 381.695 208.045 381.695 209.346C381.695 211.266 380.938 212.77 379.423 213.858C377.908 214.925 375.679 215.458 372.735 215.458H361.151ZM366.303 211.554H372.351C373.695 211.554 374.708 211.341 375.391 210.914C376.095 210.466 376.447 209.762 376.447 208.802C376.447 207.863 376.095 207.17 375.391 206.722C374.708 206.253 373.695 206.018 372.351 206.018H365.919V202.242H371.455C372.714 202.242 373.674 202.029 374.335 201.602C375.018 201.154 375.359 200.482 375.359 199.586C375.359 198.711 375.018 198.061 374.335 197.634C373.674 197.186 372.714 196.962 371.455 196.962H366.303V211.554ZM393.812 215.714C391.849 215.714 390.121 215.33 388.628 214.562C387.156 213.794 386.015 212.749 385.204 211.426C384.393 210.082 383.988 208.557 383.988 206.85C383.988 205.122 384.383 203.597 385.172 202.274C385.983 200.93 387.081 199.885 388.468 199.138C389.855 198.37 391.423 197.986 393.172 197.986C394.857 197.986 396.372 198.349 397.716 199.074C399.081 199.778 400.159 200.802 400.948 202.146C401.737 203.469 402.132 205.058 402.132 206.914C402.132 207.106 402.121 207.33 402.1 207.586C402.079 207.821 402.057 208.045 402.036 208.258H388.052V205.346H399.412L397.492 206.21C397.492 205.314 397.311 204.535 396.948 203.874C396.585 203.213 396.084 202.701 395.444 202.338C394.804 201.954 394.057 201.762 393.204 201.762C392.351 201.762 391.593 201.954 390.932 202.338C390.292 202.701 389.791 203.223 389.428 203.906C389.065 204.567 388.884 205.357 388.884 206.274V207.042C388.884 207.981 389.087 208.813 389.492 209.538C389.919 210.242 390.505 210.786 391.252 211.17C392.02 211.533 392.916 211.714 393.94 211.714C394.857 211.714 395.657 211.575 396.34 211.298C397.044 211.021 397.684 210.605 398.26 210.05L400.916 212.93C400.127 213.826 399.135 214.519 397.94 215.01C396.745 215.479 395.369 215.714 393.812 215.714ZM407.319 221.922C406.423 221.922 405.538 221.783 404.663 221.506C403.788 221.229 403.074 220.845 402.519 220.354L404.343 216.802C404.727 217.143 405.164 217.41 405.655 217.602C406.167 217.794 406.668 217.89 407.159 217.89C407.863 217.89 408.418 217.719 408.823 217.378C409.25 217.058 409.634 216.514 409.975 215.746L410.871 213.634L411.255 213.09L417.431 198.242H422.231L414.455 216.514C413.9 217.901 413.26 218.989 412.535 219.778C411.831 220.567 411.042 221.122 410.167 221.442C409.314 221.762 408.364 221.922 407.319 221.922ZM410.263 216.13L402.583 198.242H407.735L413.687 212.642L410.263 216.13ZM431.991 215.714C430.156 215.714 428.524 215.33 427.095 214.562C425.687 213.794 424.567 212.749 423.735 211.426C422.924 210.082 422.519 208.557 422.519 206.85C422.519 205.122 422.924 203.597 423.735 202.274C424.567 200.93 425.687 199.885 427.095 199.138C428.524 198.37 430.156 197.986 431.991 197.986C433.804 197.986 435.426 198.37 436.855 199.138C438.284 199.885 439.404 200.919 440.215 202.242C441.026 203.565 441.431 205.101 441.431 206.85C441.431 208.557 441.026 210.082 440.215 211.426C439.404 212.749 438.284 213.794 436.855 214.562C435.426 215.33 433.804 215.714 431.991 215.714ZM431.991 211.618C432.823 211.618 433.57 211.426 434.231 211.042C434.892 210.658 435.415 210.114 435.799 209.41C436.183 208.685 436.375 207.831 436.375 206.85C436.375 205.847 436.183 204.994 435.799 204.29C435.415 203.586 434.892 203.042 434.231 202.658C433.57 202.274 432.823 202.082 431.991 202.082C431.159 202.082 430.412 202.274 429.751 202.658C429.09 203.042 428.556 203.586 428.151 204.29C427.767 204.994 427.575 205.847 427.575 206.85C427.575 207.831 427.767 208.685 428.151 209.41C428.556 210.114 429.09 210.658 429.751 211.042C430.412 211.426 431.159 211.618 431.991 211.618ZM455.232 197.986C456.597 197.986 457.813 198.263 458.88 198.818C459.968 199.351 460.821 200.183 461.44 201.314C462.059 202.423 462.368 203.853 462.368 205.602V215.458H457.376V206.37C457.376 204.983 457.067 203.959 456.448 203.298C455.851 202.637 454.997 202.306 453.888 202.306C453.099 202.306 452.384 202.477 451.744 202.818C451.125 203.138 450.635 203.639 450.272 204.322C449.931 205.005 449.76 205.879 449.76 206.946V215.458H444.768V198.242H449.536V203.01L448.64 201.57C449.259 200.418 450.144 199.533 451.296 198.914C452.448 198.295 453.76 197.986 455.232 197.986ZM474.41 215.714C472.789 215.714 471.327 215.351 470.026 214.626C468.725 213.879 467.69 212.845 466.922 211.522C466.175 210.199 465.802 208.642 465.802 206.85C465.802 205.037 466.175 203.469 466.922 202.146C467.69 200.823 468.725 199.799 470.026 199.074C471.327 198.349 472.789 197.986 474.41 197.986C475.861 197.986 477.13 198.306 478.218 198.946C479.306 199.586 480.149 200.557 480.746 201.858C481.343 203.159 481.642 204.823 481.642 206.85C481.642 208.855 481.354 210.519 480.778 211.842C480.202 213.143 479.37 214.114 478.282 214.754C477.215 215.394 475.925 215.714 474.41 215.714ZM475.274 211.618C476.085 211.618 476.821 211.426 477.482 211.042C478.143 210.658 478.666 210.114 479.05 209.41C479.455 208.685 479.658 207.831 479.658 206.85C479.658 205.847 479.455 204.994 479.05 204.29C478.666 203.586 478.143 203.042 477.482 202.658C476.821 202.274 476.085 202.082 475.274 202.082C474.442 202.082 473.695 202.274 473.034 202.658C472.373 203.042 471.839 203.586 471.434 204.29C471.05 204.994 470.858 205.847 470.858 206.85C470.858 207.831 471.05 208.685 471.434 209.41C471.839 210.114 472.373 210.658 473.034 211.042C473.695 211.426 474.442 211.618 475.274 211.618ZM479.786 215.458V211.938L479.882 206.818L479.562 201.73V191.714H484.554V215.458H479.786ZM359.292 254.458V232.058H370.236C373.052 232.058 375.164 232.591 376.572 233.658C378.001 234.725 378.716 236.133 378.716 237.882C378.716 239.055 378.428 240.079 377.852 240.954C377.276 241.807 376.486 242.469 375.484 242.938C374.481 243.407 373.329 243.642 372.028 243.642L372.636 242.33C374.044 242.33 375.292 242.565 376.38 243.034C377.468 243.482 378.31 244.154 378.908 245.05C379.526 245.946 379.836 247.045 379.836 248.346C379.836 250.266 379.078 251.77 377.564 252.858C376.049 253.925 373.82 254.458 370.876 254.458H359.292ZM364.444 250.554H370.492C371.836 250.554 372.849 250.341 373.532 249.914C374.236 249.466 374.588 248.762 374.588 247.802C374.588 246.863 374.236 246.17 373.532 245.722C372.849 245.253 371.836 245.018 370.492 245.018H364.06V241.242H369.596C370.854 241.242 371.814 241.029 372.476 240.602C373.158 240.154 373.5 239.482 373.5 238.586C373.5 237.711 373.158 237.061 372.476 236.634C371.814 236.186 370.854 235.962 369.596 235.962H364.444V250.554ZM391.6 254.714C389.766 254.714 388.134 254.33 386.704 253.562C385.296 252.794 384.176 251.749 383.344 250.426C382.534 249.082 382.128 247.557 382.128 245.85C382.128 244.122 382.534 242.597 383.344 241.274C384.176 239.93 385.296 238.885 386.704 238.138C388.134 237.37 389.766 236.986 391.6 236.986C393.414 236.986 395.035 237.37 396.464 238.138C397.894 238.885 399.014 239.919 399.824 241.242C400.635 242.565 401.04 244.101 401.04 245.85C401.04 247.557 400.635 249.082 399.824 250.426C399.014 251.749 397.894 252.794 396.464 253.562C395.035 254.33 393.414 254.714 391.6 254.714ZM391.6 250.618C392.432 250.618 393.179 250.426 393.84 250.042C394.502 249.658 395.024 249.114 395.408 248.41C395.792 247.685 395.984 246.831 395.984 245.85C395.984 244.847 395.792 243.994 395.408 243.29C395.024 242.586 394.502 242.042 393.84 241.658C393.179 241.274 392.432 241.082 391.6 241.082C390.768 241.082 390.022 241.274 389.36 241.658C388.699 242.042 388.166 242.586 387.76 243.29C387.376 243.994 387.184 244.847 387.184 245.85C387.184 246.831 387.376 247.685 387.76 248.41C388.166 249.114 388.699 249.658 389.36 250.042C390.022 250.426 390.768 250.618 391.6 250.618ZM404.377 254.458V237.242H409.145V242.106L408.473 240.698C408.985 239.482 409.807 238.565 410.937 237.946C412.068 237.306 413.444 236.986 415.065 236.986V241.594C414.852 241.573 414.66 241.562 414.489 241.562C414.319 241.541 414.137 241.53 413.945 241.53C412.58 241.53 411.471 241.925 410.617 242.714C409.785 243.482 409.369 244.687 409.369 246.33V254.458H404.377ZM425.3 254.714C423.679 254.714 422.218 254.351 420.916 253.626C419.615 252.879 418.58 251.845 417.812 250.522C417.066 249.199 416.692 247.642 416.692 245.85C416.692 244.037 417.066 242.469 417.812 241.146C418.58 239.823 419.615 238.799 420.916 238.074C422.218 237.349 423.679 236.986 425.3 236.986C426.751 236.986 428.02 237.306 429.108 237.946C430.196 238.586 431.039 239.557 431.636 240.858C432.234 242.159 432.532 243.823 432.532 245.85C432.532 247.855 432.244 249.519 431.668 250.842C431.092 252.143 430.26 253.114 429.172 253.754C428.106 254.394 426.815 254.714 425.3 254.714ZM426.164 250.618C426.975 250.618 427.711 250.426 428.372 250.042C429.034 249.658 429.556 249.114 429.94 248.41C430.346 247.685 430.548 246.831 430.548 245.85C430.548 244.847 430.346 243.994 429.94 243.29C429.556 242.586 429.034 242.042 428.372 241.658C427.711 241.274 426.975 241.082 426.164 241.082C425.332 241.082 424.586 241.274 423.924 241.658C423.263 242.042 422.73 242.586 422.324 243.29C421.94 243.994 421.748 244.847 421.748 245.85C421.748 246.831 421.94 247.685 422.324 248.41C422.73 249.114 423.263 249.658 423.924 250.042C424.586 250.426 425.332 250.618 426.164 250.618ZM430.676 254.458V250.938L430.772 245.818L430.452 240.73V230.714H435.444V254.458H430.676ZM448.609 254.714C446.646 254.714 444.918 254.33 443.425 253.562C441.953 252.794 440.811 251.749 440.001 250.426C439.19 249.082 438.785 247.557 438.785 245.85C438.785 244.122 439.179 242.597 439.969 241.274C440.779 239.93 441.878 238.885 443.265 238.138C444.651 237.37 446.219 236.986 447.969 236.986C449.654 236.986 451.169 237.349 452.513 238.074C453.878 238.778 454.955 239.802 455.745 241.146C456.534 242.469 456.929 244.058 456.929 245.914C456.929 246.106 456.918 246.33 456.897 246.586C456.875 246.821 456.854 247.045 456.833 247.258H442.849V244.346H454.209L452.289 245.21C452.289 244.314 452.107 243.535 451.745 242.874C451.382 242.213 450.881 241.701 450.241 241.338C449.601 240.954 448.854 240.762 448.001 240.762C447.147 240.762 446.39 240.954 445.729 241.338C445.089 241.701 444.587 242.223 444.225 242.906C443.862 243.567 443.681 244.357 443.681 245.274V246.042C443.681 246.981 443.883 247.813 444.289 248.538C444.715 249.242 445.302 249.786 446.049 250.17C446.817 250.533 447.713 250.714 448.737 250.714C449.654 250.714 450.454 250.575 451.137 250.298C451.841 250.021 452.481 249.605 453.057 249.05L455.713 251.93C454.923 252.826 453.931 253.519 452.737 254.01C451.542 254.479 450.166 254.714 448.609 254.714ZM460.252 254.458V237.242H465.02V242.106L464.348 240.698C464.86 239.482 465.682 238.565 466.812 237.946C467.943 237.306 469.319 236.986 470.94 236.986V241.594C470.727 241.573 470.535 241.562 470.364 241.562C470.194 241.541 470.012 241.53 469.82 241.53C468.455 241.53 467.346 241.925 466.492 242.714C465.66 243.482 465.244 244.687 465.244 246.33V254.458H460.252ZM479.825 254.714C478.353 254.714 476.935 254.543 475.569 254.202C474.225 253.839 473.159 253.391 472.369 252.858L474.033 249.274C474.823 249.765 475.751 250.17 476.817 250.49C477.905 250.789 478.972 250.938 480.017 250.938C481.169 250.938 481.98 250.799 482.449 250.522C482.94 250.245 483.185 249.861 483.185 249.37C483.185 248.965 482.993 248.666 482.609 248.474C482.247 248.261 481.756 248.101 481.137 247.994C480.519 247.887 479.836 247.781 479.089 247.674C478.364 247.567 477.628 247.429 476.881 247.258C476.135 247.066 475.452 246.789 474.833 246.426C474.215 246.063 473.713 245.573 473.329 244.954C472.967 244.335 472.785 243.535 472.785 242.554C472.785 241.466 473.095 240.506 473.713 239.674C474.353 238.842 475.271 238.191 476.465 237.722C477.66 237.231 479.089 236.986 480.753 236.986C481.927 236.986 483.121 237.114 484.337 237.37C485.553 237.626 486.567 237.999 487.377 238.49L485.713 242.042C484.881 241.551 484.039 241.221 483.185 241.05C482.353 240.858 481.543 240.762 480.753 240.762C479.644 240.762 478.833 240.911 478.321 241.21C477.809 241.509 477.553 241.893 477.553 242.362C477.553 242.789 477.735 243.109 478.097 243.322C478.481 243.535 478.983 243.706 479.601 243.834C480.22 243.962 480.892 244.079 481.617 244.186C482.364 244.271 483.111 244.41 483.857 244.602C484.604 244.794 485.276 245.071 485.873 245.434C486.492 245.775 486.993 246.255 487.377 246.874C487.761 247.471 487.953 248.261 487.953 249.242C487.953 250.309 487.633 251.258 486.993 252.09C486.353 252.901 485.425 253.541 484.209 254.01C483.015 254.479 481.553 254.714 479.825 254.714Z" fill="#6F00CD"/>
</svg>
